%TF.GenerationSoftware,KiCad,Pcbnew,(6.0.0)*%
%TF.CreationDate,2022-01-03T17:45:39+09:00*%
%TF.ProjectId,MACRO-PAD,4d414352-4f2d-4504-9144-2e6b69636164,v0.2*%
%TF.SameCoordinates,Original*%
%TF.FileFunction,Legend,Top*%
%TF.FilePolarity,Positive*%
%FSLAX46Y46*%
G04 Gerber Fmt 4.6, Leading zero omitted, Abs format (unit mm)*
G04 Created by KiCad (PCBNEW (6.0.0)) date 2022-01-03 17:45:39*
%MOMM*%
%LPD*%
G01*
G04 APERTURE LIST*
%ADD10C,0.254000*%
%ADD11C,0.150000*%
%ADD12C,0.100000*%
%ADD13C,0.200000*%
G04 APERTURE END LIST*
D10*
%TO.C,U8*%
X156514523Y-85770419D02*
X157542619Y-85770419D01*
X157663571Y-85709942D01*
X157724047Y-85649466D01*
X157784523Y-85528514D01*
X157784523Y-85286609D01*
X157724047Y-85165657D01*
X157663571Y-85105180D01*
X157542619Y-85044704D01*
X156514523Y-85044704D01*
X157058809Y-84258514D02*
X156998333Y-84379466D01*
X156937857Y-84439942D01*
X156816904Y-84500419D01*
X156756428Y-84500419D01*
X156635476Y-84439942D01*
X156575000Y-84379466D01*
X156514523Y-84258514D01*
X156514523Y-84016609D01*
X156575000Y-83895657D01*
X156635476Y-83835180D01*
X156756428Y-83774704D01*
X156816904Y-83774704D01*
X156937857Y-83835180D01*
X156998333Y-83895657D01*
X157058809Y-84016609D01*
X157058809Y-84258514D01*
X157119285Y-84379466D01*
X157179761Y-84439942D01*
X157300714Y-84500419D01*
X157542619Y-84500419D01*
X157663571Y-84439942D01*
X157724047Y-84379466D01*
X157784523Y-84258514D01*
X157784523Y-84016609D01*
X157724047Y-83895657D01*
X157663571Y-83835180D01*
X157542619Y-83774704D01*
X157300714Y-83774704D01*
X157179761Y-83835180D01*
X157119285Y-83895657D01*
X157058809Y-84016609D01*
D11*
%TO.C,U7*%
X163060000Y-119005800D02*
X164060000Y-119005800D01*
X164060000Y-118005800D02*
X164060000Y-119005800D01*
X150060000Y-119005800D02*
X150060000Y-118005800D01*
X164060000Y-105005800D02*
X164060000Y-106005800D01*
X150060000Y-106005800D02*
X150060000Y-105005800D01*
X151060000Y-105005800D02*
X150060000Y-105005800D01*
X150060000Y-119005800D02*
X151060000Y-119005800D01*
X164060000Y-105005800D02*
X163060000Y-105005800D01*
%TO.C,U3*%
X144060000Y-92005800D02*
X145060000Y-92005800D01*
X145060000Y-91005800D02*
X145060000Y-92005800D01*
X131060000Y-92005800D02*
X131060000Y-91005800D01*
X145060000Y-78005800D02*
X145060000Y-79005800D01*
X131060000Y-79005800D02*
X131060000Y-78005800D01*
X132060000Y-78005800D02*
X131060000Y-78005800D01*
X131060000Y-92005800D02*
X132060000Y-92005800D01*
X145060000Y-78005800D02*
X144060000Y-78005800D01*
%TO.C,U4*%
X106060000Y-119005800D02*
X107060000Y-119005800D01*
X107060000Y-118005800D02*
X107060000Y-119005800D01*
X93060000Y-119005800D02*
X93060000Y-118005800D01*
X107060000Y-105005800D02*
X107060000Y-106005800D01*
X93060000Y-106005800D02*
X93060000Y-105005800D01*
X94060000Y-105005800D02*
X93060000Y-105005800D01*
X93060000Y-119005800D02*
X94060000Y-119005800D01*
X107060000Y-105005800D02*
X106060000Y-105005800D01*
%TO.C,U6*%
X144060000Y-119005800D02*
X145060000Y-119005800D01*
X145060000Y-118005800D02*
X145060000Y-119005800D01*
X131060000Y-119005800D02*
X131060000Y-118005800D01*
X145060000Y-105005800D02*
X145060000Y-106005800D01*
X131060000Y-106005800D02*
X131060000Y-105005800D01*
X132060000Y-105005800D02*
X131060000Y-105005800D01*
X131060000Y-119005800D02*
X132060000Y-119005800D01*
X145060000Y-105005800D02*
X144060000Y-105005800D01*
D12*
%TO.C,U8*%
X160060000Y-78602800D02*
X160060000Y-78602800D01*
X160060000Y-78602800D02*
X163760000Y-78602800D01*
X163760000Y-78602800D02*
X163760000Y-78602800D01*
X163760000Y-78602800D02*
X160060000Y-78602800D01*
X163760000Y-78602800D02*
X163760000Y-81052800D01*
X163760000Y-81052800D02*
X163760000Y-81052800D01*
X163760000Y-81052800D02*
X163760000Y-78602800D01*
X163760000Y-78602800D02*
X163760000Y-78602800D01*
X163760000Y-83552800D02*
X163760000Y-86052800D01*
X163760000Y-86052800D02*
X163760000Y-86052800D01*
X163760000Y-86052800D02*
X163760000Y-83552800D01*
X163760000Y-83552800D02*
X163760000Y-83552800D01*
X163760000Y-88552800D02*
X163760000Y-91002800D01*
X163760000Y-91002800D02*
X163760000Y-91002800D01*
X163760000Y-91002800D02*
X163760000Y-88552800D01*
X163760000Y-88552800D02*
X163760000Y-88552800D01*
X163760000Y-91002800D02*
X163760000Y-91002800D01*
X163760000Y-91002800D02*
X160060000Y-91002800D01*
X160060000Y-91002800D02*
X160060000Y-91002800D01*
X160060000Y-91002800D02*
X163760000Y-91002800D01*
X154060000Y-91002800D02*
X154060000Y-91002800D01*
X154060000Y-91002800D02*
X150360000Y-91002800D01*
X150360000Y-91002800D02*
X150360000Y-91002800D01*
X150360000Y-91002800D02*
X154060000Y-91002800D01*
X150360000Y-91002800D02*
X150360000Y-88552800D01*
X150360000Y-88552800D02*
X150360000Y-88552800D01*
X150360000Y-88552800D02*
X150360000Y-91002800D01*
X150360000Y-91002800D02*
X150360000Y-91002800D01*
D13*
X165660000Y-82302800D02*
X165660000Y-82302800D01*
X165760000Y-82302800D02*
X165760000Y-82302800D01*
X165660000Y-82302800D02*
X165660000Y-82302800D01*
X165660000Y-82302800D02*
G75*
G03*
X165760000Y-82302800I50000J0D01*
G01*
X165760000Y-82302800D02*
G75*
G03*
X165660000Y-82302800I-50000J0D01*
G01*
X165660000Y-82302800D02*
G75*
G03*
X165760000Y-82302800I50000J0D01*
G01*
D11*
%TO.C,U2*%
X125060000Y-92005800D02*
X126060000Y-92005800D01*
X126060000Y-91005800D02*
X126060000Y-92005800D01*
X112060000Y-92005800D02*
X112060000Y-91005800D01*
X126060000Y-78005800D02*
X126060000Y-79005800D01*
X112060000Y-79005800D02*
X112060000Y-78005800D01*
X113060000Y-78005800D02*
X112060000Y-78005800D01*
X112060000Y-92005800D02*
X113060000Y-92005800D01*
X126060000Y-78005800D02*
X125060000Y-78005800D01*
%TO.C,U5*%
X125060000Y-119005800D02*
X126060000Y-119005800D01*
X126060000Y-118005800D02*
X126060000Y-119005800D01*
X112060000Y-119005800D02*
X112060000Y-118005800D01*
X126060000Y-105005800D02*
X126060000Y-106005800D01*
X112060000Y-106005800D02*
X112060000Y-105005800D01*
X113060000Y-105005800D02*
X112060000Y-105005800D01*
X112060000Y-119005800D02*
X113060000Y-119005800D01*
X126060000Y-105005800D02*
X125060000Y-105005800D01*
%TO.C,U1*%
X106060000Y-92005800D02*
X107060000Y-92005800D01*
X107060000Y-91005800D02*
X107060000Y-92005800D01*
X93060000Y-92005800D02*
X93060000Y-91005800D01*
X107060000Y-78005800D02*
X107060000Y-79005800D01*
X93060000Y-79005800D02*
X93060000Y-78005800D01*
X94060000Y-78005800D02*
X93060000Y-78005800D01*
X93060000Y-92005800D02*
X94060000Y-92005800D01*
X107060000Y-78005800D02*
X106060000Y-78005800D01*
%TD*%
M02*
