%TF.GenerationSoftware,KiCad,Pcbnew,(6.0.0)*%
%TF.CreationDate,2022-01-03T17:45:39+09:00*%
%TF.ProjectId,MACRO-PAD,4d414352-4f2d-4504-9144-2e6b69636164,v0.2*%
%TF.SameCoordinates,Original*%
%TF.FileFunction,Soldermask,Top*%
%TF.FilePolarity,Negative*%
%FSLAX46Y46*%
G04 Gerber Fmt 4.6, Leading zero omitted, Abs format (unit mm)*
G04 Created by KiCad (PCBNEW (6.0.0)) date 2022-01-03 17:45:39*
%MOMM*%
%LPD*%
G01*
G04 APERTURE LIST*
%ADD10C,1.700000*%
%ADD11C,1.701800*%
%ADD12C,3.000000*%
%ADD13C,3.987800*%
%ADD14C,1.800000*%
%ADD15C,5.161000*%
%ADD16O,1.700000X1.700000*%
%ADD17R,1.700000X1.700000*%
G04 APERTURE END LIST*
D10*
%TO.C,U9*%
X136180000Y-64465310D03*
X136180000Y-67005310D03*
X120940000Y-67005310D03*
X120940000Y-64465310D03*
X136180000Y-74625310D03*
X133640000Y-74625310D03*
X131100000Y-74625310D03*
X128560000Y-74625310D03*
X126020000Y-74625310D03*
X123480000Y-74625310D03*
X120940000Y-74625310D03*
%TD*%
D11*
%TO.C,U7*%
X151980000Y-112005800D03*
X162140000Y-112005800D03*
D12*
X153250000Y-109465800D03*
D13*
X157060000Y-112005800D03*
D12*
X159600000Y-106925800D03*
%TD*%
D11*
%TO.C,U3*%
X132980000Y-85005800D03*
X143140000Y-85005800D03*
D12*
X134250000Y-82465800D03*
D13*
X138060000Y-85005800D03*
D12*
X140600000Y-79925800D03*
%TD*%
D11*
%TO.C,U4*%
X94980000Y-112005800D03*
X105140000Y-112005800D03*
D12*
X96250000Y-109465800D03*
D13*
X100060000Y-112005800D03*
D12*
X102600000Y-106925800D03*
%TD*%
D11*
%TO.C,U6*%
X132980000Y-112005800D03*
X143140000Y-112005800D03*
D12*
X134250000Y-109465800D03*
D13*
X138060000Y-112005800D03*
D12*
X140600000Y-106925800D03*
%TD*%
D14*
%TO.C,U8*%
X164060000Y-82302800D03*
X164060000Y-87302800D03*
X149560000Y-82302800D03*
X149560000Y-87302800D03*
X149560000Y-84802800D03*
D15*
X157060000Y-79202800D03*
X157060000Y-90402800D03*
%TD*%
D11*
%TO.C,U2*%
X113980000Y-85005800D03*
X124140000Y-85005800D03*
D12*
X115250000Y-82465800D03*
D13*
X119060000Y-85005800D03*
D12*
X121600000Y-79925800D03*
%TD*%
D11*
%TO.C,U5*%
X113980000Y-112005800D03*
X124140000Y-112005800D03*
D12*
X115250000Y-109465800D03*
D13*
X119060000Y-112005800D03*
D12*
X121600000Y-106925800D03*
%TD*%
D11*
%TO.C,U1*%
X94980000Y-85005800D03*
X105140000Y-85005800D03*
D12*
X96250000Y-82465800D03*
D13*
X100060000Y-85005800D03*
D12*
X102600000Y-79925800D03*
%TD*%
D16*
%TO.C,J1*%
X152690000Y-121192800D03*
X150150000Y-121192800D03*
D17*
X147610000Y-121192800D03*
D16*
X145070000Y-121192800D03*
X142530000Y-121192800D03*
X139990000Y-121192800D03*
X137450000Y-121192800D03*
D17*
X134910000Y-121192800D03*
D16*
X132370000Y-121192800D03*
X129830000Y-121192800D03*
X127290000Y-121192800D03*
X124750000Y-121192800D03*
D17*
X122210000Y-121192800D03*
D16*
X119670000Y-121192800D03*
X117130000Y-121192800D03*
X114590000Y-121192800D03*
X112050000Y-121192800D03*
D17*
X109510000Y-121192800D03*
D16*
X106970000Y-121192800D03*
X104430000Y-121192800D03*
X104430000Y-103412800D03*
X106970000Y-103412800D03*
D17*
X109510000Y-103412800D03*
D16*
X112050000Y-103412800D03*
X114590000Y-103412800D03*
X117130000Y-103412800D03*
X119670000Y-103412800D03*
D17*
X122210000Y-103412800D03*
D16*
X124750000Y-103412800D03*
X127290000Y-103412800D03*
X129830000Y-103412800D03*
X132370000Y-103412800D03*
D17*
X134910000Y-103412800D03*
D16*
X137450000Y-103412800D03*
X139990000Y-103412800D03*
X142530000Y-103412800D03*
X145070000Y-103412800D03*
D17*
X147610000Y-103412800D03*
D16*
X150150000Y-103412800D03*
X152690000Y-103412800D03*
%TD*%
M02*
