M48
; DRILL file {KiCad (6.0.0)} date Mon Jan  3 17:45:41 2022
; FORMAT={-:-/ absolute / inch / decimal}
; #@! TF.CreationDate,2022-01-03T17:45:41+09:00
; #@! TF.GenerationSoftware,Kicad,Pcbnew,(6.0.0)
; #@! TF.FileFunction,Plated,1,2,PTH
FMAT,2
INCH
; #@! TA.AperFunction,Plated,PTH,ViaDrill
T1C0.0157
; #@! TA.AperFunction,Plated,PTH,ComponentDrill
T2C0.0394
; #@! TA.AperFunction,Plated,PTH,ComponentDrill
T3C0.0402
; #@! TA.AperFunction,Plated,PTH,ComponentDrill
T4C0.0472
; #@! TA.AperFunction,Plated,PTH,ComponentDrill
T5C0.1355
%
G90
G05
T1
X3.622Y-3.5354
X3.7598Y-4.6728
X3.7726Y-4.5656
X3.828Y-4.6729
X3.9695Y-2.4764
X3.9695Y-2.6732
X4.0709Y-5.0591
X4.0709Y-5.2559
X4.0978Y-3.5071
X4.1663Y-2.4764
X4.1663Y-2.6732
X4.1864Y-4.283
X4.2177Y-4.6224
X4.2677Y-5.0591
X4.2677Y-5.2559
X4.3632Y-2.4764
X4.3632Y-2.6732
X4.4055Y-3.8386
X4.4646Y-5.0591
X4.4646Y-5.2559
X4.56Y-2.4764
X4.56Y-2.6732
X4.5819Y-4.5071
X4.6024Y-3.8386
X4.6614Y-5.0591
X4.6614Y-5.2559
X4.7748Y-4.7061
X4.7992Y-3.8386
X4.8583Y-5.0591
X4.8583Y-5.2559
X4.8765Y-4.6242
X4.935Y-4.3098
X4.9386Y-3.248
X4.9425Y-4.5689
X4.9429Y-4.4972
X4.9815Y-3.6354
X4.9961Y-3.8386
X5.0272Y-4.2375
X5.0551Y-5.0591
X5.0551Y-5.2559
X5.1929Y-3.8386
X5.252Y-5.0591
X5.252Y-5.2559
X5.2778Y-4.6174
X5.3898Y-3.8386
X5.4488Y-5.0591
X5.4488Y-5.2559
X5.5335Y-3.4476
X5.5709Y-2.4764
X5.5709Y-2.6732
X5.6457Y-5.0591
X5.6457Y-5.2559
X5.7677Y-2.4764
X5.7677Y-2.6732
X5.8071Y-3.0512
X5.8071Y-3.1929
X5.8425Y-5.0591
X5.8425Y-5.2559
X5.9646Y-2.4764
X5.9646Y-2.6732
X6.0Y-4.522
X6.0394Y-5.0591
X6.0394Y-5.2559
X6.1614Y-2.4764
X6.1614Y-2.6732
X6.3421Y-4.5652
T2
X4.7614Y-2.538
X4.7614Y-2.638
X4.7614Y-2.938
X4.8614Y-2.938
X4.9614Y-2.938
X5.0614Y-2.938
X5.1614Y-2.938
X5.2614Y-2.938
X5.3614Y-2.538
X5.3614Y-2.638
X5.3614Y-2.938
T3
X4.1114Y-4.0714
X4.1114Y-4.7714
X4.2114Y-4.0714
X4.2114Y-4.7714
X4.3114Y-4.0714
X4.3114Y-4.7714
X4.4114Y-4.0714
X4.4114Y-4.7714
X4.5114Y-4.0714
X4.5114Y-4.7714
X4.6114Y-4.0714
X4.6114Y-4.7714
X4.7114Y-4.0714
X4.7114Y-4.7714
X4.8114Y-4.0714
X4.8114Y-4.7714
X4.9114Y-4.0714
X4.9114Y-4.7714
X5.0114Y-4.0714
X5.0114Y-4.7714
X5.1114Y-4.0714
X5.1114Y-4.7714
X5.2114Y-4.0714
X5.2114Y-4.7714
X5.3114Y-4.0714
X5.3114Y-4.7714
X5.4114Y-4.0714
X5.4114Y-4.7714
X5.5114Y-4.0714
X5.5114Y-4.7714
X5.6114Y-4.0714
X5.6114Y-4.7714
X5.7114Y-4.0714
X5.7114Y-4.7714
X5.8114Y-4.0714
X5.8114Y-4.7714
X5.9114Y-4.0714
X5.9114Y-4.7714
X6.0114Y-4.0714
X6.0114Y-4.7714
T4
X5.8882Y-3.2403
X5.8882Y-3.3387
X5.8882Y-3.4371
X6.4591Y-3.2403
X6.4591Y-3.4371
T5
X6.1835Y-3.1182
X6.1835Y-3.5592
T0
M30
