M48
; DRILL file {KiCad (6.0.0)} date Mon Jan  3 17:45:41 2022
; FORMAT={-:-/ absolute / inch / decimal}
; #@! TF.CreationDate,2022-01-03T17:45:41+09:00
; #@! TF.GenerationSoftware,Kicad,Pcbnew,(6.0.0)
; #@! TF.FileFunction,NonPlated,1,2,NPTH
FMAT,2
INCH
; #@! TA.AperFunction,NonPlated,NPTH,ComponentDrill
T1C0.0670
; #@! TA.AperFunction,NonPlated,NPTH,ComponentDrill
T2C0.1181
; #@! TA.AperFunction,NonPlated,NPTH,ComponentDrill
T3C0.1570
%
G90
G05
T1
X3.7394Y-3.3467
X3.7394Y-4.4097
X4.1394Y-3.3467
X4.1394Y-4.4097
X4.4874Y-3.3467
X4.4874Y-4.4097
X4.8874Y-3.3467
X4.8874Y-4.4097
X5.2354Y-3.3467
X5.2354Y-4.4097
X5.6354Y-3.3467
X5.6354Y-4.4097
X5.9835Y-4.4097
X6.3835Y-4.4097
T2
X3.7894Y-3.2467
X3.7894Y-4.3097
X4.0394Y-3.1467
X4.0394Y-4.2097
X4.5374Y-3.2467
X4.5374Y-4.3097
X4.7874Y-3.1467
X4.7874Y-4.2097
X5.2854Y-3.2467
X5.2854Y-4.3097
X5.5354Y-3.1467
X5.5354Y-4.2097
X6.0335Y-4.3097
X6.2835Y-4.2097
T3
X3.9394Y-3.3467
X3.9394Y-4.4097
X4.6874Y-3.3467
X4.6874Y-4.4097
X5.4354Y-3.3467
X5.4354Y-4.4097
X6.1835Y-4.4097
T0
M30
