M48
; DRILL file {KiCad (5.1.10)-1} date 12/07/21 13:13:37
; FORMAT={-:-/ absolute / inch / decimal}
; #@! TF.CreationDate,2021-12-07T13:13:37+09:00
; #@! TF.GenerationSoftware,Kicad,Pcbnew,(5.1.10)-1
; #@! TF.FileFunction,Plated,1,2,PTH
FMAT,2
INCH
T1C0.0157
T2C0.0394
T3C0.0402
T4C0.0472
T5C0.1355
%
G90
G05
T1
X2.4006Y-4.0561
X2.5367Y-4.4325
X3.1574Y-3.8986
X3.166Y-4.0658
X3.3089Y-4.9561
X3.6439Y-4.576
X3.6511Y-4.0793
X3.6929Y-4.9525
X3.9653Y-3.9594
X4.3031Y-5.0668
X4.5223Y-4.7295
X4.6941Y-4.1839
T2
X3.133Y-2.8568
X3.133Y-2.9568
X3.133Y-3.3238
X3.233Y-3.3238
X3.333Y-3.3238
X3.433Y-3.3238
X3.533Y-3.3238
X3.633Y-3.3238
X3.733Y-2.8568
X3.733Y-2.9568
X3.733Y-3.3238
T3
X2.483Y-4.5083
X2.483Y-5.2083
X2.583Y-4.5083
X2.583Y-5.2083
X2.683Y-4.5083
X2.683Y-5.2083
X2.783Y-4.5083
X2.783Y-5.2083
X2.883Y-4.5083
X2.883Y-5.2083
X2.983Y-4.5083
X2.983Y-5.2083
X3.083Y-4.5083
X3.083Y-5.2083
X3.183Y-4.5083
X3.183Y-5.2083
X3.283Y-4.5083
X3.283Y-5.2083
X3.383Y-4.5083
X3.383Y-5.2083
X3.483Y-4.5083
X3.483Y-5.2083
X3.583Y-4.5083
X3.583Y-5.2083
X3.683Y-4.5083
X3.683Y-5.2083
X3.783Y-4.5083
X3.783Y-5.2083
X3.883Y-4.5083
X3.883Y-5.2083
X3.983Y-4.5083
X3.983Y-5.2083
X4.083Y-4.5083
X4.083Y-5.2083
X4.183Y-4.5083
X4.183Y-5.2083
X4.283Y-4.5083
X4.283Y-5.2083
X4.383Y-4.5083
X4.383Y-5.2083
T4
X4.1969Y-3.6772
X4.1969Y-3.7756
X4.1969Y-3.874
X4.7677Y-3.6772
X4.7677Y-3.874
T5
X4.4921Y-3.5551
X4.4921Y-3.9961
T0
M30
