%TF.GenerationSoftware,KiCad,Pcbnew,(5.1.10)-1*%
%TF.CreationDate,2021-12-07T13:13:35+09:00*%
%TF.ProjectId,MACRO-PAD-v0.1,4d414352-4f2d-4504-9144-2d76302e312e,rev?*%
%TF.SameCoordinates,Original*%
%TF.FileFunction,Legend,Top*%
%TF.FilePolarity,Positive*%
%FSLAX46Y46*%
G04 Gerber Fmt 4.6, Leading zero omitted, Abs format (unit mm)*
G04 Created by KiCad (PCBNEW (5.1.10)-1) date 2021-12-07 13:13:35*
%MOMM*%
%LPD*%
G01*
G04 APERTURE LIST*
%ADD10C,0.100000*%
%ADD11C,0.200000*%
%ADD12C,0.150000*%
%ADD13C,0.254000*%
G04 APERTURE END LIST*
D10*
%TO.C,U8*%
X117100000Y-89700000D02*
X117100000Y-89700000D01*
X117100000Y-89700000D02*
X120800000Y-89700000D01*
X120800000Y-89700000D02*
X120800000Y-89700000D01*
X120800000Y-89700000D02*
X117100000Y-89700000D01*
X120800000Y-89700000D02*
X120800000Y-92150000D01*
X120800000Y-92150000D02*
X120800000Y-92150000D01*
X120800000Y-92150000D02*
X120800000Y-89700000D01*
X120800000Y-89700000D02*
X120800000Y-89700000D01*
X120800000Y-94650000D02*
X120800000Y-97150000D01*
X120800000Y-97150000D02*
X120800000Y-97150000D01*
X120800000Y-97150000D02*
X120800000Y-94650000D01*
X120800000Y-94650000D02*
X120800000Y-94650000D01*
X120800000Y-99650000D02*
X120800000Y-102100000D01*
X120800000Y-102100000D02*
X120800000Y-102100000D01*
X120800000Y-102100000D02*
X120800000Y-99650000D01*
X120800000Y-99650000D02*
X120800000Y-99650000D01*
X120800000Y-102100000D02*
X120800000Y-102100000D01*
X120800000Y-102100000D02*
X117100000Y-102100000D01*
X117100000Y-102100000D02*
X117100000Y-102100000D01*
X117100000Y-102100000D02*
X120800000Y-102100000D01*
X111100000Y-102100000D02*
X111100000Y-102100000D01*
X111100000Y-102100000D02*
X107400000Y-102100000D01*
X107400000Y-102100000D02*
X107400000Y-102100000D01*
X107400000Y-102100000D02*
X111100000Y-102100000D01*
X107400000Y-102100000D02*
X107400000Y-99650000D01*
X107400000Y-99650000D02*
X107400000Y-99650000D01*
X107400000Y-99650000D02*
X107400000Y-102100000D01*
X107400000Y-102100000D02*
X107400000Y-102100000D01*
D11*
X122700000Y-93400000D02*
X122700000Y-93400000D01*
X122800000Y-93400000D02*
X122800000Y-93400000D01*
X122700000Y-93400000D02*
X122700000Y-93400000D01*
X122800000Y-93400000D02*
G75*
G02*
X122700000Y-93400000I-50000J0D01*
G01*
X122700000Y-93400000D02*
G75*
G02*
X122800000Y-93400000I50000J0D01*
G01*
X122800000Y-93400000D02*
G75*
G02*
X122700000Y-93400000I-50000J0D01*
G01*
D12*
%TO.C,U7*%
X108697000Y-117103000D02*
X108697000Y-116103000D01*
X108697000Y-130103000D02*
X109697000Y-130103000D01*
X109697000Y-116103000D02*
X108697000Y-116103000D01*
X108697000Y-130103000D02*
X108697000Y-129103000D01*
X122697000Y-129103000D02*
X122697000Y-130103000D01*
X122697000Y-116103000D02*
X121697000Y-116103000D01*
X121697000Y-130103000D02*
X122697000Y-130103000D01*
X122697000Y-116103000D02*
X122697000Y-117103000D01*
%TO.C,U6*%
X89697000Y-117103000D02*
X89697000Y-116103000D01*
X89697000Y-130103000D02*
X90697000Y-130103000D01*
X90697000Y-116103000D02*
X89697000Y-116103000D01*
X89697000Y-130103000D02*
X89697000Y-129103000D01*
X103697000Y-129103000D02*
X103697000Y-130103000D01*
X103697000Y-116103000D02*
X102697000Y-116103000D01*
X102697000Y-130103000D02*
X103697000Y-130103000D01*
X103697000Y-116103000D02*
X103697000Y-117103000D01*
%TO.C,U5*%
X70697000Y-117103000D02*
X70697000Y-116103000D01*
X70697000Y-130103000D02*
X71697000Y-130103000D01*
X71697000Y-116103000D02*
X70697000Y-116103000D01*
X70697000Y-130103000D02*
X70697000Y-129103000D01*
X84697000Y-129103000D02*
X84697000Y-130103000D01*
X84697000Y-116103000D02*
X83697000Y-116103000D01*
X83697000Y-130103000D02*
X84697000Y-130103000D01*
X84697000Y-116103000D02*
X84697000Y-117103000D01*
%TO.C,U4*%
X51697000Y-117103000D02*
X51697000Y-116103000D01*
X51697000Y-130103000D02*
X52697000Y-130103000D01*
X52697000Y-116103000D02*
X51697000Y-116103000D01*
X51697000Y-130103000D02*
X51697000Y-129103000D01*
X65697000Y-129103000D02*
X65697000Y-130103000D01*
X65697000Y-116103000D02*
X64697000Y-116103000D01*
X64697000Y-130103000D02*
X65697000Y-130103000D01*
X65697000Y-116103000D02*
X65697000Y-117103000D01*
%TO.C,U3*%
X89697000Y-90103000D02*
X89697000Y-89103000D01*
X89697000Y-103103000D02*
X90697000Y-103103000D01*
X90697000Y-89103000D02*
X89697000Y-89103000D01*
X89697000Y-103103000D02*
X89697000Y-102103000D01*
X103697000Y-102103000D02*
X103697000Y-103103000D01*
X103697000Y-89103000D02*
X102697000Y-89103000D01*
X102697000Y-103103000D02*
X103697000Y-103103000D01*
X103697000Y-89103000D02*
X103697000Y-90103000D01*
%TO.C,U2*%
X70697000Y-90103000D02*
X70697000Y-89103000D01*
X70697000Y-103103000D02*
X71697000Y-103103000D01*
X71697000Y-89103000D02*
X70697000Y-89103000D01*
X70697000Y-103103000D02*
X70697000Y-102103000D01*
X84697000Y-102103000D02*
X84697000Y-103103000D01*
X84697000Y-89103000D02*
X83697000Y-89103000D01*
X83697000Y-103103000D02*
X84697000Y-103103000D01*
X84697000Y-89103000D02*
X84697000Y-90103000D01*
%TO.C,U1*%
X51697000Y-90103000D02*
X51697000Y-89103000D01*
X51697000Y-103103000D02*
X52697000Y-103103000D01*
X52697000Y-89103000D02*
X51697000Y-89103000D01*
X51697000Y-103103000D02*
X51697000Y-102103000D01*
X65697000Y-102103000D02*
X65697000Y-103103000D01*
X65697000Y-89103000D02*
X64697000Y-89103000D01*
X64697000Y-103103000D02*
X65697000Y-103103000D01*
X65697000Y-89103000D02*
X65697000Y-90103000D01*
%TO.C,U8*%
D13*
X113554523Y-96867619D02*
X114582619Y-96867619D01*
X114703571Y-96807142D01*
X114764047Y-96746666D01*
X114824523Y-96625714D01*
X114824523Y-96383809D01*
X114764047Y-96262857D01*
X114703571Y-96202380D01*
X114582619Y-96141904D01*
X113554523Y-96141904D01*
X114098809Y-95355714D02*
X114038333Y-95476666D01*
X113977857Y-95537142D01*
X113856904Y-95597619D01*
X113796428Y-95597619D01*
X113675476Y-95537142D01*
X113615000Y-95476666D01*
X113554523Y-95355714D01*
X113554523Y-95113809D01*
X113615000Y-94992857D01*
X113675476Y-94932380D01*
X113796428Y-94871904D01*
X113856904Y-94871904D01*
X113977857Y-94932380D01*
X114038333Y-94992857D01*
X114098809Y-95113809D01*
X114098809Y-95355714D01*
X114159285Y-95476666D01*
X114219761Y-95537142D01*
X114340714Y-95597619D01*
X114582619Y-95597619D01*
X114703571Y-95537142D01*
X114764047Y-95476666D01*
X114824523Y-95355714D01*
X114824523Y-95113809D01*
X114764047Y-94992857D01*
X114703571Y-94932380D01*
X114582619Y-94871904D01*
X114340714Y-94871904D01*
X114219761Y-94932380D01*
X114159285Y-94992857D01*
X114098809Y-95113809D01*
%TD*%
M02*
