%TF.GenerationSoftware,KiCad,Pcbnew,(5.1.10)-1*%
%TF.CreationDate,2021-12-07T13:13:35+09:00*%
%TF.ProjectId,MACRO-PAD-v0.1,4d414352-4f2d-4504-9144-2d76302e312e,rev?*%
%TF.SameCoordinates,Original*%
%TF.FileFunction,Copper,L2,Bot*%
%TF.FilePolarity,Positive*%
%FSLAX46Y46*%
G04 Gerber Fmt 4.6, Leading zero omitted, Abs format (unit mm)*
G04 Created by KiCad (PCBNEW (5.1.10)-1) date 2021-12-07 13:13:35*
%MOMM*%
%LPD*%
G01*
G04 APERTURE LIST*
%TA.AperFunction,ComponentPad*%
%ADD10C,1.700000*%
%TD*%
%TA.AperFunction,ComponentPad*%
%ADD11C,5.161000*%
%TD*%
%TA.AperFunction,ComponentPad*%
%ADD12C,1.800000*%
%TD*%
%TA.AperFunction,SMDPad,CuDef*%
%ADD13R,1.800000X0.820000*%
%TD*%
%TA.AperFunction,SMDPad,CuDef*%
%ADD14R,2.550000X2.500000*%
%TD*%
%TA.AperFunction,ComponentPad*%
%ADD15O,1.700000X1.700000*%
%TD*%
%TA.AperFunction,ComponentPad*%
%ADD16R,1.700000X1.700000*%
%TD*%
%TA.AperFunction,SMDPad,CuDef*%
%ADD17R,1.200000X0.900000*%
%TD*%
%TA.AperFunction,ViaPad*%
%ADD18C,0.800000*%
%TD*%
%TA.AperFunction,Conductor*%
%ADD19C,0.250000*%
%TD*%
%TA.AperFunction,Conductor*%
%ADD20C,0.254000*%
%TD*%
%TA.AperFunction,Conductor*%
%ADD21C,0.100000*%
%TD*%
G04 APERTURE END LIST*
D10*
%TO.P,U9,11*%
%TO.N,N/C*%
X79577000Y-72562510D03*
%TO.P,U9,10*%
X79577000Y-75102510D03*
%TO.P,U9,9*%
X94817000Y-75102510D03*
%TO.P,U9,8*%
X94817000Y-72562510D03*
%TO.P,U9,7*%
%TO.N,GND*%
X79577000Y-84423500D03*
%TO.P,U9,6*%
%TO.N,Net-(U9-Pad6)*%
X82117000Y-84423500D03*
%TO.P,U9,5*%
%TO.N,Net-(U9-Pad5)*%
X84657000Y-84423500D03*
%TO.P,U9,4*%
%TO.N,GND*%
X87197000Y-84423500D03*
%TO.P,U9,3*%
%TO.N,Net-(U9-Pad3)*%
X89737000Y-84423500D03*
%TO.P,U9,2*%
%TO.N,Net-(U9-Pad2)*%
X92277000Y-84423500D03*
%TO.P,U9,1*%
%TO.N,+5V*%
X94817000Y-84423500D03*
%TD*%
D11*
%TO.P,U8,MH2*%
%TO.N,Net-(U8-PadMH2)*%
X114100000Y-101500000D03*
%TO.P,U8,MH1*%
%TO.N,Net-(U8-PadMH1)*%
X114100000Y-90300000D03*
D12*
%TO.P,U8,C1*%
%TO.N,GND*%
X106600000Y-95900000D03*
%TO.P,U8,B1*%
%TO.N,B1*%
X106600000Y-98400000D03*
%TO.P,U8,A1*%
%TO.N,A1*%
X106600000Y-93400000D03*
%TO.P,U8,2*%
%TO.N,Net-(D8-Pad2)*%
X121100000Y-98400000D03*
%TO.P,U8,1*%
%TO.N,col3*%
X121100000Y-93400000D03*
%TD*%
D13*
%TO.P,U7,3*%
%TO.N,+5V*%
X113197000Y-127053000D03*
%TO.P,U7,4*%
%TO.N,Net-(U7-Pad4)*%
X113197000Y-128553000D03*
%TO.P,U7,5*%
%TO.N,GND*%
X118197000Y-128553000D03*
%TO.P,U7,6*%
%TO.N,Net-(U6-Pad4)*%
X118197000Y-127053000D03*
D14*
%TO.P,U7,2*%
%TO.N,Net-(D7-Pad2)*%
X108137000Y-120563000D03*
%TO.P,U7,1*%
%TO.N,col2*%
X121987000Y-118023000D03*
%TD*%
D13*
%TO.P,U6,3*%
%TO.N,+5V*%
X94197000Y-127053000D03*
%TO.P,U6,4*%
%TO.N,Net-(U6-Pad4)*%
X94197000Y-128553000D03*
%TO.P,U6,5*%
%TO.N,GND*%
X99197000Y-128553000D03*
%TO.P,U6,6*%
%TO.N,Net-(U5-Pad4)*%
X99197000Y-127053000D03*
D14*
%TO.P,U6,2*%
%TO.N,Net-(D6-Pad2)*%
X89137000Y-120563000D03*
%TO.P,U6,1*%
%TO.N,col1*%
X102987000Y-118023000D03*
%TD*%
D13*
%TO.P,U5,3*%
%TO.N,+5V*%
X75197000Y-127053000D03*
%TO.P,U5,4*%
%TO.N,Net-(U5-Pad4)*%
X75197000Y-128553000D03*
%TO.P,U5,5*%
%TO.N,GND*%
X80197000Y-128553000D03*
%TO.P,U5,6*%
%TO.N,Net-(U4-Pad4)*%
X80197000Y-127053000D03*
D14*
%TO.P,U5,2*%
%TO.N,Net-(D5-Pad2)*%
X70137000Y-120563000D03*
%TO.P,U5,1*%
%TO.N,col0*%
X83987000Y-118023000D03*
%TD*%
D13*
%TO.P,U4,3*%
%TO.N,+5V*%
X56197000Y-127053000D03*
%TO.P,U4,4*%
%TO.N,Net-(U4-Pad4)*%
X56197000Y-128553000D03*
%TO.P,U4,5*%
%TO.N,GND*%
X61197000Y-128553000D03*
%TO.P,U4,6*%
%TO.N,Net-(U3-Pad4)*%
X61197000Y-127053000D03*
D14*
%TO.P,U4,2*%
%TO.N,Net-(D4-Pad2)*%
X51137000Y-120563000D03*
%TO.P,U4,1*%
%TO.N,col3*%
X64987000Y-118023000D03*
%TD*%
D13*
%TO.P,U3,3*%
%TO.N,+5V*%
X94197000Y-100053000D03*
%TO.P,U3,4*%
%TO.N,Net-(U3-Pad4)*%
X94197000Y-101553000D03*
%TO.P,U3,5*%
%TO.N,GND*%
X99197000Y-101553000D03*
%TO.P,U3,6*%
%TO.N,Net-(U2-Pad4)*%
X99197000Y-100053000D03*
D14*
%TO.P,U3,2*%
%TO.N,Net-(D3-Pad2)*%
X89137000Y-93563000D03*
%TO.P,U3,1*%
%TO.N,col2*%
X102987000Y-91023000D03*
%TD*%
D13*
%TO.P,U2,3*%
%TO.N,+5V*%
X75197000Y-100053000D03*
%TO.P,U2,4*%
%TO.N,Net-(U2-Pad4)*%
X75197000Y-101553000D03*
%TO.P,U2,5*%
%TO.N,GND*%
X80197000Y-101553000D03*
%TO.P,U2,6*%
%TO.N,Net-(U1-Pad4)*%
X80197000Y-100053000D03*
D14*
%TO.P,U2,2*%
%TO.N,Net-(D2-Pad2)*%
X70137000Y-93563000D03*
%TO.P,U2,1*%
%TO.N,col1*%
X83987000Y-91023000D03*
%TD*%
D13*
%TO.P,U1,3*%
%TO.N,+5V*%
X56197000Y-100053000D03*
%TO.P,U1,4*%
%TO.N,Net-(U1-Pad4)*%
X56197000Y-101553000D03*
%TO.P,U1,5*%
%TO.N,GND*%
X61197000Y-101553000D03*
%TO.P,U1,6*%
%TO.N,LED*%
X61197000Y-100053000D03*
D14*
%TO.P,U1,2*%
%TO.N,Net-(D1-Pad2)*%
X51137000Y-93563000D03*
%TO.P,U1,1*%
%TO.N,col0*%
X64987000Y-91023000D03*
%TD*%
D15*
%TO.P,J1,40*%
%TO.N,+5V*%
X111327000Y-114510000D03*
%TO.P,J1,39*%
%TO.N,Net-(J1-Pad39)*%
X108787000Y-114510000D03*
D16*
%TO.P,J1,38*%
%TO.N,GND*%
X106247000Y-114510000D03*
D15*
%TO.P,J1,37*%
%TO.N,Net-(J1-Pad37)*%
X103707000Y-114510000D03*
%TO.P,J1,36*%
%TO.N,Net-(J1-Pad36)*%
X101167000Y-114510000D03*
%TO.P,J1,35*%
%TO.N,Net-(J1-Pad35)*%
X98627000Y-114510000D03*
%TO.P,J1,34*%
%TO.N,Net-(J1-Pad34)*%
X96087000Y-114510000D03*
D16*
%TO.P,J1,33*%
%TO.N,GND*%
X93547000Y-114510000D03*
D15*
%TO.P,J1,32*%
%TO.N,Net-(J1-Pad32)*%
X91007000Y-114510000D03*
%TO.P,J1,31*%
%TO.N,Net-(J1-Pad31)*%
X88467000Y-114510000D03*
%TO.P,J1,30*%
%TO.N,Net-(J1-Pad30)*%
X85927000Y-114510000D03*
%TO.P,J1,29*%
%TO.N,Net-(J1-Pad29)*%
X83387000Y-114510000D03*
D16*
%TO.P,J1,28*%
%TO.N,GND*%
X80847000Y-114510000D03*
D15*
%TO.P,J1,27*%
%TO.N,Net-(J1-Pad27)*%
X78307000Y-114510000D03*
%TO.P,J1,26*%
%TO.N,Net-(J1-Pad26)*%
X75767000Y-114510000D03*
%TO.P,J1,25*%
%TO.N,Net-(J1-Pad25)*%
X73227000Y-114510000D03*
%TO.P,J1,24*%
%TO.N,Net-(J1-Pad24)*%
X70687000Y-114510000D03*
D16*
%TO.P,J1,23*%
%TO.N,GND*%
X68147000Y-114510000D03*
D15*
%TO.P,J1,22*%
%TO.N,Net-(J1-Pad22)*%
X65607000Y-114510000D03*
%TO.P,J1,21*%
%TO.N,Net-(J1-Pad21)*%
X63067000Y-114510000D03*
%TO.P,J1,20*%
%TO.N,col3*%
X63067000Y-132290000D03*
%TO.P,J1,19*%
%TO.N,col2*%
X65607000Y-132290000D03*
D16*
%TO.P,J1,18*%
%TO.N,GND*%
X68147000Y-132290000D03*
D15*
%TO.P,J1,17*%
%TO.N,col1*%
X70687000Y-132290000D03*
%TO.P,J1,16*%
%TO.N,col0*%
X73227000Y-132290000D03*
%TO.P,J1,15*%
%TO.N,row1*%
X75767000Y-132290000D03*
%TO.P,J1,14*%
%TO.N,row0*%
X78307000Y-132290000D03*
D16*
%TO.P,J1,13*%
%TO.N,GND*%
X80847000Y-132290000D03*
D15*
%TO.P,J1,12*%
%TO.N,LED*%
X83387000Y-132290000D03*
%TO.P,J1,11*%
%TO.N,B1*%
X85927000Y-132290000D03*
%TO.P,J1,10*%
%TO.N,A1*%
X88467000Y-132290000D03*
%TO.P,J1,9*%
%TO.N,Net-(J1-Pad9)*%
X91007000Y-132290000D03*
D16*
%TO.P,J1,8*%
%TO.N,GND*%
X93547000Y-132290000D03*
D15*
%TO.P,J1,7*%
%TO.N,Net-(J1-Pad7)*%
X96087000Y-132290000D03*
%TO.P,J1,6*%
%TO.N,Net-(J1-Pad6)*%
X98627000Y-132290000D03*
%TO.P,J1,5*%
%TO.N,Net-(J1-Pad5)*%
X101167000Y-132290000D03*
%TO.P,J1,4*%
%TO.N,Net-(J1-Pad4)*%
X103707000Y-132290000D03*
D16*
%TO.P,J1,3*%
%TO.N,GND*%
X106247000Y-132290000D03*
D15*
%TO.P,J1,2*%
%TO.N,Net-(J1-Pad2)*%
X108787000Y-132290000D03*
%TO.P,J1,1*%
%TO.N,Net-(J1-Pad1)*%
X111327000Y-132290000D03*
%TD*%
D17*
%TO.P,D8,2*%
%TO.N,Net-(D8-Pad2)*%
X119400000Y-101100000D03*
%TO.P,D8,1*%
%TO.N,row1*%
X119400000Y-104400000D03*
%TD*%
%TO.P,D7,2*%
%TO.N,Net-(D7-Pad2)*%
X109300000Y-126600000D03*
%TO.P,D7,1*%
%TO.N,row1*%
X109300000Y-129900000D03*
%TD*%
%TO.P,D6,2*%
%TO.N,Net-(D6-Pad2)*%
X90300000Y-126650000D03*
%TO.P,D6,1*%
%TO.N,row1*%
X90300000Y-129950000D03*
%TD*%
%TO.P,D5,2*%
%TO.N,Net-(D5-Pad2)*%
X71300000Y-126700000D03*
%TO.P,D5,1*%
%TO.N,row1*%
X71300000Y-130000000D03*
%TD*%
%TO.P,D4,2*%
%TO.N,Net-(D4-Pad2)*%
X52300000Y-126650000D03*
%TO.P,D4,1*%
%TO.N,row0*%
X52300000Y-129950000D03*
%TD*%
%TO.P,D3,2*%
%TO.N,Net-(D3-Pad2)*%
X90300000Y-99650000D03*
%TO.P,D3,1*%
%TO.N,row0*%
X90300000Y-102950000D03*
%TD*%
%TO.P,D2,2*%
%TO.N,Net-(D2-Pad2)*%
X71300000Y-99600000D03*
%TO.P,D2,1*%
%TO.N,row0*%
X71300000Y-102900000D03*
%TD*%
%TO.P,D1,2*%
%TO.N,Net-(D1-Pad2)*%
X52300000Y-99650000D03*
%TO.P,D1,1*%
%TO.N,row0*%
X52300000Y-102950000D03*
%TD*%
D18*
%TO.N,row1*%
X119230000Y-106271400D03*
X109300000Y-128697900D03*
%TO.N,+5V*%
X93798600Y-125793300D03*
%TO.N,col2*%
X114865900Y-120129600D03*
%TO.N,col1*%
X92555000Y-116230000D03*
%TO.N,col0*%
X84045300Y-125885900D03*
%TO.N,Net-(U1-Pad4)*%
X80197000Y-99024200D03*
X60976000Y-103025300D03*
%TO.N,Net-(U2-Pad4)*%
X100718500Y-100569700D03*
X80417500Y-103270400D03*
%TO.N,Net-(U3-Pad4)*%
X64431600Y-112586000D03*
X92736900Y-103615100D03*
%TD*%
D19*
%TO.N,Net-(D1-Pad2)*%
X51137000Y-93563000D02*
X51137000Y-95138300D01*
X52300000Y-99650000D02*
X52300000Y-96301300D01*
X52300000Y-96301300D02*
X51137000Y-95138300D01*
%TO.N,row0*%
X84657000Y-115685400D02*
X84657000Y-109368300D01*
X84657000Y-109368300D02*
X90300000Y-103725300D01*
X84657000Y-115685400D02*
X79815900Y-115685400D01*
X79815900Y-115685400D02*
X79671600Y-115541100D01*
X79671600Y-115541100D02*
X79671600Y-112046900D01*
X79671600Y-112046900D02*
X71300000Y-103675300D01*
X90300000Y-102950000D02*
X90300000Y-103725300D01*
X71300000Y-102900000D02*
X71300000Y-103675300D01*
X71300000Y-102900000D02*
X71300000Y-102124700D01*
X71300000Y-102124700D02*
X67658700Y-98483400D01*
X67658700Y-98483400D02*
X67658700Y-90695800D01*
X67658700Y-90695800D02*
X66113800Y-89150900D01*
X66113800Y-89150900D02*
X60492200Y-89150900D01*
X60492200Y-89150900D02*
X57960400Y-91682700D01*
X57960400Y-91682700D02*
X57960400Y-93195500D01*
X57960400Y-93195500D02*
X55196900Y-95959000D01*
X55196900Y-95959000D02*
X55196900Y-97765300D01*
X55196900Y-97765300D02*
X54521300Y-98440900D01*
X54521300Y-98440900D02*
X54521300Y-99953400D01*
X54521300Y-99953400D02*
X52300000Y-102174700D01*
X52300000Y-102950000D02*
X52300000Y-102174700D01*
X52300000Y-129950000D02*
X52300000Y-129174700D01*
X52300000Y-102950000D02*
X52300000Y-103725300D01*
X52300000Y-103725300D02*
X52740200Y-104165500D01*
X52740200Y-104165500D02*
X52740200Y-121992300D01*
X52740200Y-121992300D02*
X52440700Y-122291800D01*
X52440700Y-122291800D02*
X52440700Y-124264300D01*
X52440700Y-124264300D02*
X53225400Y-125049000D01*
X53225400Y-125049000D02*
X53225400Y-128249300D01*
X53225400Y-128249300D02*
X52300000Y-129174700D01*
X83911200Y-133468600D02*
X79485600Y-133468600D01*
X84562400Y-132817400D02*
X83911200Y-133468600D01*
X79485600Y-133468600D02*
X78307000Y-132290000D01*
X84562400Y-126403000D02*
X84562400Y-132817400D01*
X85587400Y-125378000D02*
X84562400Y-126403000D01*
X85587400Y-116615800D02*
X85587400Y-125378000D01*
X84657000Y-115685400D02*
X85587400Y-116615800D01*
%TO.N,Net-(D2-Pad2)*%
X70137000Y-93563000D02*
X70137000Y-95138300D01*
X71300000Y-99600000D02*
X71300000Y-96301300D01*
X71300000Y-96301300D02*
X70137000Y-95138300D01*
%TO.N,Net-(D3-Pad2)*%
X89137000Y-93563000D02*
X89137000Y-95138300D01*
X90300000Y-99650000D02*
X90300000Y-96301300D01*
X90300000Y-96301300D02*
X89137000Y-95138300D01*
%TO.N,Net-(D4-Pad2)*%
X52300000Y-126650000D02*
X52300000Y-125874700D01*
X51137000Y-122138300D02*
X51137000Y-124711700D01*
X51137000Y-124711700D02*
X52300000Y-125874700D01*
X51137000Y-120563000D02*
X51137000Y-122138300D01*
%TO.N,Net-(D5-Pad2)*%
X70137000Y-120563000D02*
X70137000Y-122138300D01*
X71300000Y-126700000D02*
X71300000Y-123301300D01*
X71300000Y-123301300D02*
X70137000Y-122138300D01*
%TO.N,row1*%
X119230000Y-106271400D02*
X119400000Y-106101400D01*
X119400000Y-106101400D02*
X119400000Y-104400000D01*
X90300000Y-129950000D02*
X90300000Y-130725300D01*
X90300000Y-130725300D02*
X89737000Y-131288300D01*
X89737000Y-131288300D02*
X89737000Y-132766000D01*
X89737000Y-132766000D02*
X88092100Y-134410900D01*
X88092100Y-134410900D02*
X77887900Y-134410900D01*
X77887900Y-134410900D02*
X75767000Y-132290000D01*
X75767000Y-132290000D02*
X74591700Y-132290000D01*
X71300000Y-130000000D02*
X72669000Y-130000000D01*
X72669000Y-130000000D02*
X74591700Y-131922700D01*
X74591700Y-131922700D02*
X74591700Y-132290000D01*
X109300000Y-129124700D02*
X109300000Y-128697900D01*
X109300000Y-129900000D02*
X109300000Y-129124700D01*
%TO.N,Net-(D6-Pad2)*%
X90300000Y-126650000D02*
X90300000Y-125874700D01*
X90300000Y-125874700D02*
X89137000Y-124711700D01*
X89137000Y-124711700D02*
X89137000Y-120563000D01*
%TO.N,Net-(D7-Pad2)*%
X108137000Y-120563000D02*
X108137000Y-122138300D01*
X109300000Y-126600000D02*
X109300000Y-123301300D01*
X109300000Y-123301300D02*
X108137000Y-122138300D01*
%TO.N,Net-(D8-Pad2)*%
X119400000Y-101100000D02*
X119400000Y-100324700D01*
X119400000Y-100324700D02*
X121100000Y-98624700D01*
X121100000Y-98624700D02*
X121100000Y-98400000D01*
%TO.N,+5V*%
X93798600Y-127053000D02*
X92971700Y-127053000D01*
X94197000Y-127053000D02*
X93798600Y-127053000D01*
X93798600Y-125793300D02*
X93798600Y-127053000D01*
X94817000Y-84423500D02*
X93635800Y-83242300D01*
X93635800Y-83242300D02*
X79063000Y-83242300D01*
X79063000Y-83242300D02*
X77107000Y-85198300D01*
X77107000Y-85198300D02*
X77107000Y-93367000D01*
X77107000Y-93367000D02*
X75197000Y-95277000D01*
X75197000Y-95277000D02*
X75197000Y-100053000D01*
X96273400Y-93200600D02*
X96273400Y-85879900D01*
X96273400Y-85879900D02*
X94817000Y-84423500D01*
X71864600Y-132818300D02*
X70284900Y-134398000D01*
X70284900Y-134398000D02*
X60217200Y-134398000D01*
X60217200Y-134398000D02*
X54971700Y-129152500D01*
X54971700Y-129152500D02*
X54971700Y-127053000D01*
X75197000Y-127053000D02*
X72721200Y-127053000D01*
X72721200Y-127053000D02*
X70321000Y-129453200D01*
X70321000Y-129453200D02*
X70321000Y-130531100D01*
X70321000Y-130531100D02*
X70670100Y-130880200D01*
X70670100Y-130880200D02*
X70991900Y-130880200D01*
X70991900Y-130880200D02*
X71864600Y-131752900D01*
X71864600Y-131752900D02*
X71864600Y-132818300D01*
X71864600Y-132818300D02*
X73972000Y-134925700D01*
X73972000Y-134925700D02*
X90089800Y-134925700D01*
X90089800Y-134925700D02*
X92371500Y-132644000D01*
X92371500Y-132644000D02*
X92371500Y-127653200D01*
X92371500Y-127653200D02*
X92971700Y-127053000D01*
X56197000Y-127053000D02*
X54971700Y-127053000D01*
X96273400Y-93200600D02*
X94197000Y-95277000D01*
X94197000Y-95277000D02*
X94197000Y-100053000D01*
X111327000Y-114613600D02*
X111070900Y-114613600D01*
X111070900Y-114613600D02*
X108927900Y-112470600D01*
X108927900Y-112470600D02*
X108927900Y-96485400D01*
X108927900Y-96485400D02*
X107092500Y-94650000D01*
X107092500Y-94650000D02*
X103628900Y-94650000D01*
X103628900Y-94650000D02*
X102179500Y-93200600D01*
X102179500Y-93200600D02*
X96273400Y-93200600D01*
X111327000Y-114613600D02*
X111327000Y-114924500D01*
X111327000Y-114510000D02*
X111327000Y-114613600D01*
X54971700Y-100053000D02*
X54971700Y-116789300D01*
X54971700Y-116789300D02*
X56717400Y-118535000D01*
X56717400Y-118535000D02*
X56717400Y-121756600D01*
X56717400Y-121756600D02*
X56197000Y-122277000D01*
X56197000Y-122277000D02*
X56197000Y-127053000D01*
X56197000Y-100053000D02*
X54971700Y-100053000D01*
X111327000Y-115097600D02*
X111327000Y-115685300D01*
X111327000Y-115097600D02*
X111327000Y-114924500D01*
X111327000Y-115685300D02*
X113766000Y-118124300D01*
X113766000Y-118124300D02*
X113766000Y-121617600D01*
X113766000Y-121617600D02*
X113197000Y-122186600D01*
X113197000Y-122186600D02*
X113197000Y-127053000D01*
%TO.N,GND*%
X101702000Y-128553000D02*
X99197000Y-128553000D01*
X80847000Y-113334700D02*
X81309700Y-112872000D01*
X82063800Y-86910300D02*
X79577000Y-84423500D01*
X87197000Y-84423500D02*
X84710200Y-86910300D01*
X84710200Y-86910300D02*
X82063800Y-86910300D01*
X81309700Y-101553000D02*
X81422300Y-101440400D01*
X81422300Y-95566800D02*
X82063800Y-94925300D01*
X82063800Y-94925300D02*
X82063800Y-86910300D01*
X80197000Y-101553000D02*
X81309700Y-101553000D01*
X80847000Y-114510000D02*
X80847000Y-113334700D01*
X76843300Y-118266000D02*
X80647400Y-122070100D01*
X80647400Y-122070100D02*
X80647400Y-125416200D01*
X80647400Y-125416200D02*
X81422300Y-126191100D01*
X81422300Y-126191100D02*
X81422300Y-128553000D01*
X68147000Y-131114700D02*
X68043900Y-131011600D01*
X68043900Y-118369100D02*
X68147000Y-118266000D01*
X68147000Y-115685300D02*
X68147000Y-118266000D01*
X100422300Y-101553000D02*
X100947000Y-101553000D01*
X100947000Y-101553000D02*
X106600000Y-95900000D01*
X99197000Y-101553000D02*
X100422300Y-101553000D01*
X62422300Y-101553000D02*
X68147000Y-107277700D01*
X68147000Y-107277700D02*
X68147000Y-114510000D01*
X106247000Y-114510000D02*
X106247000Y-113334700D01*
X106247000Y-114510000D02*
X106247000Y-124008000D01*
X106247000Y-124008000D02*
X101702000Y-128553000D01*
X80847000Y-132290000D02*
X80847000Y-131114700D01*
X80197000Y-128553000D02*
X81422300Y-128553000D01*
X80847000Y-131114700D02*
X81422300Y-130539400D01*
X81422300Y-130539400D02*
X81422300Y-128553000D01*
X68147000Y-132290000D02*
X68147000Y-131114700D01*
X68147000Y-114510000D02*
X68147000Y-115685300D01*
X61197000Y-101553000D02*
X62422300Y-101553000D01*
X61197000Y-128553000D02*
X62422300Y-128553000D01*
X118197000Y-129424900D02*
X116507200Y-131114700D01*
X118197000Y-128553000D02*
X118197000Y-129424900D01*
X68071999Y-133465001D02*
X61765001Y-133465001D01*
X68147000Y-133390000D02*
X68071999Y-133465001D01*
X68147000Y-132290000D02*
X68147000Y-133390000D01*
X61765001Y-133465001D02*
X60600000Y-132300000D01*
X61197000Y-131703000D02*
X61197000Y-128553000D01*
X60600000Y-132300000D02*
X61197000Y-131703000D01*
X76843300Y-118266000D02*
X76843300Y-118265510D01*
X76843300Y-118265510D02*
X76477790Y-117900000D01*
X76477790Y-117900000D02*
X75800000Y-117900000D01*
X106247000Y-131190000D02*
X106637000Y-130800000D01*
X106247000Y-132290000D02*
X106247000Y-131190000D01*
X106637000Y-130800000D02*
X113800000Y-130800000D01*
%TO.N,col3*%
X63067000Y-132290000D02*
X63067000Y-131114700D01*
X63067000Y-131114700D02*
X64987000Y-129194700D01*
X64987000Y-129194700D02*
X64987000Y-118023000D01*
%TO.N,col2*%
X115781000Y-119214500D02*
X115781000Y-117226300D01*
X115781000Y-117226300D02*
X110887500Y-112332800D01*
X110887500Y-112332800D02*
X110887500Y-95931300D01*
X110887500Y-95931300D02*
X105979200Y-91023000D01*
X105979200Y-91023000D02*
X102987000Y-91023000D01*
X114865900Y-120129600D02*
X115781000Y-119214500D01*
X115781000Y-119214500D02*
X115914500Y-119214500D01*
X115914500Y-119214500D02*
X117300000Y-120600000D01*
X117300000Y-120600000D02*
X121200000Y-120600000D01*
X121987000Y-119813000D02*
X121987000Y-118023000D01*
X121200000Y-120600000D02*
X121987000Y-119813000D01*
%TO.N,col1*%
X92555000Y-116197100D02*
X102736400Y-116197100D01*
X102736400Y-116197100D02*
X102987000Y-116447700D01*
X83987000Y-91023000D02*
X83987000Y-95096500D01*
X83987000Y-95096500D02*
X92011600Y-103121100D01*
X92011600Y-103121100D02*
X92011600Y-103915500D01*
X92011600Y-103915500D02*
X92371600Y-104275500D01*
X92371600Y-104275500D02*
X92371600Y-116013700D01*
X92371600Y-116013700D02*
X92555000Y-116197100D01*
X92555000Y-116230000D02*
X92555000Y-116197100D01*
X102987000Y-118023000D02*
X102987000Y-116447700D01*
%TO.N,col0*%
X83987000Y-118023000D02*
X83987000Y-119598300D01*
X84045300Y-125885900D02*
X84045300Y-119656600D01*
X84045300Y-119656600D02*
X83987000Y-119598300D01*
X64987000Y-91023000D02*
X64987000Y-100805700D01*
X64987000Y-100805700D02*
X77067900Y-112886600D01*
X77067900Y-112886600D02*
X77067900Y-114940100D01*
X77067900Y-114940100D02*
X78263600Y-116135800D01*
X78263600Y-116135800D02*
X81003600Y-116135800D01*
X81003600Y-116135800D02*
X82386700Y-117518900D01*
X82386700Y-117518900D02*
X82386700Y-118023000D01*
X83987000Y-118023000D02*
X82386700Y-118023000D01*
%TO.N,LED*%
X83387000Y-131114700D02*
X82211700Y-129939400D01*
X82211700Y-129939400D02*
X82211700Y-126343600D01*
X82211700Y-126343600D02*
X81190500Y-125322400D01*
X81190500Y-125322400D02*
X81190500Y-121976300D01*
X81190500Y-121976300D02*
X74497000Y-115282800D01*
X74497000Y-115282800D02*
X74497000Y-112127700D01*
X74497000Y-112127700D02*
X62422300Y-100053000D01*
X61197000Y-100053000D02*
X62422300Y-100053000D01*
X83387000Y-132290000D02*
X83387000Y-131114700D01*
%TO.N,Net-(U1-Pad4)*%
X56197000Y-101553000D02*
X56197000Y-102357200D01*
X56197000Y-102357200D02*
X56865100Y-103025300D01*
X56865100Y-103025300D02*
X60976000Y-103025300D01*
X80197000Y-100053000D02*
X80197000Y-99024200D01*
%TO.N,Net-(U2-Pad4)*%
X99197000Y-100053000D02*
X100422300Y-100053000D01*
X100718500Y-100569700D02*
X100422300Y-100273500D01*
X100422300Y-100273500D02*
X100422300Y-100053000D01*
X75197000Y-101553000D02*
X75197000Y-102426700D01*
X75197000Y-102426700D02*
X76040700Y-103270400D01*
X76040700Y-103270400D02*
X80417500Y-103270400D01*
%TO.N,Net-(U3-Pad4)*%
X94197000Y-101553000D02*
X92971700Y-101553000D01*
X61197000Y-127053000D02*
X62422300Y-127053000D01*
X62422300Y-127053000D02*
X62422300Y-122657800D01*
X62422300Y-122657800D02*
X63383800Y-121696300D01*
X63383800Y-121696300D02*
X63383800Y-116050300D01*
X63383800Y-116050300D02*
X64431600Y-115002500D01*
X64431600Y-115002500D02*
X64431600Y-112586000D01*
X92971700Y-101553000D02*
X92971700Y-103380300D01*
X92971700Y-103380300D02*
X92736900Y-103615100D01*
%TO.N,Net-(U4-Pad4)*%
X80197000Y-127053000D02*
X80197000Y-122322800D01*
X80197000Y-122322800D02*
X76600000Y-118725800D01*
X76600000Y-118725800D02*
X68923000Y-118725800D01*
X68923000Y-118725800D02*
X68536600Y-119112200D01*
X68536600Y-119112200D02*
X68536600Y-130217000D01*
X68536600Y-130217000D02*
X69347400Y-131027800D01*
X69347400Y-131027800D02*
X69347400Y-133249700D01*
X69347400Y-133249700D02*
X68679300Y-133917800D01*
X68679300Y-133917800D02*
X60841000Y-133917800D01*
X60841000Y-133917800D02*
X56197000Y-129273800D01*
X56197000Y-129273800D02*
X56197000Y-128553000D01*
%TO.N,Net-(U5-Pad4)*%
X99197000Y-127053000D02*
X99197000Y-122313900D01*
X99197000Y-122313900D02*
X97660400Y-120777300D01*
X97660400Y-120777300D02*
X95685300Y-120777300D01*
X95685300Y-120777300D02*
X93671900Y-122790700D01*
X93671900Y-122790700D02*
X93671900Y-124894300D01*
X93671900Y-124894300D02*
X87197000Y-131369200D01*
X87197000Y-131369200D02*
X87197000Y-132685000D01*
X87197000Y-132685000D02*
X85921500Y-133960500D01*
X85921500Y-133960500D02*
X78297700Y-133960500D01*
X78297700Y-133960500D02*
X77037000Y-132699800D01*
X77037000Y-132699800D02*
X77037000Y-131357600D01*
X77037000Y-131357600D02*
X75197000Y-129517600D01*
X75197000Y-129517600D02*
X75197000Y-128553000D01*
%TO.N,Net-(U6-Pad4)*%
X118197000Y-127053000D02*
X119422300Y-127053000D01*
X94197000Y-128553000D02*
X94197000Y-129363300D01*
X94197000Y-129363300D02*
X95801100Y-130967400D01*
X95801100Y-130967400D02*
X96448700Y-130967400D01*
X96448700Y-130967400D02*
X97357000Y-131875700D01*
X97357000Y-131875700D02*
X97357000Y-132770000D01*
X97357000Y-132770000D02*
X98077800Y-133490800D01*
X98077800Y-133490800D02*
X115050400Y-133490800D01*
X115050400Y-133490800D02*
X119422300Y-129118900D01*
X119422300Y-129118900D02*
X119422300Y-127053000D01*
%TD*%
D20*
%TO.N,GND*%
X122954216Y-70408234D02*
X123684598Y-70608043D01*
X124368048Y-70934032D01*
X124982968Y-71375897D01*
X125509925Y-71919675D01*
X125932259Y-72548174D01*
X126236621Y-73241528D01*
X126414746Y-73983476D01*
X126462000Y-74626949D01*
X126462001Y-144573257D01*
X126391766Y-145360216D01*
X126191957Y-146090597D01*
X125865968Y-146774048D01*
X125424103Y-147388968D01*
X124880323Y-147915927D01*
X124251828Y-148338257D01*
X123558472Y-148642621D01*
X122816524Y-148820746D01*
X122173051Y-148868000D01*
X52226732Y-148868000D01*
X51439784Y-148797766D01*
X50709403Y-148597957D01*
X50025952Y-148271968D01*
X49411032Y-147830103D01*
X48884073Y-147286323D01*
X48461743Y-146657828D01*
X48157379Y-145964472D01*
X47979254Y-145222524D01*
X47932000Y-144579051D01*
X47932000Y-141872170D01*
X52353340Y-141872170D01*
X52353340Y-142333830D01*
X52443406Y-142786620D01*
X52620075Y-143213139D01*
X52876560Y-143596996D01*
X53203004Y-143923440D01*
X53586861Y-144179925D01*
X54013380Y-144356594D01*
X54466170Y-144446660D01*
X54927830Y-144446660D01*
X55380620Y-144356594D01*
X55807139Y-144179925D01*
X56190996Y-143923440D01*
X56517440Y-143596996D01*
X56773925Y-143213139D01*
X56950594Y-142786620D01*
X57040660Y-142333830D01*
X57040660Y-141872170D01*
X117353340Y-141872170D01*
X117353340Y-142333830D01*
X117443406Y-142786620D01*
X117620075Y-143213139D01*
X117876560Y-143596996D01*
X118203004Y-143923440D01*
X118586861Y-144179925D01*
X119013380Y-144356594D01*
X119466170Y-144446660D01*
X119927830Y-144446660D01*
X120380620Y-144356594D01*
X120807139Y-144179925D01*
X121190996Y-143923440D01*
X121517440Y-143596996D01*
X121773925Y-143213139D01*
X121950594Y-142786620D01*
X122040660Y-142333830D01*
X122040660Y-141872170D01*
X121950594Y-141419380D01*
X121773925Y-140992861D01*
X121517440Y-140609004D01*
X121190996Y-140282560D01*
X120807139Y-140026075D01*
X120380620Y-139849406D01*
X119927830Y-139759340D01*
X119466170Y-139759340D01*
X119013380Y-139849406D01*
X118586861Y-140026075D01*
X118203004Y-140282560D01*
X117876560Y-140609004D01*
X117620075Y-140992861D01*
X117443406Y-141419380D01*
X117353340Y-141872170D01*
X57040660Y-141872170D01*
X56950594Y-141419380D01*
X56773925Y-140992861D01*
X56517440Y-140609004D01*
X56190996Y-140282560D01*
X55807139Y-140026075D01*
X55380620Y-139849406D01*
X54927830Y-139759340D01*
X54466170Y-139759340D01*
X54013380Y-139849406D01*
X53586861Y-140026075D01*
X53203004Y-140282560D01*
X52876560Y-140609004D01*
X52620075Y-140992861D01*
X52443406Y-141419380D01*
X52353340Y-141872170D01*
X47932000Y-141872170D01*
X47932000Y-92313000D01*
X49223928Y-92313000D01*
X49223928Y-94813000D01*
X49236188Y-94937482D01*
X49272498Y-95057180D01*
X49331463Y-95167494D01*
X49410815Y-95264185D01*
X49507506Y-95343537D01*
X49617820Y-95402502D01*
X49737518Y-95438812D01*
X49862000Y-95451072D01*
X50442425Y-95451072D01*
X50502026Y-95562576D01*
X50564790Y-95639053D01*
X50597000Y-95678301D01*
X50625998Y-95702099D01*
X51540001Y-96616103D01*
X51540000Y-98584962D01*
X51455820Y-98610498D01*
X51345506Y-98669463D01*
X51248815Y-98748815D01*
X51169463Y-98845506D01*
X51110498Y-98955820D01*
X51074188Y-99075518D01*
X51061928Y-99200000D01*
X51061928Y-100100000D01*
X51074188Y-100224482D01*
X51110498Y-100344180D01*
X51169463Y-100454494D01*
X51248815Y-100551185D01*
X51345506Y-100630537D01*
X51455820Y-100689502D01*
X51575518Y-100725812D01*
X51700000Y-100738072D01*
X52661827Y-100738072D01*
X51788998Y-101610901D01*
X51760000Y-101634699D01*
X51736202Y-101663697D01*
X51736201Y-101663698D01*
X51665026Y-101750424D01*
X51600170Y-101871760D01*
X51575518Y-101874188D01*
X51455820Y-101910498D01*
X51345506Y-101969463D01*
X51248815Y-102048815D01*
X51169463Y-102145506D01*
X51110498Y-102255820D01*
X51074188Y-102375518D01*
X51061928Y-102500000D01*
X51061928Y-103400000D01*
X51074188Y-103524482D01*
X51110498Y-103644180D01*
X51169463Y-103754494D01*
X51248815Y-103851185D01*
X51345506Y-103930537D01*
X51455820Y-103989502D01*
X51575518Y-104025812D01*
X51600170Y-104028240D01*
X51665026Y-104149576D01*
X51718966Y-104215301D01*
X51760000Y-104265301D01*
X51788998Y-104289099D01*
X51980200Y-104480301D01*
X51980201Y-118674928D01*
X49862000Y-118674928D01*
X49737518Y-118687188D01*
X49617820Y-118723498D01*
X49507506Y-118782463D01*
X49410815Y-118861815D01*
X49331463Y-118958506D01*
X49272498Y-119068820D01*
X49236188Y-119188518D01*
X49223928Y-119313000D01*
X49223928Y-121813000D01*
X49236188Y-121937482D01*
X49272498Y-122057180D01*
X49331463Y-122167494D01*
X49410815Y-122264185D01*
X49507506Y-122343537D01*
X49617820Y-122402502D01*
X49737518Y-122438812D01*
X49862000Y-122451072D01*
X50377000Y-122451072D01*
X50377001Y-124674368D01*
X50373324Y-124711700D01*
X50377001Y-124749032D01*
X50377001Y-124749033D01*
X50387998Y-124860686D01*
X50399703Y-124899274D01*
X50431454Y-125003946D01*
X50502026Y-125135976D01*
X50552916Y-125197985D01*
X50597000Y-125251701D01*
X50625998Y-125275499D01*
X51181426Y-125830928D01*
X51169463Y-125845506D01*
X51110498Y-125955820D01*
X51074188Y-126075518D01*
X51061928Y-126200000D01*
X51061928Y-127100000D01*
X51074188Y-127224482D01*
X51110498Y-127344180D01*
X51169463Y-127454494D01*
X51248815Y-127551185D01*
X51345506Y-127630537D01*
X51455820Y-127689502D01*
X51575518Y-127725812D01*
X51700000Y-127738072D01*
X52465401Y-127738072D01*
X52465401Y-127934497D01*
X51788998Y-128610901D01*
X51760000Y-128634699D01*
X51736202Y-128663697D01*
X51736201Y-128663698D01*
X51665026Y-128750424D01*
X51600170Y-128871760D01*
X51575518Y-128874188D01*
X51455820Y-128910498D01*
X51345506Y-128969463D01*
X51248815Y-129048815D01*
X51169463Y-129145506D01*
X51110498Y-129255820D01*
X51074188Y-129375518D01*
X51061928Y-129500000D01*
X51061928Y-130400000D01*
X51074188Y-130524482D01*
X51110498Y-130644180D01*
X51169463Y-130754494D01*
X51248815Y-130851185D01*
X51345506Y-130930537D01*
X51455820Y-130989502D01*
X51575518Y-131025812D01*
X51700000Y-131038072D01*
X52900000Y-131038072D01*
X53024482Y-131025812D01*
X53144180Y-130989502D01*
X53254494Y-130930537D01*
X53351185Y-130851185D01*
X53430537Y-130754494D01*
X53489502Y-130644180D01*
X53525812Y-130524482D01*
X53538072Y-130400000D01*
X53538072Y-129500000D01*
X53525812Y-129375518D01*
X53489502Y-129255820D01*
X53430537Y-129145506D01*
X53418573Y-129130928D01*
X53736403Y-128813099D01*
X53765401Y-128789301D01*
X53860374Y-128673576D01*
X53930946Y-128541547D01*
X53974403Y-128398286D01*
X53985400Y-128286633D01*
X53985400Y-128286624D01*
X53989076Y-128249301D01*
X53985400Y-128211978D01*
X53985400Y-125086322D01*
X53989076Y-125048999D01*
X53985400Y-125011676D01*
X53985400Y-125011667D01*
X53974403Y-124900014D01*
X53930946Y-124756753D01*
X53860374Y-124624724D01*
X53821484Y-124577336D01*
X54050421Y-124531798D01*
X54320838Y-124419788D01*
X54564206Y-124257174D01*
X54771174Y-124050206D01*
X54933788Y-123806838D01*
X55045798Y-123536421D01*
X55102900Y-123249348D01*
X55102900Y-122956652D01*
X55051451Y-122698000D01*
X55097279Y-122698000D01*
X55437000Y-122630425D01*
X55437001Y-126004928D01*
X55297000Y-126004928D01*
X55172518Y-126017188D01*
X55052820Y-126053498D01*
X54942506Y-126112463D01*
X54845815Y-126191815D01*
X54766463Y-126288506D01*
X54745695Y-126327360D01*
X54679453Y-126347454D01*
X54547424Y-126418026D01*
X54431699Y-126512999D01*
X54336726Y-126628724D01*
X54266154Y-126760753D01*
X54222697Y-126904014D01*
X54208023Y-127053000D01*
X54211701Y-127090343D01*
X54211700Y-129115177D01*
X54208024Y-129152500D01*
X54211700Y-129189822D01*
X54211700Y-129189832D01*
X54222697Y-129301485D01*
X54259492Y-129422785D01*
X54266154Y-129444746D01*
X54336726Y-129576776D01*
X54357579Y-129602185D01*
X54431699Y-129692501D01*
X54460703Y-129716304D01*
X59653401Y-134909003D01*
X59677199Y-134938001D01*
X59792924Y-135032974D01*
X59924953Y-135103546D01*
X60068214Y-135147003D01*
X60179867Y-135158000D01*
X60179876Y-135158000D01*
X60217199Y-135161676D01*
X60254522Y-135158000D01*
X70247578Y-135158000D01*
X70284900Y-135161676D01*
X70322222Y-135158000D01*
X70322233Y-135158000D01*
X70433886Y-135147003D01*
X70577147Y-135103546D01*
X70709176Y-135032974D01*
X70824901Y-134938001D01*
X70848704Y-134908997D01*
X71864600Y-133893101D01*
X73408201Y-135436703D01*
X73431999Y-135465701D01*
X73547724Y-135560674D01*
X73679753Y-135631246D01*
X73823014Y-135674703D01*
X73934667Y-135685700D01*
X73934675Y-135685700D01*
X73972000Y-135689376D01*
X74009325Y-135685700D01*
X90052478Y-135685700D01*
X90089800Y-135689376D01*
X90127122Y-135685700D01*
X90127133Y-135685700D01*
X90238786Y-135674703D01*
X90382047Y-135631246D01*
X90514076Y-135560674D01*
X90629801Y-135465701D01*
X90653604Y-135436697D01*
X92392853Y-133697449D01*
X92452820Y-133729502D01*
X92572518Y-133765812D01*
X92697000Y-133778072D01*
X93261250Y-133775000D01*
X93420000Y-133616250D01*
X93420000Y-132417000D01*
X93400000Y-132417000D01*
X93400000Y-132163000D01*
X93420000Y-132163000D01*
X93420000Y-130963750D01*
X93261250Y-130805000D01*
X93131500Y-130804294D01*
X93131500Y-129576369D01*
X93172518Y-129588812D01*
X93297000Y-129601072D01*
X93474930Y-129601072D01*
X93491454Y-129655546D01*
X93562026Y-129787576D01*
X93633201Y-129874302D01*
X93657000Y-129903301D01*
X93685998Y-129927099D01*
X94595557Y-130836658D01*
X94521482Y-130814188D01*
X94397000Y-130801928D01*
X93832750Y-130805000D01*
X93674000Y-130963750D01*
X93674000Y-132163000D01*
X93694000Y-132163000D01*
X93694000Y-132417000D01*
X93674000Y-132417000D01*
X93674000Y-133616250D01*
X93832750Y-133775000D01*
X94397000Y-133778072D01*
X94521482Y-133765812D01*
X94641180Y-133729502D01*
X94751494Y-133670537D01*
X94848185Y-133591185D01*
X94927537Y-133494494D01*
X94986502Y-133384180D01*
X95008513Y-133311620D01*
X95140368Y-133443475D01*
X95383589Y-133605990D01*
X95653842Y-133717932D01*
X95940740Y-133775000D01*
X96233260Y-133775000D01*
X96520158Y-133717932D01*
X96790411Y-133605990D01*
X96986899Y-133474701D01*
X97514001Y-134001802D01*
X97537799Y-134030801D01*
X97566797Y-134054599D01*
X97653523Y-134125774D01*
X97728219Y-134165700D01*
X97785553Y-134196346D01*
X97928814Y-134239803D01*
X98040467Y-134250800D01*
X98040476Y-134250800D01*
X98077799Y-134254476D01*
X98115122Y-134250800D01*
X115013078Y-134250800D01*
X115050400Y-134254476D01*
X115087722Y-134250800D01*
X115087733Y-134250800D01*
X115199386Y-134239803D01*
X115342647Y-134196346D01*
X115474676Y-134125774D01*
X115590401Y-134030801D01*
X115614204Y-134001797D01*
X119933304Y-129682698D01*
X119962301Y-129658901D01*
X120057274Y-129543176D01*
X120127846Y-129411147D01*
X120171303Y-129267886D01*
X120182300Y-129156233D01*
X120182300Y-129156224D01*
X120185976Y-129118901D01*
X120182300Y-129081578D01*
X120182300Y-127090332D01*
X120185977Y-127053000D01*
X120171303Y-126904014D01*
X120127846Y-126760753D01*
X120057274Y-126628724D01*
X119962301Y-126512999D01*
X119846576Y-126418026D01*
X119714547Y-126347454D01*
X119648305Y-126327360D01*
X119627537Y-126288506D01*
X119548185Y-126191815D01*
X119451494Y-126112463D01*
X119341180Y-126053498D01*
X119221482Y-126017188D01*
X119097000Y-126004928D01*
X118025728Y-126004928D01*
X117977667Y-125915011D01*
X117890817Y-125809183D01*
X117784989Y-125722333D01*
X117664252Y-125657798D01*
X117533244Y-125618057D01*
X117431135Y-125608000D01*
X117397000Y-125604638D01*
X117362866Y-125608000D01*
X116519042Y-125608000D01*
X116942251Y-125432701D01*
X117372826Y-125145000D01*
X117739000Y-124778826D01*
X118026701Y-124348251D01*
X118224873Y-123869822D01*
X118325900Y-123361924D01*
X118325900Y-122956652D01*
X119291100Y-122956652D01*
X119291100Y-123249348D01*
X119348202Y-123536421D01*
X119460212Y-123806838D01*
X119622826Y-124050206D01*
X119829794Y-124257174D01*
X120073162Y-124419788D01*
X120343579Y-124531798D01*
X120630652Y-124588900D01*
X120923348Y-124588900D01*
X121210421Y-124531798D01*
X121480838Y-124419788D01*
X121724206Y-124257174D01*
X121931174Y-124050206D01*
X122093788Y-123806838D01*
X122205798Y-123536421D01*
X122262900Y-123249348D01*
X122262900Y-122956652D01*
X122205798Y-122669579D01*
X122093788Y-122399162D01*
X121931174Y-122155794D01*
X121724206Y-121948826D01*
X121480838Y-121786212D01*
X121210421Y-121674202D01*
X120923348Y-121617100D01*
X120630652Y-121617100D01*
X120343579Y-121674202D01*
X120073162Y-121786212D01*
X119829794Y-121948826D01*
X119622826Y-122155794D01*
X119460212Y-122399162D01*
X119348202Y-122669579D01*
X119291100Y-122956652D01*
X118325900Y-122956652D01*
X118325900Y-122844076D01*
X118224873Y-122336178D01*
X118026701Y-121857749D01*
X117739000Y-121427174D01*
X117671826Y-121360000D01*
X121162678Y-121360000D01*
X121200000Y-121363676D01*
X121237322Y-121360000D01*
X121237333Y-121360000D01*
X121348986Y-121349003D01*
X121492247Y-121305546D01*
X121624276Y-121234974D01*
X121740001Y-121140001D01*
X121763803Y-121110998D01*
X122498004Y-120376798D01*
X122527001Y-120353001D01*
X122564135Y-120307753D01*
X122621974Y-120237277D01*
X122692546Y-120105247D01*
X122702706Y-120071754D01*
X122736003Y-119961986D01*
X122741018Y-119911072D01*
X123262000Y-119911072D01*
X123386482Y-119898812D01*
X123506180Y-119862502D01*
X123616494Y-119803537D01*
X123713185Y-119724185D01*
X123792537Y-119627494D01*
X123851502Y-119517180D01*
X123887812Y-119397482D01*
X123900072Y-119273000D01*
X123900072Y-116773000D01*
X123887812Y-116648518D01*
X123851502Y-116528820D01*
X123792537Y-116418506D01*
X123713185Y-116321815D01*
X123616494Y-116242463D01*
X123506180Y-116183498D01*
X123386482Y-116147188D01*
X123262000Y-116134928D01*
X120712000Y-116134928D01*
X120587518Y-116147188D01*
X120467820Y-116183498D01*
X120357506Y-116242463D01*
X120260815Y-116321815D01*
X120181463Y-116418506D01*
X120122498Y-116528820D01*
X120086188Y-116648518D01*
X120073928Y-116773000D01*
X120073928Y-116929259D01*
X119895363Y-116662017D01*
X119597983Y-116364637D01*
X119248302Y-116130988D01*
X118859756Y-115970047D01*
X118447279Y-115888000D01*
X118026721Y-115888000D01*
X117614244Y-115970047D01*
X117225698Y-116130988D01*
X116876017Y-116364637D01*
X116578637Y-116662017D01*
X116446691Y-116859489D01*
X116415974Y-116802023D01*
X116344799Y-116715297D01*
X116321001Y-116686299D01*
X116292003Y-116662501D01*
X111647500Y-112017999D01*
X111647500Y-103594903D01*
X112050239Y-103997642D01*
X112576890Y-104349539D01*
X113162073Y-104591930D01*
X113783301Y-104715500D01*
X114416699Y-104715500D01*
X115037927Y-104591930D01*
X115623110Y-104349539D01*
X116149761Y-103997642D01*
X116197403Y-103950000D01*
X118161928Y-103950000D01*
X118161928Y-104850000D01*
X118174188Y-104974482D01*
X118210498Y-105094180D01*
X118269463Y-105204494D01*
X118348815Y-105301185D01*
X118445506Y-105380537D01*
X118555820Y-105439502D01*
X118594508Y-105451238D01*
X118570226Y-105467463D01*
X118426063Y-105611626D01*
X118312795Y-105781144D01*
X118234774Y-105969502D01*
X118195000Y-106169461D01*
X118195000Y-106373339D01*
X118234774Y-106573298D01*
X118312795Y-106761656D01*
X118426063Y-106931174D01*
X118570226Y-107075337D01*
X118739744Y-107188605D01*
X118928102Y-107266626D01*
X119128061Y-107306400D01*
X119331939Y-107306400D01*
X119531898Y-107266626D01*
X119720256Y-107188605D01*
X119889774Y-107075337D01*
X120033937Y-106931174D01*
X120147205Y-106761656D01*
X120225226Y-106573298D01*
X120265000Y-106373339D01*
X120265000Y-106169461D01*
X120225226Y-105969502D01*
X120160000Y-105812034D01*
X120160000Y-105465038D01*
X120244180Y-105439502D01*
X120354494Y-105380537D01*
X120451185Y-105301185D01*
X120530537Y-105204494D01*
X120589502Y-105094180D01*
X120625812Y-104974482D01*
X120638072Y-104850000D01*
X120638072Y-103950000D01*
X120625812Y-103825518D01*
X120589502Y-103705820D01*
X120530537Y-103595506D01*
X120451185Y-103498815D01*
X120354494Y-103419463D01*
X120244180Y-103360498D01*
X120124482Y-103324188D01*
X120000000Y-103311928D01*
X118800000Y-103311928D01*
X118675518Y-103324188D01*
X118555820Y-103360498D01*
X118445506Y-103419463D01*
X118348815Y-103498815D01*
X118269463Y-103595506D01*
X118210498Y-103705820D01*
X118174188Y-103825518D01*
X118161928Y-103950000D01*
X116197403Y-103950000D01*
X116597642Y-103549761D01*
X116949539Y-103023110D01*
X117191930Y-102437927D01*
X117315500Y-101816699D01*
X117315500Y-101183301D01*
X117209420Y-100650000D01*
X118161928Y-100650000D01*
X118161928Y-101550000D01*
X118174188Y-101674482D01*
X118210498Y-101794180D01*
X118269463Y-101904494D01*
X118348815Y-102001185D01*
X118445506Y-102080537D01*
X118555820Y-102139502D01*
X118675518Y-102175812D01*
X118800000Y-102188072D01*
X120000000Y-102188072D01*
X120124482Y-102175812D01*
X120244180Y-102139502D01*
X120354494Y-102080537D01*
X120451185Y-102001185D01*
X120530537Y-101904494D01*
X120589502Y-101794180D01*
X120625812Y-101674482D01*
X120638072Y-101550000D01*
X120638072Y-100650000D01*
X120625812Y-100525518D01*
X120589502Y-100405820D01*
X120530537Y-100295506D01*
X120518573Y-100280928D01*
X120878490Y-99921011D01*
X120948816Y-99935000D01*
X121251184Y-99935000D01*
X121547743Y-99876011D01*
X121827095Y-99760299D01*
X122078505Y-99592312D01*
X122292312Y-99378505D01*
X122460299Y-99127095D01*
X122576011Y-98847743D01*
X122635000Y-98551184D01*
X122635000Y-98248816D01*
X122576011Y-97952257D01*
X122460299Y-97672905D01*
X122292312Y-97421495D01*
X122078505Y-97207688D01*
X121827095Y-97039701D01*
X121547743Y-96923989D01*
X121251184Y-96865000D01*
X120948816Y-96865000D01*
X120652257Y-96923989D01*
X120372905Y-97039701D01*
X120121495Y-97207688D01*
X119907688Y-97421495D01*
X119739701Y-97672905D01*
X119623989Y-97952257D01*
X119565000Y-98248816D01*
X119565000Y-98551184D01*
X119623989Y-98847743D01*
X119676173Y-98973726D01*
X118888998Y-99760901D01*
X118860000Y-99784699D01*
X118836202Y-99813697D01*
X118836201Y-99813698D01*
X118765026Y-99900424D01*
X118700170Y-100021760D01*
X118675518Y-100024188D01*
X118555820Y-100060498D01*
X118445506Y-100119463D01*
X118348815Y-100198815D01*
X118269463Y-100295506D01*
X118210498Y-100405820D01*
X118174188Y-100525518D01*
X118161928Y-100650000D01*
X117209420Y-100650000D01*
X117191930Y-100562073D01*
X116949539Y-99976890D01*
X116597642Y-99450239D01*
X116149761Y-99002358D01*
X115623110Y-98650461D01*
X115037927Y-98408070D01*
X114416699Y-98284500D01*
X113783301Y-98284500D01*
X113162073Y-98408070D01*
X112576890Y-98650461D01*
X112050239Y-99002358D01*
X111647500Y-99405097D01*
X111647500Y-95968622D01*
X111651176Y-95931299D01*
X111647500Y-95893976D01*
X111647500Y-95893967D01*
X111636503Y-95782314D01*
X111593046Y-95639053D01*
X111522474Y-95507024D01*
X111479789Y-95455012D01*
X111451299Y-95420296D01*
X111451295Y-95420292D01*
X111427501Y-95391299D01*
X111398508Y-95367505D01*
X106543004Y-90512003D01*
X106519201Y-90482999D01*
X106403476Y-90388026D01*
X106271447Y-90317454D01*
X106128186Y-90273997D01*
X106016533Y-90263000D01*
X106016522Y-90263000D01*
X105979200Y-90259324D01*
X105941878Y-90263000D01*
X104900072Y-90263000D01*
X104900072Y-89983301D01*
X110884500Y-89983301D01*
X110884500Y-90616699D01*
X111008070Y-91237927D01*
X111250461Y-91823110D01*
X111602358Y-92349761D01*
X112050239Y-92797642D01*
X112576890Y-93149539D01*
X113162073Y-93391930D01*
X113783301Y-93515500D01*
X114416699Y-93515500D01*
X115037927Y-93391930D01*
X115383434Y-93248816D01*
X119565000Y-93248816D01*
X119565000Y-93551184D01*
X119623989Y-93847743D01*
X119739701Y-94127095D01*
X119907688Y-94378505D01*
X120121495Y-94592312D01*
X120372905Y-94760299D01*
X120652257Y-94876011D01*
X120948816Y-94935000D01*
X121251184Y-94935000D01*
X121547743Y-94876011D01*
X121827095Y-94760299D01*
X122078505Y-94592312D01*
X122292312Y-94378505D01*
X122460299Y-94127095D01*
X122576011Y-93847743D01*
X122635000Y-93551184D01*
X122635000Y-93248816D01*
X122576011Y-92952257D01*
X122460299Y-92672905D01*
X122292312Y-92421495D01*
X122078505Y-92207688D01*
X121827095Y-92039701D01*
X121547743Y-91923989D01*
X121251184Y-91865000D01*
X120948816Y-91865000D01*
X120652257Y-91923989D01*
X120372905Y-92039701D01*
X120121495Y-92207688D01*
X119907688Y-92421495D01*
X119739701Y-92672905D01*
X119623989Y-92952257D01*
X119565000Y-93248816D01*
X115383434Y-93248816D01*
X115623110Y-93149539D01*
X116149761Y-92797642D01*
X116597642Y-92349761D01*
X116949539Y-91823110D01*
X117191930Y-91237927D01*
X117315500Y-90616699D01*
X117315500Y-89983301D01*
X117191930Y-89362073D01*
X116949539Y-88776890D01*
X116597642Y-88250239D01*
X116149761Y-87802358D01*
X115623110Y-87450461D01*
X115037927Y-87208070D01*
X114416699Y-87084500D01*
X113783301Y-87084500D01*
X113162073Y-87208070D01*
X112576890Y-87450461D01*
X112050239Y-87802358D01*
X111602358Y-88250239D01*
X111250461Y-88776890D01*
X111008070Y-89362073D01*
X110884500Y-89983301D01*
X104900072Y-89983301D01*
X104900072Y-89773000D01*
X104887812Y-89648518D01*
X104851502Y-89528820D01*
X104792537Y-89418506D01*
X104713185Y-89321815D01*
X104616494Y-89242463D01*
X104506180Y-89183498D01*
X104386482Y-89147188D01*
X104262000Y-89134928D01*
X101712000Y-89134928D01*
X101587518Y-89147188D01*
X101467820Y-89183498D01*
X101357506Y-89242463D01*
X101260815Y-89321815D01*
X101181463Y-89418506D01*
X101122498Y-89528820D01*
X101086188Y-89648518D01*
X101073928Y-89773000D01*
X101073928Y-89929259D01*
X100895363Y-89662017D01*
X100597983Y-89364637D01*
X100248302Y-89130988D01*
X99859756Y-88970047D01*
X99447279Y-88888000D01*
X99026721Y-88888000D01*
X98614244Y-88970047D01*
X98225698Y-89130988D01*
X97876017Y-89364637D01*
X97578637Y-89662017D01*
X97344988Y-90011698D01*
X97184047Y-90400244D01*
X97102000Y-90812721D01*
X97102000Y-91233279D01*
X97184047Y-91645756D01*
X97344988Y-92034302D01*
X97578637Y-92383983D01*
X97635254Y-92440600D01*
X97033400Y-92440600D01*
X97033400Y-85917225D01*
X97037076Y-85879900D01*
X97033400Y-85842575D01*
X97033400Y-85842567D01*
X97022403Y-85730914D01*
X96978946Y-85587653D01*
X96908374Y-85455624D01*
X96813401Y-85339899D01*
X96784403Y-85316101D01*
X96258210Y-84789908D01*
X96302000Y-84569760D01*
X96302000Y-84277240D01*
X96244932Y-83990342D01*
X96132990Y-83720089D01*
X95970475Y-83476868D01*
X95763632Y-83270025D01*
X95520411Y-83107510D01*
X95250158Y-82995568D01*
X94963260Y-82938500D01*
X94670740Y-82938500D01*
X94450592Y-82982291D01*
X94199604Y-82731303D01*
X94175801Y-82702299D01*
X94060076Y-82607326D01*
X93928047Y-82536754D01*
X93784786Y-82493297D01*
X93673133Y-82482300D01*
X93673122Y-82482300D01*
X93635800Y-82478624D01*
X93598478Y-82482300D01*
X79100325Y-82482300D01*
X79063000Y-82478624D01*
X79025675Y-82482300D01*
X79025667Y-82482300D01*
X78914014Y-82493297D01*
X78770753Y-82536754D01*
X78638724Y-82607326D01*
X78522999Y-82702299D01*
X78499201Y-82731297D01*
X76596003Y-84634496D01*
X76566999Y-84658299D01*
X76519854Y-84715746D01*
X76472026Y-84774024D01*
X76427857Y-84856658D01*
X76401454Y-84906054D01*
X76357997Y-85049315D01*
X76347000Y-85160968D01*
X76347000Y-85160978D01*
X76343324Y-85198300D01*
X76347000Y-85235622D01*
X76347001Y-93052197D01*
X76022000Y-93377198D01*
X76022000Y-93352721D01*
X75939953Y-92940244D01*
X75779012Y-92551698D01*
X75545363Y-92202017D01*
X75247983Y-91904637D01*
X74898302Y-91670988D01*
X74509756Y-91510047D01*
X74097279Y-91428000D01*
X73676721Y-91428000D01*
X73264244Y-91510047D01*
X72875698Y-91670988D01*
X72526017Y-91904637D01*
X72228637Y-92202017D01*
X72050072Y-92469259D01*
X72050072Y-92313000D01*
X72037812Y-92188518D01*
X72001502Y-92068820D01*
X71942537Y-91958506D01*
X71863185Y-91861815D01*
X71766494Y-91782463D01*
X71656180Y-91723498D01*
X71536482Y-91687188D01*
X71412000Y-91674928D01*
X68862000Y-91674928D01*
X68737518Y-91687188D01*
X68617820Y-91723498D01*
X68507506Y-91782463D01*
X68418700Y-91855344D01*
X68418700Y-90733133D01*
X68422377Y-90695800D01*
X68407703Y-90546814D01*
X68364246Y-90403553D01*
X68293674Y-90271524D01*
X68222499Y-90184797D01*
X68198701Y-90155799D01*
X68169703Y-90132001D01*
X66677604Y-88639903D01*
X66653801Y-88610899D01*
X66538076Y-88515926D01*
X66406047Y-88445354D01*
X66262786Y-88401897D01*
X66151133Y-88390900D01*
X66151122Y-88390900D01*
X66113800Y-88387224D01*
X66076478Y-88390900D01*
X60529523Y-88390900D01*
X60492200Y-88387224D01*
X60454877Y-88390900D01*
X60454867Y-88390900D01*
X60343214Y-88401897D01*
X60199953Y-88445354D01*
X60067923Y-88515926D01*
X59984283Y-88584568D01*
X59952199Y-88610899D01*
X59928401Y-88639897D01*
X57449403Y-91118896D01*
X57420399Y-91142699D01*
X57365271Y-91209874D01*
X57325426Y-91258424D01*
X57286754Y-91330774D01*
X57254854Y-91390454D01*
X57211397Y-91533715D01*
X57200400Y-91645368D01*
X57200400Y-91645378D01*
X57196724Y-91682700D01*
X57200400Y-91720023D01*
X57200401Y-92880697D01*
X56973285Y-93107813D01*
X56939953Y-92940244D01*
X56779012Y-92551698D01*
X56545363Y-92202017D01*
X56247983Y-91904637D01*
X55898302Y-91670988D01*
X55509756Y-91510047D01*
X55097279Y-91428000D01*
X54676721Y-91428000D01*
X54264244Y-91510047D01*
X53875698Y-91670988D01*
X53526017Y-91904637D01*
X53228637Y-92202017D01*
X53050072Y-92469259D01*
X53050072Y-92313000D01*
X53037812Y-92188518D01*
X53001502Y-92068820D01*
X52942537Y-91958506D01*
X52863185Y-91861815D01*
X52766494Y-91782463D01*
X52656180Y-91723498D01*
X52536482Y-91687188D01*
X52412000Y-91674928D01*
X49862000Y-91674928D01*
X49737518Y-91687188D01*
X49617820Y-91723498D01*
X49507506Y-91782463D01*
X49410815Y-91861815D01*
X49331463Y-91958506D01*
X49272498Y-92068820D01*
X49236188Y-92188518D01*
X49223928Y-92313000D01*
X47932000Y-92313000D01*
X47932000Y-76872170D01*
X52353340Y-76872170D01*
X52353340Y-77333830D01*
X52443406Y-77786620D01*
X52620075Y-78213139D01*
X52876560Y-78596996D01*
X53203004Y-78923440D01*
X53586861Y-79179925D01*
X54013380Y-79356594D01*
X54466170Y-79446660D01*
X54927830Y-79446660D01*
X55380620Y-79356594D01*
X55807139Y-79179925D01*
X56190996Y-78923440D01*
X56517440Y-78596996D01*
X56773925Y-78213139D01*
X56950594Y-77786620D01*
X57040660Y-77333830D01*
X57040660Y-76872170D01*
X117353340Y-76872170D01*
X117353340Y-77333830D01*
X117443406Y-77786620D01*
X117620075Y-78213139D01*
X117876560Y-78596996D01*
X118203004Y-78923440D01*
X118586861Y-79179925D01*
X119013380Y-79356594D01*
X119466170Y-79446660D01*
X119927830Y-79446660D01*
X120380620Y-79356594D01*
X120807139Y-79179925D01*
X121190996Y-78923440D01*
X121517440Y-78596996D01*
X121773925Y-78213139D01*
X121950594Y-77786620D01*
X122040660Y-77333830D01*
X122040660Y-76872170D01*
X121950594Y-76419380D01*
X121773925Y-75992861D01*
X121517440Y-75609004D01*
X121190996Y-75282560D01*
X120807139Y-75026075D01*
X120380620Y-74849406D01*
X119927830Y-74759340D01*
X119466170Y-74759340D01*
X119013380Y-74849406D01*
X118586861Y-75026075D01*
X118203004Y-75282560D01*
X117876560Y-75609004D01*
X117620075Y-75992861D01*
X117443406Y-76419380D01*
X117353340Y-76872170D01*
X57040660Y-76872170D01*
X56950594Y-76419380D01*
X56773925Y-75992861D01*
X56517440Y-75609004D01*
X56190996Y-75282560D01*
X55807139Y-75026075D01*
X55380620Y-74849406D01*
X54927830Y-74759340D01*
X54466170Y-74759340D01*
X54013380Y-74849406D01*
X53586861Y-75026075D01*
X53203004Y-75282560D01*
X52876560Y-75609004D01*
X52620075Y-75992861D01*
X52443406Y-76419380D01*
X52353340Y-76872170D01*
X47932000Y-76872170D01*
X47932000Y-74632732D01*
X48002234Y-73845784D01*
X48202043Y-73115402D01*
X48528032Y-72431952D01*
X48539315Y-72416250D01*
X78092000Y-72416250D01*
X78092000Y-72708770D01*
X78149068Y-72995668D01*
X78261010Y-73265921D01*
X78423525Y-73509142D01*
X78630368Y-73715985D01*
X78804760Y-73832510D01*
X78630368Y-73949035D01*
X78423525Y-74155878D01*
X78261010Y-74399099D01*
X78149068Y-74669352D01*
X78092000Y-74956250D01*
X78092000Y-75248770D01*
X78149068Y-75535668D01*
X78261010Y-75805921D01*
X78423525Y-76049142D01*
X78630368Y-76255985D01*
X78873589Y-76418500D01*
X79143842Y-76530442D01*
X79430740Y-76587510D01*
X79723260Y-76587510D01*
X80010158Y-76530442D01*
X80280411Y-76418500D01*
X80523632Y-76255985D01*
X80730475Y-76049142D01*
X80892990Y-75805921D01*
X81004932Y-75535668D01*
X81062000Y-75248770D01*
X81062000Y-74956250D01*
X81004932Y-74669352D01*
X80892990Y-74399099D01*
X80730475Y-74155878D01*
X80523632Y-73949035D01*
X80349240Y-73832510D01*
X80523632Y-73715985D01*
X80730475Y-73509142D01*
X80892990Y-73265921D01*
X81004932Y-72995668D01*
X81062000Y-72708770D01*
X81062000Y-72416250D01*
X93332000Y-72416250D01*
X93332000Y-72708770D01*
X93389068Y-72995668D01*
X93501010Y-73265921D01*
X93663525Y-73509142D01*
X93870368Y-73715985D01*
X94044760Y-73832510D01*
X93870368Y-73949035D01*
X93663525Y-74155878D01*
X93501010Y-74399099D01*
X93389068Y-74669352D01*
X93332000Y-74956250D01*
X93332000Y-75248770D01*
X93389068Y-75535668D01*
X93501010Y-75805921D01*
X93663525Y-76049142D01*
X93870368Y-76255985D01*
X94113589Y-76418500D01*
X94383842Y-76530442D01*
X94670740Y-76587510D01*
X94963260Y-76587510D01*
X95250158Y-76530442D01*
X95520411Y-76418500D01*
X95763632Y-76255985D01*
X95970475Y-76049142D01*
X96132990Y-75805921D01*
X96244932Y-75535668D01*
X96302000Y-75248770D01*
X96302000Y-74956250D01*
X96244932Y-74669352D01*
X96132990Y-74399099D01*
X95970475Y-74155878D01*
X95763632Y-73949035D01*
X95589240Y-73832510D01*
X95763632Y-73715985D01*
X95970475Y-73509142D01*
X96132990Y-73265921D01*
X96244932Y-72995668D01*
X96302000Y-72708770D01*
X96302000Y-72416250D01*
X96244932Y-72129352D01*
X96132990Y-71859099D01*
X95970475Y-71615878D01*
X95763632Y-71409035D01*
X95520411Y-71246520D01*
X95250158Y-71134578D01*
X94963260Y-71077510D01*
X94670740Y-71077510D01*
X94383842Y-71134578D01*
X94113589Y-71246520D01*
X93870368Y-71409035D01*
X93663525Y-71615878D01*
X93501010Y-71859099D01*
X93389068Y-72129352D01*
X93332000Y-72416250D01*
X81062000Y-72416250D01*
X81004932Y-72129352D01*
X80892990Y-71859099D01*
X80730475Y-71615878D01*
X80523632Y-71409035D01*
X80280411Y-71246520D01*
X80010158Y-71134578D01*
X79723260Y-71077510D01*
X79430740Y-71077510D01*
X79143842Y-71134578D01*
X78873589Y-71246520D01*
X78630368Y-71409035D01*
X78423525Y-71615878D01*
X78261010Y-71859099D01*
X78149068Y-72129352D01*
X78092000Y-72416250D01*
X48539315Y-72416250D01*
X48969897Y-71817032D01*
X49513675Y-71290075D01*
X50142174Y-70867741D01*
X50835528Y-70563379D01*
X51577476Y-70385254D01*
X52220949Y-70338000D01*
X122167268Y-70338000D01*
X122954216Y-70408234D01*
%TA.AperFunction,Conductor*%
D21*
G36*
X122954216Y-70408234D02*
G01*
X123684598Y-70608043D01*
X124368048Y-70934032D01*
X124982968Y-71375897D01*
X125509925Y-71919675D01*
X125932259Y-72548174D01*
X126236621Y-73241528D01*
X126414746Y-73983476D01*
X126462000Y-74626949D01*
X126462001Y-144573257D01*
X126391766Y-145360216D01*
X126191957Y-146090597D01*
X125865968Y-146774048D01*
X125424103Y-147388968D01*
X124880323Y-147915927D01*
X124251828Y-148338257D01*
X123558472Y-148642621D01*
X122816524Y-148820746D01*
X122173051Y-148868000D01*
X52226732Y-148868000D01*
X51439784Y-148797766D01*
X50709403Y-148597957D01*
X50025952Y-148271968D01*
X49411032Y-147830103D01*
X48884073Y-147286323D01*
X48461743Y-146657828D01*
X48157379Y-145964472D01*
X47979254Y-145222524D01*
X47932000Y-144579051D01*
X47932000Y-141872170D01*
X52353340Y-141872170D01*
X52353340Y-142333830D01*
X52443406Y-142786620D01*
X52620075Y-143213139D01*
X52876560Y-143596996D01*
X53203004Y-143923440D01*
X53586861Y-144179925D01*
X54013380Y-144356594D01*
X54466170Y-144446660D01*
X54927830Y-144446660D01*
X55380620Y-144356594D01*
X55807139Y-144179925D01*
X56190996Y-143923440D01*
X56517440Y-143596996D01*
X56773925Y-143213139D01*
X56950594Y-142786620D01*
X57040660Y-142333830D01*
X57040660Y-141872170D01*
X117353340Y-141872170D01*
X117353340Y-142333830D01*
X117443406Y-142786620D01*
X117620075Y-143213139D01*
X117876560Y-143596996D01*
X118203004Y-143923440D01*
X118586861Y-144179925D01*
X119013380Y-144356594D01*
X119466170Y-144446660D01*
X119927830Y-144446660D01*
X120380620Y-144356594D01*
X120807139Y-144179925D01*
X121190996Y-143923440D01*
X121517440Y-143596996D01*
X121773925Y-143213139D01*
X121950594Y-142786620D01*
X122040660Y-142333830D01*
X122040660Y-141872170D01*
X121950594Y-141419380D01*
X121773925Y-140992861D01*
X121517440Y-140609004D01*
X121190996Y-140282560D01*
X120807139Y-140026075D01*
X120380620Y-139849406D01*
X119927830Y-139759340D01*
X119466170Y-139759340D01*
X119013380Y-139849406D01*
X118586861Y-140026075D01*
X118203004Y-140282560D01*
X117876560Y-140609004D01*
X117620075Y-140992861D01*
X117443406Y-141419380D01*
X117353340Y-141872170D01*
X57040660Y-141872170D01*
X56950594Y-141419380D01*
X56773925Y-140992861D01*
X56517440Y-140609004D01*
X56190996Y-140282560D01*
X55807139Y-140026075D01*
X55380620Y-139849406D01*
X54927830Y-139759340D01*
X54466170Y-139759340D01*
X54013380Y-139849406D01*
X53586861Y-140026075D01*
X53203004Y-140282560D01*
X52876560Y-140609004D01*
X52620075Y-140992861D01*
X52443406Y-141419380D01*
X52353340Y-141872170D01*
X47932000Y-141872170D01*
X47932000Y-92313000D01*
X49223928Y-92313000D01*
X49223928Y-94813000D01*
X49236188Y-94937482D01*
X49272498Y-95057180D01*
X49331463Y-95167494D01*
X49410815Y-95264185D01*
X49507506Y-95343537D01*
X49617820Y-95402502D01*
X49737518Y-95438812D01*
X49862000Y-95451072D01*
X50442425Y-95451072D01*
X50502026Y-95562576D01*
X50564790Y-95639053D01*
X50597000Y-95678301D01*
X50625998Y-95702099D01*
X51540001Y-96616103D01*
X51540000Y-98584962D01*
X51455820Y-98610498D01*
X51345506Y-98669463D01*
X51248815Y-98748815D01*
X51169463Y-98845506D01*
X51110498Y-98955820D01*
X51074188Y-99075518D01*
X51061928Y-99200000D01*
X51061928Y-100100000D01*
X51074188Y-100224482D01*
X51110498Y-100344180D01*
X51169463Y-100454494D01*
X51248815Y-100551185D01*
X51345506Y-100630537D01*
X51455820Y-100689502D01*
X51575518Y-100725812D01*
X51700000Y-100738072D01*
X52661827Y-100738072D01*
X51788998Y-101610901D01*
X51760000Y-101634699D01*
X51736202Y-101663697D01*
X51736201Y-101663698D01*
X51665026Y-101750424D01*
X51600170Y-101871760D01*
X51575518Y-101874188D01*
X51455820Y-101910498D01*
X51345506Y-101969463D01*
X51248815Y-102048815D01*
X51169463Y-102145506D01*
X51110498Y-102255820D01*
X51074188Y-102375518D01*
X51061928Y-102500000D01*
X51061928Y-103400000D01*
X51074188Y-103524482D01*
X51110498Y-103644180D01*
X51169463Y-103754494D01*
X51248815Y-103851185D01*
X51345506Y-103930537D01*
X51455820Y-103989502D01*
X51575518Y-104025812D01*
X51600170Y-104028240D01*
X51665026Y-104149576D01*
X51718966Y-104215301D01*
X51760000Y-104265301D01*
X51788998Y-104289099D01*
X51980200Y-104480301D01*
X51980201Y-118674928D01*
X49862000Y-118674928D01*
X49737518Y-118687188D01*
X49617820Y-118723498D01*
X49507506Y-118782463D01*
X49410815Y-118861815D01*
X49331463Y-118958506D01*
X49272498Y-119068820D01*
X49236188Y-119188518D01*
X49223928Y-119313000D01*
X49223928Y-121813000D01*
X49236188Y-121937482D01*
X49272498Y-122057180D01*
X49331463Y-122167494D01*
X49410815Y-122264185D01*
X49507506Y-122343537D01*
X49617820Y-122402502D01*
X49737518Y-122438812D01*
X49862000Y-122451072D01*
X50377000Y-122451072D01*
X50377001Y-124674368D01*
X50373324Y-124711700D01*
X50377001Y-124749032D01*
X50377001Y-124749033D01*
X50387998Y-124860686D01*
X50399703Y-124899274D01*
X50431454Y-125003946D01*
X50502026Y-125135976D01*
X50552916Y-125197985D01*
X50597000Y-125251701D01*
X50625998Y-125275499D01*
X51181426Y-125830928D01*
X51169463Y-125845506D01*
X51110498Y-125955820D01*
X51074188Y-126075518D01*
X51061928Y-126200000D01*
X51061928Y-127100000D01*
X51074188Y-127224482D01*
X51110498Y-127344180D01*
X51169463Y-127454494D01*
X51248815Y-127551185D01*
X51345506Y-127630537D01*
X51455820Y-127689502D01*
X51575518Y-127725812D01*
X51700000Y-127738072D01*
X52465401Y-127738072D01*
X52465401Y-127934497D01*
X51788998Y-128610901D01*
X51760000Y-128634699D01*
X51736202Y-128663697D01*
X51736201Y-128663698D01*
X51665026Y-128750424D01*
X51600170Y-128871760D01*
X51575518Y-128874188D01*
X51455820Y-128910498D01*
X51345506Y-128969463D01*
X51248815Y-129048815D01*
X51169463Y-129145506D01*
X51110498Y-129255820D01*
X51074188Y-129375518D01*
X51061928Y-129500000D01*
X51061928Y-130400000D01*
X51074188Y-130524482D01*
X51110498Y-130644180D01*
X51169463Y-130754494D01*
X51248815Y-130851185D01*
X51345506Y-130930537D01*
X51455820Y-130989502D01*
X51575518Y-131025812D01*
X51700000Y-131038072D01*
X52900000Y-131038072D01*
X53024482Y-131025812D01*
X53144180Y-130989502D01*
X53254494Y-130930537D01*
X53351185Y-130851185D01*
X53430537Y-130754494D01*
X53489502Y-130644180D01*
X53525812Y-130524482D01*
X53538072Y-130400000D01*
X53538072Y-129500000D01*
X53525812Y-129375518D01*
X53489502Y-129255820D01*
X53430537Y-129145506D01*
X53418573Y-129130928D01*
X53736403Y-128813099D01*
X53765401Y-128789301D01*
X53860374Y-128673576D01*
X53930946Y-128541547D01*
X53974403Y-128398286D01*
X53985400Y-128286633D01*
X53985400Y-128286624D01*
X53989076Y-128249301D01*
X53985400Y-128211978D01*
X53985400Y-125086322D01*
X53989076Y-125048999D01*
X53985400Y-125011676D01*
X53985400Y-125011667D01*
X53974403Y-124900014D01*
X53930946Y-124756753D01*
X53860374Y-124624724D01*
X53821484Y-124577336D01*
X54050421Y-124531798D01*
X54320838Y-124419788D01*
X54564206Y-124257174D01*
X54771174Y-124050206D01*
X54933788Y-123806838D01*
X55045798Y-123536421D01*
X55102900Y-123249348D01*
X55102900Y-122956652D01*
X55051451Y-122698000D01*
X55097279Y-122698000D01*
X55437000Y-122630425D01*
X55437001Y-126004928D01*
X55297000Y-126004928D01*
X55172518Y-126017188D01*
X55052820Y-126053498D01*
X54942506Y-126112463D01*
X54845815Y-126191815D01*
X54766463Y-126288506D01*
X54745695Y-126327360D01*
X54679453Y-126347454D01*
X54547424Y-126418026D01*
X54431699Y-126512999D01*
X54336726Y-126628724D01*
X54266154Y-126760753D01*
X54222697Y-126904014D01*
X54208023Y-127053000D01*
X54211701Y-127090343D01*
X54211700Y-129115177D01*
X54208024Y-129152500D01*
X54211700Y-129189822D01*
X54211700Y-129189832D01*
X54222697Y-129301485D01*
X54259492Y-129422785D01*
X54266154Y-129444746D01*
X54336726Y-129576776D01*
X54357579Y-129602185D01*
X54431699Y-129692501D01*
X54460703Y-129716304D01*
X59653401Y-134909003D01*
X59677199Y-134938001D01*
X59792924Y-135032974D01*
X59924953Y-135103546D01*
X60068214Y-135147003D01*
X60179867Y-135158000D01*
X60179876Y-135158000D01*
X60217199Y-135161676D01*
X60254522Y-135158000D01*
X70247578Y-135158000D01*
X70284900Y-135161676D01*
X70322222Y-135158000D01*
X70322233Y-135158000D01*
X70433886Y-135147003D01*
X70577147Y-135103546D01*
X70709176Y-135032974D01*
X70824901Y-134938001D01*
X70848704Y-134908997D01*
X71864600Y-133893101D01*
X73408201Y-135436703D01*
X73431999Y-135465701D01*
X73547724Y-135560674D01*
X73679753Y-135631246D01*
X73823014Y-135674703D01*
X73934667Y-135685700D01*
X73934675Y-135685700D01*
X73972000Y-135689376D01*
X74009325Y-135685700D01*
X90052478Y-135685700D01*
X90089800Y-135689376D01*
X90127122Y-135685700D01*
X90127133Y-135685700D01*
X90238786Y-135674703D01*
X90382047Y-135631246D01*
X90514076Y-135560674D01*
X90629801Y-135465701D01*
X90653604Y-135436697D01*
X92392853Y-133697449D01*
X92452820Y-133729502D01*
X92572518Y-133765812D01*
X92697000Y-133778072D01*
X93261250Y-133775000D01*
X93420000Y-133616250D01*
X93420000Y-132417000D01*
X93400000Y-132417000D01*
X93400000Y-132163000D01*
X93420000Y-132163000D01*
X93420000Y-130963750D01*
X93261250Y-130805000D01*
X93131500Y-130804294D01*
X93131500Y-129576369D01*
X93172518Y-129588812D01*
X93297000Y-129601072D01*
X93474930Y-129601072D01*
X93491454Y-129655546D01*
X93562026Y-129787576D01*
X93633201Y-129874302D01*
X93657000Y-129903301D01*
X93685998Y-129927099D01*
X94595557Y-130836658D01*
X94521482Y-130814188D01*
X94397000Y-130801928D01*
X93832750Y-130805000D01*
X93674000Y-130963750D01*
X93674000Y-132163000D01*
X93694000Y-132163000D01*
X93694000Y-132417000D01*
X93674000Y-132417000D01*
X93674000Y-133616250D01*
X93832750Y-133775000D01*
X94397000Y-133778072D01*
X94521482Y-133765812D01*
X94641180Y-133729502D01*
X94751494Y-133670537D01*
X94848185Y-133591185D01*
X94927537Y-133494494D01*
X94986502Y-133384180D01*
X95008513Y-133311620D01*
X95140368Y-133443475D01*
X95383589Y-133605990D01*
X95653842Y-133717932D01*
X95940740Y-133775000D01*
X96233260Y-133775000D01*
X96520158Y-133717932D01*
X96790411Y-133605990D01*
X96986899Y-133474701D01*
X97514001Y-134001802D01*
X97537799Y-134030801D01*
X97566797Y-134054599D01*
X97653523Y-134125774D01*
X97728219Y-134165700D01*
X97785553Y-134196346D01*
X97928814Y-134239803D01*
X98040467Y-134250800D01*
X98040476Y-134250800D01*
X98077799Y-134254476D01*
X98115122Y-134250800D01*
X115013078Y-134250800D01*
X115050400Y-134254476D01*
X115087722Y-134250800D01*
X115087733Y-134250800D01*
X115199386Y-134239803D01*
X115342647Y-134196346D01*
X115474676Y-134125774D01*
X115590401Y-134030801D01*
X115614204Y-134001797D01*
X119933304Y-129682698D01*
X119962301Y-129658901D01*
X120057274Y-129543176D01*
X120127846Y-129411147D01*
X120171303Y-129267886D01*
X120182300Y-129156233D01*
X120182300Y-129156224D01*
X120185976Y-129118901D01*
X120182300Y-129081578D01*
X120182300Y-127090332D01*
X120185977Y-127053000D01*
X120171303Y-126904014D01*
X120127846Y-126760753D01*
X120057274Y-126628724D01*
X119962301Y-126512999D01*
X119846576Y-126418026D01*
X119714547Y-126347454D01*
X119648305Y-126327360D01*
X119627537Y-126288506D01*
X119548185Y-126191815D01*
X119451494Y-126112463D01*
X119341180Y-126053498D01*
X119221482Y-126017188D01*
X119097000Y-126004928D01*
X118025728Y-126004928D01*
X117977667Y-125915011D01*
X117890817Y-125809183D01*
X117784989Y-125722333D01*
X117664252Y-125657798D01*
X117533244Y-125618057D01*
X117431135Y-125608000D01*
X117397000Y-125604638D01*
X117362866Y-125608000D01*
X116519042Y-125608000D01*
X116942251Y-125432701D01*
X117372826Y-125145000D01*
X117739000Y-124778826D01*
X118026701Y-124348251D01*
X118224873Y-123869822D01*
X118325900Y-123361924D01*
X118325900Y-122956652D01*
X119291100Y-122956652D01*
X119291100Y-123249348D01*
X119348202Y-123536421D01*
X119460212Y-123806838D01*
X119622826Y-124050206D01*
X119829794Y-124257174D01*
X120073162Y-124419788D01*
X120343579Y-124531798D01*
X120630652Y-124588900D01*
X120923348Y-124588900D01*
X121210421Y-124531798D01*
X121480838Y-124419788D01*
X121724206Y-124257174D01*
X121931174Y-124050206D01*
X122093788Y-123806838D01*
X122205798Y-123536421D01*
X122262900Y-123249348D01*
X122262900Y-122956652D01*
X122205798Y-122669579D01*
X122093788Y-122399162D01*
X121931174Y-122155794D01*
X121724206Y-121948826D01*
X121480838Y-121786212D01*
X121210421Y-121674202D01*
X120923348Y-121617100D01*
X120630652Y-121617100D01*
X120343579Y-121674202D01*
X120073162Y-121786212D01*
X119829794Y-121948826D01*
X119622826Y-122155794D01*
X119460212Y-122399162D01*
X119348202Y-122669579D01*
X119291100Y-122956652D01*
X118325900Y-122956652D01*
X118325900Y-122844076D01*
X118224873Y-122336178D01*
X118026701Y-121857749D01*
X117739000Y-121427174D01*
X117671826Y-121360000D01*
X121162678Y-121360000D01*
X121200000Y-121363676D01*
X121237322Y-121360000D01*
X121237333Y-121360000D01*
X121348986Y-121349003D01*
X121492247Y-121305546D01*
X121624276Y-121234974D01*
X121740001Y-121140001D01*
X121763803Y-121110998D01*
X122498004Y-120376798D01*
X122527001Y-120353001D01*
X122564135Y-120307753D01*
X122621974Y-120237277D01*
X122692546Y-120105247D01*
X122702706Y-120071754D01*
X122736003Y-119961986D01*
X122741018Y-119911072D01*
X123262000Y-119911072D01*
X123386482Y-119898812D01*
X123506180Y-119862502D01*
X123616494Y-119803537D01*
X123713185Y-119724185D01*
X123792537Y-119627494D01*
X123851502Y-119517180D01*
X123887812Y-119397482D01*
X123900072Y-119273000D01*
X123900072Y-116773000D01*
X123887812Y-116648518D01*
X123851502Y-116528820D01*
X123792537Y-116418506D01*
X123713185Y-116321815D01*
X123616494Y-116242463D01*
X123506180Y-116183498D01*
X123386482Y-116147188D01*
X123262000Y-116134928D01*
X120712000Y-116134928D01*
X120587518Y-116147188D01*
X120467820Y-116183498D01*
X120357506Y-116242463D01*
X120260815Y-116321815D01*
X120181463Y-116418506D01*
X120122498Y-116528820D01*
X120086188Y-116648518D01*
X120073928Y-116773000D01*
X120073928Y-116929259D01*
X119895363Y-116662017D01*
X119597983Y-116364637D01*
X119248302Y-116130988D01*
X118859756Y-115970047D01*
X118447279Y-115888000D01*
X118026721Y-115888000D01*
X117614244Y-115970047D01*
X117225698Y-116130988D01*
X116876017Y-116364637D01*
X116578637Y-116662017D01*
X116446691Y-116859489D01*
X116415974Y-116802023D01*
X116344799Y-116715297D01*
X116321001Y-116686299D01*
X116292003Y-116662501D01*
X111647500Y-112017999D01*
X111647500Y-103594903D01*
X112050239Y-103997642D01*
X112576890Y-104349539D01*
X113162073Y-104591930D01*
X113783301Y-104715500D01*
X114416699Y-104715500D01*
X115037927Y-104591930D01*
X115623110Y-104349539D01*
X116149761Y-103997642D01*
X116197403Y-103950000D01*
X118161928Y-103950000D01*
X118161928Y-104850000D01*
X118174188Y-104974482D01*
X118210498Y-105094180D01*
X118269463Y-105204494D01*
X118348815Y-105301185D01*
X118445506Y-105380537D01*
X118555820Y-105439502D01*
X118594508Y-105451238D01*
X118570226Y-105467463D01*
X118426063Y-105611626D01*
X118312795Y-105781144D01*
X118234774Y-105969502D01*
X118195000Y-106169461D01*
X118195000Y-106373339D01*
X118234774Y-106573298D01*
X118312795Y-106761656D01*
X118426063Y-106931174D01*
X118570226Y-107075337D01*
X118739744Y-107188605D01*
X118928102Y-107266626D01*
X119128061Y-107306400D01*
X119331939Y-107306400D01*
X119531898Y-107266626D01*
X119720256Y-107188605D01*
X119889774Y-107075337D01*
X120033937Y-106931174D01*
X120147205Y-106761656D01*
X120225226Y-106573298D01*
X120265000Y-106373339D01*
X120265000Y-106169461D01*
X120225226Y-105969502D01*
X120160000Y-105812034D01*
X120160000Y-105465038D01*
X120244180Y-105439502D01*
X120354494Y-105380537D01*
X120451185Y-105301185D01*
X120530537Y-105204494D01*
X120589502Y-105094180D01*
X120625812Y-104974482D01*
X120638072Y-104850000D01*
X120638072Y-103950000D01*
X120625812Y-103825518D01*
X120589502Y-103705820D01*
X120530537Y-103595506D01*
X120451185Y-103498815D01*
X120354494Y-103419463D01*
X120244180Y-103360498D01*
X120124482Y-103324188D01*
X120000000Y-103311928D01*
X118800000Y-103311928D01*
X118675518Y-103324188D01*
X118555820Y-103360498D01*
X118445506Y-103419463D01*
X118348815Y-103498815D01*
X118269463Y-103595506D01*
X118210498Y-103705820D01*
X118174188Y-103825518D01*
X118161928Y-103950000D01*
X116197403Y-103950000D01*
X116597642Y-103549761D01*
X116949539Y-103023110D01*
X117191930Y-102437927D01*
X117315500Y-101816699D01*
X117315500Y-101183301D01*
X117209420Y-100650000D01*
X118161928Y-100650000D01*
X118161928Y-101550000D01*
X118174188Y-101674482D01*
X118210498Y-101794180D01*
X118269463Y-101904494D01*
X118348815Y-102001185D01*
X118445506Y-102080537D01*
X118555820Y-102139502D01*
X118675518Y-102175812D01*
X118800000Y-102188072D01*
X120000000Y-102188072D01*
X120124482Y-102175812D01*
X120244180Y-102139502D01*
X120354494Y-102080537D01*
X120451185Y-102001185D01*
X120530537Y-101904494D01*
X120589502Y-101794180D01*
X120625812Y-101674482D01*
X120638072Y-101550000D01*
X120638072Y-100650000D01*
X120625812Y-100525518D01*
X120589502Y-100405820D01*
X120530537Y-100295506D01*
X120518573Y-100280928D01*
X120878490Y-99921011D01*
X120948816Y-99935000D01*
X121251184Y-99935000D01*
X121547743Y-99876011D01*
X121827095Y-99760299D01*
X122078505Y-99592312D01*
X122292312Y-99378505D01*
X122460299Y-99127095D01*
X122576011Y-98847743D01*
X122635000Y-98551184D01*
X122635000Y-98248816D01*
X122576011Y-97952257D01*
X122460299Y-97672905D01*
X122292312Y-97421495D01*
X122078505Y-97207688D01*
X121827095Y-97039701D01*
X121547743Y-96923989D01*
X121251184Y-96865000D01*
X120948816Y-96865000D01*
X120652257Y-96923989D01*
X120372905Y-97039701D01*
X120121495Y-97207688D01*
X119907688Y-97421495D01*
X119739701Y-97672905D01*
X119623989Y-97952257D01*
X119565000Y-98248816D01*
X119565000Y-98551184D01*
X119623989Y-98847743D01*
X119676173Y-98973726D01*
X118888998Y-99760901D01*
X118860000Y-99784699D01*
X118836202Y-99813697D01*
X118836201Y-99813698D01*
X118765026Y-99900424D01*
X118700170Y-100021760D01*
X118675518Y-100024188D01*
X118555820Y-100060498D01*
X118445506Y-100119463D01*
X118348815Y-100198815D01*
X118269463Y-100295506D01*
X118210498Y-100405820D01*
X118174188Y-100525518D01*
X118161928Y-100650000D01*
X117209420Y-100650000D01*
X117191930Y-100562073D01*
X116949539Y-99976890D01*
X116597642Y-99450239D01*
X116149761Y-99002358D01*
X115623110Y-98650461D01*
X115037927Y-98408070D01*
X114416699Y-98284500D01*
X113783301Y-98284500D01*
X113162073Y-98408070D01*
X112576890Y-98650461D01*
X112050239Y-99002358D01*
X111647500Y-99405097D01*
X111647500Y-95968622D01*
X111651176Y-95931299D01*
X111647500Y-95893976D01*
X111647500Y-95893967D01*
X111636503Y-95782314D01*
X111593046Y-95639053D01*
X111522474Y-95507024D01*
X111479789Y-95455012D01*
X111451299Y-95420296D01*
X111451295Y-95420292D01*
X111427501Y-95391299D01*
X111398508Y-95367505D01*
X106543004Y-90512003D01*
X106519201Y-90482999D01*
X106403476Y-90388026D01*
X106271447Y-90317454D01*
X106128186Y-90273997D01*
X106016533Y-90263000D01*
X106016522Y-90263000D01*
X105979200Y-90259324D01*
X105941878Y-90263000D01*
X104900072Y-90263000D01*
X104900072Y-89983301D01*
X110884500Y-89983301D01*
X110884500Y-90616699D01*
X111008070Y-91237927D01*
X111250461Y-91823110D01*
X111602358Y-92349761D01*
X112050239Y-92797642D01*
X112576890Y-93149539D01*
X113162073Y-93391930D01*
X113783301Y-93515500D01*
X114416699Y-93515500D01*
X115037927Y-93391930D01*
X115383434Y-93248816D01*
X119565000Y-93248816D01*
X119565000Y-93551184D01*
X119623989Y-93847743D01*
X119739701Y-94127095D01*
X119907688Y-94378505D01*
X120121495Y-94592312D01*
X120372905Y-94760299D01*
X120652257Y-94876011D01*
X120948816Y-94935000D01*
X121251184Y-94935000D01*
X121547743Y-94876011D01*
X121827095Y-94760299D01*
X122078505Y-94592312D01*
X122292312Y-94378505D01*
X122460299Y-94127095D01*
X122576011Y-93847743D01*
X122635000Y-93551184D01*
X122635000Y-93248816D01*
X122576011Y-92952257D01*
X122460299Y-92672905D01*
X122292312Y-92421495D01*
X122078505Y-92207688D01*
X121827095Y-92039701D01*
X121547743Y-91923989D01*
X121251184Y-91865000D01*
X120948816Y-91865000D01*
X120652257Y-91923989D01*
X120372905Y-92039701D01*
X120121495Y-92207688D01*
X119907688Y-92421495D01*
X119739701Y-92672905D01*
X119623989Y-92952257D01*
X119565000Y-93248816D01*
X115383434Y-93248816D01*
X115623110Y-93149539D01*
X116149761Y-92797642D01*
X116597642Y-92349761D01*
X116949539Y-91823110D01*
X117191930Y-91237927D01*
X117315500Y-90616699D01*
X117315500Y-89983301D01*
X117191930Y-89362073D01*
X116949539Y-88776890D01*
X116597642Y-88250239D01*
X116149761Y-87802358D01*
X115623110Y-87450461D01*
X115037927Y-87208070D01*
X114416699Y-87084500D01*
X113783301Y-87084500D01*
X113162073Y-87208070D01*
X112576890Y-87450461D01*
X112050239Y-87802358D01*
X111602358Y-88250239D01*
X111250461Y-88776890D01*
X111008070Y-89362073D01*
X110884500Y-89983301D01*
X104900072Y-89983301D01*
X104900072Y-89773000D01*
X104887812Y-89648518D01*
X104851502Y-89528820D01*
X104792537Y-89418506D01*
X104713185Y-89321815D01*
X104616494Y-89242463D01*
X104506180Y-89183498D01*
X104386482Y-89147188D01*
X104262000Y-89134928D01*
X101712000Y-89134928D01*
X101587518Y-89147188D01*
X101467820Y-89183498D01*
X101357506Y-89242463D01*
X101260815Y-89321815D01*
X101181463Y-89418506D01*
X101122498Y-89528820D01*
X101086188Y-89648518D01*
X101073928Y-89773000D01*
X101073928Y-89929259D01*
X100895363Y-89662017D01*
X100597983Y-89364637D01*
X100248302Y-89130988D01*
X99859756Y-88970047D01*
X99447279Y-88888000D01*
X99026721Y-88888000D01*
X98614244Y-88970047D01*
X98225698Y-89130988D01*
X97876017Y-89364637D01*
X97578637Y-89662017D01*
X97344988Y-90011698D01*
X97184047Y-90400244D01*
X97102000Y-90812721D01*
X97102000Y-91233279D01*
X97184047Y-91645756D01*
X97344988Y-92034302D01*
X97578637Y-92383983D01*
X97635254Y-92440600D01*
X97033400Y-92440600D01*
X97033400Y-85917225D01*
X97037076Y-85879900D01*
X97033400Y-85842575D01*
X97033400Y-85842567D01*
X97022403Y-85730914D01*
X96978946Y-85587653D01*
X96908374Y-85455624D01*
X96813401Y-85339899D01*
X96784403Y-85316101D01*
X96258210Y-84789908D01*
X96302000Y-84569760D01*
X96302000Y-84277240D01*
X96244932Y-83990342D01*
X96132990Y-83720089D01*
X95970475Y-83476868D01*
X95763632Y-83270025D01*
X95520411Y-83107510D01*
X95250158Y-82995568D01*
X94963260Y-82938500D01*
X94670740Y-82938500D01*
X94450592Y-82982291D01*
X94199604Y-82731303D01*
X94175801Y-82702299D01*
X94060076Y-82607326D01*
X93928047Y-82536754D01*
X93784786Y-82493297D01*
X93673133Y-82482300D01*
X93673122Y-82482300D01*
X93635800Y-82478624D01*
X93598478Y-82482300D01*
X79100325Y-82482300D01*
X79063000Y-82478624D01*
X79025675Y-82482300D01*
X79025667Y-82482300D01*
X78914014Y-82493297D01*
X78770753Y-82536754D01*
X78638724Y-82607326D01*
X78522999Y-82702299D01*
X78499201Y-82731297D01*
X76596003Y-84634496D01*
X76566999Y-84658299D01*
X76519854Y-84715746D01*
X76472026Y-84774024D01*
X76427857Y-84856658D01*
X76401454Y-84906054D01*
X76357997Y-85049315D01*
X76347000Y-85160968D01*
X76347000Y-85160978D01*
X76343324Y-85198300D01*
X76347000Y-85235622D01*
X76347001Y-93052197D01*
X76022000Y-93377198D01*
X76022000Y-93352721D01*
X75939953Y-92940244D01*
X75779012Y-92551698D01*
X75545363Y-92202017D01*
X75247983Y-91904637D01*
X74898302Y-91670988D01*
X74509756Y-91510047D01*
X74097279Y-91428000D01*
X73676721Y-91428000D01*
X73264244Y-91510047D01*
X72875698Y-91670988D01*
X72526017Y-91904637D01*
X72228637Y-92202017D01*
X72050072Y-92469259D01*
X72050072Y-92313000D01*
X72037812Y-92188518D01*
X72001502Y-92068820D01*
X71942537Y-91958506D01*
X71863185Y-91861815D01*
X71766494Y-91782463D01*
X71656180Y-91723498D01*
X71536482Y-91687188D01*
X71412000Y-91674928D01*
X68862000Y-91674928D01*
X68737518Y-91687188D01*
X68617820Y-91723498D01*
X68507506Y-91782463D01*
X68418700Y-91855344D01*
X68418700Y-90733133D01*
X68422377Y-90695800D01*
X68407703Y-90546814D01*
X68364246Y-90403553D01*
X68293674Y-90271524D01*
X68222499Y-90184797D01*
X68198701Y-90155799D01*
X68169703Y-90132001D01*
X66677604Y-88639903D01*
X66653801Y-88610899D01*
X66538076Y-88515926D01*
X66406047Y-88445354D01*
X66262786Y-88401897D01*
X66151133Y-88390900D01*
X66151122Y-88390900D01*
X66113800Y-88387224D01*
X66076478Y-88390900D01*
X60529523Y-88390900D01*
X60492200Y-88387224D01*
X60454877Y-88390900D01*
X60454867Y-88390900D01*
X60343214Y-88401897D01*
X60199953Y-88445354D01*
X60067923Y-88515926D01*
X59984283Y-88584568D01*
X59952199Y-88610899D01*
X59928401Y-88639897D01*
X57449403Y-91118896D01*
X57420399Y-91142699D01*
X57365271Y-91209874D01*
X57325426Y-91258424D01*
X57286754Y-91330774D01*
X57254854Y-91390454D01*
X57211397Y-91533715D01*
X57200400Y-91645368D01*
X57200400Y-91645378D01*
X57196724Y-91682700D01*
X57200400Y-91720023D01*
X57200401Y-92880697D01*
X56973285Y-93107813D01*
X56939953Y-92940244D01*
X56779012Y-92551698D01*
X56545363Y-92202017D01*
X56247983Y-91904637D01*
X55898302Y-91670988D01*
X55509756Y-91510047D01*
X55097279Y-91428000D01*
X54676721Y-91428000D01*
X54264244Y-91510047D01*
X53875698Y-91670988D01*
X53526017Y-91904637D01*
X53228637Y-92202017D01*
X53050072Y-92469259D01*
X53050072Y-92313000D01*
X53037812Y-92188518D01*
X53001502Y-92068820D01*
X52942537Y-91958506D01*
X52863185Y-91861815D01*
X52766494Y-91782463D01*
X52656180Y-91723498D01*
X52536482Y-91687188D01*
X52412000Y-91674928D01*
X49862000Y-91674928D01*
X49737518Y-91687188D01*
X49617820Y-91723498D01*
X49507506Y-91782463D01*
X49410815Y-91861815D01*
X49331463Y-91958506D01*
X49272498Y-92068820D01*
X49236188Y-92188518D01*
X49223928Y-92313000D01*
X47932000Y-92313000D01*
X47932000Y-76872170D01*
X52353340Y-76872170D01*
X52353340Y-77333830D01*
X52443406Y-77786620D01*
X52620075Y-78213139D01*
X52876560Y-78596996D01*
X53203004Y-78923440D01*
X53586861Y-79179925D01*
X54013380Y-79356594D01*
X54466170Y-79446660D01*
X54927830Y-79446660D01*
X55380620Y-79356594D01*
X55807139Y-79179925D01*
X56190996Y-78923440D01*
X56517440Y-78596996D01*
X56773925Y-78213139D01*
X56950594Y-77786620D01*
X57040660Y-77333830D01*
X57040660Y-76872170D01*
X117353340Y-76872170D01*
X117353340Y-77333830D01*
X117443406Y-77786620D01*
X117620075Y-78213139D01*
X117876560Y-78596996D01*
X118203004Y-78923440D01*
X118586861Y-79179925D01*
X119013380Y-79356594D01*
X119466170Y-79446660D01*
X119927830Y-79446660D01*
X120380620Y-79356594D01*
X120807139Y-79179925D01*
X121190996Y-78923440D01*
X121517440Y-78596996D01*
X121773925Y-78213139D01*
X121950594Y-77786620D01*
X122040660Y-77333830D01*
X122040660Y-76872170D01*
X121950594Y-76419380D01*
X121773925Y-75992861D01*
X121517440Y-75609004D01*
X121190996Y-75282560D01*
X120807139Y-75026075D01*
X120380620Y-74849406D01*
X119927830Y-74759340D01*
X119466170Y-74759340D01*
X119013380Y-74849406D01*
X118586861Y-75026075D01*
X118203004Y-75282560D01*
X117876560Y-75609004D01*
X117620075Y-75992861D01*
X117443406Y-76419380D01*
X117353340Y-76872170D01*
X57040660Y-76872170D01*
X56950594Y-76419380D01*
X56773925Y-75992861D01*
X56517440Y-75609004D01*
X56190996Y-75282560D01*
X55807139Y-75026075D01*
X55380620Y-74849406D01*
X54927830Y-74759340D01*
X54466170Y-74759340D01*
X54013380Y-74849406D01*
X53586861Y-75026075D01*
X53203004Y-75282560D01*
X52876560Y-75609004D01*
X52620075Y-75992861D01*
X52443406Y-76419380D01*
X52353340Y-76872170D01*
X47932000Y-76872170D01*
X47932000Y-74632732D01*
X48002234Y-73845784D01*
X48202043Y-73115402D01*
X48528032Y-72431952D01*
X48539315Y-72416250D01*
X78092000Y-72416250D01*
X78092000Y-72708770D01*
X78149068Y-72995668D01*
X78261010Y-73265921D01*
X78423525Y-73509142D01*
X78630368Y-73715985D01*
X78804760Y-73832510D01*
X78630368Y-73949035D01*
X78423525Y-74155878D01*
X78261010Y-74399099D01*
X78149068Y-74669352D01*
X78092000Y-74956250D01*
X78092000Y-75248770D01*
X78149068Y-75535668D01*
X78261010Y-75805921D01*
X78423525Y-76049142D01*
X78630368Y-76255985D01*
X78873589Y-76418500D01*
X79143842Y-76530442D01*
X79430740Y-76587510D01*
X79723260Y-76587510D01*
X80010158Y-76530442D01*
X80280411Y-76418500D01*
X80523632Y-76255985D01*
X80730475Y-76049142D01*
X80892990Y-75805921D01*
X81004932Y-75535668D01*
X81062000Y-75248770D01*
X81062000Y-74956250D01*
X81004932Y-74669352D01*
X80892990Y-74399099D01*
X80730475Y-74155878D01*
X80523632Y-73949035D01*
X80349240Y-73832510D01*
X80523632Y-73715985D01*
X80730475Y-73509142D01*
X80892990Y-73265921D01*
X81004932Y-72995668D01*
X81062000Y-72708770D01*
X81062000Y-72416250D01*
X93332000Y-72416250D01*
X93332000Y-72708770D01*
X93389068Y-72995668D01*
X93501010Y-73265921D01*
X93663525Y-73509142D01*
X93870368Y-73715985D01*
X94044760Y-73832510D01*
X93870368Y-73949035D01*
X93663525Y-74155878D01*
X93501010Y-74399099D01*
X93389068Y-74669352D01*
X93332000Y-74956250D01*
X93332000Y-75248770D01*
X93389068Y-75535668D01*
X93501010Y-75805921D01*
X93663525Y-76049142D01*
X93870368Y-76255985D01*
X94113589Y-76418500D01*
X94383842Y-76530442D01*
X94670740Y-76587510D01*
X94963260Y-76587510D01*
X95250158Y-76530442D01*
X95520411Y-76418500D01*
X95763632Y-76255985D01*
X95970475Y-76049142D01*
X96132990Y-75805921D01*
X96244932Y-75535668D01*
X96302000Y-75248770D01*
X96302000Y-74956250D01*
X96244932Y-74669352D01*
X96132990Y-74399099D01*
X95970475Y-74155878D01*
X95763632Y-73949035D01*
X95589240Y-73832510D01*
X95763632Y-73715985D01*
X95970475Y-73509142D01*
X96132990Y-73265921D01*
X96244932Y-72995668D01*
X96302000Y-72708770D01*
X96302000Y-72416250D01*
X96244932Y-72129352D01*
X96132990Y-71859099D01*
X95970475Y-71615878D01*
X95763632Y-71409035D01*
X95520411Y-71246520D01*
X95250158Y-71134578D01*
X94963260Y-71077510D01*
X94670740Y-71077510D01*
X94383842Y-71134578D01*
X94113589Y-71246520D01*
X93870368Y-71409035D01*
X93663525Y-71615878D01*
X93501010Y-71859099D01*
X93389068Y-72129352D01*
X93332000Y-72416250D01*
X81062000Y-72416250D01*
X81004932Y-72129352D01*
X80892990Y-71859099D01*
X80730475Y-71615878D01*
X80523632Y-71409035D01*
X80280411Y-71246520D01*
X80010158Y-71134578D01*
X79723260Y-71077510D01*
X79430740Y-71077510D01*
X79143842Y-71134578D01*
X78873589Y-71246520D01*
X78630368Y-71409035D01*
X78423525Y-71615878D01*
X78261010Y-71859099D01*
X78149068Y-72129352D01*
X78092000Y-72416250D01*
X48539315Y-72416250D01*
X48969897Y-71817032D01*
X49513675Y-71290075D01*
X50142174Y-70867741D01*
X50835528Y-70563379D01*
X51577476Y-70385254D01*
X52220949Y-70338000D01*
X122167268Y-70338000D01*
X122954216Y-70408234D01*
G37*
%TD.AperFunction*%
D20*
X63343579Y-124531798D02*
X63630652Y-124588900D01*
X63923348Y-124588900D01*
X64210421Y-124531798D01*
X64227000Y-124524931D01*
X64227000Y-128879898D01*
X62555998Y-130550901D01*
X62527000Y-130574699D01*
X62503202Y-130603697D01*
X62503201Y-130603698D01*
X62432026Y-130690424D01*
X62361454Y-130822454D01*
X62337572Y-130901185D01*
X62317998Y-130965714D01*
X62313912Y-131007203D01*
X62120368Y-131136525D01*
X61913525Y-131343368D01*
X61751010Y-131586589D01*
X61639068Y-131856842D01*
X61582000Y-132143740D01*
X61582000Y-132436260D01*
X61639068Y-132723158D01*
X61751010Y-132993411D01*
X61860851Y-133157800D01*
X61155802Y-133157800D01*
X57996001Y-129998000D01*
X60362865Y-129998000D01*
X60397000Y-130001362D01*
X60431134Y-129998000D01*
X60431135Y-129998000D01*
X60533244Y-129987943D01*
X60664252Y-129948202D01*
X60784989Y-129883667D01*
X60890817Y-129796817D01*
X60977667Y-129690989D01*
X61042202Y-129570252D01*
X61081943Y-129439244D01*
X61095362Y-129303000D01*
X61092000Y-129268865D01*
X61092000Y-128680000D01*
X61324000Y-128680000D01*
X61324000Y-129439250D01*
X61482750Y-129598000D01*
X62097000Y-129601072D01*
X62221482Y-129588812D01*
X62341180Y-129552502D01*
X62451494Y-129493537D01*
X62548185Y-129414185D01*
X62627537Y-129317494D01*
X62686502Y-129207180D01*
X62722812Y-129087482D01*
X62735072Y-128963000D01*
X62732000Y-128838750D01*
X62573250Y-128680000D01*
X61324000Y-128680000D01*
X61092000Y-128680000D01*
X61092000Y-128406000D01*
X61324000Y-128406000D01*
X61324000Y-128426000D01*
X62573250Y-128426000D01*
X62732000Y-128267250D01*
X62735072Y-128143000D01*
X62722812Y-128018518D01*
X62686502Y-127898820D01*
X62635284Y-127803000D01*
X62648305Y-127778640D01*
X62714547Y-127758546D01*
X62846576Y-127687974D01*
X62962301Y-127593001D01*
X63057274Y-127477276D01*
X63127846Y-127345247D01*
X63171303Y-127201986D01*
X63185977Y-127053000D01*
X63182300Y-127015667D01*
X63182300Y-124464994D01*
X63343579Y-124531798D01*
%TA.AperFunction,Conductor*%
D21*
G36*
X63343579Y-124531798D02*
G01*
X63630652Y-124588900D01*
X63923348Y-124588900D01*
X64210421Y-124531798D01*
X64227000Y-124524931D01*
X64227000Y-128879898D01*
X62555998Y-130550901D01*
X62527000Y-130574699D01*
X62503202Y-130603697D01*
X62503201Y-130603698D01*
X62432026Y-130690424D01*
X62361454Y-130822454D01*
X62337572Y-130901185D01*
X62317998Y-130965714D01*
X62313912Y-131007203D01*
X62120368Y-131136525D01*
X61913525Y-131343368D01*
X61751010Y-131586589D01*
X61639068Y-131856842D01*
X61582000Y-132143740D01*
X61582000Y-132436260D01*
X61639068Y-132723158D01*
X61751010Y-132993411D01*
X61860851Y-133157800D01*
X61155802Y-133157800D01*
X57996001Y-129998000D01*
X60362865Y-129998000D01*
X60397000Y-130001362D01*
X60431134Y-129998000D01*
X60431135Y-129998000D01*
X60533244Y-129987943D01*
X60664252Y-129948202D01*
X60784989Y-129883667D01*
X60890817Y-129796817D01*
X60977667Y-129690989D01*
X61042202Y-129570252D01*
X61081943Y-129439244D01*
X61095362Y-129303000D01*
X61092000Y-129268865D01*
X61092000Y-128680000D01*
X61324000Y-128680000D01*
X61324000Y-129439250D01*
X61482750Y-129598000D01*
X62097000Y-129601072D01*
X62221482Y-129588812D01*
X62341180Y-129552502D01*
X62451494Y-129493537D01*
X62548185Y-129414185D01*
X62627537Y-129317494D01*
X62686502Y-129207180D01*
X62722812Y-129087482D01*
X62735072Y-128963000D01*
X62732000Y-128838750D01*
X62573250Y-128680000D01*
X61324000Y-128680000D01*
X61092000Y-128680000D01*
X61092000Y-128406000D01*
X61324000Y-128406000D01*
X61324000Y-128426000D01*
X62573250Y-128426000D01*
X62732000Y-128267250D01*
X62735072Y-128143000D01*
X62722812Y-128018518D01*
X62686502Y-127898820D01*
X62635284Y-127803000D01*
X62648305Y-127778640D01*
X62714547Y-127758546D01*
X62846576Y-127687974D01*
X62962301Y-127593001D01*
X63057274Y-127477276D01*
X63127846Y-127345247D01*
X63171303Y-127201986D01*
X63185977Y-127053000D01*
X63182300Y-127015667D01*
X63182300Y-124464994D01*
X63343579Y-124531798D01*
G37*
%TD.AperFunction*%
D20*
X112437001Y-126004928D02*
X112297000Y-126004928D01*
X112172518Y-126017188D01*
X112052820Y-126053498D01*
X111942506Y-126112463D01*
X111845815Y-126191815D01*
X111766463Y-126288506D01*
X111707498Y-126398820D01*
X111671188Y-126518518D01*
X111658928Y-126643000D01*
X111658928Y-127463000D01*
X111671188Y-127587482D01*
X111707498Y-127707180D01*
X111758716Y-127803000D01*
X111707498Y-127898820D01*
X111671188Y-128018518D01*
X111658928Y-128143000D01*
X111658928Y-128963000D01*
X111671188Y-129087482D01*
X111707498Y-129207180D01*
X111766463Y-129317494D01*
X111845815Y-129414185D01*
X111942506Y-129493537D01*
X112052820Y-129552502D01*
X112172518Y-129588812D01*
X112297000Y-129601072D01*
X113368272Y-129601072D01*
X113416333Y-129690989D01*
X113503183Y-129796817D01*
X113607683Y-129882577D01*
X113609011Y-129883667D01*
X113729748Y-129948202D01*
X113860756Y-129987943D01*
X113997000Y-130001362D01*
X114031134Y-129998000D01*
X117362865Y-129998000D01*
X117397000Y-130001362D01*
X117431134Y-129998000D01*
X117431135Y-129998000D01*
X117472469Y-129993929D01*
X114735599Y-132730800D01*
X112751767Y-132730800D01*
X112754932Y-132723158D01*
X112812000Y-132436260D01*
X112812000Y-132143740D01*
X112754932Y-131856842D01*
X112642990Y-131586589D01*
X112480475Y-131343368D01*
X112273632Y-131136525D01*
X112030411Y-130974010D01*
X111760158Y-130862068D01*
X111473260Y-130805000D01*
X111180740Y-130805000D01*
X110893842Y-130862068D01*
X110623589Y-130974010D01*
X110380368Y-131136525D01*
X110173525Y-131343368D01*
X110057000Y-131517760D01*
X109940475Y-131343368D01*
X109733632Y-131136525D01*
X109511456Y-130988072D01*
X109900000Y-130988072D01*
X110024482Y-130975812D01*
X110144180Y-130939502D01*
X110254494Y-130880537D01*
X110351185Y-130801185D01*
X110430537Y-130704494D01*
X110489502Y-130594180D01*
X110525812Y-130474482D01*
X110538072Y-130350000D01*
X110538072Y-129450000D01*
X110525812Y-129325518D01*
X110489502Y-129205820D01*
X110430537Y-129095506D01*
X110351185Y-128998815D01*
X110303247Y-128959473D01*
X110335000Y-128799839D01*
X110335000Y-128595961D01*
X110295226Y-128396002D01*
X110217205Y-128207644D01*
X110103937Y-128038126D01*
X109959774Y-127893963D01*
X109790256Y-127780695D01*
X109601898Y-127702674D01*
X109528488Y-127688072D01*
X109900000Y-127688072D01*
X110024482Y-127675812D01*
X110144180Y-127639502D01*
X110254494Y-127580537D01*
X110351185Y-127501185D01*
X110430537Y-127404494D01*
X110489502Y-127294180D01*
X110525812Y-127174482D01*
X110538072Y-127050000D01*
X110538072Y-126150000D01*
X110525812Y-126025518D01*
X110489502Y-125905820D01*
X110430537Y-125795506D01*
X110351185Y-125698815D01*
X110254494Y-125619463D01*
X110144180Y-125560498D01*
X110060000Y-125534962D01*
X110060000Y-124480610D01*
X110183579Y-124531798D01*
X110470652Y-124588900D01*
X110763348Y-124588900D01*
X111050421Y-124531798D01*
X111320838Y-124419788D01*
X111564206Y-124257174D01*
X111771174Y-124050206D01*
X111933788Y-123806838D01*
X112045798Y-123536421D01*
X112102900Y-123249348D01*
X112102900Y-122956652D01*
X112051451Y-122698000D01*
X112097279Y-122698000D01*
X112437000Y-122630425D01*
X112437001Y-126004928D01*
%TA.AperFunction,Conductor*%
D21*
G36*
X112437001Y-126004928D02*
G01*
X112297000Y-126004928D01*
X112172518Y-126017188D01*
X112052820Y-126053498D01*
X111942506Y-126112463D01*
X111845815Y-126191815D01*
X111766463Y-126288506D01*
X111707498Y-126398820D01*
X111671188Y-126518518D01*
X111658928Y-126643000D01*
X111658928Y-127463000D01*
X111671188Y-127587482D01*
X111707498Y-127707180D01*
X111758716Y-127803000D01*
X111707498Y-127898820D01*
X111671188Y-128018518D01*
X111658928Y-128143000D01*
X111658928Y-128963000D01*
X111671188Y-129087482D01*
X111707498Y-129207180D01*
X111766463Y-129317494D01*
X111845815Y-129414185D01*
X111942506Y-129493537D01*
X112052820Y-129552502D01*
X112172518Y-129588812D01*
X112297000Y-129601072D01*
X113368272Y-129601072D01*
X113416333Y-129690989D01*
X113503183Y-129796817D01*
X113607683Y-129882577D01*
X113609011Y-129883667D01*
X113729748Y-129948202D01*
X113860756Y-129987943D01*
X113997000Y-130001362D01*
X114031134Y-129998000D01*
X117362865Y-129998000D01*
X117397000Y-130001362D01*
X117431134Y-129998000D01*
X117431135Y-129998000D01*
X117472469Y-129993929D01*
X114735599Y-132730800D01*
X112751767Y-132730800D01*
X112754932Y-132723158D01*
X112812000Y-132436260D01*
X112812000Y-132143740D01*
X112754932Y-131856842D01*
X112642990Y-131586589D01*
X112480475Y-131343368D01*
X112273632Y-131136525D01*
X112030411Y-130974010D01*
X111760158Y-130862068D01*
X111473260Y-130805000D01*
X111180740Y-130805000D01*
X110893842Y-130862068D01*
X110623589Y-130974010D01*
X110380368Y-131136525D01*
X110173525Y-131343368D01*
X110057000Y-131517760D01*
X109940475Y-131343368D01*
X109733632Y-131136525D01*
X109511456Y-130988072D01*
X109900000Y-130988072D01*
X110024482Y-130975812D01*
X110144180Y-130939502D01*
X110254494Y-130880537D01*
X110351185Y-130801185D01*
X110430537Y-130704494D01*
X110489502Y-130594180D01*
X110525812Y-130474482D01*
X110538072Y-130350000D01*
X110538072Y-129450000D01*
X110525812Y-129325518D01*
X110489502Y-129205820D01*
X110430537Y-129095506D01*
X110351185Y-128998815D01*
X110303247Y-128959473D01*
X110335000Y-128799839D01*
X110335000Y-128595961D01*
X110295226Y-128396002D01*
X110217205Y-128207644D01*
X110103937Y-128038126D01*
X109959774Y-127893963D01*
X109790256Y-127780695D01*
X109601898Y-127702674D01*
X109528488Y-127688072D01*
X109900000Y-127688072D01*
X110024482Y-127675812D01*
X110144180Y-127639502D01*
X110254494Y-127580537D01*
X110351185Y-127501185D01*
X110430537Y-127404494D01*
X110489502Y-127294180D01*
X110525812Y-127174482D01*
X110538072Y-127050000D01*
X110538072Y-126150000D01*
X110525812Y-126025518D01*
X110489502Y-125905820D01*
X110430537Y-125795506D01*
X110351185Y-125698815D01*
X110254494Y-125619463D01*
X110144180Y-125560498D01*
X110060000Y-125534962D01*
X110060000Y-124480610D01*
X110183579Y-124531798D01*
X110470652Y-124588900D01*
X110763348Y-124588900D01*
X111050421Y-124531798D01*
X111320838Y-124419788D01*
X111564206Y-124257174D01*
X111771174Y-124050206D01*
X111933788Y-123806838D01*
X112045798Y-123536421D01*
X112102900Y-123249348D01*
X112102900Y-122956652D01*
X112051451Y-122698000D01*
X112097279Y-122698000D01*
X112437000Y-122630425D01*
X112437001Y-126004928D01*
G37*
%TD.AperFunction*%
D20*
X103065100Y-95161002D02*
X103088899Y-95190001D01*
X103117897Y-95213799D01*
X103204623Y-95284974D01*
X103314186Y-95343537D01*
X103336653Y-95355546D01*
X103479914Y-95399003D01*
X103591567Y-95410000D01*
X103591576Y-95410000D01*
X103628899Y-95413676D01*
X103666222Y-95410000D01*
X105141026Y-95410000D01*
X105075635Y-95664642D01*
X105059009Y-95966553D01*
X105101603Y-96265907D01*
X105201778Y-96551199D01*
X105281739Y-96700792D01*
X105535920Y-96784475D01*
X106420395Y-95900000D01*
X106406253Y-95885858D01*
X106585858Y-95706253D01*
X106600000Y-95720395D01*
X106614143Y-95706253D01*
X106793748Y-95885858D01*
X106779605Y-95900000D01*
X107664080Y-96784475D01*
X107918261Y-96700792D01*
X107967000Y-96599302D01*
X108167901Y-96800203D01*
X108167900Y-112433278D01*
X108164224Y-112470600D01*
X108167900Y-112507922D01*
X108167900Y-112507932D01*
X108178897Y-112619585D01*
X108219199Y-112752446D01*
X108222354Y-112762846D01*
X108292926Y-112894876D01*
X108332771Y-112943426D01*
X108387899Y-113010601D01*
X108416903Y-113034404D01*
X108446196Y-113063697D01*
X108353842Y-113082068D01*
X108083589Y-113194010D01*
X107840368Y-113356525D01*
X107708513Y-113488380D01*
X107686502Y-113415820D01*
X107627537Y-113305506D01*
X107548185Y-113208815D01*
X107451494Y-113129463D01*
X107341180Y-113070498D01*
X107221482Y-113034188D01*
X107097000Y-113021928D01*
X106532750Y-113025000D01*
X106374000Y-113183750D01*
X106374000Y-114383000D01*
X106394000Y-114383000D01*
X106394000Y-114637000D01*
X106374000Y-114637000D01*
X106374000Y-115836250D01*
X106532750Y-115995000D01*
X107097000Y-115998072D01*
X107221482Y-115985812D01*
X107341180Y-115949502D01*
X107451494Y-115890537D01*
X107548185Y-115811185D01*
X107627537Y-115714494D01*
X107686502Y-115604180D01*
X107708513Y-115531620D01*
X107840368Y-115663475D01*
X108083589Y-115825990D01*
X108353842Y-115937932D01*
X108640740Y-115995000D01*
X108933260Y-115995000D01*
X109220158Y-115937932D01*
X109490411Y-115825990D01*
X109733632Y-115663475D01*
X109940475Y-115456632D01*
X110057000Y-115282240D01*
X110173525Y-115456632D01*
X110380368Y-115663475D01*
X110573911Y-115792796D01*
X110577997Y-115834286D01*
X110621454Y-115977547D01*
X110630783Y-115995000D01*
X110692026Y-116109576D01*
X110733218Y-116159768D01*
X110787000Y-116225301D01*
X110815998Y-116249099D01*
X113006000Y-118439102D01*
X113006000Y-118742950D01*
X112898302Y-118670988D01*
X112509756Y-118510047D01*
X112097279Y-118428000D01*
X111676721Y-118428000D01*
X111264244Y-118510047D01*
X110875698Y-118670988D01*
X110526017Y-118904637D01*
X110228637Y-119202017D01*
X110050072Y-119469259D01*
X110050072Y-119313000D01*
X110037812Y-119188518D01*
X110001502Y-119068820D01*
X109942537Y-118958506D01*
X109863185Y-118861815D01*
X109766494Y-118782463D01*
X109656180Y-118723498D01*
X109536482Y-118687188D01*
X109412000Y-118674928D01*
X106862000Y-118674928D01*
X106737518Y-118687188D01*
X106617820Y-118723498D01*
X106507506Y-118782463D01*
X106410815Y-118861815D01*
X106331463Y-118958506D01*
X106272498Y-119068820D01*
X106236188Y-119188518D01*
X106223928Y-119313000D01*
X106223928Y-121813000D01*
X106236188Y-121937482D01*
X106272498Y-122057180D01*
X106331463Y-122167494D01*
X106410815Y-122264185D01*
X106507506Y-122343537D01*
X106617820Y-122402502D01*
X106737518Y-122438812D01*
X106862000Y-122451072D01*
X107442425Y-122451072D01*
X107502026Y-122562576D01*
X107573201Y-122649302D01*
X107597000Y-122678301D01*
X107625998Y-122702099D01*
X108540001Y-123616103D01*
X108540000Y-125534962D01*
X108455820Y-125560498D01*
X108345506Y-125619463D01*
X108248815Y-125698815D01*
X108169463Y-125795506D01*
X108110498Y-125905820D01*
X108074188Y-126025518D01*
X108061928Y-126150000D01*
X108061928Y-127050000D01*
X108074188Y-127174482D01*
X108110498Y-127294180D01*
X108169463Y-127404494D01*
X108248815Y-127501185D01*
X108345506Y-127580537D01*
X108455820Y-127639502D01*
X108575518Y-127675812D01*
X108700000Y-127688072D01*
X109071512Y-127688072D01*
X108998102Y-127702674D01*
X108809744Y-127780695D01*
X108640226Y-127893963D01*
X108496063Y-128038126D01*
X108382795Y-128207644D01*
X108304774Y-128396002D01*
X108265000Y-128595961D01*
X108265000Y-128799839D01*
X108296753Y-128959473D01*
X108248815Y-128998815D01*
X108169463Y-129095506D01*
X108110498Y-129205820D01*
X108074188Y-129325518D01*
X108061928Y-129450000D01*
X108061928Y-130350000D01*
X108074188Y-130474482D01*
X108110498Y-130594180D01*
X108169463Y-130704494D01*
X108248815Y-130801185D01*
X108333346Y-130870558D01*
X108083589Y-130974010D01*
X107840368Y-131136525D01*
X107708513Y-131268380D01*
X107686502Y-131195820D01*
X107627537Y-131085506D01*
X107548185Y-130988815D01*
X107451494Y-130909463D01*
X107341180Y-130850498D01*
X107221482Y-130814188D01*
X107097000Y-130801928D01*
X106532750Y-130805000D01*
X106374000Y-130963750D01*
X106374000Y-132163000D01*
X106394000Y-132163000D01*
X106394000Y-132417000D01*
X106374000Y-132417000D01*
X106374000Y-132437000D01*
X106120000Y-132437000D01*
X106120000Y-132417000D01*
X106100000Y-132417000D01*
X106100000Y-132163000D01*
X106120000Y-132163000D01*
X106120000Y-130963750D01*
X105961250Y-130805000D01*
X105397000Y-130801928D01*
X105272518Y-130814188D01*
X105152820Y-130850498D01*
X105042506Y-130909463D01*
X104945815Y-130988815D01*
X104866463Y-131085506D01*
X104807498Y-131195820D01*
X104785487Y-131268380D01*
X104653632Y-131136525D01*
X104410411Y-130974010D01*
X104140158Y-130862068D01*
X103853260Y-130805000D01*
X103560740Y-130805000D01*
X103273842Y-130862068D01*
X103003589Y-130974010D01*
X102760368Y-131136525D01*
X102553525Y-131343368D01*
X102437000Y-131517760D01*
X102320475Y-131343368D01*
X102113632Y-131136525D01*
X101870411Y-130974010D01*
X101600158Y-130862068D01*
X101313260Y-130805000D01*
X101020740Y-130805000D01*
X100733842Y-130862068D01*
X100463589Y-130974010D01*
X100220368Y-131136525D01*
X100013525Y-131343368D01*
X99897000Y-131517760D01*
X99780475Y-131343368D01*
X99573632Y-131136525D01*
X99330411Y-130974010D01*
X99060158Y-130862068D01*
X98773260Y-130805000D01*
X98480740Y-130805000D01*
X98193842Y-130862068D01*
X97923589Y-130974010D01*
X97687717Y-131131615D01*
X97012503Y-130456402D01*
X96988701Y-130427399D01*
X96872976Y-130332426D01*
X96740947Y-130261854D01*
X96597686Y-130218397D01*
X96486033Y-130207400D01*
X96486022Y-130207400D01*
X96448700Y-130203724D01*
X96411378Y-130207400D01*
X96115902Y-130207400D01*
X95906502Y-129998000D01*
X98362865Y-129998000D01*
X98397000Y-130001362D01*
X98431134Y-129998000D01*
X98431135Y-129998000D01*
X98533244Y-129987943D01*
X98664252Y-129948202D01*
X98784989Y-129883667D01*
X98890817Y-129796817D01*
X98977667Y-129690989D01*
X99042202Y-129570252D01*
X99081943Y-129439244D01*
X99095362Y-129303000D01*
X99092000Y-129268865D01*
X99092000Y-128680000D01*
X99324000Y-128680000D01*
X99324000Y-129439250D01*
X99482750Y-129598000D01*
X100097000Y-129601072D01*
X100221482Y-129588812D01*
X100341180Y-129552502D01*
X100451494Y-129493537D01*
X100548185Y-129414185D01*
X100627537Y-129317494D01*
X100686502Y-129207180D01*
X100722812Y-129087482D01*
X100735072Y-128963000D01*
X100732000Y-128838750D01*
X100573250Y-128680000D01*
X99324000Y-128680000D01*
X99092000Y-128680000D01*
X99092000Y-128406000D01*
X99324000Y-128406000D01*
X99324000Y-128426000D01*
X100573250Y-128426000D01*
X100732000Y-128267250D01*
X100735072Y-128143000D01*
X100722812Y-128018518D01*
X100686502Y-127898820D01*
X100635284Y-127803000D01*
X100686502Y-127707180D01*
X100722812Y-127587482D01*
X100735072Y-127463000D01*
X100735072Y-126643000D01*
X100722812Y-126518518D01*
X100686502Y-126398820D01*
X100627537Y-126288506D01*
X100548185Y-126191815D01*
X100451494Y-126112463D01*
X100341180Y-126053498D01*
X100221482Y-126017188D01*
X100097000Y-126004928D01*
X99957000Y-126004928D01*
X99957000Y-122956652D01*
X100291100Y-122956652D01*
X100291100Y-123249348D01*
X100348202Y-123536421D01*
X100460212Y-123806838D01*
X100622826Y-124050206D01*
X100829794Y-124257174D01*
X101073162Y-124419788D01*
X101343579Y-124531798D01*
X101630652Y-124588900D01*
X101923348Y-124588900D01*
X102210421Y-124531798D01*
X102480838Y-124419788D01*
X102724206Y-124257174D01*
X102931174Y-124050206D01*
X103093788Y-123806838D01*
X103205798Y-123536421D01*
X103262900Y-123249348D01*
X103262900Y-122956652D01*
X103205798Y-122669579D01*
X103093788Y-122399162D01*
X102931174Y-122155794D01*
X102724206Y-121948826D01*
X102480838Y-121786212D01*
X102210421Y-121674202D01*
X101923348Y-121617100D01*
X101630652Y-121617100D01*
X101343579Y-121674202D01*
X101073162Y-121786212D01*
X100829794Y-121948826D01*
X100622826Y-122155794D01*
X100460212Y-122399162D01*
X100348202Y-122669579D01*
X100291100Y-122956652D01*
X99957000Y-122956652D01*
X99957000Y-122351233D01*
X99960677Y-122313900D01*
X99946003Y-122164914D01*
X99902546Y-122021653D01*
X99831974Y-121889624D01*
X99760799Y-121802897D01*
X99737001Y-121773899D01*
X99708003Y-121750101D01*
X98224204Y-120266303D01*
X98200401Y-120237299D01*
X98084676Y-120142326D01*
X97952647Y-120071754D01*
X97809386Y-120028297D01*
X97697733Y-120017300D01*
X97697722Y-120017300D01*
X97660400Y-120013624D01*
X97623078Y-120017300D01*
X95722633Y-120017300D01*
X95685300Y-120013623D01*
X95647967Y-120017300D01*
X95536314Y-120028297D01*
X95393053Y-120071754D01*
X95261024Y-120142326D01*
X95145299Y-120237299D01*
X95121501Y-120266297D01*
X95022000Y-120365798D01*
X95022000Y-120352721D01*
X94939953Y-119940244D01*
X94779012Y-119551698D01*
X94545363Y-119202017D01*
X94247983Y-118904637D01*
X93898302Y-118670988D01*
X93509756Y-118510047D01*
X93097279Y-118428000D01*
X92676721Y-118428000D01*
X92264244Y-118510047D01*
X91875698Y-118670988D01*
X91526017Y-118904637D01*
X91228637Y-119202017D01*
X91050072Y-119469259D01*
X91050072Y-119313000D01*
X91037812Y-119188518D01*
X91001502Y-119068820D01*
X90942537Y-118958506D01*
X90863185Y-118861815D01*
X90766494Y-118782463D01*
X90656180Y-118723498D01*
X90536482Y-118687188D01*
X90412000Y-118674928D01*
X87862000Y-118674928D01*
X87737518Y-118687188D01*
X87617820Y-118723498D01*
X87507506Y-118782463D01*
X87410815Y-118861815D01*
X87331463Y-118958506D01*
X87272498Y-119068820D01*
X87236188Y-119188518D01*
X87223928Y-119313000D01*
X87223928Y-121813000D01*
X87236188Y-121937482D01*
X87272498Y-122057180D01*
X87331463Y-122167494D01*
X87410815Y-122264185D01*
X87507506Y-122343537D01*
X87617820Y-122402502D01*
X87737518Y-122438812D01*
X87862000Y-122451072D01*
X88377001Y-122451072D01*
X88377000Y-124674377D01*
X88373324Y-124711700D01*
X88377000Y-124749022D01*
X88377000Y-124749032D01*
X88387997Y-124860685D01*
X88416220Y-124953724D01*
X88431454Y-125003946D01*
X88502026Y-125135976D01*
X88529255Y-125169154D01*
X88596999Y-125251701D01*
X88626002Y-125275503D01*
X89181426Y-125830928D01*
X89169463Y-125845506D01*
X89110498Y-125955820D01*
X89074188Y-126075518D01*
X89061928Y-126200000D01*
X89061928Y-127100000D01*
X89074188Y-127224482D01*
X89110498Y-127344180D01*
X89169463Y-127454494D01*
X89248815Y-127551185D01*
X89345506Y-127630537D01*
X89455820Y-127689502D01*
X89575518Y-127725812D01*
X89700000Y-127738072D01*
X89753326Y-127738072D01*
X86686003Y-130805396D01*
X86656999Y-130829199D01*
X86601871Y-130896374D01*
X86562026Y-130944924D01*
X86561693Y-130945546D01*
X86360158Y-130862068D01*
X86073260Y-130805000D01*
X85780740Y-130805000D01*
X85493842Y-130862068D01*
X85322400Y-130933081D01*
X85322400Y-126717801D01*
X86098403Y-125941799D01*
X86127401Y-125918001D01*
X86196830Y-125833402D01*
X86222374Y-125802277D01*
X86292946Y-125670247D01*
X86300812Y-125644315D01*
X86336403Y-125526986D01*
X86347400Y-125415333D01*
X86347400Y-125415323D01*
X86351076Y-125378000D01*
X86347400Y-125340677D01*
X86347400Y-116653122D01*
X86351076Y-116615799D01*
X86347400Y-116578476D01*
X86347400Y-116578467D01*
X86336403Y-116466814D01*
X86292946Y-116323553D01*
X86222374Y-116191524D01*
X86127401Y-116075799D01*
X86098404Y-116052002D01*
X86041402Y-115995000D01*
X86073260Y-115995000D01*
X86360158Y-115937932D01*
X86630411Y-115825990D01*
X86873632Y-115663475D01*
X87080475Y-115456632D01*
X87197000Y-115282240D01*
X87313525Y-115456632D01*
X87520368Y-115663475D01*
X87763589Y-115825990D01*
X88033842Y-115937932D01*
X88320740Y-115995000D01*
X88613260Y-115995000D01*
X88900158Y-115937932D01*
X89170411Y-115825990D01*
X89413632Y-115663475D01*
X89620475Y-115456632D01*
X89737000Y-115282240D01*
X89853525Y-115456632D01*
X90060368Y-115663475D01*
X90303589Y-115825990D01*
X90573842Y-115937932D01*
X90860740Y-115995000D01*
X91153260Y-115995000D01*
X91440158Y-115937932D01*
X91579632Y-115880160D01*
X91559774Y-115928102D01*
X91520000Y-116128061D01*
X91520000Y-116331939D01*
X91559774Y-116531898D01*
X91637795Y-116720256D01*
X91751063Y-116889774D01*
X91895226Y-117033937D01*
X92064744Y-117147205D01*
X92253102Y-117225226D01*
X92453061Y-117265000D01*
X92656939Y-117265000D01*
X92856898Y-117225226D01*
X93045256Y-117147205D01*
X93214774Y-117033937D01*
X93291611Y-116957100D01*
X97381469Y-116957100D01*
X97344988Y-117011698D01*
X97184047Y-117400244D01*
X97102000Y-117812721D01*
X97102000Y-118233279D01*
X97184047Y-118645756D01*
X97344988Y-119034302D01*
X97578637Y-119383983D01*
X97876017Y-119681363D01*
X98225698Y-119915012D01*
X98614244Y-120075953D01*
X99026721Y-120158000D01*
X99447279Y-120158000D01*
X99859756Y-120075953D01*
X100248302Y-119915012D01*
X100597983Y-119681363D01*
X100895363Y-119383983D01*
X101073928Y-119116741D01*
X101073928Y-119273000D01*
X101086188Y-119397482D01*
X101122498Y-119517180D01*
X101181463Y-119627494D01*
X101260815Y-119724185D01*
X101357506Y-119803537D01*
X101467820Y-119862502D01*
X101587518Y-119898812D01*
X101712000Y-119911072D01*
X104262000Y-119911072D01*
X104386482Y-119898812D01*
X104506180Y-119862502D01*
X104616494Y-119803537D01*
X104713185Y-119724185D01*
X104792537Y-119627494D01*
X104851502Y-119517180D01*
X104887812Y-119397482D01*
X104900072Y-119273000D01*
X104900072Y-116773000D01*
X104887812Y-116648518D01*
X104851502Y-116528820D01*
X104792537Y-116418506D01*
X104713185Y-116321815D01*
X104616494Y-116242463D01*
X104506180Y-116183498D01*
X104386482Y-116147188D01*
X104262000Y-116134928D01*
X103681575Y-116134928D01*
X103621974Y-116023424D01*
X103598647Y-115995000D01*
X103853260Y-115995000D01*
X104140158Y-115937932D01*
X104410411Y-115825990D01*
X104653632Y-115663475D01*
X104785487Y-115531620D01*
X104807498Y-115604180D01*
X104866463Y-115714494D01*
X104945815Y-115811185D01*
X105042506Y-115890537D01*
X105152820Y-115949502D01*
X105272518Y-115985812D01*
X105397000Y-115998072D01*
X105961250Y-115995000D01*
X106120000Y-115836250D01*
X106120000Y-114637000D01*
X106100000Y-114637000D01*
X106100000Y-114383000D01*
X106120000Y-114383000D01*
X106120000Y-113183750D01*
X105961250Y-113025000D01*
X105397000Y-113021928D01*
X105272518Y-113034188D01*
X105152820Y-113070498D01*
X105042506Y-113129463D01*
X104945815Y-113208815D01*
X104866463Y-113305506D01*
X104807498Y-113415820D01*
X104785487Y-113488380D01*
X104653632Y-113356525D01*
X104410411Y-113194010D01*
X104140158Y-113082068D01*
X103853260Y-113025000D01*
X103560740Y-113025000D01*
X103273842Y-113082068D01*
X103003589Y-113194010D01*
X102760368Y-113356525D01*
X102553525Y-113563368D01*
X102437000Y-113737760D01*
X102320475Y-113563368D01*
X102113632Y-113356525D01*
X101870411Y-113194010D01*
X101600158Y-113082068D01*
X101313260Y-113025000D01*
X101020740Y-113025000D01*
X100733842Y-113082068D01*
X100463589Y-113194010D01*
X100220368Y-113356525D01*
X100013525Y-113563368D01*
X99897000Y-113737760D01*
X99780475Y-113563368D01*
X99573632Y-113356525D01*
X99330411Y-113194010D01*
X99060158Y-113082068D01*
X98773260Y-113025000D01*
X98480740Y-113025000D01*
X98193842Y-113082068D01*
X97923589Y-113194010D01*
X97680368Y-113356525D01*
X97473525Y-113563368D01*
X97357000Y-113737760D01*
X97240475Y-113563368D01*
X97033632Y-113356525D01*
X96790411Y-113194010D01*
X96520158Y-113082068D01*
X96233260Y-113025000D01*
X95940740Y-113025000D01*
X95653842Y-113082068D01*
X95383589Y-113194010D01*
X95140368Y-113356525D01*
X95008513Y-113488380D01*
X94986502Y-113415820D01*
X94927537Y-113305506D01*
X94848185Y-113208815D01*
X94751494Y-113129463D01*
X94641180Y-113070498D01*
X94521482Y-113034188D01*
X94397000Y-113021928D01*
X93832750Y-113025000D01*
X93674000Y-113183750D01*
X93674000Y-114383000D01*
X93694000Y-114383000D01*
X93694000Y-114637000D01*
X93674000Y-114637000D01*
X93674000Y-114657000D01*
X93420000Y-114657000D01*
X93420000Y-114637000D01*
X93400000Y-114637000D01*
X93400000Y-114383000D01*
X93420000Y-114383000D01*
X93420000Y-113183750D01*
X93261250Y-113025000D01*
X93131600Y-113024294D01*
X93131600Y-104571886D01*
X93227156Y-104532305D01*
X93396674Y-104419037D01*
X93540837Y-104274874D01*
X93654105Y-104105356D01*
X93732126Y-103916998D01*
X93771900Y-103717039D01*
X93771900Y-103513161D01*
X93732126Y-103313202D01*
X93731700Y-103312174D01*
X93731700Y-102601072D01*
X94368272Y-102601072D01*
X94416333Y-102690989D01*
X94503183Y-102796817D01*
X94609011Y-102883667D01*
X94729748Y-102948202D01*
X94860756Y-102987943D01*
X94903714Y-102992174D01*
X94997000Y-103001362D01*
X95031134Y-102998000D01*
X98362865Y-102998000D01*
X98397000Y-103001362D01*
X98431134Y-102998000D01*
X98431135Y-102998000D01*
X98533244Y-102987943D01*
X98664252Y-102948202D01*
X98784989Y-102883667D01*
X98890817Y-102796817D01*
X98977667Y-102690989D01*
X99042202Y-102570252D01*
X99081943Y-102439244D01*
X99095362Y-102303000D01*
X99092000Y-102268865D01*
X99092000Y-101406000D01*
X99324000Y-101406000D01*
X99324000Y-101426000D01*
X99344000Y-101426000D01*
X99344000Y-101680000D01*
X99324000Y-101680000D01*
X99324000Y-102439250D01*
X99482750Y-102598000D01*
X100097000Y-102601072D01*
X100221482Y-102588812D01*
X100341180Y-102552502D01*
X100451494Y-102493537D01*
X100548185Y-102414185D01*
X100627537Y-102317494D01*
X100686502Y-102207180D01*
X100722812Y-102087482D01*
X100735072Y-101963000D01*
X100732000Y-101838750D01*
X100573252Y-101680002D01*
X100732000Y-101680002D01*
X100732000Y-101604700D01*
X100820439Y-101604700D01*
X101020398Y-101564926D01*
X101208756Y-101486905D01*
X101378274Y-101373637D01*
X101522437Y-101229474D01*
X101635705Y-101059956D01*
X101713726Y-100871598D01*
X101753500Y-100671639D01*
X101753500Y-100467761D01*
X101713726Y-100267802D01*
X101635705Y-100079444D01*
X101522437Y-99909926D01*
X101378274Y-99765763D01*
X101208756Y-99652495D01*
X101020398Y-99574474D01*
X101011261Y-99572656D01*
X100962301Y-99512999D01*
X100846576Y-99418026D01*
X100714547Y-99347454D01*
X100648305Y-99327360D01*
X100627537Y-99288506D01*
X100548185Y-99191815D01*
X100451494Y-99112463D01*
X100341180Y-99053498D01*
X100221482Y-99017188D01*
X100097000Y-99004928D01*
X99025728Y-99004928D01*
X98977667Y-98915011D01*
X98890817Y-98809183D01*
X98784989Y-98722333D01*
X98664252Y-98657798D01*
X98533244Y-98618057D01*
X98431135Y-98608000D01*
X98397000Y-98604638D01*
X98362866Y-98608000D01*
X97519042Y-98608000D01*
X97942251Y-98432701D01*
X98217454Y-98248816D01*
X105065000Y-98248816D01*
X105065000Y-98551184D01*
X105123989Y-98847743D01*
X105239701Y-99127095D01*
X105407688Y-99378505D01*
X105621495Y-99592312D01*
X105872905Y-99760299D01*
X106152257Y-99876011D01*
X106448816Y-99935000D01*
X106751184Y-99935000D01*
X107047743Y-99876011D01*
X107327095Y-99760299D01*
X107578505Y-99592312D01*
X107792312Y-99378505D01*
X107960299Y-99127095D01*
X108076011Y-98847743D01*
X108135000Y-98551184D01*
X108135000Y-98248816D01*
X108076011Y-97952257D01*
X107960299Y-97672905D01*
X107792312Y-97421495D01*
X107578505Y-97207688D01*
X107435690Y-97112262D01*
X107484475Y-96964080D01*
X106600000Y-96079605D01*
X105715525Y-96964080D01*
X105764310Y-97112262D01*
X105621495Y-97207688D01*
X105407688Y-97421495D01*
X105239701Y-97672905D01*
X105123989Y-97952257D01*
X105065000Y-98248816D01*
X98217454Y-98248816D01*
X98372826Y-98145000D01*
X98739000Y-97778826D01*
X99026701Y-97348251D01*
X99224873Y-96869822D01*
X99325900Y-96361924D01*
X99325900Y-95956652D01*
X100291100Y-95956652D01*
X100291100Y-96249348D01*
X100348202Y-96536421D01*
X100460212Y-96806838D01*
X100622826Y-97050206D01*
X100829794Y-97257174D01*
X101073162Y-97419788D01*
X101343579Y-97531798D01*
X101630652Y-97588900D01*
X101923348Y-97588900D01*
X102210421Y-97531798D01*
X102480838Y-97419788D01*
X102724206Y-97257174D01*
X102931174Y-97050206D01*
X103093788Y-96806838D01*
X103205798Y-96536421D01*
X103262900Y-96249348D01*
X103262900Y-95956652D01*
X103205798Y-95669579D01*
X103093788Y-95399162D01*
X102931174Y-95155794D01*
X102724206Y-94948826D01*
X102480838Y-94786212D01*
X102210421Y-94674202D01*
X101923348Y-94617100D01*
X101630652Y-94617100D01*
X101343579Y-94674202D01*
X101073162Y-94786212D01*
X100829794Y-94948826D01*
X100622826Y-95155794D01*
X100460212Y-95399162D01*
X100348202Y-95669579D01*
X100291100Y-95956652D01*
X99325900Y-95956652D01*
X99325900Y-95844076D01*
X99224873Y-95336178D01*
X99026701Y-94857749D01*
X98739000Y-94427174D01*
X98372826Y-94061000D01*
X98222567Y-93960600D01*
X101864699Y-93960600D01*
X103065100Y-95161002D01*
%TA.AperFunction,Conductor*%
D21*
G36*
X103065100Y-95161002D02*
G01*
X103088899Y-95190001D01*
X103117897Y-95213799D01*
X103204623Y-95284974D01*
X103314186Y-95343537D01*
X103336653Y-95355546D01*
X103479914Y-95399003D01*
X103591567Y-95410000D01*
X103591576Y-95410000D01*
X103628899Y-95413676D01*
X103666222Y-95410000D01*
X105141026Y-95410000D01*
X105075635Y-95664642D01*
X105059009Y-95966553D01*
X105101603Y-96265907D01*
X105201778Y-96551199D01*
X105281739Y-96700792D01*
X105535920Y-96784475D01*
X106420395Y-95900000D01*
X106406253Y-95885858D01*
X106585858Y-95706253D01*
X106600000Y-95720395D01*
X106614143Y-95706253D01*
X106793748Y-95885858D01*
X106779605Y-95900000D01*
X107664080Y-96784475D01*
X107918261Y-96700792D01*
X107967000Y-96599302D01*
X108167901Y-96800203D01*
X108167900Y-112433278D01*
X108164224Y-112470600D01*
X108167900Y-112507922D01*
X108167900Y-112507932D01*
X108178897Y-112619585D01*
X108219199Y-112752446D01*
X108222354Y-112762846D01*
X108292926Y-112894876D01*
X108332771Y-112943426D01*
X108387899Y-113010601D01*
X108416903Y-113034404D01*
X108446196Y-113063697D01*
X108353842Y-113082068D01*
X108083589Y-113194010D01*
X107840368Y-113356525D01*
X107708513Y-113488380D01*
X107686502Y-113415820D01*
X107627537Y-113305506D01*
X107548185Y-113208815D01*
X107451494Y-113129463D01*
X107341180Y-113070498D01*
X107221482Y-113034188D01*
X107097000Y-113021928D01*
X106532750Y-113025000D01*
X106374000Y-113183750D01*
X106374000Y-114383000D01*
X106394000Y-114383000D01*
X106394000Y-114637000D01*
X106374000Y-114637000D01*
X106374000Y-115836250D01*
X106532750Y-115995000D01*
X107097000Y-115998072D01*
X107221482Y-115985812D01*
X107341180Y-115949502D01*
X107451494Y-115890537D01*
X107548185Y-115811185D01*
X107627537Y-115714494D01*
X107686502Y-115604180D01*
X107708513Y-115531620D01*
X107840368Y-115663475D01*
X108083589Y-115825990D01*
X108353842Y-115937932D01*
X108640740Y-115995000D01*
X108933260Y-115995000D01*
X109220158Y-115937932D01*
X109490411Y-115825990D01*
X109733632Y-115663475D01*
X109940475Y-115456632D01*
X110057000Y-115282240D01*
X110173525Y-115456632D01*
X110380368Y-115663475D01*
X110573911Y-115792796D01*
X110577997Y-115834286D01*
X110621454Y-115977547D01*
X110630783Y-115995000D01*
X110692026Y-116109576D01*
X110733218Y-116159768D01*
X110787000Y-116225301D01*
X110815998Y-116249099D01*
X113006000Y-118439102D01*
X113006000Y-118742950D01*
X112898302Y-118670988D01*
X112509756Y-118510047D01*
X112097279Y-118428000D01*
X111676721Y-118428000D01*
X111264244Y-118510047D01*
X110875698Y-118670988D01*
X110526017Y-118904637D01*
X110228637Y-119202017D01*
X110050072Y-119469259D01*
X110050072Y-119313000D01*
X110037812Y-119188518D01*
X110001502Y-119068820D01*
X109942537Y-118958506D01*
X109863185Y-118861815D01*
X109766494Y-118782463D01*
X109656180Y-118723498D01*
X109536482Y-118687188D01*
X109412000Y-118674928D01*
X106862000Y-118674928D01*
X106737518Y-118687188D01*
X106617820Y-118723498D01*
X106507506Y-118782463D01*
X106410815Y-118861815D01*
X106331463Y-118958506D01*
X106272498Y-119068820D01*
X106236188Y-119188518D01*
X106223928Y-119313000D01*
X106223928Y-121813000D01*
X106236188Y-121937482D01*
X106272498Y-122057180D01*
X106331463Y-122167494D01*
X106410815Y-122264185D01*
X106507506Y-122343537D01*
X106617820Y-122402502D01*
X106737518Y-122438812D01*
X106862000Y-122451072D01*
X107442425Y-122451072D01*
X107502026Y-122562576D01*
X107573201Y-122649302D01*
X107597000Y-122678301D01*
X107625998Y-122702099D01*
X108540001Y-123616103D01*
X108540000Y-125534962D01*
X108455820Y-125560498D01*
X108345506Y-125619463D01*
X108248815Y-125698815D01*
X108169463Y-125795506D01*
X108110498Y-125905820D01*
X108074188Y-126025518D01*
X108061928Y-126150000D01*
X108061928Y-127050000D01*
X108074188Y-127174482D01*
X108110498Y-127294180D01*
X108169463Y-127404494D01*
X108248815Y-127501185D01*
X108345506Y-127580537D01*
X108455820Y-127639502D01*
X108575518Y-127675812D01*
X108700000Y-127688072D01*
X109071512Y-127688072D01*
X108998102Y-127702674D01*
X108809744Y-127780695D01*
X108640226Y-127893963D01*
X108496063Y-128038126D01*
X108382795Y-128207644D01*
X108304774Y-128396002D01*
X108265000Y-128595961D01*
X108265000Y-128799839D01*
X108296753Y-128959473D01*
X108248815Y-128998815D01*
X108169463Y-129095506D01*
X108110498Y-129205820D01*
X108074188Y-129325518D01*
X108061928Y-129450000D01*
X108061928Y-130350000D01*
X108074188Y-130474482D01*
X108110498Y-130594180D01*
X108169463Y-130704494D01*
X108248815Y-130801185D01*
X108333346Y-130870558D01*
X108083589Y-130974010D01*
X107840368Y-131136525D01*
X107708513Y-131268380D01*
X107686502Y-131195820D01*
X107627537Y-131085506D01*
X107548185Y-130988815D01*
X107451494Y-130909463D01*
X107341180Y-130850498D01*
X107221482Y-130814188D01*
X107097000Y-130801928D01*
X106532750Y-130805000D01*
X106374000Y-130963750D01*
X106374000Y-132163000D01*
X106394000Y-132163000D01*
X106394000Y-132417000D01*
X106374000Y-132417000D01*
X106374000Y-132437000D01*
X106120000Y-132437000D01*
X106120000Y-132417000D01*
X106100000Y-132417000D01*
X106100000Y-132163000D01*
X106120000Y-132163000D01*
X106120000Y-130963750D01*
X105961250Y-130805000D01*
X105397000Y-130801928D01*
X105272518Y-130814188D01*
X105152820Y-130850498D01*
X105042506Y-130909463D01*
X104945815Y-130988815D01*
X104866463Y-131085506D01*
X104807498Y-131195820D01*
X104785487Y-131268380D01*
X104653632Y-131136525D01*
X104410411Y-130974010D01*
X104140158Y-130862068D01*
X103853260Y-130805000D01*
X103560740Y-130805000D01*
X103273842Y-130862068D01*
X103003589Y-130974010D01*
X102760368Y-131136525D01*
X102553525Y-131343368D01*
X102437000Y-131517760D01*
X102320475Y-131343368D01*
X102113632Y-131136525D01*
X101870411Y-130974010D01*
X101600158Y-130862068D01*
X101313260Y-130805000D01*
X101020740Y-130805000D01*
X100733842Y-130862068D01*
X100463589Y-130974010D01*
X100220368Y-131136525D01*
X100013525Y-131343368D01*
X99897000Y-131517760D01*
X99780475Y-131343368D01*
X99573632Y-131136525D01*
X99330411Y-130974010D01*
X99060158Y-130862068D01*
X98773260Y-130805000D01*
X98480740Y-130805000D01*
X98193842Y-130862068D01*
X97923589Y-130974010D01*
X97687717Y-131131615D01*
X97012503Y-130456402D01*
X96988701Y-130427399D01*
X96872976Y-130332426D01*
X96740947Y-130261854D01*
X96597686Y-130218397D01*
X96486033Y-130207400D01*
X96486022Y-130207400D01*
X96448700Y-130203724D01*
X96411378Y-130207400D01*
X96115902Y-130207400D01*
X95906502Y-129998000D01*
X98362865Y-129998000D01*
X98397000Y-130001362D01*
X98431134Y-129998000D01*
X98431135Y-129998000D01*
X98533244Y-129987943D01*
X98664252Y-129948202D01*
X98784989Y-129883667D01*
X98890817Y-129796817D01*
X98977667Y-129690989D01*
X99042202Y-129570252D01*
X99081943Y-129439244D01*
X99095362Y-129303000D01*
X99092000Y-129268865D01*
X99092000Y-128680000D01*
X99324000Y-128680000D01*
X99324000Y-129439250D01*
X99482750Y-129598000D01*
X100097000Y-129601072D01*
X100221482Y-129588812D01*
X100341180Y-129552502D01*
X100451494Y-129493537D01*
X100548185Y-129414185D01*
X100627537Y-129317494D01*
X100686502Y-129207180D01*
X100722812Y-129087482D01*
X100735072Y-128963000D01*
X100732000Y-128838750D01*
X100573250Y-128680000D01*
X99324000Y-128680000D01*
X99092000Y-128680000D01*
X99092000Y-128406000D01*
X99324000Y-128406000D01*
X99324000Y-128426000D01*
X100573250Y-128426000D01*
X100732000Y-128267250D01*
X100735072Y-128143000D01*
X100722812Y-128018518D01*
X100686502Y-127898820D01*
X100635284Y-127803000D01*
X100686502Y-127707180D01*
X100722812Y-127587482D01*
X100735072Y-127463000D01*
X100735072Y-126643000D01*
X100722812Y-126518518D01*
X100686502Y-126398820D01*
X100627537Y-126288506D01*
X100548185Y-126191815D01*
X100451494Y-126112463D01*
X100341180Y-126053498D01*
X100221482Y-126017188D01*
X100097000Y-126004928D01*
X99957000Y-126004928D01*
X99957000Y-122956652D01*
X100291100Y-122956652D01*
X100291100Y-123249348D01*
X100348202Y-123536421D01*
X100460212Y-123806838D01*
X100622826Y-124050206D01*
X100829794Y-124257174D01*
X101073162Y-124419788D01*
X101343579Y-124531798D01*
X101630652Y-124588900D01*
X101923348Y-124588900D01*
X102210421Y-124531798D01*
X102480838Y-124419788D01*
X102724206Y-124257174D01*
X102931174Y-124050206D01*
X103093788Y-123806838D01*
X103205798Y-123536421D01*
X103262900Y-123249348D01*
X103262900Y-122956652D01*
X103205798Y-122669579D01*
X103093788Y-122399162D01*
X102931174Y-122155794D01*
X102724206Y-121948826D01*
X102480838Y-121786212D01*
X102210421Y-121674202D01*
X101923348Y-121617100D01*
X101630652Y-121617100D01*
X101343579Y-121674202D01*
X101073162Y-121786212D01*
X100829794Y-121948826D01*
X100622826Y-122155794D01*
X100460212Y-122399162D01*
X100348202Y-122669579D01*
X100291100Y-122956652D01*
X99957000Y-122956652D01*
X99957000Y-122351233D01*
X99960677Y-122313900D01*
X99946003Y-122164914D01*
X99902546Y-122021653D01*
X99831974Y-121889624D01*
X99760799Y-121802897D01*
X99737001Y-121773899D01*
X99708003Y-121750101D01*
X98224204Y-120266303D01*
X98200401Y-120237299D01*
X98084676Y-120142326D01*
X97952647Y-120071754D01*
X97809386Y-120028297D01*
X97697733Y-120017300D01*
X97697722Y-120017300D01*
X97660400Y-120013624D01*
X97623078Y-120017300D01*
X95722633Y-120017300D01*
X95685300Y-120013623D01*
X95647967Y-120017300D01*
X95536314Y-120028297D01*
X95393053Y-120071754D01*
X95261024Y-120142326D01*
X95145299Y-120237299D01*
X95121501Y-120266297D01*
X95022000Y-120365798D01*
X95022000Y-120352721D01*
X94939953Y-119940244D01*
X94779012Y-119551698D01*
X94545363Y-119202017D01*
X94247983Y-118904637D01*
X93898302Y-118670988D01*
X93509756Y-118510047D01*
X93097279Y-118428000D01*
X92676721Y-118428000D01*
X92264244Y-118510047D01*
X91875698Y-118670988D01*
X91526017Y-118904637D01*
X91228637Y-119202017D01*
X91050072Y-119469259D01*
X91050072Y-119313000D01*
X91037812Y-119188518D01*
X91001502Y-119068820D01*
X90942537Y-118958506D01*
X90863185Y-118861815D01*
X90766494Y-118782463D01*
X90656180Y-118723498D01*
X90536482Y-118687188D01*
X90412000Y-118674928D01*
X87862000Y-118674928D01*
X87737518Y-118687188D01*
X87617820Y-118723498D01*
X87507506Y-118782463D01*
X87410815Y-118861815D01*
X87331463Y-118958506D01*
X87272498Y-119068820D01*
X87236188Y-119188518D01*
X87223928Y-119313000D01*
X87223928Y-121813000D01*
X87236188Y-121937482D01*
X87272498Y-122057180D01*
X87331463Y-122167494D01*
X87410815Y-122264185D01*
X87507506Y-122343537D01*
X87617820Y-122402502D01*
X87737518Y-122438812D01*
X87862000Y-122451072D01*
X88377001Y-122451072D01*
X88377000Y-124674377D01*
X88373324Y-124711700D01*
X88377000Y-124749022D01*
X88377000Y-124749032D01*
X88387997Y-124860685D01*
X88416220Y-124953724D01*
X88431454Y-125003946D01*
X88502026Y-125135976D01*
X88529255Y-125169154D01*
X88596999Y-125251701D01*
X88626002Y-125275503D01*
X89181426Y-125830928D01*
X89169463Y-125845506D01*
X89110498Y-125955820D01*
X89074188Y-126075518D01*
X89061928Y-126200000D01*
X89061928Y-127100000D01*
X89074188Y-127224482D01*
X89110498Y-127344180D01*
X89169463Y-127454494D01*
X89248815Y-127551185D01*
X89345506Y-127630537D01*
X89455820Y-127689502D01*
X89575518Y-127725812D01*
X89700000Y-127738072D01*
X89753326Y-127738072D01*
X86686003Y-130805396D01*
X86656999Y-130829199D01*
X86601871Y-130896374D01*
X86562026Y-130944924D01*
X86561693Y-130945546D01*
X86360158Y-130862068D01*
X86073260Y-130805000D01*
X85780740Y-130805000D01*
X85493842Y-130862068D01*
X85322400Y-130933081D01*
X85322400Y-126717801D01*
X86098403Y-125941799D01*
X86127401Y-125918001D01*
X86196830Y-125833402D01*
X86222374Y-125802277D01*
X86292946Y-125670247D01*
X86300812Y-125644315D01*
X86336403Y-125526986D01*
X86347400Y-125415333D01*
X86347400Y-125415323D01*
X86351076Y-125378000D01*
X86347400Y-125340677D01*
X86347400Y-116653122D01*
X86351076Y-116615799D01*
X86347400Y-116578476D01*
X86347400Y-116578467D01*
X86336403Y-116466814D01*
X86292946Y-116323553D01*
X86222374Y-116191524D01*
X86127401Y-116075799D01*
X86098404Y-116052002D01*
X86041402Y-115995000D01*
X86073260Y-115995000D01*
X86360158Y-115937932D01*
X86630411Y-115825990D01*
X86873632Y-115663475D01*
X87080475Y-115456632D01*
X87197000Y-115282240D01*
X87313525Y-115456632D01*
X87520368Y-115663475D01*
X87763589Y-115825990D01*
X88033842Y-115937932D01*
X88320740Y-115995000D01*
X88613260Y-115995000D01*
X88900158Y-115937932D01*
X89170411Y-115825990D01*
X89413632Y-115663475D01*
X89620475Y-115456632D01*
X89737000Y-115282240D01*
X89853525Y-115456632D01*
X90060368Y-115663475D01*
X90303589Y-115825990D01*
X90573842Y-115937932D01*
X90860740Y-115995000D01*
X91153260Y-115995000D01*
X91440158Y-115937932D01*
X91579632Y-115880160D01*
X91559774Y-115928102D01*
X91520000Y-116128061D01*
X91520000Y-116331939D01*
X91559774Y-116531898D01*
X91637795Y-116720256D01*
X91751063Y-116889774D01*
X91895226Y-117033937D01*
X92064744Y-117147205D01*
X92253102Y-117225226D01*
X92453061Y-117265000D01*
X92656939Y-117265000D01*
X92856898Y-117225226D01*
X93045256Y-117147205D01*
X93214774Y-117033937D01*
X93291611Y-116957100D01*
X97381469Y-116957100D01*
X97344988Y-117011698D01*
X97184047Y-117400244D01*
X97102000Y-117812721D01*
X97102000Y-118233279D01*
X97184047Y-118645756D01*
X97344988Y-119034302D01*
X97578637Y-119383983D01*
X97876017Y-119681363D01*
X98225698Y-119915012D01*
X98614244Y-120075953D01*
X99026721Y-120158000D01*
X99447279Y-120158000D01*
X99859756Y-120075953D01*
X100248302Y-119915012D01*
X100597983Y-119681363D01*
X100895363Y-119383983D01*
X101073928Y-119116741D01*
X101073928Y-119273000D01*
X101086188Y-119397482D01*
X101122498Y-119517180D01*
X101181463Y-119627494D01*
X101260815Y-119724185D01*
X101357506Y-119803537D01*
X101467820Y-119862502D01*
X101587518Y-119898812D01*
X101712000Y-119911072D01*
X104262000Y-119911072D01*
X104386482Y-119898812D01*
X104506180Y-119862502D01*
X104616494Y-119803537D01*
X104713185Y-119724185D01*
X104792537Y-119627494D01*
X104851502Y-119517180D01*
X104887812Y-119397482D01*
X104900072Y-119273000D01*
X104900072Y-116773000D01*
X104887812Y-116648518D01*
X104851502Y-116528820D01*
X104792537Y-116418506D01*
X104713185Y-116321815D01*
X104616494Y-116242463D01*
X104506180Y-116183498D01*
X104386482Y-116147188D01*
X104262000Y-116134928D01*
X103681575Y-116134928D01*
X103621974Y-116023424D01*
X103598647Y-115995000D01*
X103853260Y-115995000D01*
X104140158Y-115937932D01*
X104410411Y-115825990D01*
X104653632Y-115663475D01*
X104785487Y-115531620D01*
X104807498Y-115604180D01*
X104866463Y-115714494D01*
X104945815Y-115811185D01*
X105042506Y-115890537D01*
X105152820Y-115949502D01*
X105272518Y-115985812D01*
X105397000Y-115998072D01*
X105961250Y-115995000D01*
X106120000Y-115836250D01*
X106120000Y-114637000D01*
X106100000Y-114637000D01*
X106100000Y-114383000D01*
X106120000Y-114383000D01*
X106120000Y-113183750D01*
X105961250Y-113025000D01*
X105397000Y-113021928D01*
X105272518Y-113034188D01*
X105152820Y-113070498D01*
X105042506Y-113129463D01*
X104945815Y-113208815D01*
X104866463Y-113305506D01*
X104807498Y-113415820D01*
X104785487Y-113488380D01*
X104653632Y-113356525D01*
X104410411Y-113194010D01*
X104140158Y-113082068D01*
X103853260Y-113025000D01*
X103560740Y-113025000D01*
X103273842Y-113082068D01*
X103003589Y-113194010D01*
X102760368Y-113356525D01*
X102553525Y-113563368D01*
X102437000Y-113737760D01*
X102320475Y-113563368D01*
X102113632Y-113356525D01*
X101870411Y-113194010D01*
X101600158Y-113082068D01*
X101313260Y-113025000D01*
X101020740Y-113025000D01*
X100733842Y-113082068D01*
X100463589Y-113194010D01*
X100220368Y-113356525D01*
X100013525Y-113563368D01*
X99897000Y-113737760D01*
X99780475Y-113563368D01*
X99573632Y-113356525D01*
X99330411Y-113194010D01*
X99060158Y-113082068D01*
X98773260Y-113025000D01*
X98480740Y-113025000D01*
X98193842Y-113082068D01*
X97923589Y-113194010D01*
X97680368Y-113356525D01*
X97473525Y-113563368D01*
X97357000Y-113737760D01*
X97240475Y-113563368D01*
X97033632Y-113356525D01*
X96790411Y-113194010D01*
X96520158Y-113082068D01*
X96233260Y-113025000D01*
X95940740Y-113025000D01*
X95653842Y-113082068D01*
X95383589Y-113194010D01*
X95140368Y-113356525D01*
X95008513Y-113488380D01*
X94986502Y-113415820D01*
X94927537Y-113305506D01*
X94848185Y-113208815D01*
X94751494Y-113129463D01*
X94641180Y-113070498D01*
X94521482Y-113034188D01*
X94397000Y-113021928D01*
X93832750Y-113025000D01*
X93674000Y-113183750D01*
X93674000Y-114383000D01*
X93694000Y-114383000D01*
X93694000Y-114637000D01*
X93674000Y-114637000D01*
X93674000Y-114657000D01*
X93420000Y-114657000D01*
X93420000Y-114637000D01*
X93400000Y-114637000D01*
X93400000Y-114383000D01*
X93420000Y-114383000D01*
X93420000Y-113183750D01*
X93261250Y-113025000D01*
X93131600Y-113024294D01*
X93131600Y-104571886D01*
X93227156Y-104532305D01*
X93396674Y-104419037D01*
X93540837Y-104274874D01*
X93654105Y-104105356D01*
X93732126Y-103916998D01*
X93771900Y-103717039D01*
X93771900Y-103513161D01*
X93732126Y-103313202D01*
X93731700Y-103312174D01*
X93731700Y-102601072D01*
X94368272Y-102601072D01*
X94416333Y-102690989D01*
X94503183Y-102796817D01*
X94609011Y-102883667D01*
X94729748Y-102948202D01*
X94860756Y-102987943D01*
X94903714Y-102992174D01*
X94997000Y-103001362D01*
X95031134Y-102998000D01*
X98362865Y-102998000D01*
X98397000Y-103001362D01*
X98431134Y-102998000D01*
X98431135Y-102998000D01*
X98533244Y-102987943D01*
X98664252Y-102948202D01*
X98784989Y-102883667D01*
X98890817Y-102796817D01*
X98977667Y-102690989D01*
X99042202Y-102570252D01*
X99081943Y-102439244D01*
X99095362Y-102303000D01*
X99092000Y-102268865D01*
X99092000Y-101406000D01*
X99324000Y-101406000D01*
X99324000Y-101426000D01*
X99344000Y-101426000D01*
X99344000Y-101680000D01*
X99324000Y-101680000D01*
X99324000Y-102439250D01*
X99482750Y-102598000D01*
X100097000Y-102601072D01*
X100221482Y-102588812D01*
X100341180Y-102552502D01*
X100451494Y-102493537D01*
X100548185Y-102414185D01*
X100627537Y-102317494D01*
X100686502Y-102207180D01*
X100722812Y-102087482D01*
X100735072Y-101963000D01*
X100732000Y-101838750D01*
X100573252Y-101680002D01*
X100732000Y-101680002D01*
X100732000Y-101604700D01*
X100820439Y-101604700D01*
X101020398Y-101564926D01*
X101208756Y-101486905D01*
X101378274Y-101373637D01*
X101522437Y-101229474D01*
X101635705Y-101059956D01*
X101713726Y-100871598D01*
X101753500Y-100671639D01*
X101753500Y-100467761D01*
X101713726Y-100267802D01*
X101635705Y-100079444D01*
X101522437Y-99909926D01*
X101378274Y-99765763D01*
X101208756Y-99652495D01*
X101020398Y-99574474D01*
X101011261Y-99572656D01*
X100962301Y-99512999D01*
X100846576Y-99418026D01*
X100714547Y-99347454D01*
X100648305Y-99327360D01*
X100627537Y-99288506D01*
X100548185Y-99191815D01*
X100451494Y-99112463D01*
X100341180Y-99053498D01*
X100221482Y-99017188D01*
X100097000Y-99004928D01*
X99025728Y-99004928D01*
X98977667Y-98915011D01*
X98890817Y-98809183D01*
X98784989Y-98722333D01*
X98664252Y-98657798D01*
X98533244Y-98618057D01*
X98431135Y-98608000D01*
X98397000Y-98604638D01*
X98362866Y-98608000D01*
X97519042Y-98608000D01*
X97942251Y-98432701D01*
X98217454Y-98248816D01*
X105065000Y-98248816D01*
X105065000Y-98551184D01*
X105123989Y-98847743D01*
X105239701Y-99127095D01*
X105407688Y-99378505D01*
X105621495Y-99592312D01*
X105872905Y-99760299D01*
X106152257Y-99876011D01*
X106448816Y-99935000D01*
X106751184Y-99935000D01*
X107047743Y-99876011D01*
X107327095Y-99760299D01*
X107578505Y-99592312D01*
X107792312Y-99378505D01*
X107960299Y-99127095D01*
X108076011Y-98847743D01*
X108135000Y-98551184D01*
X108135000Y-98248816D01*
X108076011Y-97952257D01*
X107960299Y-97672905D01*
X107792312Y-97421495D01*
X107578505Y-97207688D01*
X107435690Y-97112262D01*
X107484475Y-96964080D01*
X106600000Y-96079605D01*
X105715525Y-96964080D01*
X105764310Y-97112262D01*
X105621495Y-97207688D01*
X105407688Y-97421495D01*
X105239701Y-97672905D01*
X105123989Y-97952257D01*
X105065000Y-98248816D01*
X98217454Y-98248816D01*
X98372826Y-98145000D01*
X98739000Y-97778826D01*
X99026701Y-97348251D01*
X99224873Y-96869822D01*
X99325900Y-96361924D01*
X99325900Y-95956652D01*
X100291100Y-95956652D01*
X100291100Y-96249348D01*
X100348202Y-96536421D01*
X100460212Y-96806838D01*
X100622826Y-97050206D01*
X100829794Y-97257174D01*
X101073162Y-97419788D01*
X101343579Y-97531798D01*
X101630652Y-97588900D01*
X101923348Y-97588900D01*
X102210421Y-97531798D01*
X102480838Y-97419788D01*
X102724206Y-97257174D01*
X102931174Y-97050206D01*
X103093788Y-96806838D01*
X103205798Y-96536421D01*
X103262900Y-96249348D01*
X103262900Y-95956652D01*
X103205798Y-95669579D01*
X103093788Y-95399162D01*
X102931174Y-95155794D01*
X102724206Y-94948826D01*
X102480838Y-94786212D01*
X102210421Y-94674202D01*
X101923348Y-94617100D01*
X101630652Y-94617100D01*
X101343579Y-94674202D01*
X101073162Y-94786212D01*
X100829794Y-94948826D01*
X100622826Y-95155794D01*
X100460212Y-95399162D01*
X100348202Y-95669579D01*
X100291100Y-95956652D01*
X99325900Y-95956652D01*
X99325900Y-95844076D01*
X99224873Y-95336178D01*
X99026701Y-94857749D01*
X98739000Y-94427174D01*
X98372826Y-94061000D01*
X98222567Y-93960600D01*
X101864699Y-93960600D01*
X103065100Y-95161002D01*
G37*
%TD.AperFunction*%
D20*
X68274000Y-132163000D02*
X68294000Y-132163000D01*
X68294000Y-132417000D01*
X68274000Y-132417000D01*
X68274000Y-132437000D01*
X68020000Y-132437000D01*
X68020000Y-132417000D01*
X68000000Y-132417000D01*
X68000000Y-132163000D01*
X68020000Y-132163000D01*
X68020000Y-132143000D01*
X68274000Y-132143000D01*
X68274000Y-132163000D01*
%TA.AperFunction,Conductor*%
D21*
G36*
X68274000Y-132163000D02*
G01*
X68294000Y-132163000D01*
X68294000Y-132417000D01*
X68274000Y-132417000D01*
X68274000Y-132437000D01*
X68020000Y-132437000D01*
X68020000Y-132417000D01*
X68000000Y-132417000D01*
X68000000Y-132163000D01*
X68020000Y-132163000D01*
X68020000Y-132143000D01*
X68274000Y-132143000D01*
X68274000Y-132163000D01*
G37*
%TD.AperFunction*%
D20*
X80324000Y-128426000D02*
X80344000Y-128426000D01*
X80344000Y-128680000D01*
X80324000Y-128680000D01*
X80324000Y-129439250D01*
X80482750Y-129598000D01*
X81097000Y-129601072D01*
X81221482Y-129588812D01*
X81341180Y-129552502D01*
X81451494Y-129493537D01*
X81451700Y-129493368D01*
X81451700Y-129902077D01*
X81448024Y-129939400D01*
X81451700Y-129976722D01*
X81451700Y-129976732D01*
X81462697Y-130088385D01*
X81497684Y-130203724D01*
X81506154Y-130231646D01*
X81576726Y-130363676D01*
X81591859Y-130382115D01*
X81671699Y-130479401D01*
X81700703Y-130503204D01*
X82387196Y-131189697D01*
X82308513Y-131268380D01*
X82286502Y-131195820D01*
X82227537Y-131085506D01*
X82148185Y-130988815D01*
X82051494Y-130909463D01*
X81941180Y-130850498D01*
X81821482Y-130814188D01*
X81697000Y-130801928D01*
X81132750Y-130805000D01*
X80974000Y-130963750D01*
X80974000Y-132163000D01*
X80994000Y-132163000D01*
X80994000Y-132417000D01*
X80974000Y-132417000D01*
X80974000Y-132437000D01*
X80720000Y-132437000D01*
X80720000Y-132417000D01*
X80700000Y-132417000D01*
X80700000Y-132163000D01*
X80720000Y-132163000D01*
X80720000Y-130963750D01*
X80561250Y-130805000D01*
X79997000Y-130801928D01*
X79872518Y-130814188D01*
X79752820Y-130850498D01*
X79642506Y-130909463D01*
X79545815Y-130988815D01*
X79466463Y-131085506D01*
X79407498Y-131195820D01*
X79385487Y-131268380D01*
X79253632Y-131136525D01*
X79010411Y-130974010D01*
X78740158Y-130862068D01*
X78453260Y-130805000D01*
X78160740Y-130805000D01*
X77873842Y-130862068D01*
X77677384Y-130943443D01*
X77671974Y-130933323D01*
X77600799Y-130846597D01*
X77577001Y-130817599D01*
X77548003Y-130793801D01*
X76752202Y-129998000D01*
X79362865Y-129998000D01*
X79397000Y-130001362D01*
X79431134Y-129998000D01*
X79431135Y-129998000D01*
X79533244Y-129987943D01*
X79664252Y-129948202D01*
X79784989Y-129883667D01*
X79890817Y-129796817D01*
X79977667Y-129690989D01*
X80042202Y-129570252D01*
X80081943Y-129439244D01*
X80095362Y-129303000D01*
X80092000Y-129268865D01*
X80092000Y-128406000D01*
X80324000Y-128406000D01*
X80324000Y-128426000D01*
%TA.AperFunction,Conductor*%
D21*
G36*
X80324000Y-128426000D02*
G01*
X80344000Y-128426000D01*
X80344000Y-128680000D01*
X80324000Y-128680000D01*
X80324000Y-129439250D01*
X80482750Y-129598000D01*
X81097000Y-129601072D01*
X81221482Y-129588812D01*
X81341180Y-129552502D01*
X81451494Y-129493537D01*
X81451700Y-129493368D01*
X81451700Y-129902077D01*
X81448024Y-129939400D01*
X81451700Y-129976722D01*
X81451700Y-129976732D01*
X81462697Y-130088385D01*
X81497684Y-130203724D01*
X81506154Y-130231646D01*
X81576726Y-130363676D01*
X81591859Y-130382115D01*
X81671699Y-130479401D01*
X81700703Y-130503204D01*
X82387196Y-131189697D01*
X82308513Y-131268380D01*
X82286502Y-131195820D01*
X82227537Y-131085506D01*
X82148185Y-130988815D01*
X82051494Y-130909463D01*
X81941180Y-130850498D01*
X81821482Y-130814188D01*
X81697000Y-130801928D01*
X81132750Y-130805000D01*
X80974000Y-130963750D01*
X80974000Y-132163000D01*
X80994000Y-132163000D01*
X80994000Y-132417000D01*
X80974000Y-132417000D01*
X80974000Y-132437000D01*
X80720000Y-132437000D01*
X80720000Y-132417000D01*
X80700000Y-132417000D01*
X80700000Y-132163000D01*
X80720000Y-132163000D01*
X80720000Y-130963750D01*
X80561250Y-130805000D01*
X79997000Y-130801928D01*
X79872518Y-130814188D01*
X79752820Y-130850498D01*
X79642506Y-130909463D01*
X79545815Y-130988815D01*
X79466463Y-131085506D01*
X79407498Y-131195820D01*
X79385487Y-131268380D01*
X79253632Y-131136525D01*
X79010411Y-130974010D01*
X78740158Y-130862068D01*
X78453260Y-130805000D01*
X78160740Y-130805000D01*
X77873842Y-130862068D01*
X77677384Y-130943443D01*
X77671974Y-130933323D01*
X77600799Y-130846597D01*
X77577001Y-130817599D01*
X77548003Y-130793801D01*
X76752202Y-129998000D01*
X79362865Y-129998000D01*
X79397000Y-130001362D01*
X79431134Y-129998000D01*
X79431135Y-129998000D01*
X79533244Y-129987943D01*
X79664252Y-129948202D01*
X79784989Y-129883667D01*
X79890817Y-129796817D01*
X79977667Y-129690989D01*
X80042202Y-129570252D01*
X80081943Y-129439244D01*
X80095362Y-129303000D01*
X80092000Y-129268865D01*
X80092000Y-128406000D01*
X80324000Y-128406000D01*
X80324000Y-128426000D01*
G37*
%TD.AperFunction*%
D20*
X73737001Y-112442503D02*
X73737001Y-113113897D01*
X73660158Y-113082068D01*
X73373260Y-113025000D01*
X73080740Y-113025000D01*
X72793842Y-113082068D01*
X72523589Y-113194010D01*
X72280368Y-113356525D01*
X72073525Y-113563368D01*
X71957000Y-113737760D01*
X71840475Y-113563368D01*
X71633632Y-113356525D01*
X71390411Y-113194010D01*
X71120158Y-113082068D01*
X70833260Y-113025000D01*
X70540740Y-113025000D01*
X70253842Y-113082068D01*
X69983589Y-113194010D01*
X69740368Y-113356525D01*
X69608513Y-113488380D01*
X69586502Y-113415820D01*
X69527537Y-113305506D01*
X69448185Y-113208815D01*
X69351494Y-113129463D01*
X69241180Y-113070498D01*
X69121482Y-113034188D01*
X68997000Y-113021928D01*
X68432750Y-113025000D01*
X68274000Y-113183750D01*
X68274000Y-114383000D01*
X68294000Y-114383000D01*
X68294000Y-114637000D01*
X68274000Y-114637000D01*
X68274000Y-115836250D01*
X68432750Y-115995000D01*
X68997000Y-115998072D01*
X69121482Y-115985812D01*
X69241180Y-115949502D01*
X69351494Y-115890537D01*
X69448185Y-115811185D01*
X69527537Y-115714494D01*
X69586502Y-115604180D01*
X69608513Y-115531620D01*
X69740368Y-115663475D01*
X69983589Y-115825990D01*
X70253842Y-115937932D01*
X70540740Y-115995000D01*
X70833260Y-115995000D01*
X71120158Y-115937932D01*
X71390411Y-115825990D01*
X71633632Y-115663475D01*
X71840475Y-115456632D01*
X71957000Y-115282240D01*
X72073525Y-115456632D01*
X72280368Y-115663475D01*
X72523589Y-115825990D01*
X72793842Y-115937932D01*
X73080740Y-115995000D01*
X73373260Y-115995000D01*
X73660158Y-115937932D01*
X73930411Y-115825990D01*
X73949273Y-115813387D01*
X73956999Y-115822801D01*
X73986002Y-115846603D01*
X76105198Y-117965800D01*
X68960322Y-117965800D01*
X68922999Y-117962124D01*
X68885676Y-117965800D01*
X68885667Y-117965800D01*
X68774014Y-117976797D01*
X68630753Y-118020254D01*
X68498724Y-118090826D01*
X68382999Y-118185799D01*
X68359196Y-118214803D01*
X68025603Y-118548396D01*
X67996599Y-118572199D01*
X67941471Y-118639374D01*
X67901626Y-118687924D01*
X67848841Y-118786677D01*
X67831054Y-118819954D01*
X67787597Y-118963215D01*
X67776600Y-119074868D01*
X67776600Y-119074878D01*
X67772924Y-119112200D01*
X67776600Y-119149522D01*
X67776601Y-130179668D01*
X67772924Y-130217000D01*
X67776601Y-130254333D01*
X67787598Y-130365986D01*
X67790113Y-130374276D01*
X67831054Y-130509246D01*
X67901626Y-130641276D01*
X67954372Y-130705546D01*
X67996600Y-130757001D01*
X68025598Y-130780799D01*
X68049799Y-130805000D01*
X68019998Y-130805000D01*
X68019998Y-130963748D01*
X67861250Y-130805000D01*
X67297000Y-130801928D01*
X67172518Y-130814188D01*
X67052820Y-130850498D01*
X66942506Y-130909463D01*
X66845815Y-130988815D01*
X66766463Y-131085506D01*
X66707498Y-131195820D01*
X66685487Y-131268380D01*
X66553632Y-131136525D01*
X66310411Y-130974010D01*
X66040158Y-130862068D01*
X65753260Y-130805000D01*
X65460740Y-130805000D01*
X65173842Y-130862068D01*
X64903589Y-130974010D01*
X64660368Y-131136525D01*
X64453525Y-131343368D01*
X64337000Y-131517760D01*
X64220475Y-131343368D01*
X64066804Y-131189697D01*
X65498004Y-129758498D01*
X65527001Y-129734701D01*
X65561634Y-129692501D01*
X65621974Y-129618977D01*
X65692546Y-129486947D01*
X65702783Y-129453200D01*
X65736003Y-129343686D01*
X65747000Y-129232033D01*
X65747000Y-129232024D01*
X65750676Y-129194701D01*
X65747000Y-129157378D01*
X65747000Y-119911072D01*
X66262000Y-119911072D01*
X66386482Y-119898812D01*
X66506180Y-119862502D01*
X66616494Y-119803537D01*
X66713185Y-119724185D01*
X66792537Y-119627494D01*
X66851502Y-119517180D01*
X66887812Y-119397482D01*
X66900072Y-119273000D01*
X66900072Y-116773000D01*
X66887812Y-116648518D01*
X66851502Y-116528820D01*
X66792537Y-116418506D01*
X66713185Y-116321815D01*
X66616494Y-116242463D01*
X66506180Y-116183498D01*
X66386482Y-116147188D01*
X66262000Y-116134928D01*
X64373973Y-116134928D01*
X64771303Y-115737599D01*
X64903589Y-115825990D01*
X65173842Y-115937932D01*
X65460740Y-115995000D01*
X65753260Y-115995000D01*
X66040158Y-115937932D01*
X66310411Y-115825990D01*
X66553632Y-115663475D01*
X66685487Y-115531620D01*
X66707498Y-115604180D01*
X66766463Y-115714494D01*
X66845815Y-115811185D01*
X66942506Y-115890537D01*
X67052820Y-115949502D01*
X67172518Y-115985812D01*
X67297000Y-115998072D01*
X67861250Y-115995000D01*
X68020000Y-115836250D01*
X68020000Y-114637000D01*
X68000000Y-114637000D01*
X68000000Y-114383000D01*
X68020000Y-114383000D01*
X68020000Y-113183750D01*
X67861250Y-113025000D01*
X67297000Y-113021928D01*
X67172518Y-113034188D01*
X67052820Y-113070498D01*
X66942506Y-113129463D01*
X66845815Y-113208815D01*
X66766463Y-113305506D01*
X66707498Y-113415820D01*
X66685487Y-113488380D01*
X66553632Y-113356525D01*
X66310411Y-113194010D01*
X66040158Y-113082068D01*
X65753260Y-113025000D01*
X65460740Y-113025000D01*
X65361892Y-113044662D01*
X65426826Y-112887898D01*
X65466600Y-112687939D01*
X65466600Y-112484061D01*
X65426826Y-112284102D01*
X65348805Y-112095744D01*
X65235537Y-111926226D01*
X65091374Y-111782063D01*
X64921856Y-111668795D01*
X64733498Y-111590774D01*
X64533539Y-111551000D01*
X64329661Y-111551000D01*
X64129702Y-111590774D01*
X63941344Y-111668795D01*
X63771826Y-111782063D01*
X63627663Y-111926226D01*
X63514395Y-112095744D01*
X63436374Y-112284102D01*
X63396600Y-112484061D01*
X63396600Y-112687939D01*
X63436374Y-112887898D01*
X63514395Y-113076256D01*
X63525213Y-113092446D01*
X63500158Y-113082068D01*
X63213260Y-113025000D01*
X62920740Y-113025000D01*
X62633842Y-113082068D01*
X62363589Y-113194010D01*
X62120368Y-113356525D01*
X61913525Y-113563368D01*
X61751010Y-113806589D01*
X61639068Y-114076842D01*
X61582000Y-114363740D01*
X61582000Y-114656260D01*
X61639068Y-114943158D01*
X61751010Y-115213411D01*
X61913525Y-115456632D01*
X62120368Y-115663475D01*
X62363589Y-115825990D01*
X62631295Y-115936877D01*
X62628488Y-115965376D01*
X62620124Y-116050300D01*
X62623801Y-116087632D01*
X62623801Y-116390455D01*
X62597983Y-116364637D01*
X62248302Y-116130988D01*
X61859756Y-115970047D01*
X61447279Y-115888000D01*
X61026721Y-115888000D01*
X60614244Y-115970047D01*
X60225698Y-116130988D01*
X59876017Y-116364637D01*
X59578637Y-116662017D01*
X59344988Y-117011698D01*
X59184047Y-117400244D01*
X59102000Y-117812721D01*
X59102000Y-118233279D01*
X59184047Y-118645756D01*
X59344988Y-119034302D01*
X59578637Y-119383983D01*
X59876017Y-119681363D01*
X60225698Y-119915012D01*
X60614244Y-120075953D01*
X61026721Y-120158000D01*
X61447279Y-120158000D01*
X61859756Y-120075953D01*
X62248302Y-119915012D01*
X62597983Y-119681363D01*
X62623800Y-119655546D01*
X62623800Y-121381498D01*
X61911298Y-122094001D01*
X61882300Y-122117799D01*
X61858502Y-122146797D01*
X61858501Y-122146798D01*
X61787326Y-122233524D01*
X61716754Y-122365554D01*
X61673298Y-122508815D01*
X61658624Y-122657800D01*
X61662301Y-122695132D01*
X61662300Y-126004928D01*
X61025728Y-126004928D01*
X60977667Y-125915011D01*
X60890817Y-125809183D01*
X60784989Y-125722333D01*
X60664252Y-125657798D01*
X60533244Y-125618057D01*
X60431135Y-125608000D01*
X60397000Y-125604638D01*
X60362866Y-125608000D01*
X59519042Y-125608000D01*
X59942251Y-125432701D01*
X60372826Y-125145000D01*
X60739000Y-124778826D01*
X61026701Y-124348251D01*
X61224873Y-123869822D01*
X61325900Y-123361924D01*
X61325900Y-122844076D01*
X61224873Y-122336178D01*
X61026701Y-121857749D01*
X60739000Y-121427174D01*
X60372826Y-121061000D01*
X59942251Y-120773299D01*
X59463822Y-120575127D01*
X58955924Y-120474100D01*
X58438076Y-120474100D01*
X57930178Y-120575127D01*
X57477400Y-120762674D01*
X57477400Y-118572333D01*
X57481077Y-118535000D01*
X57466403Y-118386014D01*
X57422946Y-118242753D01*
X57352374Y-118110724D01*
X57281199Y-118023997D01*
X57257401Y-117994999D01*
X57228404Y-117971202D01*
X55731700Y-116474499D01*
X55731700Y-102966701D01*
X56301300Y-103536302D01*
X56325099Y-103565301D01*
X56354097Y-103589099D01*
X56440823Y-103660274D01*
X56547022Y-103717039D01*
X56572853Y-103730846D01*
X56716114Y-103774303D01*
X56827767Y-103785300D01*
X56827776Y-103785300D01*
X56865099Y-103788976D01*
X56902422Y-103785300D01*
X60272289Y-103785300D01*
X60316226Y-103829237D01*
X60485744Y-103942505D01*
X60674102Y-104020526D01*
X60874061Y-104060300D01*
X61077939Y-104060300D01*
X61277898Y-104020526D01*
X61466256Y-103942505D01*
X61635774Y-103829237D01*
X61779937Y-103685074D01*
X61893205Y-103515556D01*
X61971226Y-103327198D01*
X62011000Y-103127239D01*
X62011000Y-102923361D01*
X61971226Y-102723402D01*
X61920189Y-102600188D01*
X62097000Y-102601072D01*
X62221482Y-102588812D01*
X62341180Y-102552502D01*
X62451494Y-102493537D01*
X62548185Y-102414185D01*
X62627537Y-102317494D01*
X62686502Y-102207180D01*
X62722812Y-102087482D01*
X62735072Y-101963000D01*
X62732000Y-101838750D01*
X62573250Y-101680000D01*
X61324000Y-101680000D01*
X61324000Y-101700000D01*
X61092000Y-101700000D01*
X61092000Y-101406000D01*
X61324000Y-101406000D01*
X61324000Y-101426000D01*
X62573250Y-101426000D01*
X62646874Y-101352376D01*
X73737001Y-112442503D01*
%TA.AperFunction,Conductor*%
D21*
G36*
X73737001Y-112442503D02*
G01*
X73737001Y-113113897D01*
X73660158Y-113082068D01*
X73373260Y-113025000D01*
X73080740Y-113025000D01*
X72793842Y-113082068D01*
X72523589Y-113194010D01*
X72280368Y-113356525D01*
X72073525Y-113563368D01*
X71957000Y-113737760D01*
X71840475Y-113563368D01*
X71633632Y-113356525D01*
X71390411Y-113194010D01*
X71120158Y-113082068D01*
X70833260Y-113025000D01*
X70540740Y-113025000D01*
X70253842Y-113082068D01*
X69983589Y-113194010D01*
X69740368Y-113356525D01*
X69608513Y-113488380D01*
X69586502Y-113415820D01*
X69527537Y-113305506D01*
X69448185Y-113208815D01*
X69351494Y-113129463D01*
X69241180Y-113070498D01*
X69121482Y-113034188D01*
X68997000Y-113021928D01*
X68432750Y-113025000D01*
X68274000Y-113183750D01*
X68274000Y-114383000D01*
X68294000Y-114383000D01*
X68294000Y-114637000D01*
X68274000Y-114637000D01*
X68274000Y-115836250D01*
X68432750Y-115995000D01*
X68997000Y-115998072D01*
X69121482Y-115985812D01*
X69241180Y-115949502D01*
X69351494Y-115890537D01*
X69448185Y-115811185D01*
X69527537Y-115714494D01*
X69586502Y-115604180D01*
X69608513Y-115531620D01*
X69740368Y-115663475D01*
X69983589Y-115825990D01*
X70253842Y-115937932D01*
X70540740Y-115995000D01*
X70833260Y-115995000D01*
X71120158Y-115937932D01*
X71390411Y-115825990D01*
X71633632Y-115663475D01*
X71840475Y-115456632D01*
X71957000Y-115282240D01*
X72073525Y-115456632D01*
X72280368Y-115663475D01*
X72523589Y-115825990D01*
X72793842Y-115937932D01*
X73080740Y-115995000D01*
X73373260Y-115995000D01*
X73660158Y-115937932D01*
X73930411Y-115825990D01*
X73949273Y-115813387D01*
X73956999Y-115822801D01*
X73986002Y-115846603D01*
X76105198Y-117965800D01*
X68960322Y-117965800D01*
X68922999Y-117962124D01*
X68885676Y-117965800D01*
X68885667Y-117965800D01*
X68774014Y-117976797D01*
X68630753Y-118020254D01*
X68498724Y-118090826D01*
X68382999Y-118185799D01*
X68359196Y-118214803D01*
X68025603Y-118548396D01*
X67996599Y-118572199D01*
X67941471Y-118639374D01*
X67901626Y-118687924D01*
X67848841Y-118786677D01*
X67831054Y-118819954D01*
X67787597Y-118963215D01*
X67776600Y-119074868D01*
X67776600Y-119074878D01*
X67772924Y-119112200D01*
X67776600Y-119149522D01*
X67776601Y-130179668D01*
X67772924Y-130217000D01*
X67776601Y-130254333D01*
X67787598Y-130365986D01*
X67790113Y-130374276D01*
X67831054Y-130509246D01*
X67901626Y-130641276D01*
X67954372Y-130705546D01*
X67996600Y-130757001D01*
X68025598Y-130780799D01*
X68049799Y-130805000D01*
X68019998Y-130805000D01*
X68019998Y-130963748D01*
X67861250Y-130805000D01*
X67297000Y-130801928D01*
X67172518Y-130814188D01*
X67052820Y-130850498D01*
X66942506Y-130909463D01*
X66845815Y-130988815D01*
X66766463Y-131085506D01*
X66707498Y-131195820D01*
X66685487Y-131268380D01*
X66553632Y-131136525D01*
X66310411Y-130974010D01*
X66040158Y-130862068D01*
X65753260Y-130805000D01*
X65460740Y-130805000D01*
X65173842Y-130862068D01*
X64903589Y-130974010D01*
X64660368Y-131136525D01*
X64453525Y-131343368D01*
X64337000Y-131517760D01*
X64220475Y-131343368D01*
X64066804Y-131189697D01*
X65498004Y-129758498D01*
X65527001Y-129734701D01*
X65561634Y-129692501D01*
X65621974Y-129618977D01*
X65692546Y-129486947D01*
X65702783Y-129453200D01*
X65736003Y-129343686D01*
X65747000Y-129232033D01*
X65747000Y-129232024D01*
X65750676Y-129194701D01*
X65747000Y-129157378D01*
X65747000Y-119911072D01*
X66262000Y-119911072D01*
X66386482Y-119898812D01*
X66506180Y-119862502D01*
X66616494Y-119803537D01*
X66713185Y-119724185D01*
X66792537Y-119627494D01*
X66851502Y-119517180D01*
X66887812Y-119397482D01*
X66900072Y-119273000D01*
X66900072Y-116773000D01*
X66887812Y-116648518D01*
X66851502Y-116528820D01*
X66792537Y-116418506D01*
X66713185Y-116321815D01*
X66616494Y-116242463D01*
X66506180Y-116183498D01*
X66386482Y-116147188D01*
X66262000Y-116134928D01*
X64373973Y-116134928D01*
X64771303Y-115737599D01*
X64903589Y-115825990D01*
X65173842Y-115937932D01*
X65460740Y-115995000D01*
X65753260Y-115995000D01*
X66040158Y-115937932D01*
X66310411Y-115825990D01*
X66553632Y-115663475D01*
X66685487Y-115531620D01*
X66707498Y-115604180D01*
X66766463Y-115714494D01*
X66845815Y-115811185D01*
X66942506Y-115890537D01*
X67052820Y-115949502D01*
X67172518Y-115985812D01*
X67297000Y-115998072D01*
X67861250Y-115995000D01*
X68020000Y-115836250D01*
X68020000Y-114637000D01*
X68000000Y-114637000D01*
X68000000Y-114383000D01*
X68020000Y-114383000D01*
X68020000Y-113183750D01*
X67861250Y-113025000D01*
X67297000Y-113021928D01*
X67172518Y-113034188D01*
X67052820Y-113070498D01*
X66942506Y-113129463D01*
X66845815Y-113208815D01*
X66766463Y-113305506D01*
X66707498Y-113415820D01*
X66685487Y-113488380D01*
X66553632Y-113356525D01*
X66310411Y-113194010D01*
X66040158Y-113082068D01*
X65753260Y-113025000D01*
X65460740Y-113025000D01*
X65361892Y-113044662D01*
X65426826Y-112887898D01*
X65466600Y-112687939D01*
X65466600Y-112484061D01*
X65426826Y-112284102D01*
X65348805Y-112095744D01*
X65235537Y-111926226D01*
X65091374Y-111782063D01*
X64921856Y-111668795D01*
X64733498Y-111590774D01*
X64533539Y-111551000D01*
X64329661Y-111551000D01*
X64129702Y-111590774D01*
X63941344Y-111668795D01*
X63771826Y-111782063D01*
X63627663Y-111926226D01*
X63514395Y-112095744D01*
X63436374Y-112284102D01*
X63396600Y-112484061D01*
X63396600Y-112687939D01*
X63436374Y-112887898D01*
X63514395Y-113076256D01*
X63525213Y-113092446D01*
X63500158Y-113082068D01*
X63213260Y-113025000D01*
X62920740Y-113025000D01*
X62633842Y-113082068D01*
X62363589Y-113194010D01*
X62120368Y-113356525D01*
X61913525Y-113563368D01*
X61751010Y-113806589D01*
X61639068Y-114076842D01*
X61582000Y-114363740D01*
X61582000Y-114656260D01*
X61639068Y-114943158D01*
X61751010Y-115213411D01*
X61913525Y-115456632D01*
X62120368Y-115663475D01*
X62363589Y-115825990D01*
X62631295Y-115936877D01*
X62628488Y-115965376D01*
X62620124Y-116050300D01*
X62623801Y-116087632D01*
X62623801Y-116390455D01*
X62597983Y-116364637D01*
X62248302Y-116130988D01*
X61859756Y-115970047D01*
X61447279Y-115888000D01*
X61026721Y-115888000D01*
X60614244Y-115970047D01*
X60225698Y-116130988D01*
X59876017Y-116364637D01*
X59578637Y-116662017D01*
X59344988Y-117011698D01*
X59184047Y-117400244D01*
X59102000Y-117812721D01*
X59102000Y-118233279D01*
X59184047Y-118645756D01*
X59344988Y-119034302D01*
X59578637Y-119383983D01*
X59876017Y-119681363D01*
X60225698Y-119915012D01*
X60614244Y-120075953D01*
X61026721Y-120158000D01*
X61447279Y-120158000D01*
X61859756Y-120075953D01*
X62248302Y-119915012D01*
X62597983Y-119681363D01*
X62623800Y-119655546D01*
X62623800Y-121381498D01*
X61911298Y-122094001D01*
X61882300Y-122117799D01*
X61858502Y-122146797D01*
X61858501Y-122146798D01*
X61787326Y-122233524D01*
X61716754Y-122365554D01*
X61673298Y-122508815D01*
X61658624Y-122657800D01*
X61662301Y-122695132D01*
X61662300Y-126004928D01*
X61025728Y-126004928D01*
X60977667Y-125915011D01*
X60890817Y-125809183D01*
X60784989Y-125722333D01*
X60664252Y-125657798D01*
X60533244Y-125618057D01*
X60431135Y-125608000D01*
X60397000Y-125604638D01*
X60362866Y-125608000D01*
X59519042Y-125608000D01*
X59942251Y-125432701D01*
X60372826Y-125145000D01*
X60739000Y-124778826D01*
X61026701Y-124348251D01*
X61224873Y-123869822D01*
X61325900Y-123361924D01*
X61325900Y-122844076D01*
X61224873Y-122336178D01*
X61026701Y-121857749D01*
X60739000Y-121427174D01*
X60372826Y-121061000D01*
X59942251Y-120773299D01*
X59463822Y-120575127D01*
X58955924Y-120474100D01*
X58438076Y-120474100D01*
X57930178Y-120575127D01*
X57477400Y-120762674D01*
X57477400Y-118572333D01*
X57481077Y-118535000D01*
X57466403Y-118386014D01*
X57422946Y-118242753D01*
X57352374Y-118110724D01*
X57281199Y-118023997D01*
X57257401Y-117994999D01*
X57228404Y-117971202D01*
X55731700Y-116474499D01*
X55731700Y-102966701D01*
X56301300Y-103536302D01*
X56325099Y-103565301D01*
X56354097Y-103589099D01*
X56440823Y-103660274D01*
X56547022Y-103717039D01*
X56572853Y-103730846D01*
X56716114Y-103774303D01*
X56827767Y-103785300D01*
X56827776Y-103785300D01*
X56865099Y-103788976D01*
X56902422Y-103785300D01*
X60272289Y-103785300D01*
X60316226Y-103829237D01*
X60485744Y-103942505D01*
X60674102Y-104020526D01*
X60874061Y-104060300D01*
X61077939Y-104060300D01*
X61277898Y-104020526D01*
X61466256Y-103942505D01*
X61635774Y-103829237D01*
X61779937Y-103685074D01*
X61893205Y-103515556D01*
X61971226Y-103327198D01*
X62011000Y-103127239D01*
X62011000Y-102923361D01*
X61971226Y-102723402D01*
X61920189Y-102600188D01*
X62097000Y-102601072D01*
X62221482Y-102588812D01*
X62341180Y-102552502D01*
X62451494Y-102493537D01*
X62548185Y-102414185D01*
X62627537Y-102317494D01*
X62686502Y-102207180D01*
X62722812Y-102087482D01*
X62735072Y-101963000D01*
X62732000Y-101838750D01*
X62573250Y-101680000D01*
X61324000Y-101680000D01*
X61324000Y-101700000D01*
X61092000Y-101700000D01*
X61092000Y-101406000D01*
X61324000Y-101406000D01*
X61324000Y-101426000D01*
X62573250Y-101426000D01*
X62646874Y-101352376D01*
X73737001Y-112442503D01*
G37*
%TD.AperFunction*%
D20*
X118324000Y-128426000D02*
X118344000Y-128426000D01*
X118344000Y-128680000D01*
X118324000Y-128680000D01*
X118324000Y-128700000D01*
X118092000Y-128700000D01*
X118092000Y-128406000D01*
X118324000Y-128406000D01*
X118324000Y-128426000D01*
%TA.AperFunction,Conductor*%
D21*
G36*
X118324000Y-128426000D02*
G01*
X118344000Y-128426000D01*
X118344000Y-128680000D01*
X118324000Y-128680000D01*
X118324000Y-128700000D01*
X118092000Y-128700000D01*
X118092000Y-128406000D01*
X118324000Y-128406000D01*
X118324000Y-128426000D01*
G37*
%TD.AperFunction*%
D20*
X87390748Y-84409358D02*
X87376605Y-84423500D01*
X88225397Y-85272292D01*
X88467689Y-85196771D01*
X88583525Y-85370132D01*
X88790368Y-85576975D01*
X89033589Y-85739490D01*
X89303842Y-85851432D01*
X89590740Y-85908500D01*
X89883260Y-85908500D01*
X90170158Y-85851432D01*
X90440411Y-85739490D01*
X90683632Y-85576975D01*
X90890475Y-85370132D01*
X91007000Y-85195740D01*
X91123525Y-85370132D01*
X91330368Y-85576975D01*
X91573589Y-85739490D01*
X91843842Y-85851432D01*
X92130740Y-85908500D01*
X92423260Y-85908500D01*
X92710158Y-85851432D01*
X92980411Y-85739490D01*
X93223632Y-85576975D01*
X93430475Y-85370132D01*
X93547000Y-85195740D01*
X93663525Y-85370132D01*
X93870368Y-85576975D01*
X94113589Y-85739490D01*
X94383842Y-85851432D01*
X94670740Y-85908500D01*
X94963260Y-85908500D01*
X95183408Y-85864710D01*
X95513401Y-86194703D01*
X95513400Y-92885798D01*
X95022000Y-93377198D01*
X95022000Y-93352721D01*
X94939953Y-92940244D01*
X94779012Y-92551698D01*
X94545363Y-92202017D01*
X94247983Y-91904637D01*
X93898302Y-91670988D01*
X93509756Y-91510047D01*
X93097279Y-91428000D01*
X92676721Y-91428000D01*
X92264244Y-91510047D01*
X91875698Y-91670988D01*
X91526017Y-91904637D01*
X91228637Y-92202017D01*
X91050072Y-92469259D01*
X91050072Y-92313000D01*
X91037812Y-92188518D01*
X91001502Y-92068820D01*
X90942537Y-91958506D01*
X90863185Y-91861815D01*
X90766494Y-91782463D01*
X90656180Y-91723498D01*
X90536482Y-91687188D01*
X90412000Y-91674928D01*
X87862000Y-91674928D01*
X87737518Y-91687188D01*
X87617820Y-91723498D01*
X87507506Y-91782463D01*
X87410815Y-91861815D01*
X87331463Y-91958506D01*
X87272498Y-92068820D01*
X87236188Y-92188518D01*
X87223928Y-92313000D01*
X87223928Y-94813000D01*
X87236188Y-94937482D01*
X87272498Y-95057180D01*
X87331463Y-95167494D01*
X87410815Y-95264185D01*
X87507506Y-95343537D01*
X87617820Y-95402502D01*
X87737518Y-95438812D01*
X87862000Y-95451072D01*
X88442425Y-95451072D01*
X88502026Y-95562576D01*
X88564790Y-95639053D01*
X88597000Y-95678301D01*
X88625998Y-95702099D01*
X89540001Y-96616103D01*
X89540000Y-98584962D01*
X89455820Y-98610498D01*
X89345506Y-98669463D01*
X89248815Y-98748815D01*
X89169463Y-98845506D01*
X89110498Y-98955820D01*
X89074188Y-99075518D01*
X89071196Y-99105895D01*
X84747000Y-94781699D01*
X84747000Y-92911072D01*
X85262000Y-92911072D01*
X85386482Y-92898812D01*
X85506180Y-92862502D01*
X85616494Y-92803537D01*
X85713185Y-92724185D01*
X85792537Y-92627494D01*
X85851502Y-92517180D01*
X85887812Y-92397482D01*
X85900072Y-92273000D01*
X85900072Y-89773000D01*
X85887812Y-89648518D01*
X85851502Y-89528820D01*
X85792537Y-89418506D01*
X85713185Y-89321815D01*
X85616494Y-89242463D01*
X85506180Y-89183498D01*
X85386482Y-89147188D01*
X85262000Y-89134928D01*
X82712000Y-89134928D01*
X82587518Y-89147188D01*
X82467820Y-89183498D01*
X82357506Y-89242463D01*
X82260815Y-89321815D01*
X82181463Y-89418506D01*
X82122498Y-89528820D01*
X82086188Y-89648518D01*
X82073928Y-89773000D01*
X82073928Y-89929259D01*
X81895363Y-89662017D01*
X81597983Y-89364637D01*
X81248302Y-89130988D01*
X80859756Y-88970047D01*
X80447279Y-88888000D01*
X80026721Y-88888000D01*
X79614244Y-88970047D01*
X79225698Y-89130988D01*
X78876017Y-89364637D01*
X78578637Y-89662017D01*
X78344988Y-90011698D01*
X78184047Y-90400244D01*
X78102000Y-90812721D01*
X78102000Y-91233279D01*
X78184047Y-91645756D01*
X78344988Y-92034302D01*
X78578637Y-92383983D01*
X78876017Y-92681363D01*
X79225698Y-92915012D01*
X79614244Y-93075953D01*
X80026721Y-93158000D01*
X80447279Y-93158000D01*
X80859756Y-93075953D01*
X81248302Y-92915012D01*
X81597983Y-92681363D01*
X81895363Y-92383983D01*
X82073928Y-92116741D01*
X82073928Y-92273000D01*
X82086188Y-92397482D01*
X82122498Y-92517180D01*
X82181463Y-92627494D01*
X82260815Y-92724185D01*
X82357506Y-92803537D01*
X82467820Y-92862502D01*
X82587518Y-92898812D01*
X82712000Y-92911072D01*
X83227000Y-92911072D01*
X83227001Y-94681070D01*
X83210421Y-94674202D01*
X82923348Y-94617100D01*
X82630652Y-94617100D01*
X82343579Y-94674202D01*
X82073162Y-94786212D01*
X81829794Y-94948826D01*
X81622826Y-95155794D01*
X81460212Y-95399162D01*
X81348202Y-95669579D01*
X81291100Y-95956652D01*
X81291100Y-96249348D01*
X81348202Y-96536421D01*
X81460212Y-96806838D01*
X81622826Y-97050206D01*
X81829794Y-97257174D01*
X82073162Y-97419788D01*
X82343579Y-97531798D01*
X82630652Y-97588900D01*
X82923348Y-97588900D01*
X83210421Y-97531798D01*
X83480838Y-97419788D01*
X83724206Y-97257174D01*
X83931174Y-97050206D01*
X84093788Y-96806838D01*
X84205798Y-96536421D01*
X84230074Y-96414375D01*
X89679632Y-101863934D01*
X89575518Y-101874188D01*
X89455820Y-101910498D01*
X89345506Y-101969463D01*
X89248815Y-102048815D01*
X89169463Y-102145506D01*
X89110498Y-102255820D01*
X89074188Y-102375518D01*
X89061928Y-102500000D01*
X89061928Y-103400000D01*
X89074188Y-103524482D01*
X89110498Y-103644180D01*
X89169463Y-103754494D01*
X89181426Y-103769072D01*
X84145998Y-108804501D01*
X84117000Y-108828299D01*
X84093202Y-108857297D01*
X84093201Y-108857298D01*
X84022026Y-108944024D01*
X83951454Y-109076054D01*
X83907998Y-109219315D01*
X83893324Y-109368300D01*
X83897001Y-109405632D01*
X83897000Y-113113897D01*
X83820158Y-113082068D01*
X83533260Y-113025000D01*
X83240740Y-113025000D01*
X82953842Y-113082068D01*
X82683589Y-113194010D01*
X82440368Y-113356525D01*
X82308513Y-113488380D01*
X82286502Y-113415820D01*
X82227537Y-113305506D01*
X82148185Y-113208815D01*
X82051494Y-113129463D01*
X81941180Y-113070498D01*
X81821482Y-113034188D01*
X81697000Y-113021928D01*
X81132750Y-113025000D01*
X80974000Y-113183750D01*
X80974000Y-114383000D01*
X80994000Y-114383000D01*
X80994000Y-114637000D01*
X80974000Y-114637000D01*
X80974000Y-114657000D01*
X80720000Y-114657000D01*
X80720000Y-114637000D01*
X80700000Y-114637000D01*
X80700000Y-114383000D01*
X80720000Y-114383000D01*
X80720000Y-113183750D01*
X80561250Y-113025000D01*
X80431600Y-113024294D01*
X80431600Y-112084222D01*
X80435276Y-112046899D01*
X80431600Y-112009576D01*
X80431600Y-112009567D01*
X80420603Y-111897914D01*
X80377146Y-111754653D01*
X80306574Y-111622624D01*
X80211601Y-111506899D01*
X80182603Y-111483101D01*
X72418573Y-103719072D01*
X72430537Y-103704494D01*
X72489502Y-103594180D01*
X72525812Y-103474482D01*
X72538072Y-103350000D01*
X72538072Y-102450000D01*
X72525812Y-102325518D01*
X72489502Y-102205820D01*
X72430537Y-102095506D01*
X72351185Y-101998815D01*
X72254494Y-101919463D01*
X72144180Y-101860498D01*
X72024482Y-101824188D01*
X71999830Y-101821760D01*
X71934974Y-101700424D01*
X71840001Y-101584699D01*
X71811003Y-101560901D01*
X70938174Y-100688072D01*
X71900000Y-100688072D01*
X72024482Y-100675812D01*
X72144180Y-100639502D01*
X72254494Y-100580537D01*
X72351185Y-100501185D01*
X72430537Y-100404494D01*
X72489502Y-100294180D01*
X72525812Y-100174482D01*
X72538072Y-100050000D01*
X72538072Y-99150000D01*
X72525812Y-99025518D01*
X72489502Y-98905820D01*
X72430537Y-98795506D01*
X72351185Y-98698815D01*
X72254494Y-98619463D01*
X72144180Y-98560498D01*
X72060000Y-98534962D01*
X72060000Y-97480610D01*
X72183579Y-97531798D01*
X72470652Y-97588900D01*
X72763348Y-97588900D01*
X73050421Y-97531798D01*
X73320838Y-97419788D01*
X73564206Y-97257174D01*
X73771174Y-97050206D01*
X73933788Y-96806838D01*
X74045798Y-96536421D01*
X74102900Y-96249348D01*
X74102900Y-95956652D01*
X74051451Y-95698000D01*
X74097279Y-95698000D01*
X74437000Y-95630425D01*
X74437001Y-99004928D01*
X74297000Y-99004928D01*
X74172518Y-99017188D01*
X74052820Y-99053498D01*
X73942506Y-99112463D01*
X73845815Y-99191815D01*
X73766463Y-99288506D01*
X73707498Y-99398820D01*
X73671188Y-99518518D01*
X73658928Y-99643000D01*
X73658928Y-100463000D01*
X73671188Y-100587482D01*
X73707498Y-100707180D01*
X73758716Y-100803000D01*
X73707498Y-100898820D01*
X73671188Y-101018518D01*
X73658928Y-101143000D01*
X73658928Y-101963000D01*
X73671188Y-102087482D01*
X73707498Y-102207180D01*
X73766463Y-102317494D01*
X73845815Y-102414185D01*
X73942506Y-102493537D01*
X74052820Y-102552502D01*
X74172518Y-102588812D01*
X74297000Y-102601072D01*
X74455699Y-102601072D01*
X74491454Y-102718946D01*
X74562026Y-102850976D01*
X74623842Y-102926298D01*
X74657000Y-102966701D01*
X74685998Y-102990499D01*
X75476901Y-103781403D01*
X75500699Y-103810401D01*
X75529697Y-103834199D01*
X75616423Y-103905374D01*
X75680272Y-103939502D01*
X75748453Y-103975946D01*
X75891714Y-104019403D01*
X76003367Y-104030400D01*
X76003377Y-104030400D01*
X76040700Y-104034076D01*
X76078022Y-104030400D01*
X79713789Y-104030400D01*
X79757726Y-104074337D01*
X79927244Y-104187605D01*
X80115602Y-104265626D01*
X80315561Y-104305400D01*
X80519439Y-104305400D01*
X80719398Y-104265626D01*
X80907756Y-104187605D01*
X81077274Y-104074337D01*
X81221437Y-103930174D01*
X81334705Y-103760656D01*
X81412726Y-103572298D01*
X81452500Y-103372339D01*
X81452500Y-103168461D01*
X81412726Y-102968502D01*
X81334705Y-102780144D01*
X81221437Y-102610626D01*
X81201583Y-102590772D01*
X81221482Y-102588812D01*
X81341180Y-102552502D01*
X81451494Y-102493537D01*
X81548185Y-102414185D01*
X81627537Y-102317494D01*
X81686502Y-102207180D01*
X81722812Y-102087482D01*
X81735072Y-101963000D01*
X81732000Y-101838750D01*
X81573250Y-101680000D01*
X80324000Y-101680000D01*
X80324000Y-101700000D01*
X80092000Y-101700000D01*
X80092000Y-101406000D01*
X80324000Y-101406000D01*
X80324000Y-101426000D01*
X81573250Y-101426000D01*
X81732000Y-101267250D01*
X81735072Y-101143000D01*
X81722812Y-101018518D01*
X81686502Y-100898820D01*
X81635284Y-100803000D01*
X81686502Y-100707180D01*
X81722812Y-100587482D01*
X81735072Y-100463000D01*
X81735072Y-99643000D01*
X81722812Y-99518518D01*
X81686502Y-99398820D01*
X81627537Y-99288506D01*
X81548185Y-99191815D01*
X81451494Y-99112463D01*
X81341180Y-99053498D01*
X81232000Y-99020379D01*
X81232000Y-98922261D01*
X81192226Y-98722302D01*
X81114205Y-98533944D01*
X81000937Y-98364426D01*
X80856774Y-98220263D01*
X80687256Y-98106995D01*
X80498898Y-98028974D01*
X80298939Y-97989200D01*
X80095061Y-97989200D01*
X79895102Y-98028974D01*
X79706744Y-98106995D01*
X79537226Y-98220263D01*
X79393063Y-98364426D01*
X79279795Y-98533944D01*
X79249120Y-98608000D01*
X78519042Y-98608000D01*
X78942251Y-98432701D01*
X79372826Y-98145000D01*
X79739000Y-97778826D01*
X80026701Y-97348251D01*
X80224873Y-96869822D01*
X80325900Y-96361924D01*
X80325900Y-95844076D01*
X80224873Y-95336178D01*
X80026701Y-94857749D01*
X79739000Y-94427174D01*
X79372826Y-94061000D01*
X78942251Y-93773299D01*
X78463822Y-93575127D01*
X77955924Y-93474100D01*
X77860128Y-93474100D01*
X77867000Y-93404333D01*
X77867000Y-93404323D01*
X77870676Y-93367000D01*
X77867000Y-93329677D01*
X77867000Y-85513101D01*
X77928204Y-85451897D01*
X78728208Y-85451897D01*
X78805843Y-85700972D01*
X79069883Y-85826871D01*
X79353411Y-85898839D01*
X79645531Y-85914111D01*
X79935019Y-85872099D01*
X80210747Y-85774419D01*
X80348157Y-85700972D01*
X80425792Y-85451897D01*
X79577000Y-84603105D01*
X78728208Y-85451897D01*
X77928204Y-85451897D01*
X78259790Y-85120312D01*
X78299528Y-85194657D01*
X78548603Y-85272292D01*
X79397395Y-84423500D01*
X79383253Y-84409358D01*
X79562858Y-84229753D01*
X79577000Y-84243895D01*
X79591143Y-84229753D01*
X79770748Y-84409358D01*
X79756605Y-84423500D01*
X80605397Y-85272292D01*
X80847689Y-85196771D01*
X80963525Y-85370132D01*
X81170368Y-85576975D01*
X81413589Y-85739490D01*
X81683842Y-85851432D01*
X81970740Y-85908500D01*
X82263260Y-85908500D01*
X82550158Y-85851432D01*
X82820411Y-85739490D01*
X83063632Y-85576975D01*
X83270475Y-85370132D01*
X83387000Y-85195740D01*
X83503525Y-85370132D01*
X83710368Y-85576975D01*
X83953589Y-85739490D01*
X84223842Y-85851432D01*
X84510740Y-85908500D01*
X84803260Y-85908500D01*
X85090158Y-85851432D01*
X85360411Y-85739490D01*
X85603632Y-85576975D01*
X85728710Y-85451897D01*
X86348208Y-85451897D01*
X86425843Y-85700972D01*
X86689883Y-85826871D01*
X86973411Y-85898839D01*
X87265531Y-85914111D01*
X87555019Y-85872099D01*
X87830747Y-85774419D01*
X87968157Y-85700972D01*
X88045792Y-85451897D01*
X87197000Y-84603105D01*
X86348208Y-85451897D01*
X85728710Y-85451897D01*
X85810475Y-85370132D01*
X85926311Y-85196771D01*
X86168603Y-85272292D01*
X87017395Y-84423500D01*
X87003253Y-84409358D01*
X87182858Y-84229753D01*
X87197000Y-84243895D01*
X87211143Y-84229753D01*
X87390748Y-84409358D01*
%TA.AperFunction,Conductor*%
D21*
G36*
X87390748Y-84409358D02*
G01*
X87376605Y-84423500D01*
X88225397Y-85272292D01*
X88467689Y-85196771D01*
X88583525Y-85370132D01*
X88790368Y-85576975D01*
X89033589Y-85739490D01*
X89303842Y-85851432D01*
X89590740Y-85908500D01*
X89883260Y-85908500D01*
X90170158Y-85851432D01*
X90440411Y-85739490D01*
X90683632Y-85576975D01*
X90890475Y-85370132D01*
X91007000Y-85195740D01*
X91123525Y-85370132D01*
X91330368Y-85576975D01*
X91573589Y-85739490D01*
X91843842Y-85851432D01*
X92130740Y-85908500D01*
X92423260Y-85908500D01*
X92710158Y-85851432D01*
X92980411Y-85739490D01*
X93223632Y-85576975D01*
X93430475Y-85370132D01*
X93547000Y-85195740D01*
X93663525Y-85370132D01*
X93870368Y-85576975D01*
X94113589Y-85739490D01*
X94383842Y-85851432D01*
X94670740Y-85908500D01*
X94963260Y-85908500D01*
X95183408Y-85864710D01*
X95513401Y-86194703D01*
X95513400Y-92885798D01*
X95022000Y-93377198D01*
X95022000Y-93352721D01*
X94939953Y-92940244D01*
X94779012Y-92551698D01*
X94545363Y-92202017D01*
X94247983Y-91904637D01*
X93898302Y-91670988D01*
X93509756Y-91510047D01*
X93097279Y-91428000D01*
X92676721Y-91428000D01*
X92264244Y-91510047D01*
X91875698Y-91670988D01*
X91526017Y-91904637D01*
X91228637Y-92202017D01*
X91050072Y-92469259D01*
X91050072Y-92313000D01*
X91037812Y-92188518D01*
X91001502Y-92068820D01*
X90942537Y-91958506D01*
X90863185Y-91861815D01*
X90766494Y-91782463D01*
X90656180Y-91723498D01*
X90536482Y-91687188D01*
X90412000Y-91674928D01*
X87862000Y-91674928D01*
X87737518Y-91687188D01*
X87617820Y-91723498D01*
X87507506Y-91782463D01*
X87410815Y-91861815D01*
X87331463Y-91958506D01*
X87272498Y-92068820D01*
X87236188Y-92188518D01*
X87223928Y-92313000D01*
X87223928Y-94813000D01*
X87236188Y-94937482D01*
X87272498Y-95057180D01*
X87331463Y-95167494D01*
X87410815Y-95264185D01*
X87507506Y-95343537D01*
X87617820Y-95402502D01*
X87737518Y-95438812D01*
X87862000Y-95451072D01*
X88442425Y-95451072D01*
X88502026Y-95562576D01*
X88564790Y-95639053D01*
X88597000Y-95678301D01*
X88625998Y-95702099D01*
X89540001Y-96616103D01*
X89540000Y-98584962D01*
X89455820Y-98610498D01*
X89345506Y-98669463D01*
X89248815Y-98748815D01*
X89169463Y-98845506D01*
X89110498Y-98955820D01*
X89074188Y-99075518D01*
X89071196Y-99105895D01*
X84747000Y-94781699D01*
X84747000Y-92911072D01*
X85262000Y-92911072D01*
X85386482Y-92898812D01*
X85506180Y-92862502D01*
X85616494Y-92803537D01*
X85713185Y-92724185D01*
X85792537Y-92627494D01*
X85851502Y-92517180D01*
X85887812Y-92397482D01*
X85900072Y-92273000D01*
X85900072Y-89773000D01*
X85887812Y-89648518D01*
X85851502Y-89528820D01*
X85792537Y-89418506D01*
X85713185Y-89321815D01*
X85616494Y-89242463D01*
X85506180Y-89183498D01*
X85386482Y-89147188D01*
X85262000Y-89134928D01*
X82712000Y-89134928D01*
X82587518Y-89147188D01*
X82467820Y-89183498D01*
X82357506Y-89242463D01*
X82260815Y-89321815D01*
X82181463Y-89418506D01*
X82122498Y-89528820D01*
X82086188Y-89648518D01*
X82073928Y-89773000D01*
X82073928Y-89929259D01*
X81895363Y-89662017D01*
X81597983Y-89364637D01*
X81248302Y-89130988D01*
X80859756Y-88970047D01*
X80447279Y-88888000D01*
X80026721Y-88888000D01*
X79614244Y-88970047D01*
X79225698Y-89130988D01*
X78876017Y-89364637D01*
X78578637Y-89662017D01*
X78344988Y-90011698D01*
X78184047Y-90400244D01*
X78102000Y-90812721D01*
X78102000Y-91233279D01*
X78184047Y-91645756D01*
X78344988Y-92034302D01*
X78578637Y-92383983D01*
X78876017Y-92681363D01*
X79225698Y-92915012D01*
X79614244Y-93075953D01*
X80026721Y-93158000D01*
X80447279Y-93158000D01*
X80859756Y-93075953D01*
X81248302Y-92915012D01*
X81597983Y-92681363D01*
X81895363Y-92383983D01*
X82073928Y-92116741D01*
X82073928Y-92273000D01*
X82086188Y-92397482D01*
X82122498Y-92517180D01*
X82181463Y-92627494D01*
X82260815Y-92724185D01*
X82357506Y-92803537D01*
X82467820Y-92862502D01*
X82587518Y-92898812D01*
X82712000Y-92911072D01*
X83227000Y-92911072D01*
X83227001Y-94681070D01*
X83210421Y-94674202D01*
X82923348Y-94617100D01*
X82630652Y-94617100D01*
X82343579Y-94674202D01*
X82073162Y-94786212D01*
X81829794Y-94948826D01*
X81622826Y-95155794D01*
X81460212Y-95399162D01*
X81348202Y-95669579D01*
X81291100Y-95956652D01*
X81291100Y-96249348D01*
X81348202Y-96536421D01*
X81460212Y-96806838D01*
X81622826Y-97050206D01*
X81829794Y-97257174D01*
X82073162Y-97419788D01*
X82343579Y-97531798D01*
X82630652Y-97588900D01*
X82923348Y-97588900D01*
X83210421Y-97531798D01*
X83480838Y-97419788D01*
X83724206Y-97257174D01*
X83931174Y-97050206D01*
X84093788Y-96806838D01*
X84205798Y-96536421D01*
X84230074Y-96414375D01*
X89679632Y-101863934D01*
X89575518Y-101874188D01*
X89455820Y-101910498D01*
X89345506Y-101969463D01*
X89248815Y-102048815D01*
X89169463Y-102145506D01*
X89110498Y-102255820D01*
X89074188Y-102375518D01*
X89061928Y-102500000D01*
X89061928Y-103400000D01*
X89074188Y-103524482D01*
X89110498Y-103644180D01*
X89169463Y-103754494D01*
X89181426Y-103769072D01*
X84145998Y-108804501D01*
X84117000Y-108828299D01*
X84093202Y-108857297D01*
X84093201Y-108857298D01*
X84022026Y-108944024D01*
X83951454Y-109076054D01*
X83907998Y-109219315D01*
X83893324Y-109368300D01*
X83897001Y-109405632D01*
X83897000Y-113113897D01*
X83820158Y-113082068D01*
X83533260Y-113025000D01*
X83240740Y-113025000D01*
X82953842Y-113082068D01*
X82683589Y-113194010D01*
X82440368Y-113356525D01*
X82308513Y-113488380D01*
X82286502Y-113415820D01*
X82227537Y-113305506D01*
X82148185Y-113208815D01*
X82051494Y-113129463D01*
X81941180Y-113070498D01*
X81821482Y-113034188D01*
X81697000Y-113021928D01*
X81132750Y-113025000D01*
X80974000Y-113183750D01*
X80974000Y-114383000D01*
X80994000Y-114383000D01*
X80994000Y-114637000D01*
X80974000Y-114637000D01*
X80974000Y-114657000D01*
X80720000Y-114657000D01*
X80720000Y-114637000D01*
X80700000Y-114637000D01*
X80700000Y-114383000D01*
X80720000Y-114383000D01*
X80720000Y-113183750D01*
X80561250Y-113025000D01*
X80431600Y-113024294D01*
X80431600Y-112084222D01*
X80435276Y-112046899D01*
X80431600Y-112009576D01*
X80431600Y-112009567D01*
X80420603Y-111897914D01*
X80377146Y-111754653D01*
X80306574Y-111622624D01*
X80211601Y-111506899D01*
X80182603Y-111483101D01*
X72418573Y-103719072D01*
X72430537Y-103704494D01*
X72489502Y-103594180D01*
X72525812Y-103474482D01*
X72538072Y-103350000D01*
X72538072Y-102450000D01*
X72525812Y-102325518D01*
X72489502Y-102205820D01*
X72430537Y-102095506D01*
X72351185Y-101998815D01*
X72254494Y-101919463D01*
X72144180Y-101860498D01*
X72024482Y-101824188D01*
X71999830Y-101821760D01*
X71934974Y-101700424D01*
X71840001Y-101584699D01*
X71811003Y-101560901D01*
X70938174Y-100688072D01*
X71900000Y-100688072D01*
X72024482Y-100675812D01*
X72144180Y-100639502D01*
X72254494Y-100580537D01*
X72351185Y-100501185D01*
X72430537Y-100404494D01*
X72489502Y-100294180D01*
X72525812Y-100174482D01*
X72538072Y-100050000D01*
X72538072Y-99150000D01*
X72525812Y-99025518D01*
X72489502Y-98905820D01*
X72430537Y-98795506D01*
X72351185Y-98698815D01*
X72254494Y-98619463D01*
X72144180Y-98560498D01*
X72060000Y-98534962D01*
X72060000Y-97480610D01*
X72183579Y-97531798D01*
X72470652Y-97588900D01*
X72763348Y-97588900D01*
X73050421Y-97531798D01*
X73320838Y-97419788D01*
X73564206Y-97257174D01*
X73771174Y-97050206D01*
X73933788Y-96806838D01*
X74045798Y-96536421D01*
X74102900Y-96249348D01*
X74102900Y-95956652D01*
X74051451Y-95698000D01*
X74097279Y-95698000D01*
X74437000Y-95630425D01*
X74437001Y-99004928D01*
X74297000Y-99004928D01*
X74172518Y-99017188D01*
X74052820Y-99053498D01*
X73942506Y-99112463D01*
X73845815Y-99191815D01*
X73766463Y-99288506D01*
X73707498Y-99398820D01*
X73671188Y-99518518D01*
X73658928Y-99643000D01*
X73658928Y-100463000D01*
X73671188Y-100587482D01*
X73707498Y-100707180D01*
X73758716Y-100803000D01*
X73707498Y-100898820D01*
X73671188Y-101018518D01*
X73658928Y-101143000D01*
X73658928Y-101963000D01*
X73671188Y-102087482D01*
X73707498Y-102207180D01*
X73766463Y-102317494D01*
X73845815Y-102414185D01*
X73942506Y-102493537D01*
X74052820Y-102552502D01*
X74172518Y-102588812D01*
X74297000Y-102601072D01*
X74455699Y-102601072D01*
X74491454Y-102718946D01*
X74562026Y-102850976D01*
X74623842Y-102926298D01*
X74657000Y-102966701D01*
X74685998Y-102990499D01*
X75476901Y-103781403D01*
X75500699Y-103810401D01*
X75529697Y-103834199D01*
X75616423Y-103905374D01*
X75680272Y-103939502D01*
X75748453Y-103975946D01*
X75891714Y-104019403D01*
X76003367Y-104030400D01*
X76003377Y-104030400D01*
X76040700Y-104034076D01*
X76078022Y-104030400D01*
X79713789Y-104030400D01*
X79757726Y-104074337D01*
X79927244Y-104187605D01*
X80115602Y-104265626D01*
X80315561Y-104305400D01*
X80519439Y-104305400D01*
X80719398Y-104265626D01*
X80907756Y-104187605D01*
X81077274Y-104074337D01*
X81221437Y-103930174D01*
X81334705Y-103760656D01*
X81412726Y-103572298D01*
X81452500Y-103372339D01*
X81452500Y-103168461D01*
X81412726Y-102968502D01*
X81334705Y-102780144D01*
X81221437Y-102610626D01*
X81201583Y-102590772D01*
X81221482Y-102588812D01*
X81341180Y-102552502D01*
X81451494Y-102493537D01*
X81548185Y-102414185D01*
X81627537Y-102317494D01*
X81686502Y-102207180D01*
X81722812Y-102087482D01*
X81735072Y-101963000D01*
X81732000Y-101838750D01*
X81573250Y-101680000D01*
X80324000Y-101680000D01*
X80324000Y-101700000D01*
X80092000Y-101700000D01*
X80092000Y-101406000D01*
X80324000Y-101406000D01*
X80324000Y-101426000D01*
X81573250Y-101426000D01*
X81732000Y-101267250D01*
X81735072Y-101143000D01*
X81722812Y-101018518D01*
X81686502Y-100898820D01*
X81635284Y-100803000D01*
X81686502Y-100707180D01*
X81722812Y-100587482D01*
X81735072Y-100463000D01*
X81735072Y-99643000D01*
X81722812Y-99518518D01*
X81686502Y-99398820D01*
X81627537Y-99288506D01*
X81548185Y-99191815D01*
X81451494Y-99112463D01*
X81341180Y-99053498D01*
X81232000Y-99020379D01*
X81232000Y-98922261D01*
X81192226Y-98722302D01*
X81114205Y-98533944D01*
X81000937Y-98364426D01*
X80856774Y-98220263D01*
X80687256Y-98106995D01*
X80498898Y-98028974D01*
X80298939Y-97989200D01*
X80095061Y-97989200D01*
X79895102Y-98028974D01*
X79706744Y-98106995D01*
X79537226Y-98220263D01*
X79393063Y-98364426D01*
X79279795Y-98533944D01*
X79249120Y-98608000D01*
X78519042Y-98608000D01*
X78942251Y-98432701D01*
X79372826Y-98145000D01*
X79739000Y-97778826D01*
X80026701Y-97348251D01*
X80224873Y-96869822D01*
X80325900Y-96361924D01*
X80325900Y-95844076D01*
X80224873Y-95336178D01*
X80026701Y-94857749D01*
X79739000Y-94427174D01*
X79372826Y-94061000D01*
X78942251Y-93773299D01*
X78463822Y-93575127D01*
X77955924Y-93474100D01*
X77860128Y-93474100D01*
X77867000Y-93404333D01*
X77867000Y-93404323D01*
X77870676Y-93367000D01*
X77867000Y-93329677D01*
X77867000Y-85513101D01*
X77928204Y-85451897D01*
X78728208Y-85451897D01*
X78805843Y-85700972D01*
X79069883Y-85826871D01*
X79353411Y-85898839D01*
X79645531Y-85914111D01*
X79935019Y-85872099D01*
X80210747Y-85774419D01*
X80348157Y-85700972D01*
X80425792Y-85451897D01*
X79577000Y-84603105D01*
X78728208Y-85451897D01*
X77928204Y-85451897D01*
X78259790Y-85120312D01*
X78299528Y-85194657D01*
X78548603Y-85272292D01*
X79397395Y-84423500D01*
X79383253Y-84409358D01*
X79562858Y-84229753D01*
X79577000Y-84243895D01*
X79591143Y-84229753D01*
X79770748Y-84409358D01*
X79756605Y-84423500D01*
X80605397Y-85272292D01*
X80847689Y-85196771D01*
X80963525Y-85370132D01*
X81170368Y-85576975D01*
X81413589Y-85739490D01*
X81683842Y-85851432D01*
X81970740Y-85908500D01*
X82263260Y-85908500D01*
X82550158Y-85851432D01*
X82820411Y-85739490D01*
X83063632Y-85576975D01*
X83270475Y-85370132D01*
X83387000Y-85195740D01*
X83503525Y-85370132D01*
X83710368Y-85576975D01*
X83953589Y-85739490D01*
X84223842Y-85851432D01*
X84510740Y-85908500D01*
X84803260Y-85908500D01*
X85090158Y-85851432D01*
X85360411Y-85739490D01*
X85603632Y-85576975D01*
X85728710Y-85451897D01*
X86348208Y-85451897D01*
X86425843Y-85700972D01*
X86689883Y-85826871D01*
X86973411Y-85898839D01*
X87265531Y-85914111D01*
X87555019Y-85872099D01*
X87830747Y-85774419D01*
X87968157Y-85700972D01*
X88045792Y-85451897D01*
X87197000Y-84603105D01*
X86348208Y-85451897D01*
X85728710Y-85451897D01*
X85810475Y-85370132D01*
X85926311Y-85196771D01*
X86168603Y-85272292D01*
X87017395Y-84423500D01*
X87003253Y-84409358D01*
X87182858Y-84229753D01*
X87197000Y-84243895D01*
X87211143Y-84229753D01*
X87390748Y-84409358D01*
G37*
%TD.AperFunction*%
%TD*%
M02*
