%TF.GenerationSoftware,KiCad,Pcbnew,(5.1.10)-1*%
%TF.CreationDate,2021-12-07T13:13:35+09:00*%
%TF.ProjectId,MACRO-PAD-v0.1,4d414352-4f2d-4504-9144-2d76302e312e,rev?*%
%TF.SameCoordinates,Original*%
%TF.FileFunction,Soldermask,Bot*%
%TF.FilePolarity,Negative*%
%FSLAX46Y46*%
G04 Gerber Fmt 4.6, Leading zero omitted, Abs format (unit mm)*
G04 Created by KiCad (PCBNEW (5.1.10)-1) date 2021-12-07 13:13:35*
%MOMM*%
%LPD*%
G01*
G04 APERTURE LIST*
%ADD10C,0.300000*%
%ADD11C,0.010000*%
%ADD12C,1.700000*%
%ADD13C,5.161000*%
%ADD14C,1.800000*%
%ADD15R,1.800000X0.820000*%
%ADD16R,2.550000X2.500000*%
%ADD17C,1.701800*%
%ADD18C,3.987800*%
%ADD19C,3.000000*%
%ADD20O,1.700000X1.700000*%
%ADD21R,1.700000X1.700000*%
%ADD22R,1.200000X0.900000*%
G04 APERTURE END LIST*
D10*
X96625571Y-141878571D02*
X96625571Y-140378571D01*
X96125571Y-141450000D01*
X95625571Y-140378571D01*
X95625571Y-141878571D01*
X94982714Y-141450000D02*
X94268428Y-141450000D01*
X95125571Y-141878571D02*
X94625571Y-140378571D01*
X94125571Y-141878571D01*
X92768428Y-141735714D02*
X92839857Y-141807142D01*
X93054142Y-141878571D01*
X93197000Y-141878571D01*
X93411285Y-141807142D01*
X93554142Y-141664285D01*
X93625571Y-141521428D01*
X93697000Y-141235714D01*
X93697000Y-141021428D01*
X93625571Y-140735714D01*
X93554142Y-140592857D01*
X93411285Y-140450000D01*
X93197000Y-140378571D01*
X93054142Y-140378571D01*
X92839857Y-140450000D01*
X92768428Y-140521428D01*
X91268428Y-141878571D02*
X91768428Y-141164285D01*
X92125571Y-141878571D02*
X92125571Y-140378571D01*
X91554142Y-140378571D01*
X91411285Y-140450000D01*
X91339857Y-140521428D01*
X91268428Y-140664285D01*
X91268428Y-140878571D01*
X91339857Y-141021428D01*
X91411285Y-141092857D01*
X91554142Y-141164285D01*
X92125571Y-141164285D01*
X90339857Y-140378571D02*
X90054142Y-140378571D01*
X89911285Y-140450000D01*
X89768428Y-140592857D01*
X89697000Y-140878571D01*
X89697000Y-141378571D01*
X89768428Y-141664285D01*
X89911285Y-141807142D01*
X90054142Y-141878571D01*
X90339857Y-141878571D01*
X90482714Y-141807142D01*
X90625571Y-141664285D01*
X90697000Y-141378571D01*
X90697000Y-140878571D01*
X90625571Y-140592857D01*
X90482714Y-140450000D01*
X90339857Y-140378571D01*
X89054142Y-141307142D02*
X87911285Y-141307142D01*
X87197000Y-141878571D02*
X87197000Y-140378571D01*
X86625571Y-140378571D01*
X86482714Y-140450000D01*
X86411285Y-140521428D01*
X86339857Y-140664285D01*
X86339857Y-140878571D01*
X86411285Y-141021428D01*
X86482714Y-141092857D01*
X86625571Y-141164285D01*
X87197000Y-141164285D01*
X85768428Y-141450000D02*
X85054142Y-141450000D01*
X85911285Y-141878571D02*
X85411285Y-140378571D01*
X84911285Y-141878571D01*
X84411285Y-141878571D02*
X84411285Y-140378571D01*
X84054142Y-140378571D01*
X83839857Y-140450000D01*
X83697000Y-140592857D01*
X83625571Y-140735714D01*
X83554142Y-141021428D01*
X83554142Y-141235714D01*
X83625571Y-141521428D01*
X83697000Y-141664285D01*
X83839857Y-141807142D01*
X84054142Y-141878571D01*
X84411285Y-141878571D01*
X81911285Y-140878571D02*
X81554142Y-141878571D01*
X81197000Y-140878571D01*
X80339857Y-140378571D02*
X80197000Y-140378571D01*
X80054142Y-140450000D01*
X79982714Y-140521428D01*
X79911285Y-140664285D01*
X79839857Y-140950000D01*
X79839857Y-141307142D01*
X79911285Y-141592857D01*
X79982714Y-141735714D01*
X80054142Y-141807142D01*
X80197000Y-141878571D01*
X80339857Y-141878571D01*
X80482714Y-141807142D01*
X80554142Y-141735714D01*
X80625571Y-141592857D01*
X80697000Y-141307142D01*
X80697000Y-140950000D01*
X80625571Y-140664285D01*
X80554142Y-140521428D01*
X80482714Y-140450000D01*
X80339857Y-140378571D01*
X79197000Y-141735714D02*
X79125571Y-141807142D01*
X79197000Y-141878571D01*
X79268428Y-141807142D01*
X79197000Y-141735714D01*
X79197000Y-141878571D01*
X77697000Y-141878571D02*
X78554142Y-141878571D01*
X78125571Y-141878571D02*
X78125571Y-140378571D01*
X78268428Y-140592857D01*
X78411285Y-140735714D01*
X78554142Y-140807142D01*
D11*
%TO.C,G\u002A\u002A\u002A*%
G36*
X87005890Y-145207134D02*
G01*
X87004027Y-145213618D01*
X87009014Y-145226039D01*
X87021713Y-145245719D01*
X87042986Y-145273979D01*
X87073695Y-145312142D01*
X87114701Y-145361528D01*
X87119002Y-145366659D01*
X87145535Y-145398296D01*
X87181601Y-145441311D01*
X87225860Y-145494100D01*
X87276969Y-145555063D01*
X87333584Y-145622599D01*
X87394363Y-145695105D01*
X87457965Y-145770981D01*
X87523046Y-145848624D01*
X87588264Y-145926434D01*
X87590554Y-145929167D01*
X87675001Y-146029807D01*
X87761104Y-146132207D01*
X87848160Y-146235540D01*
X87935464Y-146338981D01*
X88022312Y-146441704D01*
X88108000Y-146542884D01*
X88191824Y-146641696D01*
X88273079Y-146737312D01*
X88351062Y-146828909D01*
X88425067Y-146915660D01*
X88494392Y-146996739D01*
X88558331Y-147071322D01*
X88616181Y-147138582D01*
X88667237Y-147197694D01*
X88710795Y-147247832D01*
X88746151Y-147288170D01*
X88772601Y-147317883D01*
X88789440Y-147336146D01*
X88795609Y-147342013D01*
X88804570Y-147338881D01*
X88823278Y-147327474D01*
X88848189Y-147310014D01*
X88856467Y-147303834D01*
X88891762Y-147275570D01*
X88930111Y-147242518D01*
X88961214Y-147213730D01*
X88988954Y-147185487D01*
X89019361Y-147152527D01*
X89050372Y-147117333D01*
X89079924Y-147082392D01*
X89105954Y-147050189D01*
X89126400Y-147023209D01*
X89139199Y-147003937D01*
X89142493Y-146995302D01*
X89139952Y-146991986D01*
X89132827Y-146984897D01*
X89120733Y-146973710D01*
X89103285Y-146958100D01*
X89080100Y-146937741D01*
X89050792Y-146912310D01*
X89014979Y-146881480D01*
X88972275Y-146844926D01*
X88922297Y-146802323D01*
X88864660Y-146753347D01*
X88798979Y-146697671D01*
X88724871Y-146634972D01*
X88641952Y-146564923D01*
X88549837Y-146487199D01*
X88448141Y-146401476D01*
X88336482Y-146307428D01*
X88214473Y-146204730D01*
X88081732Y-146093058D01*
X87937873Y-145972084D01*
X87782513Y-145841486D01*
X87615268Y-145700937D01*
X87435753Y-145550113D01*
X87274092Y-145414313D01*
X87218273Y-145367671D01*
X87166230Y-145324650D01*
X87119441Y-145286439D01*
X87079387Y-145254225D01*
X87047544Y-145229195D01*
X87025393Y-145212537D01*
X87014411Y-145205438D01*
X87013742Y-145205267D01*
X87005890Y-145207134D01*
G37*
X87005890Y-145207134D02*
X87004027Y-145213618D01*
X87009014Y-145226039D01*
X87021713Y-145245719D01*
X87042986Y-145273979D01*
X87073695Y-145312142D01*
X87114701Y-145361528D01*
X87119002Y-145366659D01*
X87145535Y-145398296D01*
X87181601Y-145441311D01*
X87225860Y-145494100D01*
X87276969Y-145555063D01*
X87333584Y-145622599D01*
X87394363Y-145695105D01*
X87457965Y-145770981D01*
X87523046Y-145848624D01*
X87588264Y-145926434D01*
X87590554Y-145929167D01*
X87675001Y-146029807D01*
X87761104Y-146132207D01*
X87848160Y-146235540D01*
X87935464Y-146338981D01*
X88022312Y-146441704D01*
X88108000Y-146542884D01*
X88191824Y-146641696D01*
X88273079Y-146737312D01*
X88351062Y-146828909D01*
X88425067Y-146915660D01*
X88494392Y-146996739D01*
X88558331Y-147071322D01*
X88616181Y-147138582D01*
X88667237Y-147197694D01*
X88710795Y-147247832D01*
X88746151Y-147288170D01*
X88772601Y-147317883D01*
X88789440Y-147336146D01*
X88795609Y-147342013D01*
X88804570Y-147338881D01*
X88823278Y-147327474D01*
X88848189Y-147310014D01*
X88856467Y-147303834D01*
X88891762Y-147275570D01*
X88930111Y-147242518D01*
X88961214Y-147213730D01*
X88988954Y-147185487D01*
X89019361Y-147152527D01*
X89050372Y-147117333D01*
X89079924Y-147082392D01*
X89105954Y-147050189D01*
X89126400Y-147023209D01*
X89139199Y-147003937D01*
X89142493Y-146995302D01*
X89139952Y-146991986D01*
X89132827Y-146984897D01*
X89120733Y-146973710D01*
X89103285Y-146958100D01*
X89080100Y-146937741D01*
X89050792Y-146912310D01*
X89014979Y-146881480D01*
X88972275Y-146844926D01*
X88922297Y-146802323D01*
X88864660Y-146753347D01*
X88798979Y-146697671D01*
X88724871Y-146634972D01*
X88641952Y-146564923D01*
X88549837Y-146487199D01*
X88448141Y-146401476D01*
X88336482Y-146307428D01*
X88214473Y-146204730D01*
X88081732Y-146093058D01*
X87937873Y-145972084D01*
X87782513Y-145841486D01*
X87615268Y-145700937D01*
X87435753Y-145550113D01*
X87274092Y-145414313D01*
X87218273Y-145367671D01*
X87166230Y-145324650D01*
X87119441Y-145286439D01*
X87079387Y-145254225D01*
X87047544Y-145229195D01*
X87025393Y-145212537D01*
X87014411Y-145205438D01*
X87013742Y-145205267D01*
X87005890Y-145207134D01*
G36*
X87134712Y-143281738D02*
G01*
X87008626Y-143281919D01*
X86884395Y-143282258D01*
X86763271Y-143282755D01*
X86646506Y-143283409D01*
X86535354Y-143284221D01*
X86431066Y-143285191D01*
X86334894Y-143286318D01*
X86248093Y-143287601D01*
X86171913Y-143289041D01*
X86107607Y-143290637D01*
X86056429Y-143292389D01*
X86019629Y-143294297D01*
X85998462Y-143296360D01*
X85997996Y-143296439D01*
X85868209Y-143327506D01*
X85743951Y-143373948D01*
X85626475Y-143434758D01*
X85517028Y-143508929D01*
X85416863Y-143595452D01*
X85327230Y-143693320D01*
X85249378Y-143801525D01*
X85184559Y-143919060D01*
X85161746Y-143970423D01*
X85145296Y-144013167D01*
X85127792Y-144063455D01*
X85112281Y-144112400D01*
X85108110Y-144126775D01*
X85084566Y-144210433D01*
X85084566Y-146581100D01*
X85111926Y-146682700D01*
X85134933Y-146754779D01*
X85165957Y-146832607D01*
X85202502Y-146910939D01*
X85242071Y-146984533D01*
X85282168Y-147048144D01*
X85293334Y-147063700D01*
X85332535Y-147112002D01*
X85380724Y-147164503D01*
X85433687Y-147217094D01*
X85487210Y-147265666D01*
X85537079Y-147306111D01*
X85555683Y-147319522D01*
X85645024Y-147374362D01*
X85743266Y-147423135D01*
X85842518Y-147461961D01*
X85850800Y-147464695D01*
X85878906Y-147473753D01*
X85904733Y-147481692D01*
X85929556Y-147488586D01*
X85954651Y-147494509D01*
X85981293Y-147499534D01*
X86010758Y-147503736D01*
X86044321Y-147507187D01*
X86083258Y-147509963D01*
X86128844Y-147512136D01*
X86182354Y-147513780D01*
X86245065Y-147514968D01*
X86318251Y-147515776D01*
X86403188Y-147516276D01*
X86501152Y-147516542D01*
X86613417Y-147516648D01*
X86741260Y-147516667D01*
X86749875Y-147516667D01*
X86854485Y-147516589D01*
X86953973Y-147516362D01*
X87047072Y-147515998D01*
X87132517Y-147515510D01*
X87209041Y-147514910D01*
X87275379Y-147514210D01*
X87330264Y-147513421D01*
X87372431Y-147512557D01*
X87400613Y-147511629D01*
X87413544Y-147510649D01*
X87414250Y-147510317D01*
X87409742Y-147500561D01*
X87398826Y-147475642D01*
X87381685Y-147435995D01*
X87358503Y-147382053D01*
X87329467Y-147314250D01*
X87294760Y-147233020D01*
X87254567Y-147138797D01*
X87209073Y-147032015D01*
X87158462Y-146913108D01*
X87102919Y-146782510D01*
X87042629Y-146640655D01*
X86977777Y-146487977D01*
X86908546Y-146324909D01*
X86835122Y-146151887D01*
X86757690Y-145969343D01*
X86676433Y-145777712D01*
X86591538Y-145577428D01*
X86543259Y-145463500D01*
X86485250Y-145326623D01*
X86428968Y-145193868D01*
X86374773Y-145066083D01*
X86323027Y-144944118D01*
X86274091Y-144828821D01*
X86228324Y-144721043D01*
X86186089Y-144621632D01*
X86147746Y-144531438D01*
X86113657Y-144451309D01*
X86084182Y-144382096D01*
X86059682Y-144324646D01*
X86040518Y-144279810D01*
X86027051Y-144248437D01*
X86019642Y-144231376D01*
X86018313Y-144228462D01*
X86014514Y-144217750D01*
X86017172Y-144216860D01*
X86027391Y-144221624D01*
X86052255Y-144232604D01*
X86090820Y-144249399D01*
X86142145Y-144271606D01*
X86205287Y-144298825D01*
X86279305Y-144330654D01*
X86363255Y-144366689D01*
X86456195Y-144406530D01*
X86557184Y-144449775D01*
X86665278Y-144496022D01*
X86779537Y-144544869D01*
X86899016Y-144595913D01*
X87022775Y-144648755D01*
X87149871Y-144702990D01*
X87279361Y-144758219D01*
X87410304Y-144814038D01*
X87541757Y-144870046D01*
X87672778Y-144925841D01*
X87802424Y-144981021D01*
X87929753Y-145035185D01*
X88053824Y-145087931D01*
X88173693Y-145138856D01*
X88288419Y-145187559D01*
X88397060Y-145233638D01*
X88498672Y-145276691D01*
X88592314Y-145316317D01*
X88677043Y-145352113D01*
X88751917Y-145383677D01*
X88815995Y-145410609D01*
X88835190Y-145418654D01*
X88911460Y-145450595D01*
X88984820Y-145481326D01*
X89053399Y-145510061D01*
X89115327Y-145536017D01*
X89168732Y-145558408D01*
X89211744Y-145576452D01*
X89242492Y-145589364D01*
X89256924Y-145595438D01*
X89314480Y-145619726D01*
X89311711Y-144919313D01*
X89308941Y-144218900D01*
X89285893Y-144134384D01*
X89241754Y-143998767D01*
X89186437Y-143875362D01*
X89119378Y-143763190D01*
X89040011Y-143661266D01*
X88974099Y-143592886D01*
X88867858Y-143502924D01*
X88753701Y-143427410D01*
X88632650Y-143366866D01*
X88505722Y-143321813D01*
X88393255Y-143295960D01*
X88372715Y-143293899D01*
X88336495Y-143292000D01*
X88285848Y-143290263D01*
X88222025Y-143288686D01*
X88146280Y-143287271D01*
X88059865Y-143286016D01*
X87964031Y-143284922D01*
X87860033Y-143283988D01*
X87749122Y-143283215D01*
X87632551Y-143282601D01*
X87511571Y-143282147D01*
X87387437Y-143281852D01*
X87261399Y-143281715D01*
X87134712Y-143281738D01*
G37*
X87134712Y-143281738D02*
X87008626Y-143281919D01*
X86884395Y-143282258D01*
X86763271Y-143282755D01*
X86646506Y-143283409D01*
X86535354Y-143284221D01*
X86431066Y-143285191D01*
X86334894Y-143286318D01*
X86248093Y-143287601D01*
X86171913Y-143289041D01*
X86107607Y-143290637D01*
X86056429Y-143292389D01*
X86019629Y-143294297D01*
X85998462Y-143296360D01*
X85997996Y-143296439D01*
X85868209Y-143327506D01*
X85743951Y-143373948D01*
X85626475Y-143434758D01*
X85517028Y-143508929D01*
X85416863Y-143595452D01*
X85327230Y-143693320D01*
X85249378Y-143801525D01*
X85184559Y-143919060D01*
X85161746Y-143970423D01*
X85145296Y-144013167D01*
X85127792Y-144063455D01*
X85112281Y-144112400D01*
X85108110Y-144126775D01*
X85084566Y-144210433D01*
X85084566Y-146581100D01*
X85111926Y-146682700D01*
X85134933Y-146754779D01*
X85165957Y-146832607D01*
X85202502Y-146910939D01*
X85242071Y-146984533D01*
X85282168Y-147048144D01*
X85293334Y-147063700D01*
X85332535Y-147112002D01*
X85380724Y-147164503D01*
X85433687Y-147217094D01*
X85487210Y-147265666D01*
X85537079Y-147306111D01*
X85555683Y-147319522D01*
X85645024Y-147374362D01*
X85743266Y-147423135D01*
X85842518Y-147461961D01*
X85850800Y-147464695D01*
X85878906Y-147473753D01*
X85904733Y-147481692D01*
X85929556Y-147488586D01*
X85954651Y-147494509D01*
X85981293Y-147499534D01*
X86010758Y-147503736D01*
X86044321Y-147507187D01*
X86083258Y-147509963D01*
X86128844Y-147512136D01*
X86182354Y-147513780D01*
X86245065Y-147514968D01*
X86318251Y-147515776D01*
X86403188Y-147516276D01*
X86501152Y-147516542D01*
X86613417Y-147516648D01*
X86741260Y-147516667D01*
X86749875Y-147516667D01*
X86854485Y-147516589D01*
X86953973Y-147516362D01*
X87047072Y-147515998D01*
X87132517Y-147515510D01*
X87209041Y-147514910D01*
X87275379Y-147514210D01*
X87330264Y-147513421D01*
X87372431Y-147512557D01*
X87400613Y-147511629D01*
X87413544Y-147510649D01*
X87414250Y-147510317D01*
X87409742Y-147500561D01*
X87398826Y-147475642D01*
X87381685Y-147435995D01*
X87358503Y-147382053D01*
X87329467Y-147314250D01*
X87294760Y-147233020D01*
X87254567Y-147138797D01*
X87209073Y-147032015D01*
X87158462Y-146913108D01*
X87102919Y-146782510D01*
X87042629Y-146640655D01*
X86977777Y-146487977D01*
X86908546Y-146324909D01*
X86835122Y-146151887D01*
X86757690Y-145969343D01*
X86676433Y-145777712D01*
X86591538Y-145577428D01*
X86543259Y-145463500D01*
X86485250Y-145326623D01*
X86428968Y-145193868D01*
X86374773Y-145066083D01*
X86323027Y-144944118D01*
X86274091Y-144828821D01*
X86228324Y-144721043D01*
X86186089Y-144621632D01*
X86147746Y-144531438D01*
X86113657Y-144451309D01*
X86084182Y-144382096D01*
X86059682Y-144324646D01*
X86040518Y-144279810D01*
X86027051Y-144248437D01*
X86019642Y-144231376D01*
X86018313Y-144228462D01*
X86014514Y-144217750D01*
X86017172Y-144216860D01*
X86027391Y-144221624D01*
X86052255Y-144232604D01*
X86090820Y-144249399D01*
X86142145Y-144271606D01*
X86205287Y-144298825D01*
X86279305Y-144330654D01*
X86363255Y-144366689D01*
X86456195Y-144406530D01*
X86557184Y-144449775D01*
X86665278Y-144496022D01*
X86779537Y-144544869D01*
X86899016Y-144595913D01*
X87022775Y-144648755D01*
X87149871Y-144702990D01*
X87279361Y-144758219D01*
X87410304Y-144814038D01*
X87541757Y-144870046D01*
X87672778Y-144925841D01*
X87802424Y-144981021D01*
X87929753Y-145035185D01*
X88053824Y-145087931D01*
X88173693Y-145138856D01*
X88288419Y-145187559D01*
X88397060Y-145233638D01*
X88498672Y-145276691D01*
X88592314Y-145316317D01*
X88677043Y-145352113D01*
X88751917Y-145383677D01*
X88815995Y-145410609D01*
X88835190Y-145418654D01*
X88911460Y-145450595D01*
X88984820Y-145481326D01*
X89053399Y-145510061D01*
X89115327Y-145536017D01*
X89168732Y-145558408D01*
X89211744Y-145576452D01*
X89242492Y-145589364D01*
X89256924Y-145595438D01*
X89314480Y-145619726D01*
X89311711Y-144919313D01*
X89308941Y-144218900D01*
X89285893Y-144134384D01*
X89241754Y-143998767D01*
X89186437Y-143875362D01*
X89119378Y-143763190D01*
X89040011Y-143661266D01*
X88974099Y-143592886D01*
X88867858Y-143502924D01*
X88753701Y-143427410D01*
X88632650Y-143366866D01*
X88505722Y-143321813D01*
X88393255Y-143295960D01*
X88372715Y-143293899D01*
X88336495Y-143292000D01*
X88285848Y-143290263D01*
X88222025Y-143288686D01*
X88146280Y-143287271D01*
X88059865Y-143286016D01*
X87964031Y-143284922D01*
X87860033Y-143283988D01*
X87749122Y-143283215D01*
X87632551Y-143282601D01*
X87511571Y-143282147D01*
X87387437Y-143281852D01*
X87261399Y-143281715D01*
X87134712Y-143281738D01*
%TD*%
D12*
%TO.C,U9*%
X79577000Y-72562510D03*
X79577000Y-75102510D03*
X94817000Y-75102510D03*
X94817000Y-72562510D03*
X79577000Y-84423500D03*
X82117000Y-84423500D03*
X84657000Y-84423500D03*
X87197000Y-84423500D03*
X89737000Y-84423500D03*
X92277000Y-84423500D03*
X94817000Y-84423500D03*
%TD*%
D13*
%TO.C,U8*%
X114100000Y-101500000D03*
X114100000Y-90300000D03*
D14*
X106600000Y-95900000D03*
X106600000Y-98400000D03*
X106600000Y-93400000D03*
X121100000Y-98400000D03*
X121100000Y-93400000D03*
%TD*%
D15*
%TO.C,U7*%
X113197000Y-127053000D03*
X113197000Y-128553000D03*
X118197000Y-128553000D03*
X118197000Y-127053000D03*
D16*
X108137000Y-120563000D03*
D17*
X110617000Y-123103000D03*
X120777000Y-123103000D03*
D18*
X115697000Y-123103000D03*
D19*
X111887000Y-120563000D03*
X118237000Y-118023000D03*
D16*
X121987000Y-118023000D03*
%TD*%
D15*
%TO.C,U6*%
X94197000Y-127053000D03*
X94197000Y-128553000D03*
X99197000Y-128553000D03*
X99197000Y-127053000D03*
D16*
X89137000Y-120563000D03*
D17*
X91617000Y-123103000D03*
X101777000Y-123103000D03*
D18*
X96697000Y-123103000D03*
D19*
X92887000Y-120563000D03*
X99237000Y-118023000D03*
D16*
X102987000Y-118023000D03*
%TD*%
D15*
%TO.C,U5*%
X75197000Y-127053000D03*
X75197000Y-128553000D03*
X80197000Y-128553000D03*
X80197000Y-127053000D03*
D16*
X70137000Y-120563000D03*
D17*
X72617000Y-123103000D03*
X82777000Y-123103000D03*
D18*
X77697000Y-123103000D03*
D19*
X73887000Y-120563000D03*
X80237000Y-118023000D03*
D16*
X83987000Y-118023000D03*
%TD*%
D15*
%TO.C,U4*%
X56197000Y-127053000D03*
X56197000Y-128553000D03*
X61197000Y-128553000D03*
X61197000Y-127053000D03*
D16*
X51137000Y-120563000D03*
D17*
X53617000Y-123103000D03*
X63777000Y-123103000D03*
D18*
X58697000Y-123103000D03*
D19*
X54887000Y-120563000D03*
X61237000Y-118023000D03*
D16*
X64987000Y-118023000D03*
%TD*%
D15*
%TO.C,U3*%
X94197000Y-100053000D03*
X94197000Y-101553000D03*
X99197000Y-101553000D03*
X99197000Y-100053000D03*
D16*
X89137000Y-93563000D03*
D17*
X91617000Y-96103000D03*
X101777000Y-96103000D03*
D18*
X96697000Y-96103000D03*
D19*
X92887000Y-93563000D03*
X99237000Y-91023000D03*
D16*
X102987000Y-91023000D03*
%TD*%
D15*
%TO.C,U2*%
X75197000Y-100053000D03*
X75197000Y-101553000D03*
X80197000Y-101553000D03*
X80197000Y-100053000D03*
D16*
X70137000Y-93563000D03*
D17*
X72617000Y-96103000D03*
X82777000Y-96103000D03*
D18*
X77697000Y-96103000D03*
D19*
X73887000Y-93563000D03*
X80237000Y-91023000D03*
D16*
X83987000Y-91023000D03*
%TD*%
D15*
%TO.C,U1*%
X56197000Y-100053000D03*
X56197000Y-101553000D03*
X61197000Y-101553000D03*
X61197000Y-100053000D03*
D16*
X51137000Y-93563000D03*
D17*
X53617000Y-96103000D03*
X63777000Y-96103000D03*
D18*
X58697000Y-96103000D03*
D19*
X54887000Y-93563000D03*
X61237000Y-91023000D03*
D16*
X64987000Y-91023000D03*
%TD*%
D20*
%TO.C,J1*%
X111327000Y-114510000D03*
X108787000Y-114510000D03*
D21*
X106247000Y-114510000D03*
D20*
X103707000Y-114510000D03*
X101167000Y-114510000D03*
X98627000Y-114510000D03*
X96087000Y-114510000D03*
D21*
X93547000Y-114510000D03*
D20*
X91007000Y-114510000D03*
X88467000Y-114510000D03*
X85927000Y-114510000D03*
X83387000Y-114510000D03*
D21*
X80847000Y-114510000D03*
D20*
X78307000Y-114510000D03*
X75767000Y-114510000D03*
X73227000Y-114510000D03*
X70687000Y-114510000D03*
D21*
X68147000Y-114510000D03*
D20*
X65607000Y-114510000D03*
X63067000Y-114510000D03*
X63067000Y-132290000D03*
X65607000Y-132290000D03*
D21*
X68147000Y-132290000D03*
D20*
X70687000Y-132290000D03*
X73227000Y-132290000D03*
X75767000Y-132290000D03*
X78307000Y-132290000D03*
D21*
X80847000Y-132290000D03*
D20*
X83387000Y-132290000D03*
X85927000Y-132290000D03*
X88467000Y-132290000D03*
X91007000Y-132290000D03*
D21*
X93547000Y-132290000D03*
D20*
X96087000Y-132290000D03*
X98627000Y-132290000D03*
X101167000Y-132290000D03*
X103707000Y-132290000D03*
D21*
X106247000Y-132290000D03*
D20*
X108787000Y-132290000D03*
X111327000Y-132290000D03*
%TD*%
D22*
%TO.C,D8*%
X119400000Y-101100000D03*
X119400000Y-104400000D03*
%TD*%
%TO.C,D7*%
X109300000Y-126600000D03*
X109300000Y-129900000D03*
%TD*%
%TO.C,D6*%
X90300000Y-126650000D03*
X90300000Y-129950000D03*
%TD*%
%TO.C,D5*%
X71300000Y-126700000D03*
X71300000Y-130000000D03*
%TD*%
%TO.C,D4*%
X52300000Y-126650000D03*
X52300000Y-129950000D03*
%TD*%
%TO.C,D3*%
X90300000Y-99650000D03*
X90300000Y-102950000D03*
%TD*%
%TO.C,D2*%
X71300000Y-99600000D03*
X71300000Y-102900000D03*
%TD*%
%TO.C,D1*%
X52300000Y-99650000D03*
X52300000Y-102950000D03*
%TD*%
M02*
