%TF.GenerationSoftware,KiCad,Pcbnew,(5.1.10)-1*%
%TF.CreationDate,2021-12-07T13:13:35+09:00*%
%TF.ProjectId,MACRO-PAD-v0.1,4d414352-4f2d-4504-9144-2d76302e312e,rev?*%
%TF.SameCoordinates,Original*%
%TF.FileFunction,Copper,L1,Top*%
%TF.FilePolarity,Positive*%
%FSLAX46Y46*%
G04 Gerber Fmt 4.6, Leading zero omitted, Abs format (unit mm)*
G04 Created by KiCad (PCBNEW (5.1.10)-1) date 2021-12-07 13:13:35*
%MOMM*%
%LPD*%
G01*
G04 APERTURE LIST*
%TA.AperFunction,ComponentPad*%
%ADD10C,1.700000*%
%TD*%
%TA.AperFunction,ComponentPad*%
%ADD11C,5.161000*%
%TD*%
%TA.AperFunction,ComponentPad*%
%ADD12C,1.800000*%
%TD*%
%TA.AperFunction,ComponentPad*%
%ADD13O,1.700000X1.700000*%
%TD*%
%TA.AperFunction,ComponentPad*%
%ADD14R,1.700000X1.700000*%
%TD*%
%TA.AperFunction,ViaPad*%
%ADD15C,0.800000*%
%TD*%
%TA.AperFunction,Conductor*%
%ADD16C,0.250000*%
%TD*%
%TA.AperFunction,Conductor*%
%ADD17C,0.254000*%
%TD*%
%TA.AperFunction,Conductor*%
%ADD18C,0.100000*%
%TD*%
G04 APERTURE END LIST*
D10*
%TO.P,U9,11*%
%TO.N,N/C*%
X79577000Y-72562510D03*
%TO.P,U9,10*%
X79577000Y-75102510D03*
%TO.P,U9,9*%
X94817000Y-75102510D03*
%TO.P,U9,8*%
X94817000Y-72562510D03*
%TO.P,U9,7*%
%TO.N,GND*%
X79577000Y-84423500D03*
%TO.P,U9,6*%
%TO.N,Net-(U9-Pad6)*%
X82117000Y-84423500D03*
%TO.P,U9,5*%
%TO.N,Net-(U9-Pad5)*%
X84657000Y-84423500D03*
%TO.P,U9,4*%
%TO.N,GND*%
X87197000Y-84423500D03*
%TO.P,U9,3*%
%TO.N,Net-(U9-Pad3)*%
X89737000Y-84423500D03*
%TO.P,U9,2*%
%TO.N,Net-(U9-Pad2)*%
X92277000Y-84423500D03*
%TO.P,U9,1*%
%TO.N,+5V*%
X94817000Y-84423500D03*
%TD*%
D11*
%TO.P,U8,MH2*%
%TO.N,Net-(U8-PadMH2)*%
X114100000Y-101500000D03*
%TO.P,U8,MH1*%
%TO.N,Net-(U8-PadMH1)*%
X114100000Y-90300000D03*
D12*
%TO.P,U8,C1*%
%TO.N,GND*%
X106600000Y-95900000D03*
%TO.P,U8,B1*%
%TO.N,B1*%
X106600000Y-98400000D03*
%TO.P,U8,A1*%
%TO.N,A1*%
X106600000Y-93400000D03*
%TO.P,U8,2*%
%TO.N,Net-(D8-Pad2)*%
X121100000Y-98400000D03*
%TO.P,U8,1*%
%TO.N,col3*%
X121100000Y-93400000D03*
%TD*%
D13*
%TO.P,J1,40*%
%TO.N,+5V*%
X111327000Y-114510000D03*
%TO.P,J1,39*%
%TO.N,Net-(J1-Pad39)*%
X108787000Y-114510000D03*
D14*
%TO.P,J1,38*%
%TO.N,GND*%
X106247000Y-114510000D03*
D13*
%TO.P,J1,37*%
%TO.N,Net-(J1-Pad37)*%
X103707000Y-114510000D03*
%TO.P,J1,36*%
%TO.N,Net-(J1-Pad36)*%
X101167000Y-114510000D03*
%TO.P,J1,35*%
%TO.N,Net-(J1-Pad35)*%
X98627000Y-114510000D03*
%TO.P,J1,34*%
%TO.N,Net-(J1-Pad34)*%
X96087000Y-114510000D03*
D14*
%TO.P,J1,33*%
%TO.N,GND*%
X93547000Y-114510000D03*
D13*
%TO.P,J1,32*%
%TO.N,Net-(J1-Pad32)*%
X91007000Y-114510000D03*
%TO.P,J1,31*%
%TO.N,Net-(J1-Pad31)*%
X88467000Y-114510000D03*
%TO.P,J1,30*%
%TO.N,Net-(J1-Pad30)*%
X85927000Y-114510000D03*
%TO.P,J1,29*%
%TO.N,Net-(J1-Pad29)*%
X83387000Y-114510000D03*
D14*
%TO.P,J1,28*%
%TO.N,GND*%
X80847000Y-114510000D03*
D13*
%TO.P,J1,27*%
%TO.N,Net-(J1-Pad27)*%
X78307000Y-114510000D03*
%TO.P,J1,26*%
%TO.N,Net-(J1-Pad26)*%
X75767000Y-114510000D03*
%TO.P,J1,25*%
%TO.N,Net-(J1-Pad25)*%
X73227000Y-114510000D03*
%TO.P,J1,24*%
%TO.N,Net-(J1-Pad24)*%
X70687000Y-114510000D03*
D14*
%TO.P,J1,23*%
%TO.N,GND*%
X68147000Y-114510000D03*
D13*
%TO.P,J1,22*%
%TO.N,Net-(J1-Pad22)*%
X65607000Y-114510000D03*
%TO.P,J1,21*%
%TO.N,Net-(J1-Pad21)*%
X63067000Y-114510000D03*
%TO.P,J1,20*%
%TO.N,col3*%
X63067000Y-132290000D03*
%TO.P,J1,19*%
%TO.N,col2*%
X65607000Y-132290000D03*
D14*
%TO.P,J1,18*%
%TO.N,GND*%
X68147000Y-132290000D03*
D13*
%TO.P,J1,17*%
%TO.N,col1*%
X70687000Y-132290000D03*
%TO.P,J1,16*%
%TO.N,col0*%
X73227000Y-132290000D03*
%TO.P,J1,15*%
%TO.N,row1*%
X75767000Y-132290000D03*
%TO.P,J1,14*%
%TO.N,row0*%
X78307000Y-132290000D03*
D14*
%TO.P,J1,13*%
%TO.N,GND*%
X80847000Y-132290000D03*
D13*
%TO.P,J1,12*%
%TO.N,LED*%
X83387000Y-132290000D03*
%TO.P,J1,11*%
%TO.N,B1*%
X85927000Y-132290000D03*
%TO.P,J1,10*%
%TO.N,A1*%
X88467000Y-132290000D03*
%TO.P,J1,9*%
%TO.N,Net-(J1-Pad9)*%
X91007000Y-132290000D03*
D14*
%TO.P,J1,8*%
%TO.N,GND*%
X93547000Y-132290000D03*
D13*
%TO.P,J1,7*%
%TO.N,Net-(J1-Pad7)*%
X96087000Y-132290000D03*
%TO.P,J1,6*%
%TO.N,Net-(J1-Pad6)*%
X98627000Y-132290000D03*
%TO.P,J1,5*%
%TO.N,Net-(J1-Pad5)*%
X101167000Y-132290000D03*
%TO.P,J1,4*%
%TO.N,Net-(J1-Pad4)*%
X103707000Y-132290000D03*
D14*
%TO.P,J1,3*%
%TO.N,GND*%
X106247000Y-132290000D03*
D13*
%TO.P,J1,2*%
%TO.N,Net-(J1-Pad2)*%
X108787000Y-132290000D03*
%TO.P,J1,1*%
%TO.N,Net-(J1-Pad1)*%
X111327000Y-132290000D03*
%TD*%
D15*
%TO.N,row1*%
X119230000Y-106271400D03*
X109300000Y-128697900D03*
%TO.N,+5V*%
X93798600Y-125793300D03*
%TO.N,col2*%
X114865900Y-120129600D03*
%TO.N,col1*%
X92555000Y-116230000D03*
%TO.N,col0*%
X84045300Y-125885900D03*
%TO.N,Net-(U1-Pad4)*%
X80197000Y-99024200D03*
X60976000Y-103025300D03*
%TO.N,Net-(U2-Pad4)*%
X100718500Y-100569700D03*
X80417500Y-103270400D03*
%TO.N,Net-(U3-Pad4)*%
X64431600Y-112586000D03*
X92736900Y-103615100D03*
%TD*%
D16*
%TO.N,row1*%
X109300000Y-128697900D02*
X109300000Y-118336600D01*
X109300000Y-118336600D02*
X119230000Y-108406600D01*
X119230000Y-108406600D02*
X119230000Y-106271400D01*
X77842900Y-134365900D02*
X75767000Y-132290000D01*
X98237200Y-134365900D02*
X77842900Y-134365900D01*
X99897000Y-132706100D02*
X98237200Y-134365900D01*
X99897000Y-131810800D02*
X99897000Y-132706100D01*
X103009900Y-128697900D02*
X99897000Y-131810800D01*
X109300000Y-128697900D02*
X103009900Y-128697900D01*
%TO.N,+5V*%
X105187602Y-119848400D02*
X110526002Y-114510000D01*
X110526002Y-114510000D02*
X111327000Y-114510000D01*
X96652700Y-119848400D02*
X105187602Y-119848400D01*
X93798600Y-122702500D02*
X96652700Y-119848400D01*
X93798600Y-125793300D02*
X93798600Y-122702500D01*
%TO.N,GND*%
X79159001Y-116197999D02*
X80847000Y-114510000D01*
X68496001Y-116197999D02*
X79159001Y-116197999D01*
X68147000Y-116547000D02*
X68496001Y-116197999D01*
X68147000Y-114510000D02*
X68147000Y-116547000D01*
X91921400Y-133915600D02*
X93547000Y-132290000D01*
X82472600Y-133915600D02*
X91921400Y-133915600D01*
X80847000Y-132290000D02*
X82472600Y-133915600D01*
%TO.N,col3*%
X63067000Y-132290000D02*
X63067000Y-131114700D01*
X63067000Y-131114700D02*
X66971600Y-127210100D01*
X66971600Y-127210100D02*
X66971600Y-113522500D01*
X66971600Y-113522500D02*
X67159500Y-113334600D01*
X67159500Y-113334600D02*
X88979500Y-113334600D01*
X88979500Y-113334600D02*
X104845000Y-97469100D01*
X104845000Y-97469100D02*
X104845000Y-93364000D01*
X104845000Y-93364000D02*
X106074900Y-92134100D01*
X106074900Y-92134100D02*
X109222500Y-92134100D01*
X109222500Y-92134100D02*
X110488400Y-93400000D01*
X110488400Y-93400000D02*
X121100000Y-93400000D01*
%TO.N,col2*%
X100275100Y-134859100D02*
X68176100Y-134859100D01*
X102437000Y-131807000D02*
X102437000Y-132697200D01*
X104269600Y-129974400D02*
X102437000Y-131807000D01*
X102437000Y-132697200D02*
X100275100Y-134859100D01*
X109113200Y-129974400D02*
X104269600Y-129974400D01*
X113093800Y-121937800D02*
X113093800Y-125993800D01*
X68176100Y-134859100D02*
X65607000Y-132290000D01*
X114865900Y-120165700D02*
X113093800Y-121937800D01*
X113093800Y-125993800D02*
X109113200Y-129974400D01*
X114865900Y-120129600D02*
X114865900Y-120165700D01*
%TO.N,col1*%
X72661500Y-130315500D02*
X70687000Y-132290000D01*
X79153000Y-130315500D02*
X72661500Y-130315500D01*
X83320000Y-126148500D02*
X79153000Y-130315500D01*
X83320000Y-125465000D02*
X83320000Y-126148500D01*
X92555000Y-116230000D02*
X83320000Y-125465000D01*
%TO.N,col0*%
X78990700Y-131114700D02*
X84045300Y-126060100D01*
X84045300Y-126060100D02*
X84045300Y-125885900D01*
X74402300Y-131114700D02*
X75885300Y-131114700D01*
X73227000Y-132290000D02*
X74402300Y-131114700D01*
X75885300Y-131114700D02*
X78990700Y-131114700D01*
X75210200Y-131114700D02*
X75885300Y-131114700D01*
%TO.N,B1*%
X88956000Y-133465300D02*
X87102300Y-133465300D01*
X89679000Y-132742300D02*
X88956000Y-133465300D01*
X89679000Y-121161000D02*
X89679000Y-132742300D01*
X93626700Y-118708000D02*
X92132000Y-118708000D01*
X87102300Y-133465300D02*
X85927000Y-132290000D01*
X97357000Y-114977700D02*
X93626700Y-118708000D01*
X97357000Y-107643000D02*
X97357000Y-114977700D01*
X92132000Y-118708000D02*
X89679000Y-121161000D01*
X106600000Y-98400000D02*
X97357000Y-107643000D01*
%TO.N,A1*%
X106600000Y-93400000D02*
X105325400Y-94674600D01*
X105325400Y-94674600D02*
X105325400Y-97908000D01*
X105325400Y-97908000D02*
X94722400Y-108511000D01*
X94722400Y-108511000D02*
X94722400Y-115557100D01*
X94722400Y-115557100D02*
X94188600Y-116090900D01*
X94188600Y-116090900D02*
X94112200Y-116090900D01*
X94112200Y-116090900D02*
X88467000Y-121736100D01*
X88467000Y-121736100D02*
X88467000Y-132290000D01*
%TO.N,Net-(U1-Pad4)*%
X80197000Y-99024200D02*
X80197000Y-102438400D01*
X80197000Y-102438400D02*
X79610100Y-103025300D01*
X79610100Y-103025300D02*
X60976000Y-103025300D01*
%TO.N,Net-(U2-Pad4)*%
X80417500Y-103270400D02*
X80831500Y-102856400D01*
X80831500Y-102856400D02*
X93293300Y-102856400D01*
X93293300Y-102856400D02*
X93462300Y-103025400D01*
X93462300Y-103025400D02*
X98558800Y-103025400D01*
X98558800Y-103025400D02*
X100718500Y-100865700D01*
X100718500Y-100865700D02*
X100718500Y-100569700D01*
%TO.N,Net-(U3-Pad4)*%
X92736900Y-103615100D02*
X83766000Y-112586000D01*
X83766000Y-112586000D02*
X64431600Y-112586000D01*
%TD*%
D17*
%TO.N,GND*%
X122954216Y-70408234D02*
X123684598Y-70608043D01*
X124368048Y-70934032D01*
X124982968Y-71375897D01*
X125509925Y-71919675D01*
X125932259Y-72548174D01*
X126236621Y-73241528D01*
X126414746Y-73983476D01*
X126462000Y-74626949D01*
X126462001Y-144573257D01*
X126391766Y-145360216D01*
X126191957Y-146090597D01*
X125865968Y-146774048D01*
X125424103Y-147388968D01*
X124880323Y-147915927D01*
X124251828Y-148338257D01*
X123558472Y-148642621D01*
X122816524Y-148820746D01*
X122173051Y-148868000D01*
X52226732Y-148868000D01*
X51439784Y-148797766D01*
X50709403Y-148597957D01*
X50025952Y-148271968D01*
X49411032Y-147830103D01*
X48884073Y-147286323D01*
X48461743Y-146657828D01*
X48157379Y-145964472D01*
X47979254Y-145222524D01*
X47932000Y-144579051D01*
X47932000Y-141872170D01*
X52353340Y-141872170D01*
X52353340Y-142333830D01*
X52443406Y-142786620D01*
X52620075Y-143213139D01*
X52876560Y-143596996D01*
X53203004Y-143923440D01*
X53586861Y-144179925D01*
X54013380Y-144356594D01*
X54466170Y-144446660D01*
X54927830Y-144446660D01*
X55380620Y-144356594D01*
X55807139Y-144179925D01*
X56190996Y-143923440D01*
X56517440Y-143596996D01*
X56773925Y-143213139D01*
X56950594Y-142786620D01*
X57040660Y-142333830D01*
X57040660Y-141872170D01*
X117353340Y-141872170D01*
X117353340Y-142333830D01*
X117443406Y-142786620D01*
X117620075Y-143213139D01*
X117876560Y-143596996D01*
X118203004Y-143923440D01*
X118586861Y-144179925D01*
X119013380Y-144356594D01*
X119466170Y-144446660D01*
X119927830Y-144446660D01*
X120380620Y-144356594D01*
X120807139Y-144179925D01*
X121190996Y-143923440D01*
X121517440Y-143596996D01*
X121773925Y-143213139D01*
X121950594Y-142786620D01*
X122040660Y-142333830D01*
X122040660Y-141872170D01*
X121950594Y-141419380D01*
X121773925Y-140992861D01*
X121517440Y-140609004D01*
X121190996Y-140282560D01*
X120807139Y-140026075D01*
X120380620Y-139849406D01*
X119927830Y-139759340D01*
X119466170Y-139759340D01*
X119013380Y-139849406D01*
X118586861Y-140026075D01*
X118203004Y-140282560D01*
X117876560Y-140609004D01*
X117620075Y-140992861D01*
X117443406Y-141419380D01*
X117353340Y-141872170D01*
X57040660Y-141872170D01*
X56950594Y-141419380D01*
X56773925Y-140992861D01*
X56517440Y-140609004D01*
X56190996Y-140282560D01*
X55807139Y-140026075D01*
X55380620Y-139849406D01*
X54927830Y-139759340D01*
X54466170Y-139759340D01*
X54013380Y-139849406D01*
X53586861Y-140026075D01*
X53203004Y-140282560D01*
X52876560Y-140609004D01*
X52620075Y-140992861D01*
X52443406Y-141419380D01*
X52353340Y-141872170D01*
X47932000Y-141872170D01*
X47932000Y-122956652D01*
X52131100Y-122956652D01*
X52131100Y-123249348D01*
X52188202Y-123536421D01*
X52300212Y-123806838D01*
X52462826Y-124050206D01*
X52669794Y-124257174D01*
X52913162Y-124419788D01*
X53183579Y-124531798D01*
X53470652Y-124588900D01*
X53763348Y-124588900D01*
X54050421Y-124531798D01*
X54320838Y-124419788D01*
X54564206Y-124257174D01*
X54771174Y-124050206D01*
X54933788Y-123806838D01*
X55045798Y-123536421D01*
X55102900Y-123249348D01*
X55102900Y-122956652D01*
X55051451Y-122698000D01*
X55097279Y-122698000D01*
X55509756Y-122615953D01*
X55898302Y-122455012D01*
X56204708Y-122250279D01*
X56169127Y-122336178D01*
X56068100Y-122844076D01*
X56068100Y-123361924D01*
X56169127Y-123869822D01*
X56367299Y-124348251D01*
X56655000Y-124778826D01*
X57021174Y-125145000D01*
X57451749Y-125432701D01*
X57874958Y-125608000D01*
X57031135Y-125608000D01*
X56997000Y-125604638D01*
X56962866Y-125608000D01*
X56962865Y-125608000D01*
X56860756Y-125618057D01*
X56729748Y-125657798D01*
X56609011Y-125722333D01*
X56503183Y-125809183D01*
X56416333Y-125915011D01*
X56351798Y-126035748D01*
X56312057Y-126166756D01*
X56298638Y-126303000D01*
X56302001Y-126337145D01*
X56302000Y-129268865D01*
X56298638Y-129303000D01*
X56312057Y-129439244D01*
X56351798Y-129570252D01*
X56416333Y-129690989D01*
X56503183Y-129796817D01*
X56609011Y-129883667D01*
X56729748Y-129948202D01*
X56860756Y-129987943D01*
X56997000Y-130001362D01*
X57031134Y-129998000D01*
X60362865Y-129998000D01*
X60397000Y-130001362D01*
X60431134Y-129998000D01*
X60431135Y-129998000D01*
X60533244Y-129987943D01*
X60664252Y-129948202D01*
X60784989Y-129883667D01*
X60890817Y-129796817D01*
X60977667Y-129690989D01*
X61042202Y-129570252D01*
X61081943Y-129439244D01*
X61095362Y-129303000D01*
X61092000Y-129268865D01*
X61092000Y-126337135D01*
X61095362Y-126303000D01*
X61081943Y-126166756D01*
X61042202Y-126035748D01*
X60977667Y-125915011D01*
X60890817Y-125809183D01*
X60784989Y-125722333D01*
X60664252Y-125657798D01*
X60533244Y-125618057D01*
X60431135Y-125608000D01*
X60397000Y-125604638D01*
X60362866Y-125608000D01*
X59519042Y-125608000D01*
X59942251Y-125432701D01*
X60372826Y-125145000D01*
X60739000Y-124778826D01*
X61026701Y-124348251D01*
X61224873Y-123869822D01*
X61325900Y-123361924D01*
X61325900Y-122956652D01*
X62291100Y-122956652D01*
X62291100Y-123249348D01*
X62348202Y-123536421D01*
X62460212Y-123806838D01*
X62622826Y-124050206D01*
X62829794Y-124257174D01*
X63073162Y-124419788D01*
X63343579Y-124531798D01*
X63630652Y-124588900D01*
X63923348Y-124588900D01*
X64210421Y-124531798D01*
X64480838Y-124419788D01*
X64724206Y-124257174D01*
X64931174Y-124050206D01*
X65093788Y-123806838D01*
X65205798Y-123536421D01*
X65262900Y-123249348D01*
X65262900Y-122956652D01*
X65205798Y-122669579D01*
X65093788Y-122399162D01*
X64931174Y-122155794D01*
X64724206Y-121948826D01*
X64480838Y-121786212D01*
X64210421Y-121674202D01*
X63923348Y-121617100D01*
X63630652Y-121617100D01*
X63343579Y-121674202D01*
X63073162Y-121786212D01*
X62829794Y-121948826D01*
X62622826Y-122155794D01*
X62460212Y-122399162D01*
X62348202Y-122669579D01*
X62291100Y-122956652D01*
X61325900Y-122956652D01*
X61325900Y-122844076D01*
X61224873Y-122336178D01*
X61026701Y-121857749D01*
X60739000Y-121427174D01*
X60372826Y-121061000D01*
X59942251Y-120773299D01*
X59463822Y-120575127D01*
X58955924Y-120474100D01*
X58438076Y-120474100D01*
X57930178Y-120575127D01*
X57451749Y-120773299D01*
X57021174Y-121061000D01*
X56950763Y-121131411D01*
X57022000Y-120773279D01*
X57022000Y-120352721D01*
X56939953Y-119940244D01*
X56779012Y-119551698D01*
X56545363Y-119202017D01*
X56247983Y-118904637D01*
X55898302Y-118670988D01*
X55509756Y-118510047D01*
X55097279Y-118428000D01*
X54676721Y-118428000D01*
X54264244Y-118510047D01*
X53875698Y-118670988D01*
X53526017Y-118904637D01*
X53228637Y-119202017D01*
X52994988Y-119551698D01*
X52834047Y-119940244D01*
X52752000Y-120352721D01*
X52752000Y-120773279D01*
X52834047Y-121185756D01*
X52994988Y-121574302D01*
X53088150Y-121713730D01*
X52913162Y-121786212D01*
X52669794Y-121948826D01*
X52462826Y-122155794D01*
X52300212Y-122399162D01*
X52188202Y-122669579D01*
X52131100Y-122956652D01*
X47932000Y-122956652D01*
X47932000Y-117812721D01*
X59102000Y-117812721D01*
X59102000Y-118233279D01*
X59184047Y-118645756D01*
X59344988Y-119034302D01*
X59578637Y-119383983D01*
X59876017Y-119681363D01*
X60225698Y-119915012D01*
X60614244Y-120075953D01*
X61026721Y-120158000D01*
X61447279Y-120158000D01*
X61859756Y-120075953D01*
X62248302Y-119915012D01*
X62597983Y-119681363D01*
X62895363Y-119383983D01*
X63129012Y-119034302D01*
X63289953Y-118645756D01*
X63372000Y-118233279D01*
X63372000Y-117812721D01*
X63289953Y-117400244D01*
X63129012Y-117011698D01*
X62895363Y-116662017D01*
X62597983Y-116364637D01*
X62248302Y-116130988D01*
X61859756Y-115970047D01*
X61447279Y-115888000D01*
X61026721Y-115888000D01*
X60614244Y-115970047D01*
X60225698Y-116130988D01*
X59876017Y-116364637D01*
X59578637Y-116662017D01*
X59344988Y-117011698D01*
X59184047Y-117400244D01*
X59102000Y-117812721D01*
X47932000Y-117812721D01*
X47932000Y-95956652D01*
X52131100Y-95956652D01*
X52131100Y-96249348D01*
X52188202Y-96536421D01*
X52300212Y-96806838D01*
X52462826Y-97050206D01*
X52669794Y-97257174D01*
X52913162Y-97419788D01*
X53183579Y-97531798D01*
X53470652Y-97588900D01*
X53763348Y-97588900D01*
X54050421Y-97531798D01*
X54320838Y-97419788D01*
X54564206Y-97257174D01*
X54771174Y-97050206D01*
X54933788Y-96806838D01*
X55045798Y-96536421D01*
X55102900Y-96249348D01*
X55102900Y-95956652D01*
X55051451Y-95698000D01*
X55097279Y-95698000D01*
X55509756Y-95615953D01*
X55898302Y-95455012D01*
X56204708Y-95250279D01*
X56169127Y-95336178D01*
X56068100Y-95844076D01*
X56068100Y-96361924D01*
X56169127Y-96869822D01*
X56367299Y-97348251D01*
X56655000Y-97778826D01*
X57021174Y-98145000D01*
X57451749Y-98432701D01*
X57874958Y-98608000D01*
X57031135Y-98608000D01*
X56997000Y-98604638D01*
X56962866Y-98608000D01*
X56962865Y-98608000D01*
X56860756Y-98618057D01*
X56729748Y-98657798D01*
X56609011Y-98722333D01*
X56503183Y-98809183D01*
X56416333Y-98915011D01*
X56351798Y-99035748D01*
X56312057Y-99166756D01*
X56298638Y-99303000D01*
X56302001Y-99337145D01*
X56302000Y-102268865D01*
X56298638Y-102303000D01*
X56312057Y-102439244D01*
X56351798Y-102570252D01*
X56416333Y-102690989D01*
X56503183Y-102796817D01*
X56600172Y-102876413D01*
X56609011Y-102883667D01*
X56729748Y-102948202D01*
X56860756Y-102987943D01*
X56997000Y-103001362D01*
X57031134Y-102998000D01*
X59941000Y-102998000D01*
X59941000Y-103127239D01*
X59980774Y-103327198D01*
X60058795Y-103515556D01*
X60172063Y-103685074D01*
X60316226Y-103829237D01*
X60485744Y-103942505D01*
X60674102Y-104020526D01*
X60874061Y-104060300D01*
X61077939Y-104060300D01*
X61277898Y-104020526D01*
X61466256Y-103942505D01*
X61635774Y-103829237D01*
X61679711Y-103785300D01*
X79516762Y-103785300D01*
X79613563Y-103930174D01*
X79757726Y-104074337D01*
X79927244Y-104187605D01*
X80115602Y-104265626D01*
X80315561Y-104305400D01*
X80519439Y-104305400D01*
X80719398Y-104265626D01*
X80907756Y-104187605D01*
X81077274Y-104074337D01*
X81221437Y-103930174D01*
X81334705Y-103760656D01*
X81394458Y-103616400D01*
X91660797Y-103616400D01*
X83451199Y-111826000D01*
X65135311Y-111826000D01*
X65091374Y-111782063D01*
X64921856Y-111668795D01*
X64733498Y-111590774D01*
X64533539Y-111551000D01*
X64329661Y-111551000D01*
X64129702Y-111590774D01*
X63941344Y-111668795D01*
X63771826Y-111782063D01*
X63627663Y-111926226D01*
X63514395Y-112095744D01*
X63436374Y-112284102D01*
X63396600Y-112484061D01*
X63396600Y-112687939D01*
X63436374Y-112887898D01*
X63514395Y-113076256D01*
X63525213Y-113092446D01*
X63500158Y-113082068D01*
X63213260Y-113025000D01*
X62920740Y-113025000D01*
X62633842Y-113082068D01*
X62363589Y-113194010D01*
X62120368Y-113356525D01*
X61913525Y-113563368D01*
X61751010Y-113806589D01*
X61639068Y-114076842D01*
X61582000Y-114363740D01*
X61582000Y-114656260D01*
X61639068Y-114943158D01*
X61751010Y-115213411D01*
X61913525Y-115456632D01*
X62120368Y-115663475D01*
X62363589Y-115825990D01*
X62633842Y-115937932D01*
X62920740Y-115995000D01*
X63213260Y-115995000D01*
X63500158Y-115937932D01*
X63770411Y-115825990D01*
X64013632Y-115663475D01*
X64220475Y-115456632D01*
X64337000Y-115282240D01*
X64453525Y-115456632D01*
X64660368Y-115663475D01*
X64903589Y-115825990D01*
X65173842Y-115937932D01*
X65460740Y-115995000D01*
X65753260Y-115995000D01*
X66040158Y-115937932D01*
X66211601Y-115866918D01*
X66211600Y-126895298D01*
X62555998Y-130550901D01*
X62527000Y-130574699D01*
X62503202Y-130603697D01*
X62503201Y-130603698D01*
X62432026Y-130690424D01*
X62361454Y-130822454D01*
X62317998Y-130965715D01*
X62313912Y-131007203D01*
X62120368Y-131136525D01*
X61913525Y-131343368D01*
X61751010Y-131586589D01*
X61639068Y-131856842D01*
X61582000Y-132143740D01*
X61582000Y-132436260D01*
X61639068Y-132723158D01*
X61751010Y-132993411D01*
X61913525Y-133236632D01*
X62120368Y-133443475D01*
X62363589Y-133605990D01*
X62633842Y-133717932D01*
X62920740Y-133775000D01*
X63213260Y-133775000D01*
X63500158Y-133717932D01*
X63770411Y-133605990D01*
X64013632Y-133443475D01*
X64220475Y-133236632D01*
X64337000Y-133062240D01*
X64453525Y-133236632D01*
X64660368Y-133443475D01*
X64903589Y-133605990D01*
X65173842Y-133717932D01*
X65460740Y-133775000D01*
X65753260Y-133775000D01*
X65973408Y-133731209D01*
X67612301Y-135370103D01*
X67636099Y-135399101D01*
X67665097Y-135422899D01*
X67751823Y-135494074D01*
X67883853Y-135564646D01*
X68027114Y-135608103D01*
X68138767Y-135619100D01*
X68138776Y-135619100D01*
X68176099Y-135622776D01*
X68213422Y-135619100D01*
X100237778Y-135619100D01*
X100275100Y-135622776D01*
X100312422Y-135619100D01*
X100312433Y-135619100D01*
X100424086Y-135608103D01*
X100567347Y-135564646D01*
X100699376Y-135494074D01*
X100815101Y-135399101D01*
X100838904Y-135370097D01*
X102763461Y-133445541D01*
X103003589Y-133605990D01*
X103273842Y-133717932D01*
X103560740Y-133775000D01*
X103853260Y-133775000D01*
X104140158Y-133717932D01*
X104410411Y-133605990D01*
X104653632Y-133443475D01*
X104785487Y-133311620D01*
X104807498Y-133384180D01*
X104866463Y-133494494D01*
X104945815Y-133591185D01*
X105042506Y-133670537D01*
X105152820Y-133729502D01*
X105272518Y-133765812D01*
X105397000Y-133778072D01*
X105961250Y-133775000D01*
X106120000Y-133616250D01*
X106120000Y-132417000D01*
X106100000Y-132417000D01*
X106100000Y-132163000D01*
X106120000Y-132163000D01*
X106120000Y-130963750D01*
X106374000Y-130963750D01*
X106374000Y-132163000D01*
X106394000Y-132163000D01*
X106394000Y-132417000D01*
X106374000Y-132417000D01*
X106374000Y-133616250D01*
X106532750Y-133775000D01*
X107097000Y-133778072D01*
X107221482Y-133765812D01*
X107341180Y-133729502D01*
X107451494Y-133670537D01*
X107548185Y-133591185D01*
X107627537Y-133494494D01*
X107686502Y-133384180D01*
X107708513Y-133311620D01*
X107840368Y-133443475D01*
X108083589Y-133605990D01*
X108353842Y-133717932D01*
X108640740Y-133775000D01*
X108933260Y-133775000D01*
X109220158Y-133717932D01*
X109490411Y-133605990D01*
X109733632Y-133443475D01*
X109940475Y-133236632D01*
X110057000Y-133062240D01*
X110173525Y-133236632D01*
X110380368Y-133443475D01*
X110623589Y-133605990D01*
X110893842Y-133717932D01*
X111180740Y-133775000D01*
X111473260Y-133775000D01*
X111760158Y-133717932D01*
X112030411Y-133605990D01*
X112273632Y-133443475D01*
X112480475Y-133236632D01*
X112642990Y-132993411D01*
X112754932Y-132723158D01*
X112812000Y-132436260D01*
X112812000Y-132143740D01*
X112754932Y-131856842D01*
X112642990Y-131586589D01*
X112480475Y-131343368D01*
X112273632Y-131136525D01*
X112030411Y-130974010D01*
X111760158Y-130862068D01*
X111473260Y-130805000D01*
X111180740Y-130805000D01*
X110893842Y-130862068D01*
X110623589Y-130974010D01*
X110380368Y-131136525D01*
X110173525Y-131343368D01*
X110057000Y-131517760D01*
X109940475Y-131343368D01*
X109733632Y-131136525D01*
X109490411Y-130974010D01*
X109220158Y-130862068D01*
X108933260Y-130805000D01*
X108640740Y-130805000D01*
X108353842Y-130862068D01*
X108083589Y-130974010D01*
X107840368Y-131136525D01*
X107708513Y-131268380D01*
X107686502Y-131195820D01*
X107627537Y-131085506D01*
X107548185Y-130988815D01*
X107451494Y-130909463D01*
X107341180Y-130850498D01*
X107221482Y-130814188D01*
X107097000Y-130801928D01*
X106532750Y-130805000D01*
X106374000Y-130963750D01*
X106120000Y-130963750D01*
X105961250Y-130805000D01*
X105397000Y-130801928D01*
X105272518Y-130814188D01*
X105152820Y-130850498D01*
X105042506Y-130909463D01*
X104945815Y-130988815D01*
X104866463Y-131085506D01*
X104807498Y-131195820D01*
X104785487Y-131268380D01*
X104653632Y-131136525D01*
X104410411Y-130974010D01*
X104364011Y-130954791D01*
X104584402Y-130734400D01*
X109075878Y-130734400D01*
X109113200Y-130738076D01*
X109150522Y-130734400D01*
X109150533Y-130734400D01*
X109262186Y-130723403D01*
X109405447Y-130679946D01*
X109537476Y-130609374D01*
X109653201Y-130514401D01*
X109677004Y-130485397D01*
X113302001Y-126860401D01*
X113302000Y-129268865D01*
X113298638Y-129303000D01*
X113312057Y-129439244D01*
X113351798Y-129570252D01*
X113416333Y-129690989D01*
X113503183Y-129796817D01*
X113609011Y-129883667D01*
X113729748Y-129948202D01*
X113860756Y-129987943D01*
X113997000Y-130001362D01*
X114031134Y-129998000D01*
X117362865Y-129998000D01*
X117397000Y-130001362D01*
X117431134Y-129998000D01*
X117431135Y-129998000D01*
X117533244Y-129987943D01*
X117664252Y-129948202D01*
X117784989Y-129883667D01*
X117890817Y-129796817D01*
X117977667Y-129690989D01*
X118042202Y-129570252D01*
X118081943Y-129439244D01*
X118095362Y-129303000D01*
X118092000Y-129268865D01*
X118092000Y-126337135D01*
X118095362Y-126303000D01*
X118081943Y-126166756D01*
X118042202Y-126035748D01*
X117977667Y-125915011D01*
X117890817Y-125809183D01*
X117784989Y-125722333D01*
X117664252Y-125657798D01*
X117533244Y-125618057D01*
X117431135Y-125608000D01*
X117397000Y-125604638D01*
X117362866Y-125608000D01*
X116519042Y-125608000D01*
X116942251Y-125432701D01*
X117372826Y-125145000D01*
X117739000Y-124778826D01*
X118026701Y-124348251D01*
X118224873Y-123869822D01*
X118325900Y-123361924D01*
X118325900Y-122956652D01*
X119291100Y-122956652D01*
X119291100Y-123249348D01*
X119348202Y-123536421D01*
X119460212Y-123806838D01*
X119622826Y-124050206D01*
X119829794Y-124257174D01*
X120073162Y-124419788D01*
X120343579Y-124531798D01*
X120630652Y-124588900D01*
X120923348Y-124588900D01*
X121210421Y-124531798D01*
X121480838Y-124419788D01*
X121724206Y-124257174D01*
X121931174Y-124050206D01*
X122093788Y-123806838D01*
X122205798Y-123536421D01*
X122262900Y-123249348D01*
X122262900Y-122956652D01*
X122205798Y-122669579D01*
X122093788Y-122399162D01*
X121931174Y-122155794D01*
X121724206Y-121948826D01*
X121480838Y-121786212D01*
X121210421Y-121674202D01*
X120923348Y-121617100D01*
X120630652Y-121617100D01*
X120343579Y-121674202D01*
X120073162Y-121786212D01*
X119829794Y-121948826D01*
X119622826Y-122155794D01*
X119460212Y-122399162D01*
X119348202Y-122669579D01*
X119291100Y-122956652D01*
X118325900Y-122956652D01*
X118325900Y-122844076D01*
X118224873Y-122336178D01*
X118026701Y-121857749D01*
X117739000Y-121427174D01*
X117372826Y-121061000D01*
X116942251Y-120773299D01*
X116463822Y-120575127D01*
X115955924Y-120474100D01*
X115843480Y-120474100D01*
X115861126Y-120431498D01*
X115900900Y-120231539D01*
X115900900Y-120027661D01*
X115861126Y-119827702D01*
X115783105Y-119639344D01*
X115669837Y-119469826D01*
X115525674Y-119325663D01*
X115356156Y-119212395D01*
X115167798Y-119134374D01*
X114967839Y-119094600D01*
X114763961Y-119094600D01*
X114564002Y-119134374D01*
X114375644Y-119212395D01*
X114206126Y-119325663D01*
X114061963Y-119469826D01*
X113948695Y-119639344D01*
X113882005Y-119800346D01*
X113779012Y-119551698D01*
X113545363Y-119202017D01*
X113247983Y-118904637D01*
X112898302Y-118670988D01*
X112509756Y-118510047D01*
X112097279Y-118428000D01*
X111676721Y-118428000D01*
X111264244Y-118510047D01*
X110875698Y-118670988D01*
X110526017Y-118904637D01*
X110228637Y-119202017D01*
X110060000Y-119454401D01*
X110060000Y-118651401D01*
X110898680Y-117812721D01*
X116102000Y-117812721D01*
X116102000Y-118233279D01*
X116184047Y-118645756D01*
X116344988Y-119034302D01*
X116578637Y-119383983D01*
X116876017Y-119681363D01*
X117225698Y-119915012D01*
X117614244Y-120075953D01*
X118026721Y-120158000D01*
X118447279Y-120158000D01*
X118859756Y-120075953D01*
X119248302Y-119915012D01*
X119597983Y-119681363D01*
X119895363Y-119383983D01*
X120129012Y-119034302D01*
X120289953Y-118645756D01*
X120372000Y-118233279D01*
X120372000Y-117812721D01*
X120289953Y-117400244D01*
X120129012Y-117011698D01*
X119895363Y-116662017D01*
X119597983Y-116364637D01*
X119248302Y-116130988D01*
X118859756Y-115970047D01*
X118447279Y-115888000D01*
X118026721Y-115888000D01*
X117614244Y-115970047D01*
X117225698Y-116130988D01*
X116876017Y-116364637D01*
X116578637Y-116662017D01*
X116344988Y-117011698D01*
X116184047Y-117400244D01*
X116102000Y-117812721D01*
X110898680Y-117812721D01*
X119741004Y-108970398D01*
X119770001Y-108946601D01*
X119864974Y-108830876D01*
X119935546Y-108698847D01*
X119979003Y-108555586D01*
X119990000Y-108443933D01*
X119990000Y-108443925D01*
X119993676Y-108406600D01*
X119990000Y-108369275D01*
X119990000Y-106975111D01*
X120033937Y-106931174D01*
X120147205Y-106761656D01*
X120225226Y-106573298D01*
X120265000Y-106373339D01*
X120265000Y-106169461D01*
X120225226Y-105969502D01*
X120147205Y-105781144D01*
X120033937Y-105611626D01*
X119889774Y-105467463D01*
X119720256Y-105354195D01*
X119531898Y-105276174D01*
X119331939Y-105236400D01*
X119128061Y-105236400D01*
X118928102Y-105276174D01*
X118739744Y-105354195D01*
X118570226Y-105467463D01*
X118426063Y-105611626D01*
X118312795Y-105781144D01*
X118234774Y-105969502D01*
X118195000Y-106169461D01*
X118195000Y-106373339D01*
X118234774Y-106573298D01*
X118312795Y-106761656D01*
X118426063Y-106931174D01*
X118470001Y-106975112D01*
X118470000Y-108091798D01*
X112675858Y-113885940D01*
X112642990Y-113806589D01*
X112480475Y-113563368D01*
X112273632Y-113356525D01*
X112030411Y-113194010D01*
X111760158Y-113082068D01*
X111473260Y-113025000D01*
X111180740Y-113025000D01*
X110893842Y-113082068D01*
X110623589Y-113194010D01*
X110380368Y-113356525D01*
X110173525Y-113563368D01*
X110057000Y-113737760D01*
X109940475Y-113563368D01*
X109733632Y-113356525D01*
X109490411Y-113194010D01*
X109220158Y-113082068D01*
X108933260Y-113025000D01*
X108640740Y-113025000D01*
X108353842Y-113082068D01*
X108083589Y-113194010D01*
X107840368Y-113356525D01*
X107708513Y-113488380D01*
X107686502Y-113415820D01*
X107627537Y-113305506D01*
X107548185Y-113208815D01*
X107451494Y-113129463D01*
X107341180Y-113070498D01*
X107221482Y-113034188D01*
X107097000Y-113021928D01*
X106532750Y-113025000D01*
X106374000Y-113183750D01*
X106374000Y-114383000D01*
X106394000Y-114383000D01*
X106394000Y-114637000D01*
X106374000Y-114637000D01*
X106374000Y-115836250D01*
X106532750Y-115995000D01*
X107097000Y-115998072D01*
X107221482Y-115985812D01*
X107341180Y-115949502D01*
X107451494Y-115890537D01*
X107548185Y-115811185D01*
X107627537Y-115714494D01*
X107686502Y-115604180D01*
X107708513Y-115531620D01*
X107840368Y-115663475D01*
X108083589Y-115825990D01*
X108120091Y-115841110D01*
X104872801Y-119088400D01*
X101092865Y-119088400D01*
X101129012Y-119034302D01*
X101289953Y-118645756D01*
X101372000Y-118233279D01*
X101372000Y-117812721D01*
X101289953Y-117400244D01*
X101129012Y-117011698D01*
X100895363Y-116662017D01*
X100597983Y-116364637D01*
X100248302Y-116130988D01*
X99859756Y-115970047D01*
X99447279Y-115888000D01*
X99180705Y-115888000D01*
X99330411Y-115825990D01*
X99573632Y-115663475D01*
X99780475Y-115456632D01*
X99897000Y-115282240D01*
X100013525Y-115456632D01*
X100220368Y-115663475D01*
X100463589Y-115825990D01*
X100733842Y-115937932D01*
X101020740Y-115995000D01*
X101313260Y-115995000D01*
X101600158Y-115937932D01*
X101870411Y-115825990D01*
X102113632Y-115663475D01*
X102320475Y-115456632D01*
X102437000Y-115282240D01*
X102553525Y-115456632D01*
X102760368Y-115663475D01*
X103003589Y-115825990D01*
X103273842Y-115937932D01*
X103560740Y-115995000D01*
X103853260Y-115995000D01*
X104140158Y-115937932D01*
X104410411Y-115825990D01*
X104653632Y-115663475D01*
X104785487Y-115531620D01*
X104807498Y-115604180D01*
X104866463Y-115714494D01*
X104945815Y-115811185D01*
X105042506Y-115890537D01*
X105152820Y-115949502D01*
X105272518Y-115985812D01*
X105397000Y-115998072D01*
X105961250Y-115995000D01*
X106120000Y-115836250D01*
X106120000Y-114637000D01*
X106100000Y-114637000D01*
X106100000Y-114383000D01*
X106120000Y-114383000D01*
X106120000Y-113183750D01*
X105961250Y-113025000D01*
X105397000Y-113021928D01*
X105272518Y-113034188D01*
X105152820Y-113070498D01*
X105042506Y-113129463D01*
X104945815Y-113208815D01*
X104866463Y-113305506D01*
X104807498Y-113415820D01*
X104785487Y-113488380D01*
X104653632Y-113356525D01*
X104410411Y-113194010D01*
X104140158Y-113082068D01*
X103853260Y-113025000D01*
X103560740Y-113025000D01*
X103273842Y-113082068D01*
X103003589Y-113194010D01*
X102760368Y-113356525D01*
X102553525Y-113563368D01*
X102437000Y-113737760D01*
X102320475Y-113563368D01*
X102113632Y-113356525D01*
X101870411Y-113194010D01*
X101600158Y-113082068D01*
X101313260Y-113025000D01*
X101020740Y-113025000D01*
X100733842Y-113082068D01*
X100463589Y-113194010D01*
X100220368Y-113356525D01*
X100013525Y-113563368D01*
X99897000Y-113737760D01*
X99780475Y-113563368D01*
X99573632Y-113356525D01*
X99330411Y-113194010D01*
X99060158Y-113082068D01*
X98773260Y-113025000D01*
X98480740Y-113025000D01*
X98193842Y-113082068D01*
X98117000Y-113113897D01*
X98117000Y-107957801D01*
X104891500Y-101183301D01*
X110884500Y-101183301D01*
X110884500Y-101816699D01*
X111008070Y-102437927D01*
X111250461Y-103023110D01*
X111602358Y-103549761D01*
X112050239Y-103997642D01*
X112576890Y-104349539D01*
X113162073Y-104591930D01*
X113783301Y-104715500D01*
X114416699Y-104715500D01*
X115037927Y-104591930D01*
X115623110Y-104349539D01*
X116149761Y-103997642D01*
X116597642Y-103549761D01*
X116949539Y-103023110D01*
X117191930Y-102437927D01*
X117315500Y-101816699D01*
X117315500Y-101183301D01*
X117191930Y-100562073D01*
X116949539Y-99976890D01*
X116597642Y-99450239D01*
X116149761Y-99002358D01*
X115623110Y-98650461D01*
X115037927Y-98408070D01*
X114416699Y-98284500D01*
X113783301Y-98284500D01*
X113162073Y-98408070D01*
X112576890Y-98650461D01*
X112050239Y-99002358D01*
X111602358Y-99450239D01*
X111250461Y-99976890D01*
X111008070Y-100562073D01*
X110884500Y-101183301D01*
X104891500Y-101183301D01*
X106191070Y-99883731D01*
X106448816Y-99935000D01*
X106751184Y-99935000D01*
X107047743Y-99876011D01*
X107327095Y-99760299D01*
X107578505Y-99592312D01*
X107792312Y-99378505D01*
X107960299Y-99127095D01*
X108076011Y-98847743D01*
X108135000Y-98551184D01*
X108135000Y-98248816D01*
X119565000Y-98248816D01*
X119565000Y-98551184D01*
X119623989Y-98847743D01*
X119739701Y-99127095D01*
X119907688Y-99378505D01*
X120121495Y-99592312D01*
X120372905Y-99760299D01*
X120652257Y-99876011D01*
X120948816Y-99935000D01*
X121251184Y-99935000D01*
X121547743Y-99876011D01*
X121827095Y-99760299D01*
X122078505Y-99592312D01*
X122292312Y-99378505D01*
X122460299Y-99127095D01*
X122576011Y-98847743D01*
X122635000Y-98551184D01*
X122635000Y-98248816D01*
X122576011Y-97952257D01*
X122460299Y-97672905D01*
X122292312Y-97421495D01*
X122078505Y-97207688D01*
X121827095Y-97039701D01*
X121547743Y-96923989D01*
X121251184Y-96865000D01*
X120948816Y-96865000D01*
X120652257Y-96923989D01*
X120372905Y-97039701D01*
X120121495Y-97207688D01*
X119907688Y-97421495D01*
X119739701Y-97672905D01*
X119623989Y-97952257D01*
X119565000Y-98248816D01*
X108135000Y-98248816D01*
X108076011Y-97952257D01*
X107960299Y-97672905D01*
X107792312Y-97421495D01*
X107578505Y-97207688D01*
X107435690Y-97112262D01*
X107484475Y-96964080D01*
X106600000Y-96079605D01*
X106585858Y-96093748D01*
X106406253Y-95914143D01*
X106420395Y-95900000D01*
X106779605Y-95900000D01*
X107664080Y-96784475D01*
X107918261Y-96700792D01*
X108049158Y-96428225D01*
X108124365Y-96135358D01*
X108140991Y-95833447D01*
X108098397Y-95534093D01*
X107998222Y-95248801D01*
X107918261Y-95099208D01*
X107664080Y-95015525D01*
X106779605Y-95900000D01*
X106420395Y-95900000D01*
X106406253Y-95885858D01*
X106585858Y-95706253D01*
X106600000Y-95720395D01*
X107484475Y-94835920D01*
X107435690Y-94687738D01*
X107578505Y-94592312D01*
X107792312Y-94378505D01*
X107960299Y-94127095D01*
X108076011Y-93847743D01*
X108135000Y-93551184D01*
X108135000Y-93248816D01*
X108076011Y-92952257D01*
X108051921Y-92894100D01*
X108907699Y-92894100D01*
X109924601Y-93911003D01*
X109948399Y-93940001D01*
X109977397Y-93963799D01*
X110064123Y-94034974D01*
X110196153Y-94105546D01*
X110339414Y-94149003D01*
X110451067Y-94160000D01*
X110451077Y-94160000D01*
X110488400Y-94163676D01*
X110525723Y-94160000D01*
X119761687Y-94160000D01*
X119907688Y-94378505D01*
X120121495Y-94592312D01*
X120372905Y-94760299D01*
X120652257Y-94876011D01*
X120948816Y-94935000D01*
X121251184Y-94935000D01*
X121547743Y-94876011D01*
X121827095Y-94760299D01*
X122078505Y-94592312D01*
X122292312Y-94378505D01*
X122460299Y-94127095D01*
X122576011Y-93847743D01*
X122635000Y-93551184D01*
X122635000Y-93248816D01*
X122576011Y-92952257D01*
X122460299Y-92672905D01*
X122292312Y-92421495D01*
X122078505Y-92207688D01*
X121827095Y-92039701D01*
X121547743Y-91923989D01*
X121251184Y-91865000D01*
X120948816Y-91865000D01*
X120652257Y-91923989D01*
X120372905Y-92039701D01*
X120121495Y-92207688D01*
X119907688Y-92421495D01*
X119761687Y-92640000D01*
X116307403Y-92640000D01*
X116597642Y-92349761D01*
X116949539Y-91823110D01*
X117191930Y-91237927D01*
X117315500Y-90616699D01*
X117315500Y-89983301D01*
X117191930Y-89362073D01*
X116949539Y-88776890D01*
X116597642Y-88250239D01*
X116149761Y-87802358D01*
X115623110Y-87450461D01*
X115037927Y-87208070D01*
X114416699Y-87084500D01*
X113783301Y-87084500D01*
X113162073Y-87208070D01*
X112576890Y-87450461D01*
X112050239Y-87802358D01*
X111602358Y-88250239D01*
X111250461Y-88776890D01*
X111008070Y-89362073D01*
X110884500Y-89983301D01*
X110884500Y-90616699D01*
X111008070Y-91237927D01*
X111250461Y-91823110D01*
X111602358Y-92349761D01*
X111892597Y-92640000D01*
X110803202Y-92640000D01*
X109786304Y-91623103D01*
X109762501Y-91594099D01*
X109646776Y-91499126D01*
X109514747Y-91428554D01*
X109371486Y-91385097D01*
X109259833Y-91374100D01*
X109259822Y-91374100D01*
X109222500Y-91370424D01*
X109185178Y-91374100D01*
X106112222Y-91374100D01*
X106074899Y-91370424D01*
X106037576Y-91374100D01*
X106037567Y-91374100D01*
X105925914Y-91385097D01*
X105782653Y-91428554D01*
X105650624Y-91499126D01*
X105534899Y-91594099D01*
X105511101Y-91623097D01*
X104333998Y-92800201D01*
X104305000Y-92823999D01*
X104281202Y-92852997D01*
X104281201Y-92852998D01*
X104210026Y-92939724D01*
X104139454Y-93071754D01*
X104095998Y-93215015D01*
X104081324Y-93364000D01*
X104085001Y-93401332D01*
X104085000Y-97154298D01*
X101425905Y-99813394D01*
X101378274Y-99765763D01*
X101208756Y-99652495D01*
X101020398Y-99574474D01*
X100820439Y-99534700D01*
X100616561Y-99534700D01*
X100416602Y-99574474D01*
X100228244Y-99652495D01*
X100058726Y-99765763D01*
X99914563Y-99909926D01*
X99801295Y-100079444D01*
X99723274Y-100267802D01*
X99683500Y-100467761D01*
X99683500Y-100671639D01*
X99709093Y-100800305D01*
X99092000Y-101417399D01*
X99092000Y-99337135D01*
X99095362Y-99303000D01*
X99081943Y-99166756D01*
X99042202Y-99035748D01*
X98977667Y-98915011D01*
X98890817Y-98809183D01*
X98784989Y-98722333D01*
X98664252Y-98657798D01*
X98533244Y-98618057D01*
X98431135Y-98608000D01*
X98397000Y-98604638D01*
X98362866Y-98608000D01*
X97519042Y-98608000D01*
X97942251Y-98432701D01*
X98372826Y-98145000D01*
X98739000Y-97778826D01*
X99026701Y-97348251D01*
X99224873Y-96869822D01*
X99325900Y-96361924D01*
X99325900Y-95956652D01*
X100291100Y-95956652D01*
X100291100Y-96249348D01*
X100348202Y-96536421D01*
X100460212Y-96806838D01*
X100622826Y-97050206D01*
X100829794Y-97257174D01*
X101073162Y-97419788D01*
X101343579Y-97531798D01*
X101630652Y-97588900D01*
X101923348Y-97588900D01*
X102210421Y-97531798D01*
X102480838Y-97419788D01*
X102724206Y-97257174D01*
X102931174Y-97050206D01*
X103093788Y-96806838D01*
X103205798Y-96536421D01*
X103262900Y-96249348D01*
X103262900Y-95956652D01*
X103205798Y-95669579D01*
X103093788Y-95399162D01*
X102931174Y-95155794D01*
X102724206Y-94948826D01*
X102480838Y-94786212D01*
X102210421Y-94674202D01*
X101923348Y-94617100D01*
X101630652Y-94617100D01*
X101343579Y-94674202D01*
X101073162Y-94786212D01*
X100829794Y-94948826D01*
X100622826Y-95155794D01*
X100460212Y-95399162D01*
X100348202Y-95669579D01*
X100291100Y-95956652D01*
X99325900Y-95956652D01*
X99325900Y-95844076D01*
X99224873Y-95336178D01*
X99026701Y-94857749D01*
X98739000Y-94427174D01*
X98372826Y-94061000D01*
X97942251Y-93773299D01*
X97463822Y-93575127D01*
X96955924Y-93474100D01*
X96438076Y-93474100D01*
X95930178Y-93575127D01*
X95451749Y-93773299D01*
X95021174Y-94061000D01*
X94950763Y-94131411D01*
X95022000Y-93773279D01*
X95022000Y-93352721D01*
X94939953Y-92940244D01*
X94779012Y-92551698D01*
X94545363Y-92202017D01*
X94247983Y-91904637D01*
X93898302Y-91670988D01*
X93509756Y-91510047D01*
X93097279Y-91428000D01*
X92676721Y-91428000D01*
X92264244Y-91510047D01*
X91875698Y-91670988D01*
X91526017Y-91904637D01*
X91228637Y-92202017D01*
X90994988Y-92551698D01*
X90834047Y-92940244D01*
X90752000Y-93352721D01*
X90752000Y-93773279D01*
X90834047Y-94185756D01*
X90994988Y-94574302D01*
X91088150Y-94713730D01*
X90913162Y-94786212D01*
X90669794Y-94948826D01*
X90462826Y-95155794D01*
X90300212Y-95399162D01*
X90188202Y-95669579D01*
X90131100Y-95956652D01*
X90131100Y-96249348D01*
X90188202Y-96536421D01*
X90300212Y-96806838D01*
X90462826Y-97050206D01*
X90669794Y-97257174D01*
X90913162Y-97419788D01*
X91183579Y-97531798D01*
X91470652Y-97588900D01*
X91763348Y-97588900D01*
X92050421Y-97531798D01*
X92320838Y-97419788D01*
X92564206Y-97257174D01*
X92771174Y-97050206D01*
X92933788Y-96806838D01*
X93045798Y-96536421D01*
X93102900Y-96249348D01*
X93102900Y-95956652D01*
X93051451Y-95698000D01*
X93097279Y-95698000D01*
X93509756Y-95615953D01*
X93898302Y-95455012D01*
X94204708Y-95250279D01*
X94169127Y-95336178D01*
X94068100Y-95844076D01*
X94068100Y-96361924D01*
X94169127Y-96869822D01*
X94367299Y-97348251D01*
X94655000Y-97778826D01*
X95021174Y-98145000D01*
X95451749Y-98432701D01*
X95874958Y-98608000D01*
X95031135Y-98608000D01*
X94997000Y-98604638D01*
X94962866Y-98608000D01*
X94962865Y-98608000D01*
X94860756Y-98618057D01*
X94729748Y-98657798D01*
X94609011Y-98722333D01*
X94503183Y-98809183D01*
X94416333Y-98915011D01*
X94351798Y-99035748D01*
X94312057Y-99166756D01*
X94298638Y-99303000D01*
X94302001Y-99337145D01*
X94302000Y-102265400D01*
X93771159Y-102265400D01*
X93717576Y-102221426D01*
X93585547Y-102150854D01*
X93442286Y-102107397D01*
X93330633Y-102096400D01*
X93330622Y-102096400D01*
X93293300Y-102092724D01*
X93255978Y-102096400D01*
X80957000Y-102096400D01*
X80957000Y-99727911D01*
X81000937Y-99683974D01*
X81114205Y-99514456D01*
X81192226Y-99326098D01*
X81232000Y-99126139D01*
X81232000Y-98922261D01*
X81192226Y-98722302D01*
X81114205Y-98533944D01*
X81000937Y-98364426D01*
X80856774Y-98220263D01*
X80687256Y-98106995D01*
X80498898Y-98028974D01*
X80298939Y-97989200D01*
X80095061Y-97989200D01*
X79895102Y-98028974D01*
X79706744Y-98106995D01*
X79537226Y-98220263D01*
X79393063Y-98364426D01*
X79279795Y-98533944D01*
X79249120Y-98608000D01*
X78519042Y-98608000D01*
X78942251Y-98432701D01*
X79372826Y-98145000D01*
X79739000Y-97778826D01*
X80026701Y-97348251D01*
X80224873Y-96869822D01*
X80325900Y-96361924D01*
X80325900Y-95956652D01*
X81291100Y-95956652D01*
X81291100Y-96249348D01*
X81348202Y-96536421D01*
X81460212Y-96806838D01*
X81622826Y-97050206D01*
X81829794Y-97257174D01*
X82073162Y-97419788D01*
X82343579Y-97531798D01*
X82630652Y-97588900D01*
X82923348Y-97588900D01*
X83210421Y-97531798D01*
X83480838Y-97419788D01*
X83724206Y-97257174D01*
X83931174Y-97050206D01*
X84093788Y-96806838D01*
X84205798Y-96536421D01*
X84262900Y-96249348D01*
X84262900Y-95956652D01*
X84205798Y-95669579D01*
X84093788Y-95399162D01*
X83931174Y-95155794D01*
X83724206Y-94948826D01*
X83480838Y-94786212D01*
X83210421Y-94674202D01*
X82923348Y-94617100D01*
X82630652Y-94617100D01*
X82343579Y-94674202D01*
X82073162Y-94786212D01*
X81829794Y-94948826D01*
X81622826Y-95155794D01*
X81460212Y-95399162D01*
X81348202Y-95669579D01*
X81291100Y-95956652D01*
X80325900Y-95956652D01*
X80325900Y-95844076D01*
X80224873Y-95336178D01*
X80026701Y-94857749D01*
X79739000Y-94427174D01*
X79372826Y-94061000D01*
X78942251Y-93773299D01*
X78463822Y-93575127D01*
X77955924Y-93474100D01*
X77438076Y-93474100D01*
X76930178Y-93575127D01*
X76451749Y-93773299D01*
X76021174Y-94061000D01*
X75950763Y-94131411D01*
X76022000Y-93773279D01*
X76022000Y-93352721D01*
X75939953Y-92940244D01*
X75779012Y-92551698D01*
X75545363Y-92202017D01*
X75247983Y-91904637D01*
X74898302Y-91670988D01*
X74509756Y-91510047D01*
X74097279Y-91428000D01*
X73676721Y-91428000D01*
X73264244Y-91510047D01*
X72875698Y-91670988D01*
X72526017Y-91904637D01*
X72228637Y-92202017D01*
X71994988Y-92551698D01*
X71834047Y-92940244D01*
X71752000Y-93352721D01*
X71752000Y-93773279D01*
X71834047Y-94185756D01*
X71994988Y-94574302D01*
X72088150Y-94713730D01*
X71913162Y-94786212D01*
X71669794Y-94948826D01*
X71462826Y-95155794D01*
X71300212Y-95399162D01*
X71188202Y-95669579D01*
X71131100Y-95956652D01*
X71131100Y-96249348D01*
X71188202Y-96536421D01*
X71300212Y-96806838D01*
X71462826Y-97050206D01*
X71669794Y-97257174D01*
X71913162Y-97419788D01*
X72183579Y-97531798D01*
X72470652Y-97588900D01*
X72763348Y-97588900D01*
X73050421Y-97531798D01*
X73320838Y-97419788D01*
X73564206Y-97257174D01*
X73771174Y-97050206D01*
X73933788Y-96806838D01*
X74045798Y-96536421D01*
X74102900Y-96249348D01*
X74102900Y-95956652D01*
X74051451Y-95698000D01*
X74097279Y-95698000D01*
X74509756Y-95615953D01*
X74898302Y-95455012D01*
X75204708Y-95250279D01*
X75169127Y-95336178D01*
X75068100Y-95844076D01*
X75068100Y-96361924D01*
X75169127Y-96869822D01*
X75367299Y-97348251D01*
X75655000Y-97778826D01*
X76021174Y-98145000D01*
X76451749Y-98432701D01*
X76874958Y-98608000D01*
X76031135Y-98608000D01*
X75997000Y-98604638D01*
X75962866Y-98608000D01*
X75962865Y-98608000D01*
X75860756Y-98618057D01*
X75729748Y-98657798D01*
X75609011Y-98722333D01*
X75503183Y-98809183D01*
X75416333Y-98915011D01*
X75351798Y-99035748D01*
X75312057Y-99166756D01*
X75298638Y-99303000D01*
X75302001Y-99337145D01*
X75302000Y-102265300D01*
X61679711Y-102265300D01*
X61635774Y-102221363D01*
X61466256Y-102108095D01*
X61277898Y-102030074D01*
X61092000Y-101993097D01*
X61092000Y-99337135D01*
X61095362Y-99303000D01*
X61081943Y-99166756D01*
X61042202Y-99035748D01*
X60977667Y-98915011D01*
X60890817Y-98809183D01*
X60784989Y-98722333D01*
X60664252Y-98657798D01*
X60533244Y-98618057D01*
X60431135Y-98608000D01*
X60397000Y-98604638D01*
X60362866Y-98608000D01*
X59519042Y-98608000D01*
X59942251Y-98432701D01*
X60372826Y-98145000D01*
X60739000Y-97778826D01*
X61026701Y-97348251D01*
X61224873Y-96869822D01*
X61325900Y-96361924D01*
X61325900Y-95956652D01*
X62291100Y-95956652D01*
X62291100Y-96249348D01*
X62348202Y-96536421D01*
X62460212Y-96806838D01*
X62622826Y-97050206D01*
X62829794Y-97257174D01*
X63073162Y-97419788D01*
X63343579Y-97531798D01*
X63630652Y-97588900D01*
X63923348Y-97588900D01*
X64210421Y-97531798D01*
X64480838Y-97419788D01*
X64724206Y-97257174D01*
X64931174Y-97050206D01*
X65093788Y-96806838D01*
X65205798Y-96536421D01*
X65262900Y-96249348D01*
X65262900Y-95956652D01*
X65205798Y-95669579D01*
X65093788Y-95399162D01*
X64931174Y-95155794D01*
X64724206Y-94948826D01*
X64480838Y-94786212D01*
X64210421Y-94674202D01*
X63923348Y-94617100D01*
X63630652Y-94617100D01*
X63343579Y-94674202D01*
X63073162Y-94786212D01*
X62829794Y-94948826D01*
X62622826Y-95155794D01*
X62460212Y-95399162D01*
X62348202Y-95669579D01*
X62291100Y-95956652D01*
X61325900Y-95956652D01*
X61325900Y-95844076D01*
X61224873Y-95336178D01*
X61026701Y-94857749D01*
X60739000Y-94427174D01*
X60372826Y-94061000D01*
X59942251Y-93773299D01*
X59463822Y-93575127D01*
X58955924Y-93474100D01*
X58438076Y-93474100D01*
X57930178Y-93575127D01*
X57451749Y-93773299D01*
X57021174Y-94061000D01*
X56950763Y-94131411D01*
X57022000Y-93773279D01*
X57022000Y-93352721D01*
X56939953Y-92940244D01*
X56779012Y-92551698D01*
X56545363Y-92202017D01*
X56247983Y-91904637D01*
X55898302Y-91670988D01*
X55509756Y-91510047D01*
X55097279Y-91428000D01*
X54676721Y-91428000D01*
X54264244Y-91510047D01*
X53875698Y-91670988D01*
X53526017Y-91904637D01*
X53228637Y-92202017D01*
X52994988Y-92551698D01*
X52834047Y-92940244D01*
X52752000Y-93352721D01*
X52752000Y-93773279D01*
X52834047Y-94185756D01*
X52994988Y-94574302D01*
X53088150Y-94713730D01*
X52913162Y-94786212D01*
X52669794Y-94948826D01*
X52462826Y-95155794D01*
X52300212Y-95399162D01*
X52188202Y-95669579D01*
X52131100Y-95956652D01*
X47932000Y-95956652D01*
X47932000Y-90812721D01*
X59102000Y-90812721D01*
X59102000Y-91233279D01*
X59184047Y-91645756D01*
X59344988Y-92034302D01*
X59578637Y-92383983D01*
X59876017Y-92681363D01*
X60225698Y-92915012D01*
X60614244Y-93075953D01*
X61026721Y-93158000D01*
X61447279Y-93158000D01*
X61859756Y-93075953D01*
X62248302Y-92915012D01*
X62597983Y-92681363D01*
X62895363Y-92383983D01*
X63129012Y-92034302D01*
X63289953Y-91645756D01*
X63372000Y-91233279D01*
X63372000Y-90812721D01*
X78102000Y-90812721D01*
X78102000Y-91233279D01*
X78184047Y-91645756D01*
X78344988Y-92034302D01*
X78578637Y-92383983D01*
X78876017Y-92681363D01*
X79225698Y-92915012D01*
X79614244Y-93075953D01*
X80026721Y-93158000D01*
X80447279Y-93158000D01*
X80859756Y-93075953D01*
X81248302Y-92915012D01*
X81597983Y-92681363D01*
X81895363Y-92383983D01*
X82129012Y-92034302D01*
X82289953Y-91645756D01*
X82372000Y-91233279D01*
X82372000Y-90812721D01*
X97102000Y-90812721D01*
X97102000Y-91233279D01*
X97184047Y-91645756D01*
X97344988Y-92034302D01*
X97578637Y-92383983D01*
X97876017Y-92681363D01*
X98225698Y-92915012D01*
X98614244Y-93075953D01*
X99026721Y-93158000D01*
X99447279Y-93158000D01*
X99859756Y-93075953D01*
X100248302Y-92915012D01*
X100597983Y-92681363D01*
X100895363Y-92383983D01*
X101129012Y-92034302D01*
X101289953Y-91645756D01*
X101372000Y-91233279D01*
X101372000Y-90812721D01*
X101289953Y-90400244D01*
X101129012Y-90011698D01*
X100895363Y-89662017D01*
X100597983Y-89364637D01*
X100248302Y-89130988D01*
X99859756Y-88970047D01*
X99447279Y-88888000D01*
X99026721Y-88888000D01*
X98614244Y-88970047D01*
X98225698Y-89130988D01*
X97876017Y-89364637D01*
X97578637Y-89662017D01*
X97344988Y-90011698D01*
X97184047Y-90400244D01*
X97102000Y-90812721D01*
X82372000Y-90812721D01*
X82289953Y-90400244D01*
X82129012Y-90011698D01*
X81895363Y-89662017D01*
X81597983Y-89364637D01*
X81248302Y-89130988D01*
X80859756Y-88970047D01*
X80447279Y-88888000D01*
X80026721Y-88888000D01*
X79614244Y-88970047D01*
X79225698Y-89130988D01*
X78876017Y-89364637D01*
X78578637Y-89662017D01*
X78344988Y-90011698D01*
X78184047Y-90400244D01*
X78102000Y-90812721D01*
X63372000Y-90812721D01*
X63289953Y-90400244D01*
X63129012Y-90011698D01*
X62895363Y-89662017D01*
X62597983Y-89364637D01*
X62248302Y-89130988D01*
X61859756Y-88970047D01*
X61447279Y-88888000D01*
X61026721Y-88888000D01*
X60614244Y-88970047D01*
X60225698Y-89130988D01*
X59876017Y-89364637D01*
X59578637Y-89662017D01*
X59344988Y-90011698D01*
X59184047Y-90400244D01*
X59102000Y-90812721D01*
X47932000Y-90812721D01*
X47932000Y-85451897D01*
X78728208Y-85451897D01*
X78805843Y-85700972D01*
X79069883Y-85826871D01*
X79353411Y-85898839D01*
X79645531Y-85914111D01*
X79935019Y-85872099D01*
X80210747Y-85774419D01*
X80348157Y-85700972D01*
X80425792Y-85451897D01*
X79577000Y-84603105D01*
X78728208Y-85451897D01*
X47932000Y-85451897D01*
X47932000Y-84492031D01*
X78086389Y-84492031D01*
X78128401Y-84781519D01*
X78226081Y-85057247D01*
X78299528Y-85194657D01*
X78548603Y-85272292D01*
X79397395Y-84423500D01*
X79756605Y-84423500D01*
X80605397Y-85272292D01*
X80847689Y-85196771D01*
X80963525Y-85370132D01*
X81170368Y-85576975D01*
X81413589Y-85739490D01*
X81683842Y-85851432D01*
X81970740Y-85908500D01*
X82263260Y-85908500D01*
X82550158Y-85851432D01*
X82820411Y-85739490D01*
X83063632Y-85576975D01*
X83270475Y-85370132D01*
X83387000Y-85195740D01*
X83503525Y-85370132D01*
X83710368Y-85576975D01*
X83953589Y-85739490D01*
X84223842Y-85851432D01*
X84510740Y-85908500D01*
X84803260Y-85908500D01*
X85090158Y-85851432D01*
X85360411Y-85739490D01*
X85603632Y-85576975D01*
X85728710Y-85451897D01*
X86348208Y-85451897D01*
X86425843Y-85700972D01*
X86689883Y-85826871D01*
X86973411Y-85898839D01*
X87265531Y-85914111D01*
X87555019Y-85872099D01*
X87830747Y-85774419D01*
X87968157Y-85700972D01*
X88045792Y-85451897D01*
X87197000Y-84603105D01*
X86348208Y-85451897D01*
X85728710Y-85451897D01*
X85810475Y-85370132D01*
X85926311Y-85196771D01*
X86168603Y-85272292D01*
X87017395Y-84423500D01*
X87376605Y-84423500D01*
X88225397Y-85272292D01*
X88467689Y-85196771D01*
X88583525Y-85370132D01*
X88790368Y-85576975D01*
X89033589Y-85739490D01*
X89303842Y-85851432D01*
X89590740Y-85908500D01*
X89883260Y-85908500D01*
X90170158Y-85851432D01*
X90440411Y-85739490D01*
X90683632Y-85576975D01*
X90890475Y-85370132D01*
X91007000Y-85195740D01*
X91123525Y-85370132D01*
X91330368Y-85576975D01*
X91573589Y-85739490D01*
X91843842Y-85851432D01*
X92130740Y-85908500D01*
X92423260Y-85908500D01*
X92710158Y-85851432D01*
X92980411Y-85739490D01*
X93223632Y-85576975D01*
X93430475Y-85370132D01*
X93547000Y-85195740D01*
X93663525Y-85370132D01*
X93870368Y-85576975D01*
X94113589Y-85739490D01*
X94383842Y-85851432D01*
X94670740Y-85908500D01*
X94963260Y-85908500D01*
X95250158Y-85851432D01*
X95520411Y-85739490D01*
X95763632Y-85576975D01*
X95970475Y-85370132D01*
X96132990Y-85126911D01*
X96244932Y-84856658D01*
X96302000Y-84569760D01*
X96302000Y-84277240D01*
X96244932Y-83990342D01*
X96132990Y-83720089D01*
X95970475Y-83476868D01*
X95763632Y-83270025D01*
X95520411Y-83107510D01*
X95250158Y-82995568D01*
X94963260Y-82938500D01*
X94670740Y-82938500D01*
X94383842Y-82995568D01*
X94113589Y-83107510D01*
X93870368Y-83270025D01*
X93663525Y-83476868D01*
X93547000Y-83651260D01*
X93430475Y-83476868D01*
X93223632Y-83270025D01*
X92980411Y-83107510D01*
X92710158Y-82995568D01*
X92423260Y-82938500D01*
X92130740Y-82938500D01*
X91843842Y-82995568D01*
X91573589Y-83107510D01*
X91330368Y-83270025D01*
X91123525Y-83476868D01*
X91007000Y-83651260D01*
X90890475Y-83476868D01*
X90683632Y-83270025D01*
X90440411Y-83107510D01*
X90170158Y-82995568D01*
X89883260Y-82938500D01*
X89590740Y-82938500D01*
X89303842Y-82995568D01*
X89033589Y-83107510D01*
X88790368Y-83270025D01*
X88583525Y-83476868D01*
X88467689Y-83650229D01*
X88225397Y-83574708D01*
X87376605Y-84423500D01*
X87017395Y-84423500D01*
X86168603Y-83574708D01*
X85926311Y-83650229D01*
X85810475Y-83476868D01*
X85728710Y-83395103D01*
X86348208Y-83395103D01*
X87197000Y-84243895D01*
X88045792Y-83395103D01*
X87968157Y-83146028D01*
X87704117Y-83020129D01*
X87420589Y-82948161D01*
X87128469Y-82932889D01*
X86838981Y-82974901D01*
X86563253Y-83072581D01*
X86425843Y-83146028D01*
X86348208Y-83395103D01*
X85728710Y-83395103D01*
X85603632Y-83270025D01*
X85360411Y-83107510D01*
X85090158Y-82995568D01*
X84803260Y-82938500D01*
X84510740Y-82938500D01*
X84223842Y-82995568D01*
X83953589Y-83107510D01*
X83710368Y-83270025D01*
X83503525Y-83476868D01*
X83387000Y-83651260D01*
X83270475Y-83476868D01*
X83063632Y-83270025D01*
X82820411Y-83107510D01*
X82550158Y-82995568D01*
X82263260Y-82938500D01*
X81970740Y-82938500D01*
X81683842Y-82995568D01*
X81413589Y-83107510D01*
X81170368Y-83270025D01*
X80963525Y-83476868D01*
X80847689Y-83650229D01*
X80605397Y-83574708D01*
X79756605Y-84423500D01*
X79397395Y-84423500D01*
X78548603Y-83574708D01*
X78299528Y-83652343D01*
X78173629Y-83916383D01*
X78101661Y-84199911D01*
X78086389Y-84492031D01*
X47932000Y-84492031D01*
X47932000Y-83395103D01*
X78728208Y-83395103D01*
X79577000Y-84243895D01*
X80425792Y-83395103D01*
X80348157Y-83146028D01*
X80084117Y-83020129D01*
X79800589Y-82948161D01*
X79508469Y-82932889D01*
X79218981Y-82974901D01*
X78943253Y-83072581D01*
X78805843Y-83146028D01*
X78728208Y-83395103D01*
X47932000Y-83395103D01*
X47932000Y-76872170D01*
X52353340Y-76872170D01*
X52353340Y-77333830D01*
X52443406Y-77786620D01*
X52620075Y-78213139D01*
X52876560Y-78596996D01*
X53203004Y-78923440D01*
X53586861Y-79179925D01*
X54013380Y-79356594D01*
X54466170Y-79446660D01*
X54927830Y-79446660D01*
X55380620Y-79356594D01*
X55807139Y-79179925D01*
X56190996Y-78923440D01*
X56517440Y-78596996D01*
X56773925Y-78213139D01*
X56950594Y-77786620D01*
X57040660Y-77333830D01*
X57040660Y-76872170D01*
X117353340Y-76872170D01*
X117353340Y-77333830D01*
X117443406Y-77786620D01*
X117620075Y-78213139D01*
X117876560Y-78596996D01*
X118203004Y-78923440D01*
X118586861Y-79179925D01*
X119013380Y-79356594D01*
X119466170Y-79446660D01*
X119927830Y-79446660D01*
X120380620Y-79356594D01*
X120807139Y-79179925D01*
X121190996Y-78923440D01*
X121517440Y-78596996D01*
X121773925Y-78213139D01*
X121950594Y-77786620D01*
X122040660Y-77333830D01*
X122040660Y-76872170D01*
X121950594Y-76419380D01*
X121773925Y-75992861D01*
X121517440Y-75609004D01*
X121190996Y-75282560D01*
X120807139Y-75026075D01*
X120380620Y-74849406D01*
X119927830Y-74759340D01*
X119466170Y-74759340D01*
X119013380Y-74849406D01*
X118586861Y-75026075D01*
X118203004Y-75282560D01*
X117876560Y-75609004D01*
X117620075Y-75992861D01*
X117443406Y-76419380D01*
X117353340Y-76872170D01*
X57040660Y-76872170D01*
X56950594Y-76419380D01*
X56773925Y-75992861D01*
X56517440Y-75609004D01*
X56190996Y-75282560D01*
X55807139Y-75026075D01*
X55380620Y-74849406D01*
X54927830Y-74759340D01*
X54466170Y-74759340D01*
X54013380Y-74849406D01*
X53586861Y-75026075D01*
X53203004Y-75282560D01*
X52876560Y-75609004D01*
X52620075Y-75992861D01*
X52443406Y-76419380D01*
X52353340Y-76872170D01*
X47932000Y-76872170D01*
X47932000Y-74632732D01*
X48002234Y-73845784D01*
X48202043Y-73115402D01*
X48528032Y-72431952D01*
X48539315Y-72416250D01*
X78092000Y-72416250D01*
X78092000Y-72708770D01*
X78149068Y-72995668D01*
X78261010Y-73265921D01*
X78423525Y-73509142D01*
X78630368Y-73715985D01*
X78804760Y-73832510D01*
X78630368Y-73949035D01*
X78423525Y-74155878D01*
X78261010Y-74399099D01*
X78149068Y-74669352D01*
X78092000Y-74956250D01*
X78092000Y-75248770D01*
X78149068Y-75535668D01*
X78261010Y-75805921D01*
X78423525Y-76049142D01*
X78630368Y-76255985D01*
X78873589Y-76418500D01*
X79143842Y-76530442D01*
X79430740Y-76587510D01*
X79723260Y-76587510D01*
X80010158Y-76530442D01*
X80280411Y-76418500D01*
X80523632Y-76255985D01*
X80730475Y-76049142D01*
X80892990Y-75805921D01*
X81004932Y-75535668D01*
X81062000Y-75248770D01*
X81062000Y-74956250D01*
X81004932Y-74669352D01*
X80892990Y-74399099D01*
X80730475Y-74155878D01*
X80523632Y-73949035D01*
X80349240Y-73832510D01*
X80523632Y-73715985D01*
X80730475Y-73509142D01*
X80892990Y-73265921D01*
X81004932Y-72995668D01*
X81062000Y-72708770D01*
X81062000Y-72416250D01*
X93332000Y-72416250D01*
X93332000Y-72708770D01*
X93389068Y-72995668D01*
X93501010Y-73265921D01*
X93663525Y-73509142D01*
X93870368Y-73715985D01*
X94044760Y-73832510D01*
X93870368Y-73949035D01*
X93663525Y-74155878D01*
X93501010Y-74399099D01*
X93389068Y-74669352D01*
X93332000Y-74956250D01*
X93332000Y-75248770D01*
X93389068Y-75535668D01*
X93501010Y-75805921D01*
X93663525Y-76049142D01*
X93870368Y-76255985D01*
X94113589Y-76418500D01*
X94383842Y-76530442D01*
X94670740Y-76587510D01*
X94963260Y-76587510D01*
X95250158Y-76530442D01*
X95520411Y-76418500D01*
X95763632Y-76255985D01*
X95970475Y-76049142D01*
X96132990Y-75805921D01*
X96244932Y-75535668D01*
X96302000Y-75248770D01*
X96302000Y-74956250D01*
X96244932Y-74669352D01*
X96132990Y-74399099D01*
X95970475Y-74155878D01*
X95763632Y-73949035D01*
X95589240Y-73832510D01*
X95763632Y-73715985D01*
X95970475Y-73509142D01*
X96132990Y-73265921D01*
X96244932Y-72995668D01*
X96302000Y-72708770D01*
X96302000Y-72416250D01*
X96244932Y-72129352D01*
X96132990Y-71859099D01*
X95970475Y-71615878D01*
X95763632Y-71409035D01*
X95520411Y-71246520D01*
X95250158Y-71134578D01*
X94963260Y-71077510D01*
X94670740Y-71077510D01*
X94383842Y-71134578D01*
X94113589Y-71246520D01*
X93870368Y-71409035D01*
X93663525Y-71615878D01*
X93501010Y-71859099D01*
X93389068Y-72129352D01*
X93332000Y-72416250D01*
X81062000Y-72416250D01*
X81004932Y-72129352D01*
X80892990Y-71859099D01*
X80730475Y-71615878D01*
X80523632Y-71409035D01*
X80280411Y-71246520D01*
X80010158Y-71134578D01*
X79723260Y-71077510D01*
X79430740Y-71077510D01*
X79143842Y-71134578D01*
X78873589Y-71246520D01*
X78630368Y-71409035D01*
X78423525Y-71615878D01*
X78261010Y-71859099D01*
X78149068Y-72129352D01*
X78092000Y-72416250D01*
X48539315Y-72416250D01*
X48969897Y-71817032D01*
X49513675Y-71290075D01*
X50142174Y-70867741D01*
X50835528Y-70563379D01*
X51577476Y-70385254D01*
X52220949Y-70338000D01*
X122167268Y-70338000D01*
X122954216Y-70408234D01*
%TA.AperFunction,Conductor*%
D18*
G36*
X122954216Y-70408234D02*
G01*
X123684598Y-70608043D01*
X124368048Y-70934032D01*
X124982968Y-71375897D01*
X125509925Y-71919675D01*
X125932259Y-72548174D01*
X126236621Y-73241528D01*
X126414746Y-73983476D01*
X126462000Y-74626949D01*
X126462001Y-144573257D01*
X126391766Y-145360216D01*
X126191957Y-146090597D01*
X125865968Y-146774048D01*
X125424103Y-147388968D01*
X124880323Y-147915927D01*
X124251828Y-148338257D01*
X123558472Y-148642621D01*
X122816524Y-148820746D01*
X122173051Y-148868000D01*
X52226732Y-148868000D01*
X51439784Y-148797766D01*
X50709403Y-148597957D01*
X50025952Y-148271968D01*
X49411032Y-147830103D01*
X48884073Y-147286323D01*
X48461743Y-146657828D01*
X48157379Y-145964472D01*
X47979254Y-145222524D01*
X47932000Y-144579051D01*
X47932000Y-141872170D01*
X52353340Y-141872170D01*
X52353340Y-142333830D01*
X52443406Y-142786620D01*
X52620075Y-143213139D01*
X52876560Y-143596996D01*
X53203004Y-143923440D01*
X53586861Y-144179925D01*
X54013380Y-144356594D01*
X54466170Y-144446660D01*
X54927830Y-144446660D01*
X55380620Y-144356594D01*
X55807139Y-144179925D01*
X56190996Y-143923440D01*
X56517440Y-143596996D01*
X56773925Y-143213139D01*
X56950594Y-142786620D01*
X57040660Y-142333830D01*
X57040660Y-141872170D01*
X117353340Y-141872170D01*
X117353340Y-142333830D01*
X117443406Y-142786620D01*
X117620075Y-143213139D01*
X117876560Y-143596996D01*
X118203004Y-143923440D01*
X118586861Y-144179925D01*
X119013380Y-144356594D01*
X119466170Y-144446660D01*
X119927830Y-144446660D01*
X120380620Y-144356594D01*
X120807139Y-144179925D01*
X121190996Y-143923440D01*
X121517440Y-143596996D01*
X121773925Y-143213139D01*
X121950594Y-142786620D01*
X122040660Y-142333830D01*
X122040660Y-141872170D01*
X121950594Y-141419380D01*
X121773925Y-140992861D01*
X121517440Y-140609004D01*
X121190996Y-140282560D01*
X120807139Y-140026075D01*
X120380620Y-139849406D01*
X119927830Y-139759340D01*
X119466170Y-139759340D01*
X119013380Y-139849406D01*
X118586861Y-140026075D01*
X118203004Y-140282560D01*
X117876560Y-140609004D01*
X117620075Y-140992861D01*
X117443406Y-141419380D01*
X117353340Y-141872170D01*
X57040660Y-141872170D01*
X56950594Y-141419380D01*
X56773925Y-140992861D01*
X56517440Y-140609004D01*
X56190996Y-140282560D01*
X55807139Y-140026075D01*
X55380620Y-139849406D01*
X54927830Y-139759340D01*
X54466170Y-139759340D01*
X54013380Y-139849406D01*
X53586861Y-140026075D01*
X53203004Y-140282560D01*
X52876560Y-140609004D01*
X52620075Y-140992861D01*
X52443406Y-141419380D01*
X52353340Y-141872170D01*
X47932000Y-141872170D01*
X47932000Y-122956652D01*
X52131100Y-122956652D01*
X52131100Y-123249348D01*
X52188202Y-123536421D01*
X52300212Y-123806838D01*
X52462826Y-124050206D01*
X52669794Y-124257174D01*
X52913162Y-124419788D01*
X53183579Y-124531798D01*
X53470652Y-124588900D01*
X53763348Y-124588900D01*
X54050421Y-124531798D01*
X54320838Y-124419788D01*
X54564206Y-124257174D01*
X54771174Y-124050206D01*
X54933788Y-123806838D01*
X55045798Y-123536421D01*
X55102900Y-123249348D01*
X55102900Y-122956652D01*
X55051451Y-122698000D01*
X55097279Y-122698000D01*
X55509756Y-122615953D01*
X55898302Y-122455012D01*
X56204708Y-122250279D01*
X56169127Y-122336178D01*
X56068100Y-122844076D01*
X56068100Y-123361924D01*
X56169127Y-123869822D01*
X56367299Y-124348251D01*
X56655000Y-124778826D01*
X57021174Y-125145000D01*
X57451749Y-125432701D01*
X57874958Y-125608000D01*
X57031135Y-125608000D01*
X56997000Y-125604638D01*
X56962866Y-125608000D01*
X56962865Y-125608000D01*
X56860756Y-125618057D01*
X56729748Y-125657798D01*
X56609011Y-125722333D01*
X56503183Y-125809183D01*
X56416333Y-125915011D01*
X56351798Y-126035748D01*
X56312057Y-126166756D01*
X56298638Y-126303000D01*
X56302001Y-126337145D01*
X56302000Y-129268865D01*
X56298638Y-129303000D01*
X56312057Y-129439244D01*
X56351798Y-129570252D01*
X56416333Y-129690989D01*
X56503183Y-129796817D01*
X56609011Y-129883667D01*
X56729748Y-129948202D01*
X56860756Y-129987943D01*
X56997000Y-130001362D01*
X57031134Y-129998000D01*
X60362865Y-129998000D01*
X60397000Y-130001362D01*
X60431134Y-129998000D01*
X60431135Y-129998000D01*
X60533244Y-129987943D01*
X60664252Y-129948202D01*
X60784989Y-129883667D01*
X60890817Y-129796817D01*
X60977667Y-129690989D01*
X61042202Y-129570252D01*
X61081943Y-129439244D01*
X61095362Y-129303000D01*
X61092000Y-129268865D01*
X61092000Y-126337135D01*
X61095362Y-126303000D01*
X61081943Y-126166756D01*
X61042202Y-126035748D01*
X60977667Y-125915011D01*
X60890817Y-125809183D01*
X60784989Y-125722333D01*
X60664252Y-125657798D01*
X60533244Y-125618057D01*
X60431135Y-125608000D01*
X60397000Y-125604638D01*
X60362866Y-125608000D01*
X59519042Y-125608000D01*
X59942251Y-125432701D01*
X60372826Y-125145000D01*
X60739000Y-124778826D01*
X61026701Y-124348251D01*
X61224873Y-123869822D01*
X61325900Y-123361924D01*
X61325900Y-122956652D01*
X62291100Y-122956652D01*
X62291100Y-123249348D01*
X62348202Y-123536421D01*
X62460212Y-123806838D01*
X62622826Y-124050206D01*
X62829794Y-124257174D01*
X63073162Y-124419788D01*
X63343579Y-124531798D01*
X63630652Y-124588900D01*
X63923348Y-124588900D01*
X64210421Y-124531798D01*
X64480838Y-124419788D01*
X64724206Y-124257174D01*
X64931174Y-124050206D01*
X65093788Y-123806838D01*
X65205798Y-123536421D01*
X65262900Y-123249348D01*
X65262900Y-122956652D01*
X65205798Y-122669579D01*
X65093788Y-122399162D01*
X64931174Y-122155794D01*
X64724206Y-121948826D01*
X64480838Y-121786212D01*
X64210421Y-121674202D01*
X63923348Y-121617100D01*
X63630652Y-121617100D01*
X63343579Y-121674202D01*
X63073162Y-121786212D01*
X62829794Y-121948826D01*
X62622826Y-122155794D01*
X62460212Y-122399162D01*
X62348202Y-122669579D01*
X62291100Y-122956652D01*
X61325900Y-122956652D01*
X61325900Y-122844076D01*
X61224873Y-122336178D01*
X61026701Y-121857749D01*
X60739000Y-121427174D01*
X60372826Y-121061000D01*
X59942251Y-120773299D01*
X59463822Y-120575127D01*
X58955924Y-120474100D01*
X58438076Y-120474100D01*
X57930178Y-120575127D01*
X57451749Y-120773299D01*
X57021174Y-121061000D01*
X56950763Y-121131411D01*
X57022000Y-120773279D01*
X57022000Y-120352721D01*
X56939953Y-119940244D01*
X56779012Y-119551698D01*
X56545363Y-119202017D01*
X56247983Y-118904637D01*
X55898302Y-118670988D01*
X55509756Y-118510047D01*
X55097279Y-118428000D01*
X54676721Y-118428000D01*
X54264244Y-118510047D01*
X53875698Y-118670988D01*
X53526017Y-118904637D01*
X53228637Y-119202017D01*
X52994988Y-119551698D01*
X52834047Y-119940244D01*
X52752000Y-120352721D01*
X52752000Y-120773279D01*
X52834047Y-121185756D01*
X52994988Y-121574302D01*
X53088150Y-121713730D01*
X52913162Y-121786212D01*
X52669794Y-121948826D01*
X52462826Y-122155794D01*
X52300212Y-122399162D01*
X52188202Y-122669579D01*
X52131100Y-122956652D01*
X47932000Y-122956652D01*
X47932000Y-117812721D01*
X59102000Y-117812721D01*
X59102000Y-118233279D01*
X59184047Y-118645756D01*
X59344988Y-119034302D01*
X59578637Y-119383983D01*
X59876017Y-119681363D01*
X60225698Y-119915012D01*
X60614244Y-120075953D01*
X61026721Y-120158000D01*
X61447279Y-120158000D01*
X61859756Y-120075953D01*
X62248302Y-119915012D01*
X62597983Y-119681363D01*
X62895363Y-119383983D01*
X63129012Y-119034302D01*
X63289953Y-118645756D01*
X63372000Y-118233279D01*
X63372000Y-117812721D01*
X63289953Y-117400244D01*
X63129012Y-117011698D01*
X62895363Y-116662017D01*
X62597983Y-116364637D01*
X62248302Y-116130988D01*
X61859756Y-115970047D01*
X61447279Y-115888000D01*
X61026721Y-115888000D01*
X60614244Y-115970047D01*
X60225698Y-116130988D01*
X59876017Y-116364637D01*
X59578637Y-116662017D01*
X59344988Y-117011698D01*
X59184047Y-117400244D01*
X59102000Y-117812721D01*
X47932000Y-117812721D01*
X47932000Y-95956652D01*
X52131100Y-95956652D01*
X52131100Y-96249348D01*
X52188202Y-96536421D01*
X52300212Y-96806838D01*
X52462826Y-97050206D01*
X52669794Y-97257174D01*
X52913162Y-97419788D01*
X53183579Y-97531798D01*
X53470652Y-97588900D01*
X53763348Y-97588900D01*
X54050421Y-97531798D01*
X54320838Y-97419788D01*
X54564206Y-97257174D01*
X54771174Y-97050206D01*
X54933788Y-96806838D01*
X55045798Y-96536421D01*
X55102900Y-96249348D01*
X55102900Y-95956652D01*
X55051451Y-95698000D01*
X55097279Y-95698000D01*
X55509756Y-95615953D01*
X55898302Y-95455012D01*
X56204708Y-95250279D01*
X56169127Y-95336178D01*
X56068100Y-95844076D01*
X56068100Y-96361924D01*
X56169127Y-96869822D01*
X56367299Y-97348251D01*
X56655000Y-97778826D01*
X57021174Y-98145000D01*
X57451749Y-98432701D01*
X57874958Y-98608000D01*
X57031135Y-98608000D01*
X56997000Y-98604638D01*
X56962866Y-98608000D01*
X56962865Y-98608000D01*
X56860756Y-98618057D01*
X56729748Y-98657798D01*
X56609011Y-98722333D01*
X56503183Y-98809183D01*
X56416333Y-98915011D01*
X56351798Y-99035748D01*
X56312057Y-99166756D01*
X56298638Y-99303000D01*
X56302001Y-99337145D01*
X56302000Y-102268865D01*
X56298638Y-102303000D01*
X56312057Y-102439244D01*
X56351798Y-102570252D01*
X56416333Y-102690989D01*
X56503183Y-102796817D01*
X56600172Y-102876413D01*
X56609011Y-102883667D01*
X56729748Y-102948202D01*
X56860756Y-102987943D01*
X56997000Y-103001362D01*
X57031134Y-102998000D01*
X59941000Y-102998000D01*
X59941000Y-103127239D01*
X59980774Y-103327198D01*
X60058795Y-103515556D01*
X60172063Y-103685074D01*
X60316226Y-103829237D01*
X60485744Y-103942505D01*
X60674102Y-104020526D01*
X60874061Y-104060300D01*
X61077939Y-104060300D01*
X61277898Y-104020526D01*
X61466256Y-103942505D01*
X61635774Y-103829237D01*
X61679711Y-103785300D01*
X79516762Y-103785300D01*
X79613563Y-103930174D01*
X79757726Y-104074337D01*
X79927244Y-104187605D01*
X80115602Y-104265626D01*
X80315561Y-104305400D01*
X80519439Y-104305400D01*
X80719398Y-104265626D01*
X80907756Y-104187605D01*
X81077274Y-104074337D01*
X81221437Y-103930174D01*
X81334705Y-103760656D01*
X81394458Y-103616400D01*
X91660797Y-103616400D01*
X83451199Y-111826000D01*
X65135311Y-111826000D01*
X65091374Y-111782063D01*
X64921856Y-111668795D01*
X64733498Y-111590774D01*
X64533539Y-111551000D01*
X64329661Y-111551000D01*
X64129702Y-111590774D01*
X63941344Y-111668795D01*
X63771826Y-111782063D01*
X63627663Y-111926226D01*
X63514395Y-112095744D01*
X63436374Y-112284102D01*
X63396600Y-112484061D01*
X63396600Y-112687939D01*
X63436374Y-112887898D01*
X63514395Y-113076256D01*
X63525213Y-113092446D01*
X63500158Y-113082068D01*
X63213260Y-113025000D01*
X62920740Y-113025000D01*
X62633842Y-113082068D01*
X62363589Y-113194010D01*
X62120368Y-113356525D01*
X61913525Y-113563368D01*
X61751010Y-113806589D01*
X61639068Y-114076842D01*
X61582000Y-114363740D01*
X61582000Y-114656260D01*
X61639068Y-114943158D01*
X61751010Y-115213411D01*
X61913525Y-115456632D01*
X62120368Y-115663475D01*
X62363589Y-115825990D01*
X62633842Y-115937932D01*
X62920740Y-115995000D01*
X63213260Y-115995000D01*
X63500158Y-115937932D01*
X63770411Y-115825990D01*
X64013632Y-115663475D01*
X64220475Y-115456632D01*
X64337000Y-115282240D01*
X64453525Y-115456632D01*
X64660368Y-115663475D01*
X64903589Y-115825990D01*
X65173842Y-115937932D01*
X65460740Y-115995000D01*
X65753260Y-115995000D01*
X66040158Y-115937932D01*
X66211601Y-115866918D01*
X66211600Y-126895298D01*
X62555998Y-130550901D01*
X62527000Y-130574699D01*
X62503202Y-130603697D01*
X62503201Y-130603698D01*
X62432026Y-130690424D01*
X62361454Y-130822454D01*
X62317998Y-130965715D01*
X62313912Y-131007203D01*
X62120368Y-131136525D01*
X61913525Y-131343368D01*
X61751010Y-131586589D01*
X61639068Y-131856842D01*
X61582000Y-132143740D01*
X61582000Y-132436260D01*
X61639068Y-132723158D01*
X61751010Y-132993411D01*
X61913525Y-133236632D01*
X62120368Y-133443475D01*
X62363589Y-133605990D01*
X62633842Y-133717932D01*
X62920740Y-133775000D01*
X63213260Y-133775000D01*
X63500158Y-133717932D01*
X63770411Y-133605990D01*
X64013632Y-133443475D01*
X64220475Y-133236632D01*
X64337000Y-133062240D01*
X64453525Y-133236632D01*
X64660368Y-133443475D01*
X64903589Y-133605990D01*
X65173842Y-133717932D01*
X65460740Y-133775000D01*
X65753260Y-133775000D01*
X65973408Y-133731209D01*
X67612301Y-135370103D01*
X67636099Y-135399101D01*
X67665097Y-135422899D01*
X67751823Y-135494074D01*
X67883853Y-135564646D01*
X68027114Y-135608103D01*
X68138767Y-135619100D01*
X68138776Y-135619100D01*
X68176099Y-135622776D01*
X68213422Y-135619100D01*
X100237778Y-135619100D01*
X100275100Y-135622776D01*
X100312422Y-135619100D01*
X100312433Y-135619100D01*
X100424086Y-135608103D01*
X100567347Y-135564646D01*
X100699376Y-135494074D01*
X100815101Y-135399101D01*
X100838904Y-135370097D01*
X102763461Y-133445541D01*
X103003589Y-133605990D01*
X103273842Y-133717932D01*
X103560740Y-133775000D01*
X103853260Y-133775000D01*
X104140158Y-133717932D01*
X104410411Y-133605990D01*
X104653632Y-133443475D01*
X104785487Y-133311620D01*
X104807498Y-133384180D01*
X104866463Y-133494494D01*
X104945815Y-133591185D01*
X105042506Y-133670537D01*
X105152820Y-133729502D01*
X105272518Y-133765812D01*
X105397000Y-133778072D01*
X105961250Y-133775000D01*
X106120000Y-133616250D01*
X106120000Y-132417000D01*
X106100000Y-132417000D01*
X106100000Y-132163000D01*
X106120000Y-132163000D01*
X106120000Y-130963750D01*
X106374000Y-130963750D01*
X106374000Y-132163000D01*
X106394000Y-132163000D01*
X106394000Y-132417000D01*
X106374000Y-132417000D01*
X106374000Y-133616250D01*
X106532750Y-133775000D01*
X107097000Y-133778072D01*
X107221482Y-133765812D01*
X107341180Y-133729502D01*
X107451494Y-133670537D01*
X107548185Y-133591185D01*
X107627537Y-133494494D01*
X107686502Y-133384180D01*
X107708513Y-133311620D01*
X107840368Y-133443475D01*
X108083589Y-133605990D01*
X108353842Y-133717932D01*
X108640740Y-133775000D01*
X108933260Y-133775000D01*
X109220158Y-133717932D01*
X109490411Y-133605990D01*
X109733632Y-133443475D01*
X109940475Y-133236632D01*
X110057000Y-133062240D01*
X110173525Y-133236632D01*
X110380368Y-133443475D01*
X110623589Y-133605990D01*
X110893842Y-133717932D01*
X111180740Y-133775000D01*
X111473260Y-133775000D01*
X111760158Y-133717932D01*
X112030411Y-133605990D01*
X112273632Y-133443475D01*
X112480475Y-133236632D01*
X112642990Y-132993411D01*
X112754932Y-132723158D01*
X112812000Y-132436260D01*
X112812000Y-132143740D01*
X112754932Y-131856842D01*
X112642990Y-131586589D01*
X112480475Y-131343368D01*
X112273632Y-131136525D01*
X112030411Y-130974010D01*
X111760158Y-130862068D01*
X111473260Y-130805000D01*
X111180740Y-130805000D01*
X110893842Y-130862068D01*
X110623589Y-130974010D01*
X110380368Y-131136525D01*
X110173525Y-131343368D01*
X110057000Y-131517760D01*
X109940475Y-131343368D01*
X109733632Y-131136525D01*
X109490411Y-130974010D01*
X109220158Y-130862068D01*
X108933260Y-130805000D01*
X108640740Y-130805000D01*
X108353842Y-130862068D01*
X108083589Y-130974010D01*
X107840368Y-131136525D01*
X107708513Y-131268380D01*
X107686502Y-131195820D01*
X107627537Y-131085506D01*
X107548185Y-130988815D01*
X107451494Y-130909463D01*
X107341180Y-130850498D01*
X107221482Y-130814188D01*
X107097000Y-130801928D01*
X106532750Y-130805000D01*
X106374000Y-130963750D01*
X106120000Y-130963750D01*
X105961250Y-130805000D01*
X105397000Y-130801928D01*
X105272518Y-130814188D01*
X105152820Y-130850498D01*
X105042506Y-130909463D01*
X104945815Y-130988815D01*
X104866463Y-131085506D01*
X104807498Y-131195820D01*
X104785487Y-131268380D01*
X104653632Y-131136525D01*
X104410411Y-130974010D01*
X104364011Y-130954791D01*
X104584402Y-130734400D01*
X109075878Y-130734400D01*
X109113200Y-130738076D01*
X109150522Y-130734400D01*
X109150533Y-130734400D01*
X109262186Y-130723403D01*
X109405447Y-130679946D01*
X109537476Y-130609374D01*
X109653201Y-130514401D01*
X109677004Y-130485397D01*
X113302001Y-126860401D01*
X113302000Y-129268865D01*
X113298638Y-129303000D01*
X113312057Y-129439244D01*
X113351798Y-129570252D01*
X113416333Y-129690989D01*
X113503183Y-129796817D01*
X113609011Y-129883667D01*
X113729748Y-129948202D01*
X113860756Y-129987943D01*
X113997000Y-130001362D01*
X114031134Y-129998000D01*
X117362865Y-129998000D01*
X117397000Y-130001362D01*
X117431134Y-129998000D01*
X117431135Y-129998000D01*
X117533244Y-129987943D01*
X117664252Y-129948202D01*
X117784989Y-129883667D01*
X117890817Y-129796817D01*
X117977667Y-129690989D01*
X118042202Y-129570252D01*
X118081943Y-129439244D01*
X118095362Y-129303000D01*
X118092000Y-129268865D01*
X118092000Y-126337135D01*
X118095362Y-126303000D01*
X118081943Y-126166756D01*
X118042202Y-126035748D01*
X117977667Y-125915011D01*
X117890817Y-125809183D01*
X117784989Y-125722333D01*
X117664252Y-125657798D01*
X117533244Y-125618057D01*
X117431135Y-125608000D01*
X117397000Y-125604638D01*
X117362866Y-125608000D01*
X116519042Y-125608000D01*
X116942251Y-125432701D01*
X117372826Y-125145000D01*
X117739000Y-124778826D01*
X118026701Y-124348251D01*
X118224873Y-123869822D01*
X118325900Y-123361924D01*
X118325900Y-122956652D01*
X119291100Y-122956652D01*
X119291100Y-123249348D01*
X119348202Y-123536421D01*
X119460212Y-123806838D01*
X119622826Y-124050206D01*
X119829794Y-124257174D01*
X120073162Y-124419788D01*
X120343579Y-124531798D01*
X120630652Y-124588900D01*
X120923348Y-124588900D01*
X121210421Y-124531798D01*
X121480838Y-124419788D01*
X121724206Y-124257174D01*
X121931174Y-124050206D01*
X122093788Y-123806838D01*
X122205798Y-123536421D01*
X122262900Y-123249348D01*
X122262900Y-122956652D01*
X122205798Y-122669579D01*
X122093788Y-122399162D01*
X121931174Y-122155794D01*
X121724206Y-121948826D01*
X121480838Y-121786212D01*
X121210421Y-121674202D01*
X120923348Y-121617100D01*
X120630652Y-121617100D01*
X120343579Y-121674202D01*
X120073162Y-121786212D01*
X119829794Y-121948826D01*
X119622826Y-122155794D01*
X119460212Y-122399162D01*
X119348202Y-122669579D01*
X119291100Y-122956652D01*
X118325900Y-122956652D01*
X118325900Y-122844076D01*
X118224873Y-122336178D01*
X118026701Y-121857749D01*
X117739000Y-121427174D01*
X117372826Y-121061000D01*
X116942251Y-120773299D01*
X116463822Y-120575127D01*
X115955924Y-120474100D01*
X115843480Y-120474100D01*
X115861126Y-120431498D01*
X115900900Y-120231539D01*
X115900900Y-120027661D01*
X115861126Y-119827702D01*
X115783105Y-119639344D01*
X115669837Y-119469826D01*
X115525674Y-119325663D01*
X115356156Y-119212395D01*
X115167798Y-119134374D01*
X114967839Y-119094600D01*
X114763961Y-119094600D01*
X114564002Y-119134374D01*
X114375644Y-119212395D01*
X114206126Y-119325663D01*
X114061963Y-119469826D01*
X113948695Y-119639344D01*
X113882005Y-119800346D01*
X113779012Y-119551698D01*
X113545363Y-119202017D01*
X113247983Y-118904637D01*
X112898302Y-118670988D01*
X112509756Y-118510047D01*
X112097279Y-118428000D01*
X111676721Y-118428000D01*
X111264244Y-118510047D01*
X110875698Y-118670988D01*
X110526017Y-118904637D01*
X110228637Y-119202017D01*
X110060000Y-119454401D01*
X110060000Y-118651401D01*
X110898680Y-117812721D01*
X116102000Y-117812721D01*
X116102000Y-118233279D01*
X116184047Y-118645756D01*
X116344988Y-119034302D01*
X116578637Y-119383983D01*
X116876017Y-119681363D01*
X117225698Y-119915012D01*
X117614244Y-120075953D01*
X118026721Y-120158000D01*
X118447279Y-120158000D01*
X118859756Y-120075953D01*
X119248302Y-119915012D01*
X119597983Y-119681363D01*
X119895363Y-119383983D01*
X120129012Y-119034302D01*
X120289953Y-118645756D01*
X120372000Y-118233279D01*
X120372000Y-117812721D01*
X120289953Y-117400244D01*
X120129012Y-117011698D01*
X119895363Y-116662017D01*
X119597983Y-116364637D01*
X119248302Y-116130988D01*
X118859756Y-115970047D01*
X118447279Y-115888000D01*
X118026721Y-115888000D01*
X117614244Y-115970047D01*
X117225698Y-116130988D01*
X116876017Y-116364637D01*
X116578637Y-116662017D01*
X116344988Y-117011698D01*
X116184047Y-117400244D01*
X116102000Y-117812721D01*
X110898680Y-117812721D01*
X119741004Y-108970398D01*
X119770001Y-108946601D01*
X119864974Y-108830876D01*
X119935546Y-108698847D01*
X119979003Y-108555586D01*
X119990000Y-108443933D01*
X119990000Y-108443925D01*
X119993676Y-108406600D01*
X119990000Y-108369275D01*
X119990000Y-106975111D01*
X120033937Y-106931174D01*
X120147205Y-106761656D01*
X120225226Y-106573298D01*
X120265000Y-106373339D01*
X120265000Y-106169461D01*
X120225226Y-105969502D01*
X120147205Y-105781144D01*
X120033937Y-105611626D01*
X119889774Y-105467463D01*
X119720256Y-105354195D01*
X119531898Y-105276174D01*
X119331939Y-105236400D01*
X119128061Y-105236400D01*
X118928102Y-105276174D01*
X118739744Y-105354195D01*
X118570226Y-105467463D01*
X118426063Y-105611626D01*
X118312795Y-105781144D01*
X118234774Y-105969502D01*
X118195000Y-106169461D01*
X118195000Y-106373339D01*
X118234774Y-106573298D01*
X118312795Y-106761656D01*
X118426063Y-106931174D01*
X118470001Y-106975112D01*
X118470000Y-108091798D01*
X112675858Y-113885940D01*
X112642990Y-113806589D01*
X112480475Y-113563368D01*
X112273632Y-113356525D01*
X112030411Y-113194010D01*
X111760158Y-113082068D01*
X111473260Y-113025000D01*
X111180740Y-113025000D01*
X110893842Y-113082068D01*
X110623589Y-113194010D01*
X110380368Y-113356525D01*
X110173525Y-113563368D01*
X110057000Y-113737760D01*
X109940475Y-113563368D01*
X109733632Y-113356525D01*
X109490411Y-113194010D01*
X109220158Y-113082068D01*
X108933260Y-113025000D01*
X108640740Y-113025000D01*
X108353842Y-113082068D01*
X108083589Y-113194010D01*
X107840368Y-113356525D01*
X107708513Y-113488380D01*
X107686502Y-113415820D01*
X107627537Y-113305506D01*
X107548185Y-113208815D01*
X107451494Y-113129463D01*
X107341180Y-113070498D01*
X107221482Y-113034188D01*
X107097000Y-113021928D01*
X106532750Y-113025000D01*
X106374000Y-113183750D01*
X106374000Y-114383000D01*
X106394000Y-114383000D01*
X106394000Y-114637000D01*
X106374000Y-114637000D01*
X106374000Y-115836250D01*
X106532750Y-115995000D01*
X107097000Y-115998072D01*
X107221482Y-115985812D01*
X107341180Y-115949502D01*
X107451494Y-115890537D01*
X107548185Y-115811185D01*
X107627537Y-115714494D01*
X107686502Y-115604180D01*
X107708513Y-115531620D01*
X107840368Y-115663475D01*
X108083589Y-115825990D01*
X108120091Y-115841110D01*
X104872801Y-119088400D01*
X101092865Y-119088400D01*
X101129012Y-119034302D01*
X101289953Y-118645756D01*
X101372000Y-118233279D01*
X101372000Y-117812721D01*
X101289953Y-117400244D01*
X101129012Y-117011698D01*
X100895363Y-116662017D01*
X100597983Y-116364637D01*
X100248302Y-116130988D01*
X99859756Y-115970047D01*
X99447279Y-115888000D01*
X99180705Y-115888000D01*
X99330411Y-115825990D01*
X99573632Y-115663475D01*
X99780475Y-115456632D01*
X99897000Y-115282240D01*
X100013525Y-115456632D01*
X100220368Y-115663475D01*
X100463589Y-115825990D01*
X100733842Y-115937932D01*
X101020740Y-115995000D01*
X101313260Y-115995000D01*
X101600158Y-115937932D01*
X101870411Y-115825990D01*
X102113632Y-115663475D01*
X102320475Y-115456632D01*
X102437000Y-115282240D01*
X102553525Y-115456632D01*
X102760368Y-115663475D01*
X103003589Y-115825990D01*
X103273842Y-115937932D01*
X103560740Y-115995000D01*
X103853260Y-115995000D01*
X104140158Y-115937932D01*
X104410411Y-115825990D01*
X104653632Y-115663475D01*
X104785487Y-115531620D01*
X104807498Y-115604180D01*
X104866463Y-115714494D01*
X104945815Y-115811185D01*
X105042506Y-115890537D01*
X105152820Y-115949502D01*
X105272518Y-115985812D01*
X105397000Y-115998072D01*
X105961250Y-115995000D01*
X106120000Y-115836250D01*
X106120000Y-114637000D01*
X106100000Y-114637000D01*
X106100000Y-114383000D01*
X106120000Y-114383000D01*
X106120000Y-113183750D01*
X105961250Y-113025000D01*
X105397000Y-113021928D01*
X105272518Y-113034188D01*
X105152820Y-113070498D01*
X105042506Y-113129463D01*
X104945815Y-113208815D01*
X104866463Y-113305506D01*
X104807498Y-113415820D01*
X104785487Y-113488380D01*
X104653632Y-113356525D01*
X104410411Y-113194010D01*
X104140158Y-113082068D01*
X103853260Y-113025000D01*
X103560740Y-113025000D01*
X103273842Y-113082068D01*
X103003589Y-113194010D01*
X102760368Y-113356525D01*
X102553525Y-113563368D01*
X102437000Y-113737760D01*
X102320475Y-113563368D01*
X102113632Y-113356525D01*
X101870411Y-113194010D01*
X101600158Y-113082068D01*
X101313260Y-113025000D01*
X101020740Y-113025000D01*
X100733842Y-113082068D01*
X100463589Y-113194010D01*
X100220368Y-113356525D01*
X100013525Y-113563368D01*
X99897000Y-113737760D01*
X99780475Y-113563368D01*
X99573632Y-113356525D01*
X99330411Y-113194010D01*
X99060158Y-113082068D01*
X98773260Y-113025000D01*
X98480740Y-113025000D01*
X98193842Y-113082068D01*
X98117000Y-113113897D01*
X98117000Y-107957801D01*
X104891500Y-101183301D01*
X110884500Y-101183301D01*
X110884500Y-101816699D01*
X111008070Y-102437927D01*
X111250461Y-103023110D01*
X111602358Y-103549761D01*
X112050239Y-103997642D01*
X112576890Y-104349539D01*
X113162073Y-104591930D01*
X113783301Y-104715500D01*
X114416699Y-104715500D01*
X115037927Y-104591930D01*
X115623110Y-104349539D01*
X116149761Y-103997642D01*
X116597642Y-103549761D01*
X116949539Y-103023110D01*
X117191930Y-102437927D01*
X117315500Y-101816699D01*
X117315500Y-101183301D01*
X117191930Y-100562073D01*
X116949539Y-99976890D01*
X116597642Y-99450239D01*
X116149761Y-99002358D01*
X115623110Y-98650461D01*
X115037927Y-98408070D01*
X114416699Y-98284500D01*
X113783301Y-98284500D01*
X113162073Y-98408070D01*
X112576890Y-98650461D01*
X112050239Y-99002358D01*
X111602358Y-99450239D01*
X111250461Y-99976890D01*
X111008070Y-100562073D01*
X110884500Y-101183301D01*
X104891500Y-101183301D01*
X106191070Y-99883731D01*
X106448816Y-99935000D01*
X106751184Y-99935000D01*
X107047743Y-99876011D01*
X107327095Y-99760299D01*
X107578505Y-99592312D01*
X107792312Y-99378505D01*
X107960299Y-99127095D01*
X108076011Y-98847743D01*
X108135000Y-98551184D01*
X108135000Y-98248816D01*
X119565000Y-98248816D01*
X119565000Y-98551184D01*
X119623989Y-98847743D01*
X119739701Y-99127095D01*
X119907688Y-99378505D01*
X120121495Y-99592312D01*
X120372905Y-99760299D01*
X120652257Y-99876011D01*
X120948816Y-99935000D01*
X121251184Y-99935000D01*
X121547743Y-99876011D01*
X121827095Y-99760299D01*
X122078505Y-99592312D01*
X122292312Y-99378505D01*
X122460299Y-99127095D01*
X122576011Y-98847743D01*
X122635000Y-98551184D01*
X122635000Y-98248816D01*
X122576011Y-97952257D01*
X122460299Y-97672905D01*
X122292312Y-97421495D01*
X122078505Y-97207688D01*
X121827095Y-97039701D01*
X121547743Y-96923989D01*
X121251184Y-96865000D01*
X120948816Y-96865000D01*
X120652257Y-96923989D01*
X120372905Y-97039701D01*
X120121495Y-97207688D01*
X119907688Y-97421495D01*
X119739701Y-97672905D01*
X119623989Y-97952257D01*
X119565000Y-98248816D01*
X108135000Y-98248816D01*
X108076011Y-97952257D01*
X107960299Y-97672905D01*
X107792312Y-97421495D01*
X107578505Y-97207688D01*
X107435690Y-97112262D01*
X107484475Y-96964080D01*
X106600000Y-96079605D01*
X106585858Y-96093748D01*
X106406253Y-95914143D01*
X106420395Y-95900000D01*
X106779605Y-95900000D01*
X107664080Y-96784475D01*
X107918261Y-96700792D01*
X108049158Y-96428225D01*
X108124365Y-96135358D01*
X108140991Y-95833447D01*
X108098397Y-95534093D01*
X107998222Y-95248801D01*
X107918261Y-95099208D01*
X107664080Y-95015525D01*
X106779605Y-95900000D01*
X106420395Y-95900000D01*
X106406253Y-95885858D01*
X106585858Y-95706253D01*
X106600000Y-95720395D01*
X107484475Y-94835920D01*
X107435690Y-94687738D01*
X107578505Y-94592312D01*
X107792312Y-94378505D01*
X107960299Y-94127095D01*
X108076011Y-93847743D01*
X108135000Y-93551184D01*
X108135000Y-93248816D01*
X108076011Y-92952257D01*
X108051921Y-92894100D01*
X108907699Y-92894100D01*
X109924601Y-93911003D01*
X109948399Y-93940001D01*
X109977397Y-93963799D01*
X110064123Y-94034974D01*
X110196153Y-94105546D01*
X110339414Y-94149003D01*
X110451067Y-94160000D01*
X110451077Y-94160000D01*
X110488400Y-94163676D01*
X110525723Y-94160000D01*
X119761687Y-94160000D01*
X119907688Y-94378505D01*
X120121495Y-94592312D01*
X120372905Y-94760299D01*
X120652257Y-94876011D01*
X120948816Y-94935000D01*
X121251184Y-94935000D01*
X121547743Y-94876011D01*
X121827095Y-94760299D01*
X122078505Y-94592312D01*
X122292312Y-94378505D01*
X122460299Y-94127095D01*
X122576011Y-93847743D01*
X122635000Y-93551184D01*
X122635000Y-93248816D01*
X122576011Y-92952257D01*
X122460299Y-92672905D01*
X122292312Y-92421495D01*
X122078505Y-92207688D01*
X121827095Y-92039701D01*
X121547743Y-91923989D01*
X121251184Y-91865000D01*
X120948816Y-91865000D01*
X120652257Y-91923989D01*
X120372905Y-92039701D01*
X120121495Y-92207688D01*
X119907688Y-92421495D01*
X119761687Y-92640000D01*
X116307403Y-92640000D01*
X116597642Y-92349761D01*
X116949539Y-91823110D01*
X117191930Y-91237927D01*
X117315500Y-90616699D01*
X117315500Y-89983301D01*
X117191930Y-89362073D01*
X116949539Y-88776890D01*
X116597642Y-88250239D01*
X116149761Y-87802358D01*
X115623110Y-87450461D01*
X115037927Y-87208070D01*
X114416699Y-87084500D01*
X113783301Y-87084500D01*
X113162073Y-87208070D01*
X112576890Y-87450461D01*
X112050239Y-87802358D01*
X111602358Y-88250239D01*
X111250461Y-88776890D01*
X111008070Y-89362073D01*
X110884500Y-89983301D01*
X110884500Y-90616699D01*
X111008070Y-91237927D01*
X111250461Y-91823110D01*
X111602358Y-92349761D01*
X111892597Y-92640000D01*
X110803202Y-92640000D01*
X109786304Y-91623103D01*
X109762501Y-91594099D01*
X109646776Y-91499126D01*
X109514747Y-91428554D01*
X109371486Y-91385097D01*
X109259833Y-91374100D01*
X109259822Y-91374100D01*
X109222500Y-91370424D01*
X109185178Y-91374100D01*
X106112222Y-91374100D01*
X106074899Y-91370424D01*
X106037576Y-91374100D01*
X106037567Y-91374100D01*
X105925914Y-91385097D01*
X105782653Y-91428554D01*
X105650624Y-91499126D01*
X105534899Y-91594099D01*
X105511101Y-91623097D01*
X104333998Y-92800201D01*
X104305000Y-92823999D01*
X104281202Y-92852997D01*
X104281201Y-92852998D01*
X104210026Y-92939724D01*
X104139454Y-93071754D01*
X104095998Y-93215015D01*
X104081324Y-93364000D01*
X104085001Y-93401332D01*
X104085000Y-97154298D01*
X101425905Y-99813394D01*
X101378274Y-99765763D01*
X101208756Y-99652495D01*
X101020398Y-99574474D01*
X100820439Y-99534700D01*
X100616561Y-99534700D01*
X100416602Y-99574474D01*
X100228244Y-99652495D01*
X100058726Y-99765763D01*
X99914563Y-99909926D01*
X99801295Y-100079444D01*
X99723274Y-100267802D01*
X99683500Y-100467761D01*
X99683500Y-100671639D01*
X99709093Y-100800305D01*
X99092000Y-101417399D01*
X99092000Y-99337135D01*
X99095362Y-99303000D01*
X99081943Y-99166756D01*
X99042202Y-99035748D01*
X98977667Y-98915011D01*
X98890817Y-98809183D01*
X98784989Y-98722333D01*
X98664252Y-98657798D01*
X98533244Y-98618057D01*
X98431135Y-98608000D01*
X98397000Y-98604638D01*
X98362866Y-98608000D01*
X97519042Y-98608000D01*
X97942251Y-98432701D01*
X98372826Y-98145000D01*
X98739000Y-97778826D01*
X99026701Y-97348251D01*
X99224873Y-96869822D01*
X99325900Y-96361924D01*
X99325900Y-95956652D01*
X100291100Y-95956652D01*
X100291100Y-96249348D01*
X100348202Y-96536421D01*
X100460212Y-96806838D01*
X100622826Y-97050206D01*
X100829794Y-97257174D01*
X101073162Y-97419788D01*
X101343579Y-97531798D01*
X101630652Y-97588900D01*
X101923348Y-97588900D01*
X102210421Y-97531798D01*
X102480838Y-97419788D01*
X102724206Y-97257174D01*
X102931174Y-97050206D01*
X103093788Y-96806838D01*
X103205798Y-96536421D01*
X103262900Y-96249348D01*
X103262900Y-95956652D01*
X103205798Y-95669579D01*
X103093788Y-95399162D01*
X102931174Y-95155794D01*
X102724206Y-94948826D01*
X102480838Y-94786212D01*
X102210421Y-94674202D01*
X101923348Y-94617100D01*
X101630652Y-94617100D01*
X101343579Y-94674202D01*
X101073162Y-94786212D01*
X100829794Y-94948826D01*
X100622826Y-95155794D01*
X100460212Y-95399162D01*
X100348202Y-95669579D01*
X100291100Y-95956652D01*
X99325900Y-95956652D01*
X99325900Y-95844076D01*
X99224873Y-95336178D01*
X99026701Y-94857749D01*
X98739000Y-94427174D01*
X98372826Y-94061000D01*
X97942251Y-93773299D01*
X97463822Y-93575127D01*
X96955924Y-93474100D01*
X96438076Y-93474100D01*
X95930178Y-93575127D01*
X95451749Y-93773299D01*
X95021174Y-94061000D01*
X94950763Y-94131411D01*
X95022000Y-93773279D01*
X95022000Y-93352721D01*
X94939953Y-92940244D01*
X94779012Y-92551698D01*
X94545363Y-92202017D01*
X94247983Y-91904637D01*
X93898302Y-91670988D01*
X93509756Y-91510047D01*
X93097279Y-91428000D01*
X92676721Y-91428000D01*
X92264244Y-91510047D01*
X91875698Y-91670988D01*
X91526017Y-91904637D01*
X91228637Y-92202017D01*
X90994988Y-92551698D01*
X90834047Y-92940244D01*
X90752000Y-93352721D01*
X90752000Y-93773279D01*
X90834047Y-94185756D01*
X90994988Y-94574302D01*
X91088150Y-94713730D01*
X90913162Y-94786212D01*
X90669794Y-94948826D01*
X90462826Y-95155794D01*
X90300212Y-95399162D01*
X90188202Y-95669579D01*
X90131100Y-95956652D01*
X90131100Y-96249348D01*
X90188202Y-96536421D01*
X90300212Y-96806838D01*
X90462826Y-97050206D01*
X90669794Y-97257174D01*
X90913162Y-97419788D01*
X91183579Y-97531798D01*
X91470652Y-97588900D01*
X91763348Y-97588900D01*
X92050421Y-97531798D01*
X92320838Y-97419788D01*
X92564206Y-97257174D01*
X92771174Y-97050206D01*
X92933788Y-96806838D01*
X93045798Y-96536421D01*
X93102900Y-96249348D01*
X93102900Y-95956652D01*
X93051451Y-95698000D01*
X93097279Y-95698000D01*
X93509756Y-95615953D01*
X93898302Y-95455012D01*
X94204708Y-95250279D01*
X94169127Y-95336178D01*
X94068100Y-95844076D01*
X94068100Y-96361924D01*
X94169127Y-96869822D01*
X94367299Y-97348251D01*
X94655000Y-97778826D01*
X95021174Y-98145000D01*
X95451749Y-98432701D01*
X95874958Y-98608000D01*
X95031135Y-98608000D01*
X94997000Y-98604638D01*
X94962866Y-98608000D01*
X94962865Y-98608000D01*
X94860756Y-98618057D01*
X94729748Y-98657798D01*
X94609011Y-98722333D01*
X94503183Y-98809183D01*
X94416333Y-98915011D01*
X94351798Y-99035748D01*
X94312057Y-99166756D01*
X94298638Y-99303000D01*
X94302001Y-99337145D01*
X94302000Y-102265400D01*
X93771159Y-102265400D01*
X93717576Y-102221426D01*
X93585547Y-102150854D01*
X93442286Y-102107397D01*
X93330633Y-102096400D01*
X93330622Y-102096400D01*
X93293300Y-102092724D01*
X93255978Y-102096400D01*
X80957000Y-102096400D01*
X80957000Y-99727911D01*
X81000937Y-99683974D01*
X81114205Y-99514456D01*
X81192226Y-99326098D01*
X81232000Y-99126139D01*
X81232000Y-98922261D01*
X81192226Y-98722302D01*
X81114205Y-98533944D01*
X81000937Y-98364426D01*
X80856774Y-98220263D01*
X80687256Y-98106995D01*
X80498898Y-98028974D01*
X80298939Y-97989200D01*
X80095061Y-97989200D01*
X79895102Y-98028974D01*
X79706744Y-98106995D01*
X79537226Y-98220263D01*
X79393063Y-98364426D01*
X79279795Y-98533944D01*
X79249120Y-98608000D01*
X78519042Y-98608000D01*
X78942251Y-98432701D01*
X79372826Y-98145000D01*
X79739000Y-97778826D01*
X80026701Y-97348251D01*
X80224873Y-96869822D01*
X80325900Y-96361924D01*
X80325900Y-95956652D01*
X81291100Y-95956652D01*
X81291100Y-96249348D01*
X81348202Y-96536421D01*
X81460212Y-96806838D01*
X81622826Y-97050206D01*
X81829794Y-97257174D01*
X82073162Y-97419788D01*
X82343579Y-97531798D01*
X82630652Y-97588900D01*
X82923348Y-97588900D01*
X83210421Y-97531798D01*
X83480838Y-97419788D01*
X83724206Y-97257174D01*
X83931174Y-97050206D01*
X84093788Y-96806838D01*
X84205798Y-96536421D01*
X84262900Y-96249348D01*
X84262900Y-95956652D01*
X84205798Y-95669579D01*
X84093788Y-95399162D01*
X83931174Y-95155794D01*
X83724206Y-94948826D01*
X83480838Y-94786212D01*
X83210421Y-94674202D01*
X82923348Y-94617100D01*
X82630652Y-94617100D01*
X82343579Y-94674202D01*
X82073162Y-94786212D01*
X81829794Y-94948826D01*
X81622826Y-95155794D01*
X81460212Y-95399162D01*
X81348202Y-95669579D01*
X81291100Y-95956652D01*
X80325900Y-95956652D01*
X80325900Y-95844076D01*
X80224873Y-95336178D01*
X80026701Y-94857749D01*
X79739000Y-94427174D01*
X79372826Y-94061000D01*
X78942251Y-93773299D01*
X78463822Y-93575127D01*
X77955924Y-93474100D01*
X77438076Y-93474100D01*
X76930178Y-93575127D01*
X76451749Y-93773299D01*
X76021174Y-94061000D01*
X75950763Y-94131411D01*
X76022000Y-93773279D01*
X76022000Y-93352721D01*
X75939953Y-92940244D01*
X75779012Y-92551698D01*
X75545363Y-92202017D01*
X75247983Y-91904637D01*
X74898302Y-91670988D01*
X74509756Y-91510047D01*
X74097279Y-91428000D01*
X73676721Y-91428000D01*
X73264244Y-91510047D01*
X72875698Y-91670988D01*
X72526017Y-91904637D01*
X72228637Y-92202017D01*
X71994988Y-92551698D01*
X71834047Y-92940244D01*
X71752000Y-93352721D01*
X71752000Y-93773279D01*
X71834047Y-94185756D01*
X71994988Y-94574302D01*
X72088150Y-94713730D01*
X71913162Y-94786212D01*
X71669794Y-94948826D01*
X71462826Y-95155794D01*
X71300212Y-95399162D01*
X71188202Y-95669579D01*
X71131100Y-95956652D01*
X71131100Y-96249348D01*
X71188202Y-96536421D01*
X71300212Y-96806838D01*
X71462826Y-97050206D01*
X71669794Y-97257174D01*
X71913162Y-97419788D01*
X72183579Y-97531798D01*
X72470652Y-97588900D01*
X72763348Y-97588900D01*
X73050421Y-97531798D01*
X73320838Y-97419788D01*
X73564206Y-97257174D01*
X73771174Y-97050206D01*
X73933788Y-96806838D01*
X74045798Y-96536421D01*
X74102900Y-96249348D01*
X74102900Y-95956652D01*
X74051451Y-95698000D01*
X74097279Y-95698000D01*
X74509756Y-95615953D01*
X74898302Y-95455012D01*
X75204708Y-95250279D01*
X75169127Y-95336178D01*
X75068100Y-95844076D01*
X75068100Y-96361924D01*
X75169127Y-96869822D01*
X75367299Y-97348251D01*
X75655000Y-97778826D01*
X76021174Y-98145000D01*
X76451749Y-98432701D01*
X76874958Y-98608000D01*
X76031135Y-98608000D01*
X75997000Y-98604638D01*
X75962866Y-98608000D01*
X75962865Y-98608000D01*
X75860756Y-98618057D01*
X75729748Y-98657798D01*
X75609011Y-98722333D01*
X75503183Y-98809183D01*
X75416333Y-98915011D01*
X75351798Y-99035748D01*
X75312057Y-99166756D01*
X75298638Y-99303000D01*
X75302001Y-99337145D01*
X75302000Y-102265300D01*
X61679711Y-102265300D01*
X61635774Y-102221363D01*
X61466256Y-102108095D01*
X61277898Y-102030074D01*
X61092000Y-101993097D01*
X61092000Y-99337135D01*
X61095362Y-99303000D01*
X61081943Y-99166756D01*
X61042202Y-99035748D01*
X60977667Y-98915011D01*
X60890817Y-98809183D01*
X60784989Y-98722333D01*
X60664252Y-98657798D01*
X60533244Y-98618057D01*
X60431135Y-98608000D01*
X60397000Y-98604638D01*
X60362866Y-98608000D01*
X59519042Y-98608000D01*
X59942251Y-98432701D01*
X60372826Y-98145000D01*
X60739000Y-97778826D01*
X61026701Y-97348251D01*
X61224873Y-96869822D01*
X61325900Y-96361924D01*
X61325900Y-95956652D01*
X62291100Y-95956652D01*
X62291100Y-96249348D01*
X62348202Y-96536421D01*
X62460212Y-96806838D01*
X62622826Y-97050206D01*
X62829794Y-97257174D01*
X63073162Y-97419788D01*
X63343579Y-97531798D01*
X63630652Y-97588900D01*
X63923348Y-97588900D01*
X64210421Y-97531798D01*
X64480838Y-97419788D01*
X64724206Y-97257174D01*
X64931174Y-97050206D01*
X65093788Y-96806838D01*
X65205798Y-96536421D01*
X65262900Y-96249348D01*
X65262900Y-95956652D01*
X65205798Y-95669579D01*
X65093788Y-95399162D01*
X64931174Y-95155794D01*
X64724206Y-94948826D01*
X64480838Y-94786212D01*
X64210421Y-94674202D01*
X63923348Y-94617100D01*
X63630652Y-94617100D01*
X63343579Y-94674202D01*
X63073162Y-94786212D01*
X62829794Y-94948826D01*
X62622826Y-95155794D01*
X62460212Y-95399162D01*
X62348202Y-95669579D01*
X62291100Y-95956652D01*
X61325900Y-95956652D01*
X61325900Y-95844076D01*
X61224873Y-95336178D01*
X61026701Y-94857749D01*
X60739000Y-94427174D01*
X60372826Y-94061000D01*
X59942251Y-93773299D01*
X59463822Y-93575127D01*
X58955924Y-93474100D01*
X58438076Y-93474100D01*
X57930178Y-93575127D01*
X57451749Y-93773299D01*
X57021174Y-94061000D01*
X56950763Y-94131411D01*
X57022000Y-93773279D01*
X57022000Y-93352721D01*
X56939953Y-92940244D01*
X56779012Y-92551698D01*
X56545363Y-92202017D01*
X56247983Y-91904637D01*
X55898302Y-91670988D01*
X55509756Y-91510047D01*
X55097279Y-91428000D01*
X54676721Y-91428000D01*
X54264244Y-91510047D01*
X53875698Y-91670988D01*
X53526017Y-91904637D01*
X53228637Y-92202017D01*
X52994988Y-92551698D01*
X52834047Y-92940244D01*
X52752000Y-93352721D01*
X52752000Y-93773279D01*
X52834047Y-94185756D01*
X52994988Y-94574302D01*
X53088150Y-94713730D01*
X52913162Y-94786212D01*
X52669794Y-94948826D01*
X52462826Y-95155794D01*
X52300212Y-95399162D01*
X52188202Y-95669579D01*
X52131100Y-95956652D01*
X47932000Y-95956652D01*
X47932000Y-90812721D01*
X59102000Y-90812721D01*
X59102000Y-91233279D01*
X59184047Y-91645756D01*
X59344988Y-92034302D01*
X59578637Y-92383983D01*
X59876017Y-92681363D01*
X60225698Y-92915012D01*
X60614244Y-93075953D01*
X61026721Y-93158000D01*
X61447279Y-93158000D01*
X61859756Y-93075953D01*
X62248302Y-92915012D01*
X62597983Y-92681363D01*
X62895363Y-92383983D01*
X63129012Y-92034302D01*
X63289953Y-91645756D01*
X63372000Y-91233279D01*
X63372000Y-90812721D01*
X78102000Y-90812721D01*
X78102000Y-91233279D01*
X78184047Y-91645756D01*
X78344988Y-92034302D01*
X78578637Y-92383983D01*
X78876017Y-92681363D01*
X79225698Y-92915012D01*
X79614244Y-93075953D01*
X80026721Y-93158000D01*
X80447279Y-93158000D01*
X80859756Y-93075953D01*
X81248302Y-92915012D01*
X81597983Y-92681363D01*
X81895363Y-92383983D01*
X82129012Y-92034302D01*
X82289953Y-91645756D01*
X82372000Y-91233279D01*
X82372000Y-90812721D01*
X97102000Y-90812721D01*
X97102000Y-91233279D01*
X97184047Y-91645756D01*
X97344988Y-92034302D01*
X97578637Y-92383983D01*
X97876017Y-92681363D01*
X98225698Y-92915012D01*
X98614244Y-93075953D01*
X99026721Y-93158000D01*
X99447279Y-93158000D01*
X99859756Y-93075953D01*
X100248302Y-92915012D01*
X100597983Y-92681363D01*
X100895363Y-92383983D01*
X101129012Y-92034302D01*
X101289953Y-91645756D01*
X101372000Y-91233279D01*
X101372000Y-90812721D01*
X101289953Y-90400244D01*
X101129012Y-90011698D01*
X100895363Y-89662017D01*
X100597983Y-89364637D01*
X100248302Y-89130988D01*
X99859756Y-88970047D01*
X99447279Y-88888000D01*
X99026721Y-88888000D01*
X98614244Y-88970047D01*
X98225698Y-89130988D01*
X97876017Y-89364637D01*
X97578637Y-89662017D01*
X97344988Y-90011698D01*
X97184047Y-90400244D01*
X97102000Y-90812721D01*
X82372000Y-90812721D01*
X82289953Y-90400244D01*
X82129012Y-90011698D01*
X81895363Y-89662017D01*
X81597983Y-89364637D01*
X81248302Y-89130988D01*
X80859756Y-88970047D01*
X80447279Y-88888000D01*
X80026721Y-88888000D01*
X79614244Y-88970047D01*
X79225698Y-89130988D01*
X78876017Y-89364637D01*
X78578637Y-89662017D01*
X78344988Y-90011698D01*
X78184047Y-90400244D01*
X78102000Y-90812721D01*
X63372000Y-90812721D01*
X63289953Y-90400244D01*
X63129012Y-90011698D01*
X62895363Y-89662017D01*
X62597983Y-89364637D01*
X62248302Y-89130988D01*
X61859756Y-88970047D01*
X61447279Y-88888000D01*
X61026721Y-88888000D01*
X60614244Y-88970047D01*
X60225698Y-89130988D01*
X59876017Y-89364637D01*
X59578637Y-89662017D01*
X59344988Y-90011698D01*
X59184047Y-90400244D01*
X59102000Y-90812721D01*
X47932000Y-90812721D01*
X47932000Y-85451897D01*
X78728208Y-85451897D01*
X78805843Y-85700972D01*
X79069883Y-85826871D01*
X79353411Y-85898839D01*
X79645531Y-85914111D01*
X79935019Y-85872099D01*
X80210747Y-85774419D01*
X80348157Y-85700972D01*
X80425792Y-85451897D01*
X79577000Y-84603105D01*
X78728208Y-85451897D01*
X47932000Y-85451897D01*
X47932000Y-84492031D01*
X78086389Y-84492031D01*
X78128401Y-84781519D01*
X78226081Y-85057247D01*
X78299528Y-85194657D01*
X78548603Y-85272292D01*
X79397395Y-84423500D01*
X79756605Y-84423500D01*
X80605397Y-85272292D01*
X80847689Y-85196771D01*
X80963525Y-85370132D01*
X81170368Y-85576975D01*
X81413589Y-85739490D01*
X81683842Y-85851432D01*
X81970740Y-85908500D01*
X82263260Y-85908500D01*
X82550158Y-85851432D01*
X82820411Y-85739490D01*
X83063632Y-85576975D01*
X83270475Y-85370132D01*
X83387000Y-85195740D01*
X83503525Y-85370132D01*
X83710368Y-85576975D01*
X83953589Y-85739490D01*
X84223842Y-85851432D01*
X84510740Y-85908500D01*
X84803260Y-85908500D01*
X85090158Y-85851432D01*
X85360411Y-85739490D01*
X85603632Y-85576975D01*
X85728710Y-85451897D01*
X86348208Y-85451897D01*
X86425843Y-85700972D01*
X86689883Y-85826871D01*
X86973411Y-85898839D01*
X87265531Y-85914111D01*
X87555019Y-85872099D01*
X87830747Y-85774419D01*
X87968157Y-85700972D01*
X88045792Y-85451897D01*
X87197000Y-84603105D01*
X86348208Y-85451897D01*
X85728710Y-85451897D01*
X85810475Y-85370132D01*
X85926311Y-85196771D01*
X86168603Y-85272292D01*
X87017395Y-84423500D01*
X87376605Y-84423500D01*
X88225397Y-85272292D01*
X88467689Y-85196771D01*
X88583525Y-85370132D01*
X88790368Y-85576975D01*
X89033589Y-85739490D01*
X89303842Y-85851432D01*
X89590740Y-85908500D01*
X89883260Y-85908500D01*
X90170158Y-85851432D01*
X90440411Y-85739490D01*
X90683632Y-85576975D01*
X90890475Y-85370132D01*
X91007000Y-85195740D01*
X91123525Y-85370132D01*
X91330368Y-85576975D01*
X91573589Y-85739490D01*
X91843842Y-85851432D01*
X92130740Y-85908500D01*
X92423260Y-85908500D01*
X92710158Y-85851432D01*
X92980411Y-85739490D01*
X93223632Y-85576975D01*
X93430475Y-85370132D01*
X93547000Y-85195740D01*
X93663525Y-85370132D01*
X93870368Y-85576975D01*
X94113589Y-85739490D01*
X94383842Y-85851432D01*
X94670740Y-85908500D01*
X94963260Y-85908500D01*
X95250158Y-85851432D01*
X95520411Y-85739490D01*
X95763632Y-85576975D01*
X95970475Y-85370132D01*
X96132990Y-85126911D01*
X96244932Y-84856658D01*
X96302000Y-84569760D01*
X96302000Y-84277240D01*
X96244932Y-83990342D01*
X96132990Y-83720089D01*
X95970475Y-83476868D01*
X95763632Y-83270025D01*
X95520411Y-83107510D01*
X95250158Y-82995568D01*
X94963260Y-82938500D01*
X94670740Y-82938500D01*
X94383842Y-82995568D01*
X94113589Y-83107510D01*
X93870368Y-83270025D01*
X93663525Y-83476868D01*
X93547000Y-83651260D01*
X93430475Y-83476868D01*
X93223632Y-83270025D01*
X92980411Y-83107510D01*
X92710158Y-82995568D01*
X92423260Y-82938500D01*
X92130740Y-82938500D01*
X91843842Y-82995568D01*
X91573589Y-83107510D01*
X91330368Y-83270025D01*
X91123525Y-83476868D01*
X91007000Y-83651260D01*
X90890475Y-83476868D01*
X90683632Y-83270025D01*
X90440411Y-83107510D01*
X90170158Y-82995568D01*
X89883260Y-82938500D01*
X89590740Y-82938500D01*
X89303842Y-82995568D01*
X89033589Y-83107510D01*
X88790368Y-83270025D01*
X88583525Y-83476868D01*
X88467689Y-83650229D01*
X88225397Y-83574708D01*
X87376605Y-84423500D01*
X87017395Y-84423500D01*
X86168603Y-83574708D01*
X85926311Y-83650229D01*
X85810475Y-83476868D01*
X85728710Y-83395103D01*
X86348208Y-83395103D01*
X87197000Y-84243895D01*
X88045792Y-83395103D01*
X87968157Y-83146028D01*
X87704117Y-83020129D01*
X87420589Y-82948161D01*
X87128469Y-82932889D01*
X86838981Y-82974901D01*
X86563253Y-83072581D01*
X86425843Y-83146028D01*
X86348208Y-83395103D01*
X85728710Y-83395103D01*
X85603632Y-83270025D01*
X85360411Y-83107510D01*
X85090158Y-82995568D01*
X84803260Y-82938500D01*
X84510740Y-82938500D01*
X84223842Y-82995568D01*
X83953589Y-83107510D01*
X83710368Y-83270025D01*
X83503525Y-83476868D01*
X83387000Y-83651260D01*
X83270475Y-83476868D01*
X83063632Y-83270025D01*
X82820411Y-83107510D01*
X82550158Y-82995568D01*
X82263260Y-82938500D01*
X81970740Y-82938500D01*
X81683842Y-82995568D01*
X81413589Y-83107510D01*
X81170368Y-83270025D01*
X80963525Y-83476868D01*
X80847689Y-83650229D01*
X80605397Y-83574708D01*
X79756605Y-84423500D01*
X79397395Y-84423500D01*
X78548603Y-83574708D01*
X78299528Y-83652343D01*
X78173629Y-83916383D01*
X78101661Y-84199911D01*
X78086389Y-84492031D01*
X47932000Y-84492031D01*
X47932000Y-83395103D01*
X78728208Y-83395103D01*
X79577000Y-84243895D01*
X80425792Y-83395103D01*
X80348157Y-83146028D01*
X80084117Y-83020129D01*
X79800589Y-82948161D01*
X79508469Y-82932889D01*
X79218981Y-82974901D01*
X78943253Y-83072581D01*
X78805843Y-83146028D01*
X78728208Y-83395103D01*
X47932000Y-83395103D01*
X47932000Y-76872170D01*
X52353340Y-76872170D01*
X52353340Y-77333830D01*
X52443406Y-77786620D01*
X52620075Y-78213139D01*
X52876560Y-78596996D01*
X53203004Y-78923440D01*
X53586861Y-79179925D01*
X54013380Y-79356594D01*
X54466170Y-79446660D01*
X54927830Y-79446660D01*
X55380620Y-79356594D01*
X55807139Y-79179925D01*
X56190996Y-78923440D01*
X56517440Y-78596996D01*
X56773925Y-78213139D01*
X56950594Y-77786620D01*
X57040660Y-77333830D01*
X57040660Y-76872170D01*
X117353340Y-76872170D01*
X117353340Y-77333830D01*
X117443406Y-77786620D01*
X117620075Y-78213139D01*
X117876560Y-78596996D01*
X118203004Y-78923440D01*
X118586861Y-79179925D01*
X119013380Y-79356594D01*
X119466170Y-79446660D01*
X119927830Y-79446660D01*
X120380620Y-79356594D01*
X120807139Y-79179925D01*
X121190996Y-78923440D01*
X121517440Y-78596996D01*
X121773925Y-78213139D01*
X121950594Y-77786620D01*
X122040660Y-77333830D01*
X122040660Y-76872170D01*
X121950594Y-76419380D01*
X121773925Y-75992861D01*
X121517440Y-75609004D01*
X121190996Y-75282560D01*
X120807139Y-75026075D01*
X120380620Y-74849406D01*
X119927830Y-74759340D01*
X119466170Y-74759340D01*
X119013380Y-74849406D01*
X118586861Y-75026075D01*
X118203004Y-75282560D01*
X117876560Y-75609004D01*
X117620075Y-75992861D01*
X117443406Y-76419380D01*
X117353340Y-76872170D01*
X57040660Y-76872170D01*
X56950594Y-76419380D01*
X56773925Y-75992861D01*
X56517440Y-75609004D01*
X56190996Y-75282560D01*
X55807139Y-75026075D01*
X55380620Y-74849406D01*
X54927830Y-74759340D01*
X54466170Y-74759340D01*
X54013380Y-74849406D01*
X53586861Y-75026075D01*
X53203004Y-75282560D01*
X52876560Y-75609004D01*
X52620075Y-75992861D01*
X52443406Y-76419380D01*
X52353340Y-76872170D01*
X47932000Y-76872170D01*
X47932000Y-74632732D01*
X48002234Y-73845784D01*
X48202043Y-73115402D01*
X48528032Y-72431952D01*
X48539315Y-72416250D01*
X78092000Y-72416250D01*
X78092000Y-72708770D01*
X78149068Y-72995668D01*
X78261010Y-73265921D01*
X78423525Y-73509142D01*
X78630368Y-73715985D01*
X78804760Y-73832510D01*
X78630368Y-73949035D01*
X78423525Y-74155878D01*
X78261010Y-74399099D01*
X78149068Y-74669352D01*
X78092000Y-74956250D01*
X78092000Y-75248770D01*
X78149068Y-75535668D01*
X78261010Y-75805921D01*
X78423525Y-76049142D01*
X78630368Y-76255985D01*
X78873589Y-76418500D01*
X79143842Y-76530442D01*
X79430740Y-76587510D01*
X79723260Y-76587510D01*
X80010158Y-76530442D01*
X80280411Y-76418500D01*
X80523632Y-76255985D01*
X80730475Y-76049142D01*
X80892990Y-75805921D01*
X81004932Y-75535668D01*
X81062000Y-75248770D01*
X81062000Y-74956250D01*
X81004932Y-74669352D01*
X80892990Y-74399099D01*
X80730475Y-74155878D01*
X80523632Y-73949035D01*
X80349240Y-73832510D01*
X80523632Y-73715985D01*
X80730475Y-73509142D01*
X80892990Y-73265921D01*
X81004932Y-72995668D01*
X81062000Y-72708770D01*
X81062000Y-72416250D01*
X93332000Y-72416250D01*
X93332000Y-72708770D01*
X93389068Y-72995668D01*
X93501010Y-73265921D01*
X93663525Y-73509142D01*
X93870368Y-73715985D01*
X94044760Y-73832510D01*
X93870368Y-73949035D01*
X93663525Y-74155878D01*
X93501010Y-74399099D01*
X93389068Y-74669352D01*
X93332000Y-74956250D01*
X93332000Y-75248770D01*
X93389068Y-75535668D01*
X93501010Y-75805921D01*
X93663525Y-76049142D01*
X93870368Y-76255985D01*
X94113589Y-76418500D01*
X94383842Y-76530442D01*
X94670740Y-76587510D01*
X94963260Y-76587510D01*
X95250158Y-76530442D01*
X95520411Y-76418500D01*
X95763632Y-76255985D01*
X95970475Y-76049142D01*
X96132990Y-75805921D01*
X96244932Y-75535668D01*
X96302000Y-75248770D01*
X96302000Y-74956250D01*
X96244932Y-74669352D01*
X96132990Y-74399099D01*
X95970475Y-74155878D01*
X95763632Y-73949035D01*
X95589240Y-73832510D01*
X95763632Y-73715985D01*
X95970475Y-73509142D01*
X96132990Y-73265921D01*
X96244932Y-72995668D01*
X96302000Y-72708770D01*
X96302000Y-72416250D01*
X96244932Y-72129352D01*
X96132990Y-71859099D01*
X95970475Y-71615878D01*
X95763632Y-71409035D01*
X95520411Y-71246520D01*
X95250158Y-71134578D01*
X94963260Y-71077510D01*
X94670740Y-71077510D01*
X94383842Y-71134578D01*
X94113589Y-71246520D01*
X93870368Y-71409035D01*
X93663525Y-71615878D01*
X93501010Y-71859099D01*
X93389068Y-72129352D01*
X93332000Y-72416250D01*
X81062000Y-72416250D01*
X81004932Y-72129352D01*
X80892990Y-71859099D01*
X80730475Y-71615878D01*
X80523632Y-71409035D01*
X80280411Y-71246520D01*
X80010158Y-71134578D01*
X79723260Y-71077510D01*
X79430740Y-71077510D01*
X79143842Y-71134578D01*
X78873589Y-71246520D01*
X78630368Y-71409035D01*
X78423525Y-71615878D01*
X78261010Y-71859099D01*
X78149068Y-72129352D01*
X78092000Y-72416250D01*
X48539315Y-72416250D01*
X48969897Y-71817032D01*
X49513675Y-71290075D01*
X50142174Y-70867741D01*
X50835528Y-70563379D01*
X51577476Y-70385254D01*
X52220949Y-70338000D01*
X122167268Y-70338000D01*
X122954216Y-70408234D01*
G37*
%TD.AperFunction*%
D17*
X68274000Y-114383000D02*
X68294000Y-114383000D01*
X68294000Y-114637000D01*
X68274000Y-114637000D01*
X68274000Y-115836250D01*
X68432750Y-115995000D01*
X68997000Y-115998072D01*
X69121482Y-115985812D01*
X69241180Y-115949502D01*
X69351494Y-115890537D01*
X69448185Y-115811185D01*
X69527537Y-115714494D01*
X69586502Y-115604180D01*
X69608513Y-115531620D01*
X69740368Y-115663475D01*
X69983589Y-115825990D01*
X70253842Y-115937932D01*
X70540740Y-115995000D01*
X70833260Y-115995000D01*
X71120158Y-115937932D01*
X71390411Y-115825990D01*
X71633632Y-115663475D01*
X71840475Y-115456632D01*
X71957000Y-115282240D01*
X72073525Y-115456632D01*
X72280368Y-115663475D01*
X72523589Y-115825990D01*
X72793842Y-115937932D01*
X73080740Y-115995000D01*
X73373260Y-115995000D01*
X73660158Y-115937932D01*
X73930411Y-115825990D01*
X74173632Y-115663475D01*
X74380475Y-115456632D01*
X74497000Y-115282240D01*
X74613525Y-115456632D01*
X74820368Y-115663475D01*
X75063589Y-115825990D01*
X75333842Y-115937932D01*
X75620740Y-115995000D01*
X75913260Y-115995000D01*
X76200158Y-115937932D01*
X76470411Y-115825990D01*
X76713632Y-115663475D01*
X76920475Y-115456632D01*
X77037000Y-115282240D01*
X77153525Y-115456632D01*
X77360368Y-115663475D01*
X77603589Y-115825990D01*
X77873842Y-115937932D01*
X78160740Y-115995000D01*
X78453260Y-115995000D01*
X78740158Y-115937932D01*
X79010411Y-115825990D01*
X79253632Y-115663475D01*
X79385487Y-115531620D01*
X79407498Y-115604180D01*
X79466463Y-115714494D01*
X79545815Y-115811185D01*
X79642506Y-115890537D01*
X79743249Y-115944386D01*
X79614244Y-115970047D01*
X79225698Y-116130988D01*
X78876017Y-116364637D01*
X78578637Y-116662017D01*
X78344988Y-117011698D01*
X78184047Y-117400244D01*
X78102000Y-117812721D01*
X78102000Y-118233279D01*
X78184047Y-118645756D01*
X78344988Y-119034302D01*
X78578637Y-119383983D01*
X78876017Y-119681363D01*
X79225698Y-119915012D01*
X79614244Y-120075953D01*
X80026721Y-120158000D01*
X80447279Y-120158000D01*
X80859756Y-120075953D01*
X81248302Y-119915012D01*
X81597983Y-119681363D01*
X81895363Y-119383983D01*
X82129012Y-119034302D01*
X82289953Y-118645756D01*
X82372000Y-118233279D01*
X82372000Y-117812721D01*
X82289953Y-117400244D01*
X82129012Y-117011698D01*
X81895363Y-116662017D01*
X81597983Y-116364637D01*
X81248302Y-116130988D01*
X80919998Y-115995000D01*
X80974002Y-115995000D01*
X80974002Y-115836252D01*
X81132750Y-115995000D01*
X81697000Y-115998072D01*
X81821482Y-115985812D01*
X81941180Y-115949502D01*
X82051494Y-115890537D01*
X82148185Y-115811185D01*
X82227537Y-115714494D01*
X82286502Y-115604180D01*
X82308513Y-115531620D01*
X82440368Y-115663475D01*
X82683589Y-115825990D01*
X82953842Y-115937932D01*
X83240740Y-115995000D01*
X83533260Y-115995000D01*
X83820158Y-115937932D01*
X84090411Y-115825990D01*
X84333632Y-115663475D01*
X84540475Y-115456632D01*
X84657000Y-115282240D01*
X84773525Y-115456632D01*
X84980368Y-115663475D01*
X85223589Y-115825990D01*
X85493842Y-115937932D01*
X85780740Y-115995000D01*
X86073260Y-115995000D01*
X86360158Y-115937932D01*
X86630411Y-115825990D01*
X86873632Y-115663475D01*
X87080475Y-115456632D01*
X87197000Y-115282240D01*
X87313525Y-115456632D01*
X87520368Y-115663475D01*
X87763589Y-115825990D01*
X88033842Y-115937932D01*
X88320740Y-115995000D01*
X88613260Y-115995000D01*
X88900158Y-115937932D01*
X89170411Y-115825990D01*
X89413632Y-115663475D01*
X89620475Y-115456632D01*
X89737000Y-115282240D01*
X89853525Y-115456632D01*
X90060368Y-115663475D01*
X90303589Y-115825990D01*
X90573842Y-115937932D01*
X90860740Y-115995000D01*
X91153260Y-115995000D01*
X91440158Y-115937932D01*
X91579632Y-115880160D01*
X91559774Y-115928102D01*
X91520000Y-116128061D01*
X91520000Y-116190198D01*
X84213749Y-123496450D01*
X84262900Y-123249348D01*
X84262900Y-122956652D01*
X84205798Y-122669579D01*
X84093788Y-122399162D01*
X83931174Y-122155794D01*
X83724206Y-121948826D01*
X83480838Y-121786212D01*
X83210421Y-121674202D01*
X82923348Y-121617100D01*
X82630652Y-121617100D01*
X82343579Y-121674202D01*
X82073162Y-121786212D01*
X81829794Y-121948826D01*
X81622826Y-122155794D01*
X81460212Y-122399162D01*
X81348202Y-122669579D01*
X81291100Y-122956652D01*
X81291100Y-123249348D01*
X81348202Y-123536421D01*
X81460212Y-123806838D01*
X81622826Y-124050206D01*
X81829794Y-124257174D01*
X82073162Y-124419788D01*
X82343579Y-124531798D01*
X82630652Y-124588900D01*
X82923348Y-124588900D01*
X83170450Y-124539749D01*
X82809003Y-124901196D01*
X82779999Y-124924999D01*
X82744139Y-124968695D01*
X82685026Y-125040724D01*
X82641464Y-125122223D01*
X82614454Y-125172754D01*
X82570997Y-125316015D01*
X82560000Y-125427668D01*
X82560000Y-125427678D01*
X82556324Y-125465000D01*
X82560000Y-125502322D01*
X82560000Y-125833698D01*
X80092000Y-128301699D01*
X80092000Y-126337135D01*
X80095362Y-126303000D01*
X80081943Y-126166756D01*
X80042202Y-126035748D01*
X79977667Y-125915011D01*
X79890817Y-125809183D01*
X79784989Y-125722333D01*
X79664252Y-125657798D01*
X79533244Y-125618057D01*
X79431135Y-125608000D01*
X79397000Y-125604638D01*
X79362866Y-125608000D01*
X78519042Y-125608000D01*
X78942251Y-125432701D01*
X79372826Y-125145000D01*
X79739000Y-124778826D01*
X80026701Y-124348251D01*
X80224873Y-123869822D01*
X80325900Y-123361924D01*
X80325900Y-122844076D01*
X80224873Y-122336178D01*
X80026701Y-121857749D01*
X79739000Y-121427174D01*
X79372826Y-121061000D01*
X78942251Y-120773299D01*
X78463822Y-120575127D01*
X77955924Y-120474100D01*
X77438076Y-120474100D01*
X76930178Y-120575127D01*
X76451749Y-120773299D01*
X76021174Y-121061000D01*
X75950763Y-121131411D01*
X76022000Y-120773279D01*
X76022000Y-120352721D01*
X75939953Y-119940244D01*
X75779012Y-119551698D01*
X75545363Y-119202017D01*
X75247983Y-118904637D01*
X74898302Y-118670988D01*
X74509756Y-118510047D01*
X74097279Y-118428000D01*
X73676721Y-118428000D01*
X73264244Y-118510047D01*
X72875698Y-118670988D01*
X72526017Y-118904637D01*
X72228637Y-119202017D01*
X71994988Y-119551698D01*
X71834047Y-119940244D01*
X71752000Y-120352721D01*
X71752000Y-120773279D01*
X71834047Y-121185756D01*
X71994988Y-121574302D01*
X72088150Y-121713730D01*
X71913162Y-121786212D01*
X71669794Y-121948826D01*
X71462826Y-122155794D01*
X71300212Y-122399162D01*
X71188202Y-122669579D01*
X71131100Y-122956652D01*
X71131100Y-123249348D01*
X71188202Y-123536421D01*
X71300212Y-123806838D01*
X71462826Y-124050206D01*
X71669794Y-124257174D01*
X71913162Y-124419788D01*
X72183579Y-124531798D01*
X72470652Y-124588900D01*
X72763348Y-124588900D01*
X73050421Y-124531798D01*
X73320838Y-124419788D01*
X73564206Y-124257174D01*
X73771174Y-124050206D01*
X73933788Y-123806838D01*
X74045798Y-123536421D01*
X74102900Y-123249348D01*
X74102900Y-122956652D01*
X74051451Y-122698000D01*
X74097279Y-122698000D01*
X74509756Y-122615953D01*
X74898302Y-122455012D01*
X75204708Y-122250279D01*
X75169127Y-122336178D01*
X75068100Y-122844076D01*
X75068100Y-123361924D01*
X75169127Y-123869822D01*
X75367299Y-124348251D01*
X75655000Y-124778826D01*
X76021174Y-125145000D01*
X76451749Y-125432701D01*
X76874958Y-125608000D01*
X76031135Y-125608000D01*
X75997000Y-125604638D01*
X75962866Y-125608000D01*
X75962865Y-125608000D01*
X75860756Y-125618057D01*
X75729748Y-125657798D01*
X75609011Y-125722333D01*
X75503183Y-125809183D01*
X75416333Y-125915011D01*
X75351798Y-126035748D01*
X75312057Y-126166756D01*
X75298638Y-126303000D01*
X75302001Y-126337145D01*
X75302000Y-129268865D01*
X75298638Y-129303000D01*
X75312057Y-129439244D01*
X75347323Y-129555500D01*
X72698825Y-129555500D01*
X72661500Y-129551824D01*
X72624175Y-129555500D01*
X72624167Y-129555500D01*
X72512514Y-129566497D01*
X72369253Y-129609954D01*
X72237224Y-129680526D01*
X72121499Y-129775499D01*
X72097701Y-129804497D01*
X71053408Y-130848791D01*
X70833260Y-130805000D01*
X70540740Y-130805000D01*
X70253842Y-130862068D01*
X69983589Y-130974010D01*
X69740368Y-131136525D01*
X69608513Y-131268380D01*
X69586502Y-131195820D01*
X69527537Y-131085506D01*
X69448185Y-130988815D01*
X69351494Y-130909463D01*
X69241180Y-130850498D01*
X69121482Y-130814188D01*
X68997000Y-130801928D01*
X68432750Y-130805000D01*
X68274000Y-130963750D01*
X68274000Y-132163000D01*
X68294000Y-132163000D01*
X68294000Y-132417000D01*
X68274000Y-132417000D01*
X68274000Y-132437000D01*
X68020000Y-132437000D01*
X68020000Y-132417000D01*
X68000000Y-132417000D01*
X68000000Y-132163000D01*
X68020000Y-132163000D01*
X68020000Y-130963750D01*
X67861250Y-130805000D01*
X67297000Y-130801928D01*
X67172518Y-130814188D01*
X67052820Y-130850498D01*
X66942506Y-130909463D01*
X66845815Y-130988815D01*
X66766463Y-131085506D01*
X66707498Y-131195820D01*
X66685487Y-131268380D01*
X66553632Y-131136525D01*
X66310411Y-130974010D01*
X66040158Y-130862068D01*
X65753260Y-130805000D01*
X65460740Y-130805000D01*
X65173842Y-130862068D01*
X64903589Y-130974010D01*
X64660368Y-131136525D01*
X64453525Y-131343368D01*
X64337000Y-131517760D01*
X64220475Y-131343368D01*
X64066804Y-131189697D01*
X67482604Y-127773898D01*
X67511601Y-127750101D01*
X67606574Y-127634376D01*
X67677146Y-127502347D01*
X67720603Y-127359086D01*
X67731600Y-127247433D01*
X67731600Y-127247424D01*
X67735276Y-127210101D01*
X67731600Y-127172778D01*
X67731600Y-115995706D01*
X67861250Y-115995000D01*
X68020000Y-115836250D01*
X68020000Y-114637000D01*
X68000000Y-114637000D01*
X68000000Y-114383000D01*
X68020000Y-114383000D01*
X68020000Y-114363000D01*
X68274000Y-114363000D01*
X68274000Y-114383000D01*
%TA.AperFunction,Conductor*%
D18*
G36*
X68274000Y-114383000D02*
G01*
X68294000Y-114383000D01*
X68294000Y-114637000D01*
X68274000Y-114637000D01*
X68274000Y-115836250D01*
X68432750Y-115995000D01*
X68997000Y-115998072D01*
X69121482Y-115985812D01*
X69241180Y-115949502D01*
X69351494Y-115890537D01*
X69448185Y-115811185D01*
X69527537Y-115714494D01*
X69586502Y-115604180D01*
X69608513Y-115531620D01*
X69740368Y-115663475D01*
X69983589Y-115825990D01*
X70253842Y-115937932D01*
X70540740Y-115995000D01*
X70833260Y-115995000D01*
X71120158Y-115937932D01*
X71390411Y-115825990D01*
X71633632Y-115663475D01*
X71840475Y-115456632D01*
X71957000Y-115282240D01*
X72073525Y-115456632D01*
X72280368Y-115663475D01*
X72523589Y-115825990D01*
X72793842Y-115937932D01*
X73080740Y-115995000D01*
X73373260Y-115995000D01*
X73660158Y-115937932D01*
X73930411Y-115825990D01*
X74173632Y-115663475D01*
X74380475Y-115456632D01*
X74497000Y-115282240D01*
X74613525Y-115456632D01*
X74820368Y-115663475D01*
X75063589Y-115825990D01*
X75333842Y-115937932D01*
X75620740Y-115995000D01*
X75913260Y-115995000D01*
X76200158Y-115937932D01*
X76470411Y-115825990D01*
X76713632Y-115663475D01*
X76920475Y-115456632D01*
X77037000Y-115282240D01*
X77153525Y-115456632D01*
X77360368Y-115663475D01*
X77603589Y-115825990D01*
X77873842Y-115937932D01*
X78160740Y-115995000D01*
X78453260Y-115995000D01*
X78740158Y-115937932D01*
X79010411Y-115825990D01*
X79253632Y-115663475D01*
X79385487Y-115531620D01*
X79407498Y-115604180D01*
X79466463Y-115714494D01*
X79545815Y-115811185D01*
X79642506Y-115890537D01*
X79743249Y-115944386D01*
X79614244Y-115970047D01*
X79225698Y-116130988D01*
X78876017Y-116364637D01*
X78578637Y-116662017D01*
X78344988Y-117011698D01*
X78184047Y-117400244D01*
X78102000Y-117812721D01*
X78102000Y-118233279D01*
X78184047Y-118645756D01*
X78344988Y-119034302D01*
X78578637Y-119383983D01*
X78876017Y-119681363D01*
X79225698Y-119915012D01*
X79614244Y-120075953D01*
X80026721Y-120158000D01*
X80447279Y-120158000D01*
X80859756Y-120075953D01*
X81248302Y-119915012D01*
X81597983Y-119681363D01*
X81895363Y-119383983D01*
X82129012Y-119034302D01*
X82289953Y-118645756D01*
X82372000Y-118233279D01*
X82372000Y-117812721D01*
X82289953Y-117400244D01*
X82129012Y-117011698D01*
X81895363Y-116662017D01*
X81597983Y-116364637D01*
X81248302Y-116130988D01*
X80919998Y-115995000D01*
X80974002Y-115995000D01*
X80974002Y-115836252D01*
X81132750Y-115995000D01*
X81697000Y-115998072D01*
X81821482Y-115985812D01*
X81941180Y-115949502D01*
X82051494Y-115890537D01*
X82148185Y-115811185D01*
X82227537Y-115714494D01*
X82286502Y-115604180D01*
X82308513Y-115531620D01*
X82440368Y-115663475D01*
X82683589Y-115825990D01*
X82953842Y-115937932D01*
X83240740Y-115995000D01*
X83533260Y-115995000D01*
X83820158Y-115937932D01*
X84090411Y-115825990D01*
X84333632Y-115663475D01*
X84540475Y-115456632D01*
X84657000Y-115282240D01*
X84773525Y-115456632D01*
X84980368Y-115663475D01*
X85223589Y-115825990D01*
X85493842Y-115937932D01*
X85780740Y-115995000D01*
X86073260Y-115995000D01*
X86360158Y-115937932D01*
X86630411Y-115825990D01*
X86873632Y-115663475D01*
X87080475Y-115456632D01*
X87197000Y-115282240D01*
X87313525Y-115456632D01*
X87520368Y-115663475D01*
X87763589Y-115825990D01*
X88033842Y-115937932D01*
X88320740Y-115995000D01*
X88613260Y-115995000D01*
X88900158Y-115937932D01*
X89170411Y-115825990D01*
X89413632Y-115663475D01*
X89620475Y-115456632D01*
X89737000Y-115282240D01*
X89853525Y-115456632D01*
X90060368Y-115663475D01*
X90303589Y-115825990D01*
X90573842Y-115937932D01*
X90860740Y-115995000D01*
X91153260Y-115995000D01*
X91440158Y-115937932D01*
X91579632Y-115880160D01*
X91559774Y-115928102D01*
X91520000Y-116128061D01*
X91520000Y-116190198D01*
X84213749Y-123496450D01*
X84262900Y-123249348D01*
X84262900Y-122956652D01*
X84205798Y-122669579D01*
X84093788Y-122399162D01*
X83931174Y-122155794D01*
X83724206Y-121948826D01*
X83480838Y-121786212D01*
X83210421Y-121674202D01*
X82923348Y-121617100D01*
X82630652Y-121617100D01*
X82343579Y-121674202D01*
X82073162Y-121786212D01*
X81829794Y-121948826D01*
X81622826Y-122155794D01*
X81460212Y-122399162D01*
X81348202Y-122669579D01*
X81291100Y-122956652D01*
X81291100Y-123249348D01*
X81348202Y-123536421D01*
X81460212Y-123806838D01*
X81622826Y-124050206D01*
X81829794Y-124257174D01*
X82073162Y-124419788D01*
X82343579Y-124531798D01*
X82630652Y-124588900D01*
X82923348Y-124588900D01*
X83170450Y-124539749D01*
X82809003Y-124901196D01*
X82779999Y-124924999D01*
X82744139Y-124968695D01*
X82685026Y-125040724D01*
X82641464Y-125122223D01*
X82614454Y-125172754D01*
X82570997Y-125316015D01*
X82560000Y-125427668D01*
X82560000Y-125427678D01*
X82556324Y-125465000D01*
X82560000Y-125502322D01*
X82560000Y-125833698D01*
X80092000Y-128301699D01*
X80092000Y-126337135D01*
X80095362Y-126303000D01*
X80081943Y-126166756D01*
X80042202Y-126035748D01*
X79977667Y-125915011D01*
X79890817Y-125809183D01*
X79784989Y-125722333D01*
X79664252Y-125657798D01*
X79533244Y-125618057D01*
X79431135Y-125608000D01*
X79397000Y-125604638D01*
X79362866Y-125608000D01*
X78519042Y-125608000D01*
X78942251Y-125432701D01*
X79372826Y-125145000D01*
X79739000Y-124778826D01*
X80026701Y-124348251D01*
X80224873Y-123869822D01*
X80325900Y-123361924D01*
X80325900Y-122844076D01*
X80224873Y-122336178D01*
X80026701Y-121857749D01*
X79739000Y-121427174D01*
X79372826Y-121061000D01*
X78942251Y-120773299D01*
X78463822Y-120575127D01*
X77955924Y-120474100D01*
X77438076Y-120474100D01*
X76930178Y-120575127D01*
X76451749Y-120773299D01*
X76021174Y-121061000D01*
X75950763Y-121131411D01*
X76022000Y-120773279D01*
X76022000Y-120352721D01*
X75939953Y-119940244D01*
X75779012Y-119551698D01*
X75545363Y-119202017D01*
X75247983Y-118904637D01*
X74898302Y-118670988D01*
X74509756Y-118510047D01*
X74097279Y-118428000D01*
X73676721Y-118428000D01*
X73264244Y-118510047D01*
X72875698Y-118670988D01*
X72526017Y-118904637D01*
X72228637Y-119202017D01*
X71994988Y-119551698D01*
X71834047Y-119940244D01*
X71752000Y-120352721D01*
X71752000Y-120773279D01*
X71834047Y-121185756D01*
X71994988Y-121574302D01*
X72088150Y-121713730D01*
X71913162Y-121786212D01*
X71669794Y-121948826D01*
X71462826Y-122155794D01*
X71300212Y-122399162D01*
X71188202Y-122669579D01*
X71131100Y-122956652D01*
X71131100Y-123249348D01*
X71188202Y-123536421D01*
X71300212Y-123806838D01*
X71462826Y-124050206D01*
X71669794Y-124257174D01*
X71913162Y-124419788D01*
X72183579Y-124531798D01*
X72470652Y-124588900D01*
X72763348Y-124588900D01*
X73050421Y-124531798D01*
X73320838Y-124419788D01*
X73564206Y-124257174D01*
X73771174Y-124050206D01*
X73933788Y-123806838D01*
X74045798Y-123536421D01*
X74102900Y-123249348D01*
X74102900Y-122956652D01*
X74051451Y-122698000D01*
X74097279Y-122698000D01*
X74509756Y-122615953D01*
X74898302Y-122455012D01*
X75204708Y-122250279D01*
X75169127Y-122336178D01*
X75068100Y-122844076D01*
X75068100Y-123361924D01*
X75169127Y-123869822D01*
X75367299Y-124348251D01*
X75655000Y-124778826D01*
X76021174Y-125145000D01*
X76451749Y-125432701D01*
X76874958Y-125608000D01*
X76031135Y-125608000D01*
X75997000Y-125604638D01*
X75962866Y-125608000D01*
X75962865Y-125608000D01*
X75860756Y-125618057D01*
X75729748Y-125657798D01*
X75609011Y-125722333D01*
X75503183Y-125809183D01*
X75416333Y-125915011D01*
X75351798Y-126035748D01*
X75312057Y-126166756D01*
X75298638Y-126303000D01*
X75302001Y-126337145D01*
X75302000Y-129268865D01*
X75298638Y-129303000D01*
X75312057Y-129439244D01*
X75347323Y-129555500D01*
X72698825Y-129555500D01*
X72661500Y-129551824D01*
X72624175Y-129555500D01*
X72624167Y-129555500D01*
X72512514Y-129566497D01*
X72369253Y-129609954D01*
X72237224Y-129680526D01*
X72121499Y-129775499D01*
X72097701Y-129804497D01*
X71053408Y-130848791D01*
X70833260Y-130805000D01*
X70540740Y-130805000D01*
X70253842Y-130862068D01*
X69983589Y-130974010D01*
X69740368Y-131136525D01*
X69608513Y-131268380D01*
X69586502Y-131195820D01*
X69527537Y-131085506D01*
X69448185Y-130988815D01*
X69351494Y-130909463D01*
X69241180Y-130850498D01*
X69121482Y-130814188D01*
X68997000Y-130801928D01*
X68432750Y-130805000D01*
X68274000Y-130963750D01*
X68274000Y-132163000D01*
X68294000Y-132163000D01*
X68294000Y-132417000D01*
X68274000Y-132417000D01*
X68274000Y-132437000D01*
X68020000Y-132437000D01*
X68020000Y-132417000D01*
X68000000Y-132417000D01*
X68000000Y-132163000D01*
X68020000Y-132163000D01*
X68020000Y-130963750D01*
X67861250Y-130805000D01*
X67297000Y-130801928D01*
X67172518Y-130814188D01*
X67052820Y-130850498D01*
X66942506Y-130909463D01*
X66845815Y-130988815D01*
X66766463Y-131085506D01*
X66707498Y-131195820D01*
X66685487Y-131268380D01*
X66553632Y-131136525D01*
X66310411Y-130974010D01*
X66040158Y-130862068D01*
X65753260Y-130805000D01*
X65460740Y-130805000D01*
X65173842Y-130862068D01*
X64903589Y-130974010D01*
X64660368Y-131136525D01*
X64453525Y-131343368D01*
X64337000Y-131517760D01*
X64220475Y-131343368D01*
X64066804Y-131189697D01*
X67482604Y-127773898D01*
X67511601Y-127750101D01*
X67606574Y-127634376D01*
X67677146Y-127502347D01*
X67720603Y-127359086D01*
X67731600Y-127247433D01*
X67731600Y-127247424D01*
X67735276Y-127210101D01*
X67731600Y-127172778D01*
X67731600Y-115995706D01*
X67861250Y-115995000D01*
X68020000Y-115836250D01*
X68020000Y-114637000D01*
X68000000Y-114637000D01*
X68000000Y-114383000D01*
X68020000Y-114383000D01*
X68020000Y-114363000D01*
X68274000Y-114363000D01*
X68274000Y-114383000D01*
G37*
%TD.AperFunction*%
D17*
X87707001Y-131011821D02*
X87520368Y-131136525D01*
X87313525Y-131343368D01*
X87197000Y-131517760D01*
X87080475Y-131343368D01*
X86873632Y-131136525D01*
X86630411Y-130974010D01*
X86360158Y-130862068D01*
X86073260Y-130805000D01*
X85780740Y-130805000D01*
X85493842Y-130862068D01*
X85223589Y-130974010D01*
X84980368Y-131136525D01*
X84773525Y-131343368D01*
X84657000Y-131517760D01*
X84540475Y-131343368D01*
X84333632Y-131136525D01*
X84090411Y-130974010D01*
X83820158Y-130862068D01*
X83533260Y-130805000D01*
X83240740Y-130805000D01*
X82953842Y-130862068D01*
X82683589Y-130974010D01*
X82440368Y-131136525D01*
X82308513Y-131268380D01*
X82286502Y-131195820D01*
X82227537Y-131085506D01*
X82148185Y-130988815D01*
X82051494Y-130909463D01*
X81941180Y-130850498D01*
X81821482Y-130814188D01*
X81697000Y-130801928D01*
X81132750Y-130805000D01*
X80974000Y-130963750D01*
X80974000Y-132163000D01*
X80994000Y-132163000D01*
X80994000Y-132417000D01*
X80974000Y-132417000D01*
X80974000Y-132437000D01*
X80720000Y-132437000D01*
X80720000Y-132417000D01*
X80700000Y-132417000D01*
X80700000Y-132163000D01*
X80720000Y-132163000D01*
X80720000Y-130963750D01*
X80561250Y-130805000D01*
X80376209Y-130803993D01*
X84287127Y-126893075D01*
X84347198Y-126881126D01*
X84535556Y-126803105D01*
X84705074Y-126689837D01*
X84849237Y-126545674D01*
X84962505Y-126376156D01*
X85040526Y-126187798D01*
X85080300Y-125987839D01*
X85080300Y-125783961D01*
X85040526Y-125584002D01*
X84962505Y-125395644D01*
X84849237Y-125226126D01*
X84741456Y-125118345D01*
X87707000Y-122152801D01*
X87707001Y-131011821D01*
%TA.AperFunction,Conductor*%
D18*
G36*
X87707001Y-131011821D02*
G01*
X87520368Y-131136525D01*
X87313525Y-131343368D01*
X87197000Y-131517760D01*
X87080475Y-131343368D01*
X86873632Y-131136525D01*
X86630411Y-130974010D01*
X86360158Y-130862068D01*
X86073260Y-130805000D01*
X85780740Y-130805000D01*
X85493842Y-130862068D01*
X85223589Y-130974010D01*
X84980368Y-131136525D01*
X84773525Y-131343368D01*
X84657000Y-131517760D01*
X84540475Y-131343368D01*
X84333632Y-131136525D01*
X84090411Y-130974010D01*
X83820158Y-130862068D01*
X83533260Y-130805000D01*
X83240740Y-130805000D01*
X82953842Y-130862068D01*
X82683589Y-130974010D01*
X82440368Y-131136525D01*
X82308513Y-131268380D01*
X82286502Y-131195820D01*
X82227537Y-131085506D01*
X82148185Y-130988815D01*
X82051494Y-130909463D01*
X81941180Y-130850498D01*
X81821482Y-130814188D01*
X81697000Y-130801928D01*
X81132750Y-130805000D01*
X80974000Y-130963750D01*
X80974000Y-132163000D01*
X80994000Y-132163000D01*
X80994000Y-132417000D01*
X80974000Y-132417000D01*
X80974000Y-132437000D01*
X80720000Y-132437000D01*
X80720000Y-132417000D01*
X80700000Y-132417000D01*
X80700000Y-132163000D01*
X80720000Y-132163000D01*
X80720000Y-130963750D01*
X80561250Y-130805000D01*
X80376209Y-130803993D01*
X84287127Y-126893075D01*
X84347198Y-126881126D01*
X84535556Y-126803105D01*
X84705074Y-126689837D01*
X84849237Y-126545674D01*
X84962505Y-126376156D01*
X85040526Y-126187798D01*
X85080300Y-125987839D01*
X85080300Y-125783961D01*
X85040526Y-125584002D01*
X84962505Y-125395644D01*
X84849237Y-125226126D01*
X84741456Y-125118345D01*
X87707000Y-122152801D01*
X87707001Y-131011821D01*
G37*
%TD.AperFunction*%
D17*
X110623589Y-115825990D02*
X110702940Y-115858858D01*
X108788998Y-117772801D01*
X108760000Y-117796599D01*
X108736202Y-117825597D01*
X108736201Y-117825598D01*
X108665026Y-117912324D01*
X108594454Y-118044354D01*
X108550998Y-118187615D01*
X108536324Y-118336600D01*
X108540001Y-118373932D01*
X108540000Y-127937900D01*
X103047222Y-127937900D01*
X103009899Y-127934224D01*
X102972576Y-127937900D01*
X102972567Y-127937900D01*
X102860914Y-127948897D01*
X102717653Y-127992354D01*
X102585624Y-128062926D01*
X102585622Y-128062927D01*
X102585623Y-128062927D01*
X102498896Y-128134101D01*
X102498892Y-128134105D01*
X102469899Y-128157899D01*
X102446105Y-128186892D01*
X99527379Y-131105620D01*
X99330411Y-130974010D01*
X99060158Y-130862068D01*
X98773260Y-130805000D01*
X98480740Y-130805000D01*
X98193842Y-130862068D01*
X97923589Y-130974010D01*
X97680368Y-131136525D01*
X97473525Y-131343368D01*
X97357000Y-131517760D01*
X97240475Y-131343368D01*
X97033632Y-131136525D01*
X96790411Y-130974010D01*
X96520158Y-130862068D01*
X96233260Y-130805000D01*
X95940740Y-130805000D01*
X95653842Y-130862068D01*
X95383589Y-130974010D01*
X95140368Y-131136525D01*
X95008513Y-131268380D01*
X94986502Y-131195820D01*
X94927537Y-131085506D01*
X94848185Y-130988815D01*
X94751494Y-130909463D01*
X94641180Y-130850498D01*
X94521482Y-130814188D01*
X94397000Y-130801928D01*
X93832750Y-130805000D01*
X93674000Y-130963750D01*
X93674000Y-132163000D01*
X93694000Y-132163000D01*
X93694000Y-132417000D01*
X93674000Y-132417000D01*
X93674000Y-132437000D01*
X93420000Y-132437000D01*
X93420000Y-132417000D01*
X93400000Y-132417000D01*
X93400000Y-132163000D01*
X93420000Y-132163000D01*
X93420000Y-130963750D01*
X93261250Y-130805000D01*
X92697000Y-130801928D01*
X92572518Y-130814188D01*
X92452820Y-130850498D01*
X92342506Y-130909463D01*
X92245815Y-130988815D01*
X92166463Y-131085506D01*
X92107498Y-131195820D01*
X92085487Y-131268380D01*
X91953632Y-131136525D01*
X91710411Y-130974010D01*
X91440158Y-130862068D01*
X91153260Y-130805000D01*
X90860740Y-130805000D01*
X90573842Y-130862068D01*
X90439000Y-130917921D01*
X90439000Y-124014548D01*
X90462826Y-124050206D01*
X90669794Y-124257174D01*
X90913162Y-124419788D01*
X91183579Y-124531798D01*
X91470652Y-124588900D01*
X91763348Y-124588900D01*
X92050421Y-124531798D01*
X92320838Y-124419788D01*
X92564206Y-124257174D01*
X92771174Y-124050206D01*
X92933788Y-123806838D01*
X93038601Y-123553797D01*
X93038600Y-125089589D01*
X92994663Y-125133526D01*
X92881395Y-125303044D01*
X92803374Y-125491402D01*
X92763600Y-125691361D01*
X92763600Y-125895239D01*
X92803374Y-126095198D01*
X92881395Y-126283556D01*
X92994663Y-126453074D01*
X93138826Y-126597237D01*
X93308344Y-126710505D01*
X93496702Y-126788526D01*
X93696661Y-126828300D01*
X93900539Y-126828300D01*
X94100498Y-126788526D01*
X94288856Y-126710505D01*
X94302001Y-126701722D01*
X94302000Y-129268865D01*
X94298638Y-129303000D01*
X94312057Y-129439244D01*
X94351798Y-129570252D01*
X94416333Y-129690989D01*
X94503183Y-129796817D01*
X94609011Y-129883667D01*
X94729748Y-129948202D01*
X94860756Y-129987943D01*
X94997000Y-130001362D01*
X95031134Y-129998000D01*
X98362865Y-129998000D01*
X98397000Y-130001362D01*
X98431134Y-129998000D01*
X98431135Y-129998000D01*
X98533244Y-129987943D01*
X98664252Y-129948202D01*
X98784989Y-129883667D01*
X98890817Y-129796817D01*
X98977667Y-129690989D01*
X99042202Y-129570252D01*
X99081943Y-129439244D01*
X99095362Y-129303000D01*
X99092000Y-129268865D01*
X99092000Y-126337135D01*
X99095362Y-126303000D01*
X99081943Y-126166756D01*
X99042202Y-126035748D01*
X98977667Y-125915011D01*
X98890817Y-125809183D01*
X98784989Y-125722333D01*
X98664252Y-125657798D01*
X98533244Y-125618057D01*
X98431135Y-125608000D01*
X98397000Y-125604638D01*
X98362866Y-125608000D01*
X97519042Y-125608000D01*
X97942251Y-125432701D01*
X98372826Y-125145000D01*
X98739000Y-124778826D01*
X99026701Y-124348251D01*
X99224873Y-123869822D01*
X99325900Y-123361924D01*
X99325900Y-122956652D01*
X100291100Y-122956652D01*
X100291100Y-123249348D01*
X100348202Y-123536421D01*
X100460212Y-123806838D01*
X100622826Y-124050206D01*
X100829794Y-124257174D01*
X101073162Y-124419788D01*
X101343579Y-124531798D01*
X101630652Y-124588900D01*
X101923348Y-124588900D01*
X102210421Y-124531798D01*
X102480838Y-124419788D01*
X102724206Y-124257174D01*
X102931174Y-124050206D01*
X103093788Y-123806838D01*
X103205798Y-123536421D01*
X103262900Y-123249348D01*
X103262900Y-122956652D01*
X103205798Y-122669579D01*
X103093788Y-122399162D01*
X102931174Y-122155794D01*
X102724206Y-121948826D01*
X102480838Y-121786212D01*
X102210421Y-121674202D01*
X101923348Y-121617100D01*
X101630652Y-121617100D01*
X101343579Y-121674202D01*
X101073162Y-121786212D01*
X100829794Y-121948826D01*
X100622826Y-122155794D01*
X100460212Y-122399162D01*
X100348202Y-122669579D01*
X100291100Y-122956652D01*
X99325900Y-122956652D01*
X99325900Y-122844076D01*
X99224873Y-122336178D01*
X99026701Y-121857749D01*
X98739000Y-121427174D01*
X98372826Y-121061000D01*
X97942251Y-120773299D01*
X97544150Y-120608400D01*
X105150280Y-120608400D01*
X105187602Y-120612076D01*
X105224924Y-120608400D01*
X105224935Y-120608400D01*
X105336588Y-120597403D01*
X105479849Y-120553946D01*
X105611878Y-120483374D01*
X105727603Y-120388401D01*
X105751406Y-120359397D01*
X110420508Y-115690296D01*
X110623589Y-115825990D01*
%TA.AperFunction,Conductor*%
D18*
G36*
X110623589Y-115825990D02*
G01*
X110702940Y-115858858D01*
X108788998Y-117772801D01*
X108760000Y-117796599D01*
X108736202Y-117825597D01*
X108736201Y-117825598D01*
X108665026Y-117912324D01*
X108594454Y-118044354D01*
X108550998Y-118187615D01*
X108536324Y-118336600D01*
X108540001Y-118373932D01*
X108540000Y-127937900D01*
X103047222Y-127937900D01*
X103009899Y-127934224D01*
X102972576Y-127937900D01*
X102972567Y-127937900D01*
X102860914Y-127948897D01*
X102717653Y-127992354D01*
X102585624Y-128062926D01*
X102585622Y-128062927D01*
X102585623Y-128062927D01*
X102498896Y-128134101D01*
X102498892Y-128134105D01*
X102469899Y-128157899D01*
X102446105Y-128186892D01*
X99527379Y-131105620D01*
X99330411Y-130974010D01*
X99060158Y-130862068D01*
X98773260Y-130805000D01*
X98480740Y-130805000D01*
X98193842Y-130862068D01*
X97923589Y-130974010D01*
X97680368Y-131136525D01*
X97473525Y-131343368D01*
X97357000Y-131517760D01*
X97240475Y-131343368D01*
X97033632Y-131136525D01*
X96790411Y-130974010D01*
X96520158Y-130862068D01*
X96233260Y-130805000D01*
X95940740Y-130805000D01*
X95653842Y-130862068D01*
X95383589Y-130974010D01*
X95140368Y-131136525D01*
X95008513Y-131268380D01*
X94986502Y-131195820D01*
X94927537Y-131085506D01*
X94848185Y-130988815D01*
X94751494Y-130909463D01*
X94641180Y-130850498D01*
X94521482Y-130814188D01*
X94397000Y-130801928D01*
X93832750Y-130805000D01*
X93674000Y-130963750D01*
X93674000Y-132163000D01*
X93694000Y-132163000D01*
X93694000Y-132417000D01*
X93674000Y-132417000D01*
X93674000Y-132437000D01*
X93420000Y-132437000D01*
X93420000Y-132417000D01*
X93400000Y-132417000D01*
X93400000Y-132163000D01*
X93420000Y-132163000D01*
X93420000Y-130963750D01*
X93261250Y-130805000D01*
X92697000Y-130801928D01*
X92572518Y-130814188D01*
X92452820Y-130850498D01*
X92342506Y-130909463D01*
X92245815Y-130988815D01*
X92166463Y-131085506D01*
X92107498Y-131195820D01*
X92085487Y-131268380D01*
X91953632Y-131136525D01*
X91710411Y-130974010D01*
X91440158Y-130862068D01*
X91153260Y-130805000D01*
X90860740Y-130805000D01*
X90573842Y-130862068D01*
X90439000Y-130917921D01*
X90439000Y-124014548D01*
X90462826Y-124050206D01*
X90669794Y-124257174D01*
X90913162Y-124419788D01*
X91183579Y-124531798D01*
X91470652Y-124588900D01*
X91763348Y-124588900D01*
X92050421Y-124531798D01*
X92320838Y-124419788D01*
X92564206Y-124257174D01*
X92771174Y-124050206D01*
X92933788Y-123806838D01*
X93038601Y-123553797D01*
X93038600Y-125089589D01*
X92994663Y-125133526D01*
X92881395Y-125303044D01*
X92803374Y-125491402D01*
X92763600Y-125691361D01*
X92763600Y-125895239D01*
X92803374Y-126095198D01*
X92881395Y-126283556D01*
X92994663Y-126453074D01*
X93138826Y-126597237D01*
X93308344Y-126710505D01*
X93496702Y-126788526D01*
X93696661Y-126828300D01*
X93900539Y-126828300D01*
X94100498Y-126788526D01*
X94288856Y-126710505D01*
X94302001Y-126701722D01*
X94302000Y-129268865D01*
X94298638Y-129303000D01*
X94312057Y-129439244D01*
X94351798Y-129570252D01*
X94416333Y-129690989D01*
X94503183Y-129796817D01*
X94609011Y-129883667D01*
X94729748Y-129948202D01*
X94860756Y-129987943D01*
X94997000Y-130001362D01*
X95031134Y-129998000D01*
X98362865Y-129998000D01*
X98397000Y-130001362D01*
X98431134Y-129998000D01*
X98431135Y-129998000D01*
X98533244Y-129987943D01*
X98664252Y-129948202D01*
X98784989Y-129883667D01*
X98890817Y-129796817D01*
X98977667Y-129690989D01*
X99042202Y-129570252D01*
X99081943Y-129439244D01*
X99095362Y-129303000D01*
X99092000Y-129268865D01*
X99092000Y-126337135D01*
X99095362Y-126303000D01*
X99081943Y-126166756D01*
X99042202Y-126035748D01*
X98977667Y-125915011D01*
X98890817Y-125809183D01*
X98784989Y-125722333D01*
X98664252Y-125657798D01*
X98533244Y-125618057D01*
X98431135Y-125608000D01*
X98397000Y-125604638D01*
X98362866Y-125608000D01*
X97519042Y-125608000D01*
X97942251Y-125432701D01*
X98372826Y-125145000D01*
X98739000Y-124778826D01*
X99026701Y-124348251D01*
X99224873Y-123869822D01*
X99325900Y-123361924D01*
X99325900Y-122956652D01*
X100291100Y-122956652D01*
X100291100Y-123249348D01*
X100348202Y-123536421D01*
X100460212Y-123806838D01*
X100622826Y-124050206D01*
X100829794Y-124257174D01*
X101073162Y-124419788D01*
X101343579Y-124531798D01*
X101630652Y-124588900D01*
X101923348Y-124588900D01*
X102210421Y-124531798D01*
X102480838Y-124419788D01*
X102724206Y-124257174D01*
X102931174Y-124050206D01*
X103093788Y-123806838D01*
X103205798Y-123536421D01*
X103262900Y-123249348D01*
X103262900Y-122956652D01*
X103205798Y-122669579D01*
X103093788Y-122399162D01*
X102931174Y-122155794D01*
X102724206Y-121948826D01*
X102480838Y-121786212D01*
X102210421Y-121674202D01*
X101923348Y-121617100D01*
X101630652Y-121617100D01*
X101343579Y-121674202D01*
X101073162Y-121786212D01*
X100829794Y-121948826D01*
X100622826Y-122155794D01*
X100460212Y-122399162D01*
X100348202Y-122669579D01*
X100291100Y-122956652D01*
X99325900Y-122956652D01*
X99325900Y-122844076D01*
X99224873Y-122336178D01*
X99026701Y-121857749D01*
X98739000Y-121427174D01*
X98372826Y-121061000D01*
X97942251Y-120773299D01*
X97544150Y-120608400D01*
X105150280Y-120608400D01*
X105187602Y-120612076D01*
X105224924Y-120608400D01*
X105224935Y-120608400D01*
X105336588Y-120597403D01*
X105479849Y-120553946D01*
X105611878Y-120483374D01*
X105727603Y-120388401D01*
X105751406Y-120359397D01*
X110420508Y-115690296D01*
X110623589Y-115825990D01*
G37*
%TD.AperFunction*%
D17*
X80974000Y-114383000D02*
X80994000Y-114383000D01*
X80994000Y-114637000D01*
X80974000Y-114637000D01*
X80974000Y-114657000D01*
X80720000Y-114657000D01*
X80720000Y-114637000D01*
X80700000Y-114637000D01*
X80700000Y-114383000D01*
X80720000Y-114383000D01*
X80720000Y-114363000D01*
X80974000Y-114363000D01*
X80974000Y-114383000D01*
%TA.AperFunction,Conductor*%
D18*
G36*
X80974000Y-114383000D02*
G01*
X80994000Y-114383000D01*
X80994000Y-114637000D01*
X80974000Y-114637000D01*
X80974000Y-114657000D01*
X80720000Y-114657000D01*
X80720000Y-114637000D01*
X80700000Y-114637000D01*
X80700000Y-114383000D01*
X80720000Y-114383000D01*
X80720000Y-114363000D01*
X80974000Y-114363000D01*
X80974000Y-114383000D01*
G37*
%TD.AperFunction*%
D17*
X93962401Y-113024294D02*
X93832750Y-113025000D01*
X93674000Y-113183750D01*
X93674000Y-114383000D01*
X93694000Y-114383000D01*
X93694000Y-114637000D01*
X93674000Y-114637000D01*
X93674000Y-114657000D01*
X93420000Y-114657000D01*
X93420000Y-114637000D01*
X93400000Y-114637000D01*
X93400000Y-114383000D01*
X93420000Y-114383000D01*
X93420000Y-113183750D01*
X93261250Y-113025000D01*
X92697000Y-113021928D01*
X92572518Y-113034188D01*
X92452820Y-113070498D01*
X92342506Y-113129463D01*
X92245815Y-113208815D01*
X92166463Y-113305506D01*
X92107498Y-113415820D01*
X92085487Y-113488380D01*
X91953632Y-113356525D01*
X91710411Y-113194010D01*
X91440158Y-113082068D01*
X91153260Y-113025000D01*
X90860740Y-113025000D01*
X90573842Y-113082068D01*
X90303589Y-113194010D01*
X90060368Y-113356525D01*
X89853525Y-113563368D01*
X89737000Y-113737760D01*
X89702610Y-113686291D01*
X93962400Y-109426501D01*
X93962401Y-113024294D01*
%TA.AperFunction,Conductor*%
D18*
G36*
X93962401Y-113024294D02*
G01*
X93832750Y-113025000D01*
X93674000Y-113183750D01*
X93674000Y-114383000D01*
X93694000Y-114383000D01*
X93694000Y-114637000D01*
X93674000Y-114637000D01*
X93674000Y-114657000D01*
X93420000Y-114657000D01*
X93420000Y-114637000D01*
X93400000Y-114637000D01*
X93400000Y-114383000D01*
X93420000Y-114383000D01*
X93420000Y-113183750D01*
X93261250Y-113025000D01*
X92697000Y-113021928D01*
X92572518Y-113034188D01*
X92452820Y-113070498D01*
X92342506Y-113129463D01*
X92245815Y-113208815D01*
X92166463Y-113305506D01*
X92107498Y-113415820D01*
X92085487Y-113488380D01*
X91953632Y-113356525D01*
X91710411Y-113194010D01*
X91440158Y-113082068D01*
X91153260Y-113025000D01*
X90860740Y-113025000D01*
X90573842Y-113082068D01*
X90303589Y-113194010D01*
X90060368Y-113356525D01*
X89853525Y-113563368D01*
X89737000Y-113737760D01*
X89702610Y-113686291D01*
X93962400Y-109426501D01*
X93962401Y-113024294D01*
G37*
%TD.AperFunction*%
%TD*%
M02*
