M48
; DRILL file {KiCad (5.1.10)-1} date 12/07/21 13:13:37
; FORMAT={-:-/ absolute / inch / decimal}
; #@! TF.CreationDate,2021-12-07T13:13:37+09:00
; #@! TF.GenerationSoftware,Kicad,Pcbnew,(5.1.10)-1
; #@! TF.FileFunction,NonPlated,1,2,NPTH
FMAT,2
INCH
T1C0.0670
T2C0.1181
T3C0.1570
%
G90
G05
T1
X2.1109Y-3.7836
X2.1109Y-4.8466
X2.5109Y-3.7836
X2.5109Y-4.8466
X2.8589Y-3.7836
X2.8589Y-4.8466
X3.2589Y-3.7836
X3.2589Y-4.8466
X3.607Y-3.7836
X3.607Y-4.8466
X4.007Y-3.7836
X4.007Y-4.8466
X4.355Y-4.8466
X4.755Y-4.8466
T2
X2.1609Y-3.6836
X2.1609Y-4.7466
X2.4109Y-3.5836
X2.4109Y-4.6466
X2.9089Y-3.6836
X2.9089Y-4.7466
X3.1589Y-3.5836
X3.1589Y-4.6466
X3.657Y-3.6836
X3.657Y-4.7466
X3.907Y-3.5836
X3.907Y-4.6466
X4.405Y-4.7466
X4.655Y-4.6466
T3
X2.3109Y-3.7836
X2.3109Y-4.8466
X3.0589Y-3.7836
X3.0589Y-4.8466
X3.807Y-3.7836
X3.807Y-4.8466
X4.555Y-4.8466
T0
M30
