%TF.GenerationSoftware,KiCad,Pcbnew,(5.1.10)-1*%
%TF.CreationDate,2021-12-06T23:58:13+09:00*%
%TF.ProjectId,MACRO-PAD-v0.1,4d414352-4f2d-4504-9144-2d76302e312e,rev?*%
%TF.SameCoordinates,Original*%
%TF.FileFunction,Soldermask,Top*%
%TF.FilePolarity,Negative*%
%FSLAX46Y46*%
G04 Gerber Fmt 4.6, Leading zero omitted, Abs format (unit mm)*
G04 Created by KiCad (PCBNEW (5.1.10)-1) date 2021-12-06 23:58:13*
%MOMM*%
%LPD*%
G01*
G04 APERTURE LIST*
%ADD10C,1.700000*%
%ADD11C,5.161000*%
%ADD12C,1.800000*%
%ADD13C,1.701800*%
%ADD14C,3.987800*%
%ADD15C,3.000000*%
%ADD16O,1.700000X1.700000*%
%ADD17R,1.700000X1.700000*%
G04 APERTURE END LIST*
D10*
%TO.C,U9*%
X79577000Y-72562510D03*
X79577000Y-75102510D03*
X94817000Y-75102510D03*
X94817000Y-72562510D03*
X79577000Y-84423500D03*
X82117000Y-84423500D03*
X84657000Y-84423500D03*
X87197000Y-84423500D03*
X89737000Y-84423500D03*
X92277000Y-84423500D03*
X94817000Y-84423500D03*
%TD*%
D11*
%TO.C,U8*%
X114100000Y-101500000D03*
X114100000Y-90300000D03*
D12*
X106600000Y-95900000D03*
X106600000Y-98400000D03*
X106600000Y-93400000D03*
X121100000Y-98400000D03*
X121100000Y-93400000D03*
%TD*%
D13*
%TO.C,U7*%
X110617000Y-123103000D03*
X120777000Y-123103000D03*
D14*
X115697000Y-123103000D03*
D15*
X111887000Y-120563000D03*
X118237000Y-118023000D03*
%TD*%
D13*
%TO.C,U6*%
X91617000Y-123103000D03*
X101777000Y-123103000D03*
D14*
X96697000Y-123103000D03*
D15*
X92887000Y-120563000D03*
X99237000Y-118023000D03*
%TD*%
D13*
%TO.C,U5*%
X72617000Y-123103000D03*
X82777000Y-123103000D03*
D14*
X77697000Y-123103000D03*
D15*
X73887000Y-120563000D03*
X80237000Y-118023000D03*
%TD*%
D13*
%TO.C,U4*%
X53617000Y-123103000D03*
X63777000Y-123103000D03*
D14*
X58697000Y-123103000D03*
D15*
X54887000Y-120563000D03*
X61237000Y-118023000D03*
%TD*%
D13*
%TO.C,U3*%
X91617000Y-96103000D03*
X101777000Y-96103000D03*
D14*
X96697000Y-96103000D03*
D15*
X92887000Y-93563000D03*
X99237000Y-91023000D03*
%TD*%
D13*
%TO.C,U2*%
X72617000Y-96103000D03*
X82777000Y-96103000D03*
D14*
X77697000Y-96103000D03*
D15*
X73887000Y-93563000D03*
X80237000Y-91023000D03*
%TD*%
D13*
%TO.C,U1*%
X53617000Y-96103000D03*
X63777000Y-96103000D03*
D14*
X58697000Y-96103000D03*
D15*
X54887000Y-93563000D03*
X61237000Y-91023000D03*
%TD*%
D16*
%TO.C,J1*%
X111327000Y-114510000D03*
X108787000Y-114510000D03*
D17*
X106247000Y-114510000D03*
D16*
X103707000Y-114510000D03*
X101167000Y-114510000D03*
X98627000Y-114510000D03*
X96087000Y-114510000D03*
D17*
X93547000Y-114510000D03*
D16*
X91007000Y-114510000D03*
X88467000Y-114510000D03*
X85927000Y-114510000D03*
X83387000Y-114510000D03*
D17*
X80847000Y-114510000D03*
D16*
X78307000Y-114510000D03*
X75767000Y-114510000D03*
X73227000Y-114510000D03*
X70687000Y-114510000D03*
D17*
X68147000Y-114510000D03*
D16*
X65607000Y-114510000D03*
X63067000Y-114510000D03*
X63067000Y-132290000D03*
X65607000Y-132290000D03*
D17*
X68147000Y-132290000D03*
D16*
X70687000Y-132290000D03*
X73227000Y-132290000D03*
X75767000Y-132290000D03*
X78307000Y-132290000D03*
D17*
X80847000Y-132290000D03*
D16*
X83387000Y-132290000D03*
X85927000Y-132290000D03*
X88467000Y-132290000D03*
X91007000Y-132290000D03*
D17*
X93547000Y-132290000D03*
D16*
X96087000Y-132290000D03*
X98627000Y-132290000D03*
X101167000Y-132290000D03*
X103707000Y-132290000D03*
D17*
X106247000Y-132290000D03*
D16*
X108787000Y-132290000D03*
X111327000Y-132290000D03*
%TD*%
M02*
