%TF.GenerationSoftware,KiCad,Pcbnew,(5.1.10)-1*%
%TF.CreationDate,2021-12-06T23:58:12+09:00*%
%TF.ProjectId,MACRO-PAD-v0.1,4d414352-4f2d-4504-9144-2d76302e312e,rev?*%
%TF.SameCoordinates,Original*%
%TF.FileFunction,Paste,Bot*%
%TF.FilePolarity,Positive*%
%FSLAX46Y46*%
G04 Gerber Fmt 4.6, Leading zero omitted, Abs format (unit mm)*
G04 Created by KiCad (PCBNEW (5.1.10)-1) date 2021-12-06 23:58:12*
%MOMM*%
%LPD*%
G01*
G04 APERTURE LIST*
%ADD10R,1.800000X0.820000*%
%ADD11R,2.550000X2.500000*%
%ADD12R,1.200000X0.900000*%
G04 APERTURE END LIST*
D10*
%TO.C,U7*%
X113197000Y-127053000D03*
X113197000Y-128553000D03*
X118197000Y-128553000D03*
X118197000Y-127053000D03*
D11*
X108137000Y-120563000D03*
X121987000Y-118023000D03*
%TD*%
D10*
%TO.C,U6*%
X94197000Y-127053000D03*
X94197000Y-128553000D03*
X99197000Y-128553000D03*
X99197000Y-127053000D03*
D11*
X89137000Y-120563000D03*
X102987000Y-118023000D03*
%TD*%
D10*
%TO.C,U5*%
X75197000Y-127053000D03*
X75197000Y-128553000D03*
X80197000Y-128553000D03*
X80197000Y-127053000D03*
D11*
X70137000Y-120563000D03*
X83987000Y-118023000D03*
%TD*%
D10*
%TO.C,U4*%
X56197000Y-127053000D03*
X56197000Y-128553000D03*
X61197000Y-128553000D03*
X61197000Y-127053000D03*
D11*
X51137000Y-120563000D03*
X64987000Y-118023000D03*
%TD*%
D10*
%TO.C,U3*%
X94197000Y-100053000D03*
X94197000Y-101553000D03*
X99197000Y-101553000D03*
X99197000Y-100053000D03*
D11*
X89137000Y-93563000D03*
X102987000Y-91023000D03*
%TD*%
D10*
%TO.C,U2*%
X75197000Y-100053000D03*
X75197000Y-101553000D03*
X80197000Y-101553000D03*
X80197000Y-100053000D03*
D11*
X70137000Y-93563000D03*
X83987000Y-91023000D03*
%TD*%
D10*
%TO.C,U1*%
X56197000Y-100053000D03*
X56197000Y-101553000D03*
X61197000Y-101553000D03*
X61197000Y-100053000D03*
D11*
X51137000Y-93563000D03*
X64987000Y-91023000D03*
%TD*%
D12*
%TO.C,D8*%
X119400000Y-101100000D03*
X119400000Y-104400000D03*
%TD*%
%TO.C,D7*%
X109300000Y-126600000D03*
X109300000Y-129900000D03*
%TD*%
%TO.C,D6*%
X90300000Y-126650000D03*
X90300000Y-129950000D03*
%TD*%
%TO.C,D5*%
X71300000Y-126700000D03*
X71300000Y-130000000D03*
%TD*%
%TO.C,D4*%
X52300000Y-126650000D03*
X52300000Y-129950000D03*
%TD*%
%TO.C,D3*%
X90300000Y-99650000D03*
X90300000Y-102950000D03*
%TD*%
%TO.C,D2*%
X71300000Y-99600000D03*
X71300000Y-102900000D03*
%TD*%
%TO.C,D1*%
X52300000Y-99650000D03*
X52300000Y-102950000D03*
%TD*%
M02*
