%TF.GenerationSoftware,KiCad,Pcbnew,(5.1.10)-1*%
%TF.CreationDate,2021-12-06T23:58:13+09:00*%
%TF.ProjectId,MACRO-PAD-v0.1,4d414352-4f2d-4504-9144-2d76302e312e,rev?*%
%TF.SameCoordinates,Original*%
%TF.FileFunction,Profile,NP*%
%FSLAX46Y46*%
G04 Gerber Fmt 4.6, Leading zero omitted, Abs format (unit mm)*
G04 Created by KiCad (PCBNEW (5.1.10)-1) date 2021-12-06 23:58:13*
%MOMM*%
%LPD*%
G01*
G04 APERTURE LIST*
%TA.AperFunction,Profile*%
%ADD10C,0.200000*%
%TD*%
%TA.AperFunction,Profile*%
%ADD11C,0.120000*%
%TD*%
G04 APERTURE END LIST*
D10*
X56297000Y-142103000D02*
G75*
G03*
X56297000Y-142103000I-1600000J0D01*
G01*
X121297000Y-77103000D02*
G75*
G03*
X121297000Y-77103000I-1600000J0D01*
G01*
X122200000Y-149603000D02*
X52194000Y-149603000D01*
X122200000Y-69603000D02*
G75*
G02*
X127197000Y-74600000I0J-4997000D01*
G01*
X127197000Y-144606000D02*
G75*
G02*
X122200000Y-149603000I-4997000J0D01*
G01*
X52194000Y-149603000D02*
G75*
G02*
X47197000Y-144606000I0J4997000D01*
G01*
X47197000Y-74600000D02*
G75*
G02*
X52194000Y-69603000I4997000J0D01*
G01*
X127197000Y-74600000D02*
X127197000Y-144606000D01*
X121297000Y-142103000D02*
G75*
G03*
X121297000Y-142103000I-1600000J0D01*
G01*
X52194000Y-69603000D02*
X122200000Y-69603000D01*
X47197000Y-144606000D02*
X47197000Y-74600000D01*
X56297000Y-77103000D02*
G75*
G03*
X56297000Y-77103000I-1600000J0D01*
G01*
D11*
%TO.C,U7*%
X113997000Y-129303000D02*
X117397000Y-129303000D01*
X117397000Y-129303000D02*
X117397000Y-126303000D01*
X113997000Y-126303000D02*
X117397000Y-126303000D01*
X113997000Y-129303000D02*
X113997000Y-126303000D01*
%TO.C,U6*%
X94997000Y-129303000D02*
X98397000Y-129303000D01*
X98397000Y-129303000D02*
X98397000Y-126303000D01*
X94997000Y-126303000D02*
X98397000Y-126303000D01*
X94997000Y-129303000D02*
X94997000Y-126303000D01*
%TO.C,U5*%
X75997000Y-129303000D02*
X79397000Y-129303000D01*
X79397000Y-129303000D02*
X79397000Y-126303000D01*
X75997000Y-126303000D02*
X79397000Y-126303000D01*
X75997000Y-129303000D02*
X75997000Y-126303000D01*
%TO.C,U4*%
X56997000Y-129303000D02*
X60397000Y-129303000D01*
X60397000Y-129303000D02*
X60397000Y-126303000D01*
X56997000Y-126303000D02*
X60397000Y-126303000D01*
X56997000Y-129303000D02*
X56997000Y-126303000D01*
%TO.C,U3*%
X94997000Y-102303000D02*
X98397000Y-102303000D01*
X98397000Y-102303000D02*
X98397000Y-99303000D01*
X94997000Y-99303000D02*
X98397000Y-99303000D01*
X94997000Y-102303000D02*
X94997000Y-99303000D01*
%TO.C,U2*%
X75997000Y-102303000D02*
X79397000Y-102303000D01*
X79397000Y-102303000D02*
X79397000Y-99303000D01*
X75997000Y-99303000D02*
X79397000Y-99303000D01*
X75997000Y-102303000D02*
X75997000Y-99303000D01*
%TO.C,U1*%
X56997000Y-102303000D02*
X60397000Y-102303000D01*
X60397000Y-102303000D02*
X60397000Y-99303000D01*
X56997000Y-99303000D02*
X60397000Y-99303000D01*
X56997000Y-102303000D02*
X56997000Y-99303000D01*
%TD*%
M02*
